<?xml version="1.0" encoding="UTF-8" standalone="no"?>
<svg
   xmlns:dc="http://purl.org/dc/elements/1.1/"
   xmlns:cc="http://creativecommons.org/ns#"
   xmlns:rdf="http://www.w3.org/1999/02/22-rdf-syntax-ns#"
   xmlns:svg="http://www.w3.org/2000/svg"
   xmlns="http://www.w3.org/2000/svg"
   xmlns:sodipodi="http://sodipodi.sourceforge.net/DTD/sodipodi-0.dtd"
   xmlns:inkscape="http://www.inkscape.org/namespaces/inkscape"
   width="1280"
   height="1024"
   id="svg2"
   sodipodi:version="0.32"
   inkscape:version="0.48.4 r9939"
   sodipodi:docname="china_sheng.svg"
   inkscape:output_extension="org.inkscape.output.svg.inkscape"
   version="1.1">
  <metadata
     id="metadata62">
    <rdf:RDF>
      <cc:Work
         rdf:about="">
        <dc:format>image/svg+xml</dc:format>
        <dc:type
           rdf:resource="http://purl.org/dc/dcmitype/StillImage" />
      </cc:Work>
    </rdf:RDF>
  </metadata>
  <defs
     id="defs60">
    <inkscape:perspective
       sodipodi:type="inkscape:persp3d"
       inkscape:vp_x="0 : 296.5 : 1"
       inkscape:vp_y="0 : 1000 : 0"
       inkscape:vp_z="959 : 296.5 : 1"
       inkscape:persp3d-origin="479.5 : 197.66667 : 1"
       id="perspective64" />
  </defs>
  <sodipodi:namedview
     inkscape:window-height="1018"
     inkscape:window-width="1920"
     inkscape:pageshadow="2"
     inkscape:pageopacity="0.0"
     guidetolerance="10.0"
     gridtolerance="10.0"
     objecttolerance="10.0"
     borderopacity="1.0"
     bordercolor="#000000"
     pagecolor="#ffffff"
     id="base"
     showgrid="true"
     inkscape:zoom="0.70710678"
     inkscape:cx="45.680561"
     inkscape:cy="523.54688"
     inkscape:window-x="-8"
     inkscape:window-y="-8"
     inkscape:current-layer="svg2"
     showguides="true"
     inkscape:guide-bbox="true"
     inkscape:window-maximized="1" />
  <path
     style="fill:#d3d3d3;fill-opacity:1;stroke:#ffffff;stroke-width:1;stroke-miterlimit:4;stroke-opacity:1;stroke-dasharray:none"
     id="aomen"
     d="m 927.64975,882.79461 -2.03055,3.70575 c 0,0 1.88038,1.86769 4.18802,2.29705 2.30765,0.42939 4.21975,-1.04275 4.21975,-1.04275 l -6.37722,-4.96005 z"
     sodipodi:nodetypes="aomen"
     inkscape:connector-curvature="0" />
  <path
     style="fill:#d3d3d3;fill-opacity:1;stroke:#ffffff;stroke-width:1;stroke-miterlimit:4;stroke-opacity:1;stroke-dasharray:none"
     id="xianggang"
     d="m 937.6185,871.84234 7.17884,1.63502 7.30361,-5.41058 3.52387,9.69164 c 0,0 -11.67779,5.65381 -7.80706,3.77556 3.86651,-1.86979 -9.81642,-0.75089 -9.81642,-0.75089 l -1.76404,-7.30573 1.3812,-1.63502 z"
     sodipodi:nodetypes="xianggang"
     inkscape:connector-curvature="0" />
  <path
     style="fill:#d3d3d3;fill-opacity:1;stroke:#ffffff;stroke-width:1;stroke-miterlimit:4;stroke-opacity:1;stroke-dasharray:none"
     id="taiwan"
     d="m 1123.1028,791.88522 -6.8044,40.54543 -3.5196,12.83898 v 10.83596 l -3.0247,3.01831 -7.2994,-10.82747 -7.8113,-6.04513 -6.8002,-18.12898 c 0,0 -0.9539,-11.88719 0.7551,-16.3713 1.7112,-4.4799 11.3288,-29.71794 11.3288,-29.71794 l 13.3529,-11.33089 8.5686,4.02725 1.2542,21.15578 z"
     sodipodi:nodetypes="taiwan"
     inkscape:connector-curvature="0" />
  <path
     style="fill:#d3d3d3;fill-opacity:1;stroke:#ffffff;stroke-width:1;stroke-miterlimit:4;stroke-opacity:1;stroke-dasharray:none"
     id="05"
     d="m 881.83126,816.05935 4.79083,-3.52387 v -7.29729 l 2.51281,-2.26742 6.0472,0.49705 10.31987,4.78871 1.76403,-3.52595 -2.51281,-4.28319 0.74878,-3.01834 6.55273,-5.53961 11.58685,3.01835 6.54852,-4.02938 4.78872,4.79082 11.5868,-3.02254 2.26323,4.27473 -3.52386,4.78869 -6.04723,9.06981 v 2.2611 l 3.53232,2.52126 24.17622,-9.57108 8.56214,4.78872 2.51706,-2.51915 -2.51706,-5.28577 0.59226,-3.51752 15.77696,3.51752 3.02677,2.26742 4.27685,-0.50762 6.54425,8.31046 7.2994,15.86787 -4.7802,3.52599 -4.279,7.8028 -3.7776,1.26063 -3.51966,7.30786 -12.09021,6.03666 -4.79295,-2.51281 -3.01622,5.03829 v 1.76193 h -3.77978 -6.55277 l -6.04298,4.27896 -4.27473,-2.51281 -5.28789,3.5175 -13.35511,5.53961 -10.83169,-8.56639 -0.74878,6.80446 3.78189,10.32618 -9.827,4.02727 -5.28367,7.30151 -10.33676,2.51915 -5.53536,2.26956 h -10.82748 c 0,0 -1.83806,5.38307 -7.30363,7.30153 -5.46556,1.9121 -19.39175,6.79599 -19.39175,6.79599 l -9.56475,6.55276 -4.79081,4.78659 9.06768,14.60092 -6.04089,5.29 -7.29939,-0.5034 -8.57273,-15.61197 2.01785,-11.07919 v -5.29001 l 6.03664,-9.827 7.8155,-1.7577 -0.75086,-5.29 8.05662,-3.77555 1.00682,-9.0698 14.10385,-10.82747 -0.75087,-14.60515 10.82748,-13.84794 -0.50765,-5.28787 3.52386,-5.0362 -3.53866,-12.09867 z"
     sodipodi:nodetypes="05"
     inkscape:connector-curvature="0" />
  <path
     style="fill:#d3d3d3;fill-opacity:1;stroke:#ffffff;stroke-width:1;stroke-miterlimit:4;stroke-opacity:1;stroke-dasharray:none"
     id="06"
     d="m 700.51167,827.13853 7.80069,0.50975 8.5685,-7.81339 3.52807,2.26747 16.36495,6.80232 3.02259,-1.76615 0.49703,-5.53959 3.03104,-3.02258 23.17153,-15.11275 4.02512,4.79292 14.10385,4.27474 7.80706,-10.32832 3.52384,2.52126 h 5.5396 v -3.02678 l 7.30363,-2.52126 v -2.26109 l 3.02469,-3.02046 1.75979,0.4992 7.30364,-7.29943 6.04089,1.75982 6.04298,-8.31467 3.02891,6.55485 1.7598,-0.50341 9.57109,-9.06979 2.51279,0.50765 4.27476,-2.26955 7.81126,2.26955 v 8.56214 l 6.04088,1.25853 -1.75982,8.31046 -5.54804,9.07402 -2.5128,7.80068 h 2.5128 l 6.55909,-6.03666 5.53325,12.0839 4.28318,-3.02468 h 4.78026 l 3.52385,12.09234 -3.52385,5.04043 0.50765,5.28787 -10.82749,13.84791 0.75088,14.60515 -14.10386,10.82962 -1.00682,9.06343 -8.05662,3.77977 0.74876,5.2879 -7.81337,1.75769 -6.03455,9.82704 -15.8679,2.26534 -8.31257,-6.04091 -8.56426,-3.53018 -8.56427,8.56637 -8.79482,0.50975 -8.5833,0.49497 c 0,0 -23.25824,-12.98497 -19.39173,-10.82751 3.86651,2.15958 -3.52385,-9.5732 -3.52385,-9.5732 l 4.78238,-9.827 -5.53539,-4.02301 h -7.30786 l -1.7598,-2.01364 -7.80703,2.01364 -7.80916,-5.54172 3.02891,-8.56214 6.03878,-0.49709 2.26109,-1.76402 2.0242,-7.80494 -2.52128,-4.28108 -20.6545,-3.77554 -3.52808,-6.04088 h -6.03663 -5.53961 l -4.03148,-6.55485 0.52668,-3.53021 z"
     sodipodi:nodetypes="06"
     inkscape:connector-curvature="0" />
  <path
     style="fill:#d3d3d3;fill-opacity:1;stroke:#ffffff;stroke-width:1;stroke-miterlimit:4;stroke-opacity:1;stroke-dasharray:none"
     id="08"
     d="m 870.25079,953.31389 -10.82748,18.88834 v 8.31046 l -21.65496,17.63193 -22.41642,-7.80281 -4.2832,-15.86578 1.26275,-7.30574 c 0,0 17.07777,-17.07988 12.08813,-12.09023 -4.98543,4.98754 4.28318,-3.52174 4.28318,-3.52174 l 19.8888,-3.52808 9.07191,-0.75724 3.0162,-3.52384 6.56334,1.75983 3.00775,7.8049 z"
     sodipodi:nodetypes="08"
     inkscape:connector-curvature="0" />
  <path
     style="fill:#d3d3d3;fill-opacity:1;stroke:#ffffff;stroke-width:1;stroke-miterlimit:4;stroke-opacity:1;stroke-dasharray:none"
     id="29"
     d="m 717.38215,745.54851 -1.76828,-6.04512 -5.53748,-2.01786 -9.05921,5.54595 -6.04721,-3.02891 -0.50342,-7.80068 -3.02466,-3.78615 v -4.02511 l -8.56427,-2.01364 -2.26321,2.5128 1.26698,6.04724 -6.80446,3.02466 -1.76406,4.27474 1.76406,5.28788 -15.11491,17.63193 2.51916,20.65662 -7.30364,6.03665 -3.52385,-3.77343 -14.60938,8.56215 -5.53748,-3.02679 c 0,0 -24.39832,-46.75764 -21.15579,-40.55177 3.24254,6.21433 -8.31468,-6.03665 -8.31468,-6.03665 l -6.79599,-1.76403 -3.02889,-5.53961 3.77978,-6.04723 -6.04299,-4.78659 -7.30786,6.04723 -7.29942,1.26487 -4.78661,-21.91937 -1.26063,-5.28577 -7.30574,9.06556 -3.01833,1.75769 0.75301,13.85638 -1.76404,3.02678 h -3.77345 l -3.02468,-3.02678 -3.52594,4.28531 3.52594,15.61197 h 4.28109 l 3.52596,2.51703 c 0,0 0.98989,5.06792 1.25642,9.56262 0.26437,4.4947 -1.76193,33.24814 -1.76193,33.24814 l -22.92195,20.65661 -1.25641,7.80281 -4.28106,3.77978 -0.50341,4.02512 3.53019,9.82068 -3.02678,7.30576 1.76402,1.01102 11.58683,-3.03101 16.36708,-1.00679 -1.76406,6.55274 3.02681,6.043 1.00469,9.06767 2.01997,3.01622 9.56896,0.51397 4.28108,3.01411 -4.7887,6.04088 -0.75301,7.30361 -3.52596,8.56639 2.25899,3.02466 6.04934,0.50342 10.3241,3.77345 -1.2543,3.52594 6.79387,10.32409 h 9.56895 l 12.09024,-6.79601 3.77769,2.01364 v 4.03149 l 1.7598,6.04088 3.02888,3.02256 6.54008,-1.00892 2.52128,1.76403 2.26742,-2.52126 v -9.57109 l -4.03149,-17.62558 3.02678,-5.2879 h 10.07239 2.52126 l 5.54171,-6.79599 14.34711,4.78238 6.04511,-5.29425 3.02678,3.0289 6.04511,-3.77766 5.53115,5.53746 h 2.26955 l 2.01577,-3.02044 4.78235,-4.78659 2.26955,1.76192 6.79601,-1.25853 6.55486,-5.2921 5.53959,-8.06085 7.80068,-1.75769 4.27895,4.27471 3.02469,-8.56215 6.043,-0.49705 2.2611,-1.76405 2.02422,-7.80703 -2.52126,-4.27896 -20.65452,-3.77555 -3.52807,-6.04302 h -6.03665 -5.5396 l -4.03149,-6.55061 0.50765,-3.52175 2.5128,-14.60937 -8.05662,-7.80281 6.04724,-25.43899 -4.03573,-3.52595 -13.34453,4.0315 -3.02677,-5.29002 v -6.04088 l -3.02046,-3.02467 6.54431,-9.06555 7.30363,2.26318 3.02466,-3.02253 13.35298,2.01151 6.04088,-2.01151 3.54078,-10.05969 z"
     sodipodi:nodetypes="29"
     inkscape:connector-curvature="0" />
  <path
     style="fill:#d3d3d3;fill-opacity:1;stroke:#ffffff;stroke-width:1;stroke-miterlimit:4;stroke-opacity:1;stroke-dasharray:none"
     id="03"
     d="m 976.11432,799.44902 c 0,0 6.09377,-26.45636 3.68461,-21.92359 -2.40494,4.53489 3.53654,-5.54172 3.53654,-5.54172 l 1.75557,-6.03663 4.27895,-9.06556 -2.26744,-3.52807 0.50765,-7.80705 10.32407,-11.58049 -0.75511,-7.80703 6.80024,-11.58683 6.5464,1.76406 13.3487,-9.56896 2.5234,-4.78028 7.8049,1.25431 4.2832,10.82538 3.5239,7.30572 h 8.56 l 5.2837,-6.80023 7.8112,7.80494 13.6512,-4.8141 -8.6065,20.67775 -5.0447,-2.52126 -3.5238,1.76615 -0.5034,2.01786 4.7845,5.29001 -1.2649,18.88623 1.2649,6.04722 -1.2649,1.76405 -5.5354,-1.26698 -3.528,3.52597 2.5191,5.04252 -6.7981,6.54643 1.2585,2.5149 -6.5506,3.52173 1.011,4.78871 -2.2674,2.51915 h -9.0635 l -4.7887,4.28319 -0.7551,1.75982 4.279,3.02046 -4.7803,7.30148 -6.0472,7.80706 -2.5149,-0.75298 -6.557,6.80232 -7.291,-15.8679 -6.5527,-8.31044 -4.27897,0.50765 -3.02468,-2.26747 -15.77693,-3.5175 z"
     sodipodi:nodetypes="03"
     inkscape:connector-curvature="0" />
  <path
     style="fill:#d3d3d3;fill-opacity:1;stroke:#ffffff;stroke-width:1;stroke-miterlimit:4;stroke-opacity:1;stroke-dasharray:none"
     id="16"
     d="m 917.59644,694.67057 7.05616,13.85214 0.75088,7.30154 -3.77556,7.30572 -5.29213,4.28108 -1.25641,13.08858 1.75982,2.01999 3.02467,-1.26063 1.76405,1.26063 v 8.30621 l 3.77556,9.82913 4.28529,1.75769 0.49496,14.3598 -2.52339,9.81853 2.52339,4.27476 4.79294,4.79081 11.57836,-3.02256 2.26533,4.27685 -3.52175,4.78659 -6.04722,9.06766 v 2.26323 l 3.53231,2.52126 24.17623,-9.57106 8.56005,4.78657 2.51913,-2.51702 -2.51913,-5.28576 0.59434,-3.51752 3.68461,-21.9236 3.53231,-5.54168 1.7598,-6.03668 4.2832,-9.06554 -2.26745,-3.52808 0.50341,-7.80703 10.32407,-11.58049 -0.75088,-7.80704 6.79601,-11.58682 6.5464,1.76404 13.3487,-9.56895 2.5234,-4.78661 -8.5643,-15.86578 -5.5395,-7.80493 4.0209,-3.84534 -5.0362,-4.46509 h -12.83901 l -5.28788,-6.03878 -10.33045,10.07238 -3.7734,-1.76618 4.28105,-7.8049 -0.50765,-2.5128 -3.7734,-1.01319 -12.09025,6.55489 -9.56897,3.02256 -7.8028,-0.50342 c 0,0 -20.53606,20.45144 -16.87683,15.61197 3.66132,-4.83738 -9.06766,3.031 -9.06766,3.031 l -6.04511,6.02187 z"
     sodipodi:nodetypes="16"
     inkscape:connector-curvature="0" />
  <path
     style="fill:#d3d3d3;fill-opacity:1;stroke:#ffffff;stroke-width:1;stroke-miterlimit:4;stroke-opacity:1;stroke-dasharray:none"
     id="13"
     d="m 917.59644,694.67057 -5.5396,-1.2564 -2.51281,-3.52597 v -8.56638 l -3.02466,-4.28532 -6.04301,6.04936 -3.02468,4.27897 h -4.02727 l -1.25638,-6.54855 -5.54382,1.76195 -7.29941,4.7866 -4.7887,-3.02048 c 0,0 -5.63899,-5.33228 -9.57109,-6.5506 -3.92784,-1.21834 -27.95602,-1.75983 -27.95602,-1.75983 l -3.02466,3.02256 5.54171,6.54218 -6.54853,4.2853 -10.32829,-4.2853 -10.82326,9.06766 -3.77979,8.56639 c 0,0 -0.40186,13.70411 0.75511,19.89303 1.16545,6.18896 5.28789,21.15581 5.28789,21.15581 l -12.09233,13.34661 1.26063,1.76193 10.8317,-3.02045 3.77557,4.7866 -3.02256,15.11067 6.04298,10.83172 6.04089,1.75983 6.04301,-8.31468 3.02467,6.55485 1.76403,-0.50341 9.56686,-9.06979 2.51913,0.50765 4.27476,-2.26958 7.81126,2.26958 v 8.56214 l 6.04088,1.25852 -1.75982,8.31044 -5.54804,9.07401 -2.5128,7.8007 h 2.5128 l 6.56331,-6.03664 5.53539,12.08389 4.27471,-3.02466 h 4.78872 l 4.78659,-3.52387 v -7.29729 l 2.5128,-2.26745 6.04723,0.49707 10.31987,4.78872 1.76403,-3.52596 -2.51281,-4.27898 0.74878,-3.02256 6.55273,-5.53958 11.58682,3.02045 6.54853,-4.03149 -2.52337,-4.27474 2.52337,-9.81855 -0.49496,-14.35979 -4.28529,-1.7577 -3.77555,-9.82912 v -8.30622 l -1.76403,-1.26065 -3.0247,1.26065 -1.7598,-2.01998 1.25639,-13.08858 5.29214,-4.28106 3.77555,-7.30575 -0.75087,-7.30152 -7.05193,-13.86696 z"
     sodipodi:nodetypes="13"
     inkscape:connector-curvature="0" />
  <path
     style="fill:#d3d3d3;fill-opacity:1;stroke:#ffffff;stroke-width:1;stroke-miterlimit:4;stroke-opacity:1;stroke-dasharray:none"
     id="07"
     d="m 717.38215,745.54851 -3.52384,10.07025 -6.04088,2.01153 -13.35301,-2.01153 -3.02466,3.02256 -7.30364,-2.2632 -6.54427,9.06554 3.02043,3.02468 v 6.04088 l 3.02679,5.29001 13.34451,-4.03148 4.03573,3.52596 -6.04724,25.43899 8.05876,7.80278 -2.51282,14.6094 7.80069,0.5034 8.56852,-7.8155 3.52808,2.26958 16.36495,6.80232 3.02254,-1.7598 0.49705,-5.54594 3.03103,-3.02258 23.17153,-15.11065 4.02517,4.79082 14.10385,4.27474 7.80278,-10.32832 3.52808,2.52126 h 5.53958 v -3.02888 l 7.30365,-2.51492 v -2.26533 l 3.02467,-3.02046 1.75983,0.5013 7.30361,-7.30153 -6.04299,-10.83593 3.02256,-15.10644 -3.77556,-4.7866 -10.83171,3.02044 -1.26064,-1.76402 12.09235,-13.34452 -5.28788,-21.15367 -8.05876,6.03875 -7.05191,-7.29727 -6.80024,-9.07404 -0.50762,-5.53959 -4.78025,-1.00891 -5.54382,1.76402 -9.06766,-4.28106 -4.27688,10.3283 -7.80701,0.50552 -5.53961,8.56428 -3.52386,-1.76406 -5.54804,1.76406 -8.30833,-4.79297 -6.79599,7.80494 v 3.52807 l 13.35086,7.30363 3.01622,5.54385 c 0,0 -12.88976,4.7485 -9.56688,3.52594 3.31447,-1.20988 -14.61782,-0.4886 -14.61782,-0.4886 z"
     sodipodi:nodetypes="07"
     inkscape:connector-curvature="0" />
  <path
     style="fill:#d3d3d3;fill-opacity:1;stroke:#ffffff;stroke-width:1;stroke-miterlimit:4;stroke-opacity:1;stroke-dasharray:none"
     id="30"
     d="m 1077.3203,717.55868 -13.6534,4.81408 -7.8112,-7.80493 -5.2837,6.80021 h -8.5642 l -3.5239,-7.30573 -4.279,-10.82537 -7.8091,-1.26063 -8.56,-15.86578 -5.5396,-7.80493 4.0251,-3.84534 1.5145,-1.44888 c 0,0 13.2006,-18.69798 9.0655,-12.83901 -4.133,5.85688 -0.5055,-10.32617 -0.5055,-10.32617 l 3.0247,-4.03149 7.0561,-1.25641 2.0115,-3.02468 -2.5149,-4.78659 3.5239,-5.03831 v -9.56896 l 5.0425,-2.51493 8.3083,5.0383 10.3199,1.76617 6.8214,-8.08834 8.4563,7.04767 -3.6888,2.80047 -4.2747,6.54853 -6.8045,2.01364 -2.2717,1.7619 6.5528,3.52387 12.0881,-5.28577 19.8952,8.31043 2.0157,16.87682 h -8.0566 l -0.5076,5.0383 4.281,7.0477 -3.7734,4.28108 4.2768,6.79811 -6.5485,7.80492 -3.0246,-3.77978 -9.8228,24.93346 -1.4616,3.49637 z"
     sodipodi:nodetypes="30"
     inkscape:connector-curvature="0" />
  <path
     style="fill:#d3d3d3;fill-opacity:1;stroke:#ffffff;stroke-width:1;stroke-miterlimit:4;stroke-opacity:1;stroke-dasharray:none"
     id="01"
     d="m 950.08098,542.30745 4.28108,-1.26276 13.35085,5.54384 c 0,0 3.73961,4.86274 6.05147,6.04088 2.30975,1.17814 10.82536,3.02468 10.82536,3.02468 l 4.27473,3.52595 6.04513,-1.01315 1.26697,2.26742 -2.02421,12.84748 6.04514,3.52385 2.5149,4.78661 9.0677,1.75768 3.5238,-6.03666 5.5438,0.753 3.5239,4.79084 -0.5076,4.27472 -10.8318,1.26063 v 4.78872 3.52174 l -4.2747,4.79081 3.0247,5.53747 9.0677,6.04089 0.5013,7.30575 18.1311,1.75979 v 9.57109 l -3.5239,5.0362 2.5192,4.7866 -2.0115,3.02466 -7.0604,1.2564 -3.0205,4.03149 0.4971,10.3262 -9.0634,12.84322 -1.5124,1.44467 -5.0362,-4.46512 h -12.83051 l -5.28366,-6.03875 -10.33042,10.07023 -3.77765,-1.76403 4.2853,-7.80493 -0.50765,-2.5128 -3.77765,-1.01315 -12.09446,6.55486 -11.32878,-21.66131 3.52383,-6.79811 -1.25851,-2.26533 -6.04511,-2.01363 -10.06815,-6.0451 4.02514,-8.30835 6.03878,-3.02467 1.26484,-6.79811 -2.26319,-12.09022 -1.26064,-1.01316 -6.04088,6.04934 c 0,0 -12.6444,-9.82912 -9.06766,-7.30363 3.57459,2.52126 -6.80446,-8.56427 -6.80446,-8.56427 l 6.80446,-4.78238 1.76403,-8.56638 4.27472,-3.02678 -0.74875,-11.3351 3.02466,-2.51281 5.53959,3.77979 3.51962,4.78022 7.30363,-4.78022 2.52126,-3.03315 -1.26485,-5.53537 -8.56428,-4.78659 -1.76192,-5.5417 z"
     sodipodi:nodetypes="01"
     inkscape:connector-curvature="0" />
  <path
     style="fill:#d3d3d3;fill-opacity:1;stroke:#ffffff;stroke-width:1;stroke-miterlimit:4;stroke-opacity:1;stroke-dasharray:none"
     id="24"
     d="m 1078.435,625.38443 -8.4564,-7.0477 c 0,0 1.8338,-0.79321 4.0145,-4.76124 2.1808,-3.96591 3.0163,-9.06555 3.0163,-9.06555 l 9.0676,3.78191 4.2874,6.03665 -3.031,4.28106 -8.8984,6.77487 z"
     sodipodi:nodetypes="24"
     inkscape:connector-curvature="0" />
  <path
     style="fill:#d3d3d3;fill-opacity:1;stroke:#ffffff;stroke-width:1;stroke-miterlimit:4;stroke-opacity:1;stroke-dasharray:none"
     id="15"
     d="m 1077.0094,604.50994 -3.0163,9.06555 -4.0145,4.76124 -6.8214,8.08834 -10.3198,-1.76615 -8.3105,-5.04042 -5.0404,2.51703 -18.129,-1.7598 -0.5034,-7.30576 -9.0677,-6.04088 -3.0204,-5.53746 4.2726,-4.78871 v -3.52174 -4.79506 l 10.8317,-1.25641 0.5076,-4.27897 -3.5238,-4.78657 -5.5438,-0.7509 -3.5239,6.03666 -9.0677,-1.75768 -2.5128,-4.78661 -6.04295,-3.52385 2.01996,-12.84748 -1.26485,-2.26742 -6.04723,1.01315 -4.27474,-3.52595 -10.82536,-3.02256 -6.05146,-6.043 -13.34029,-5.54384 1.25217,-6.04088 5.2879,-2.2611 9.8249,8.30623 h 3.03101 l 9.06134,-1.00682 5.28787,-4.27685 7.30364,6.04088 3.01833,-5.54169 0.75721,-3.02469 6.04305,-3.52597 1.764,-7.29729 6.0367,-1.26273 15.1191,10.32408 c 0,0 7.1175,1.59482 10.8232,4.2832 3.71,2.68833 20.6566,34.50451 20.6566,34.50451 l -0.7551,3.52385 13.8501,6.54643 3.7734,6.04721 6.5549,3.02255 3.0204,6.03878 -4.2789,2.01151 -7.052,-2.51279 h -9.8249 l -9.0676,-3.02891 -3.5239,3.02891 8.3168,2.51279 8.0651,3.53018 8.2851,3.52386 z"
     sodipodi:nodetypes="15"
     inkscape:connector-curvature="0" />
  <path
     style="fill:#d3d3d3;fill-opacity:1;stroke:#ffffff;stroke-width:1;stroke-miterlimit:4;stroke-opacity:1;stroke-dasharray:none"
     id="12"
     d="m 808.04617,703.23271 3.77979,-8.56214 10.82748,-9.06766 10.32407,4.28529 6.54853,-4.28529 -5.54384,-6.5422 3.02259,-3.03102 27.96022,1.76828 9.57109,6.55063 4.7887,3.0141 7.29941,-4.78025 5.5396,-1.76193 1.2606,6.54218 h 4.02727 l 3.02468,-4.27473 6.04088,-6.04933 3.02679,4.28742 v 8.56426 l 2.51703,3.52596 5.53958,1.25642 6.03879,-6.03668 9.06769,-3.03101 16.87682,-15.61197 7.80703,0.49917 9.56474,-3.02043 -11.33302,-21.6592 3.52808,-6.7981 -1.25429,-2.26533 -6.05358,-2.01365 -10.07024,-6.0451 -5.03619,-3.01832 -6.55274,3.01832 -7.29941,-6.03666 h -9.56896 l -7.30788,-4.0336 -1.75558,-6.04088 -3.77979,-3.77767 -5.28788,3.02044 -4.78448,-2.26956 c 0,0 -20.113,1.96074 -15.11489,2.26533 4.9981,0.30881 -16.36285,-3.52384 -16.36285,-3.52384 l -19.89726,-17.62772 -5.53959,4.27896 -2.5128,-1.7577 h -4.03362 -18.1311 l -2.51494,2.259 5.53961,5.54171 5.28789,1.25428 4.78024,1.77039 -2.25686,3.52808 -9.06769,4.27473 -1.76403,7.29941 1.76403,2.51913 1.26063,9.06979 5.2879,0.5034 5.53958,7.30154 2.26323,13.85004 -1.75981,4.78446 -3.52384,-1.25638 -10.32832,8.06297 -17.63193,3.02254 -4.78236,4.7866 3.77133,4.78449 0.50763,10.32618 4.78447,1.26487 12.08177,15.09798 z"
     sodipodi:nodetypes="12"
     inkscape:connector-curvature="0" />
  <path
     style="fill:#d3d3d3;fill-opacity:1;stroke:#ffffff;stroke-width:1;stroke-miterlimit:4;stroke-opacity:1;stroke-dasharray:none"
     id="27"
     d="m 376.63694,724.88979 14.35555,1.76405 4.79084,6.80234 2.51492,1.00893 21.65706,-4.02728 1.25642,-3.77978 4.27895,-2.2632 10.33043,-8.56639 9.06343,-1.25641 8.31256,-5.28999 16.37131,-9.06557 1.7598,3.02045 12.09024,4.02725 17.6277,-9.06341 5.53749,3.77977 -5.03197,7.30151 2.01362,1.76191 h 7.0477 l 0.75933,3.01834 -6.04298,10.83172 1.76193,1.76402 h 3.52385 l 17.63193,4.79084 7.80704,-6.55486 11.58681,9.07188 3.52599,-4.28529 3.02467,3.02679 h 3.77341 l 1.76406,-3.02679 -0.75301,-13.85216 3.02257,-1.76615 7.2994,-9.06132 -1.25641,-35.00372 -6.55486,-17.63403 4.79084,-3.52175 -13.85006,-25.43897 -16.87682,-13.34875 -4.78025,3.02468 0.5034,7.80914 -14.61149,18.89046 -24.17199,-5.04255 -1.76193,-9.06556 -15.11491,-12.09021 -33.2439,-5.28366 -14.35556,-2.5128 -5.53958,-0.50976 -12.58942,-10.32831 -26.19617,-6.04299 -18.12691,-35.00795 -0.50341,-9.81853 7.29943,-3.53655 v -10.82325 l 5.29211,-13.34876 -6.04512,-6.04512 8.06086,-6.54638 -5.04043,-3.0141 h -12.09022 l -21.65497,-9.82277 h -13.85214 l -10.82537,3.02466 h -12.08812 l -18.89045,10.31983 -15.11068,-1.76403 -15.1149,5.2879 -12.59362,-4.03149 -7.80071,-6.79389 -20.14897,-3.01832 -13.09704,9.05287 -7.29729,-3.01411 -6.04723,-4.7866 -14.61149,-3.52595 -2.25264,-2.51493 -6.043,-0.50129 -20.69046,12.5746 -22.02299,-2.74337 5.1356,9.30248 5.66861,4.21971 -1.73654,8.12643 -0.48861,7.94876 0.54149,5.6517 0,0 -0.40823,6.78542 7.29941,7.30575 0.50552,10.33042 -2.26745,4.0336 -10.82748,1.25005 -5.54382,-6.03666 -5.5396,0.75088 -1.00682,4.79084 3.02044,7.8007 1.01317,5.54169 v 7.04983 l -1.76192,5.03618 0.74875,4.03784 7.05617,0.753 3.77555,6.54428 16.36919,12.84109 v 4.0315 l 12.09023,13.34873 4.02302,4.7845 3.78613,1.25851 7.29941,-7.29939 6.54851,6.04088 c 0,0 32.56282,28.94379 27.70432,23.67494 -4.85851,-5.26886 5.03618,12.0881 5.03618,12.0881 h 6.04724 l 3.52596,-3.52172 3.0162,3.02045 v 10.82324 l 16.37342,9.06768 3.52598,-0.75511 2.51914,9.06766 13.85003,8.05876 0.5034,5.28998 2.5128,1.76617 12.09235,-0.50765 h 6.55277 l 9.82278,7.3121 21.65919,-0.75935 11.5826,-0.5055 3.02044,4.79082 -2.5128,10.32831 3.01831,3.5196 12.08814,-10.07025 15.11488,-11.08129 10.82961,2.00941 11.06015,6.54004 z"
     sodipodi:nodetypes="27"
     inkscape:connector-curvature="0" />
  <path
     style="fill:#d3d3d3;fill-opacity:1;stroke:#ffffff;stroke-width:1;stroke-miterlimit:4;stroke-opacity:1;stroke-dasharray:none"
     id="20"
     d="m 379.6595,503.77144 9.56684,3.52594 16.37553,-5.53535 -2.52337,-3.02255 h -4.27473 l -1.76405,-4.77815 1.25641,-4.28106 7.80915,-3.52808 5.53536,-9.06557 -16.87258,-13.85004 -0.75301,-14.60725 c 0,0 4.39953,-5.38308 7.8028,-6.04089 3.4033,-0.66204 55.66456,-10.82748 55.66456,-10.82748 l 3.77132,-3.02045 8.31468,1.2564 27.95177,6.54643 8.31256,4.79081 12.08601,7.29941 7.80914,-0.5013 12.08602,-7.30151 15.86578,2.5128 10.32619,-5.53323 21.14945,13.3445 11.33722,-4.27895 6.04088,14.60091 14.60938,9.06556 10.82748,9.5753 7.80706,-3.02679 15.11488,19.89305 3.01622,12.84111 5.53958,7.80069 -1.75981,15.11491 -12.0881,9.56896 2.26955,6.04088 -4.79081,4.7866 -6.04091,5.5417 v 10.31984 l -5.5438,4.28743 -6.55065,-2.01786 -5.53537,-5.28789 -3.02678,6.04722 3.77978,5.28578 9.56896,1.2564 9.06769,9.0698 h 5.53746 l 4.28109,4.79083 -3.77979,8.55791 v 0.50552 l -7.80068,-1.01314 -5.54384,4.02935 -3.52383,-6.04089 -9.56896,3.77555 -2.51705,4.78873 v 7.2994 l -9.56896,1.76826 -12.08813,-12.09022 -3.77978,-6.04088 -9.56896,3.02042 -16.36708,-4.78446 -24.68386,3.52383 -2.01363,2.51492 -2.26533,7.80494 -4.78659,3.02467 0.50341,7.80914 -14.60727,18.89048 -24.17624,-5.04043 -1.7619,-9.06346 -15.11491,-12.09445 -33.24391,-5.28364 -14.35345,-2.51704 -5.54382,-0.50341 -12.59151,-10.32829 -26.19407,-6.04301 -18.1269,-35.00794 -0.5034,-9.81856 7.2994,-3.53654 V 529.7138 l 5.29212,-13.35295 -6.04513,-6.04091 8.06722,-6.5485 z"
     sodipodi:nodetypes="20"
     inkscape:connector-curvature="0" />
  <path
     style="fill:#d3d3d3;fill-opacity:1;stroke:#ffffff;stroke-width:1;stroke-miterlimit:4;stroke-opacity:1;stroke-dasharray:none"
     id="04"
     d="m 469.57053,429.99268 -3.02468,-35.00582 1.76828,-7.30364 10.31984,-4.78446 c 0,0 11.01784,-10.63926 14.60092,-12.09235 3.5873,-1.45101 22.42063,-9.06345 22.42063,-9.06345 l 9.06346,-4.28319 v -8.56003 l 4.02939,-4.78449 3.78189,0.5013 15.11064,2.52126 -0.7572,6.5464 3.02468,10.32196 -1.76408,16.87473 12.84325,18.88621 6.55063,4.28531 10.3283,-8.06297 h 21.65285 l 5.54807,2.01574 3.02253,4.7887 -2.52336,5.28577 -12.086,9.82491 1.26273,4.78238 13.85218,10.32618 h 5.53746 l 1.76405,2.26323 -1.26063,4.28319 8.56637,6.80446 19.89091,3.02253 9.57109,-2.51703 12.09446,-12.09655 14.60094,1.26484 6.03875,9.06768 -3.51962,8.31044 1.0047,5.03831 -7.80071,4.78659 -3.52807,4.28107 1.26065,10.07449 13.84368,9.82702 6.08107,-1.3812 16.33958,20.00514 3.52808,15.11278 -1.76403,7.2994 11.33089,6.04725 v 4.78024 l 10.32829,2.52126 h 3.0162 v -8.56639 l 7.81128,-1.2585 2.01152,-10.07449 -5.5396,-4.28531 -4.2832,-4.27473 1.76407,-19.38752 4.27894,-2.26533 7.30363,3.02469 3.02891,-1.26487 1.76403,3.52596 19.38753,9.81219 10.3283,6.55698 1.75982,6.04089 -5.53959,7.80705 3.02679,9.06344 -1.76406,4.27473 -14.35131,1.26909 -3.03103,1.76193 1.01107,2.51915 v 4.02515 l -11.32668,1.25639 -6.04091,-3.02043 h -7.80702 l -1.26064,1.76404 1.26064,4.28105 -3.78403,4.27898 -1.25215,4.78449 7.29516,6.04298 -5.28365,10.82749 2.26744,5.54595 -0.50341,2.5128 h -8.56848 l -6.03667,3.03523 4.78027,6.53795 -3.02045,8.56849 -9.06767,2.26323 0.75511,4.27895 -2.51494,3.02046 -15.61616,-1.26066 -6.03668,-4.27471 -1.27119,-9.57107 -3.51962,-3.53021 -5.54171,3.53021 -9.56686,-9.56264 -7.30785,-5.04462 -0.74879,-7.05406 -2.27166,-5.53959 h -3.77979 l -15.11067,6.54854 0.75298,7.30571 h -5.53746 l -9.06766,-9.06979 -9.57109,-1.25427 -3.77766,-5.28578 3.02678,-6.04933 5.53536,5.28787 6.55064,2.01786 5.54171,-4.28319 v -10.32408 l 6.043,-5.54169 4.79084,-4.78659 -2.26957,-6.04089 12.09022,-9.56474 1.75981,-15.11701 -5.53958,-7.80069 -3.02256,-12.84111 -15.11067,-19.89305 -7.80916,3.02679 -10.82538,-9.56896 -14.60938,-9.06767 -6.04088,-14.60514 -11.33512,4.27895 -21.14942,-13.3445 -10.32832,5.53323 -15.86578,-2.5128 -12.086,7.30151 -7.80703,0.5013 -12.08811,-7.29941 -8.31257,-4.79081 -27.97504,-6.55066 z"
     sodipodi:nodetypes="04"
     inkscape:connector-curvature="0" />
  <path
     style="fill:#d3d3d3;fill-opacity:1;stroke:#ffffff;stroke-width:1;stroke-miterlimit:4;stroke-opacity:1;stroke-dasharray:none"
     id="28"
     d="m 379.52201,153.75337 4.92198,-0.0296 -3.02046,9.57107 4.28319,5.03407 0.49918,3.52385 9.57106,9.56898 2.51917,7.30362 12.59151,0.75511 5.54171,4.79083 h 3.02256 l 7.30364,15.60775 7.29938,18.89046 -3.77341,11.33088 0.75722,4.28319 -6.80023,11.5847 1.76193,9.06556 23.67281,10.07448 25.43474,3.78188 26.44581,18.129 8.56425,3.02256 0.50129,4.78238 5.53959,11.58682 5.53961,15.11488 7.04983,12.59154 -4.02517,4.7866 v 8.56001 l -9.06554,4.28532 -22.41219,9.06134 -14.60937,12.09657 -10.3241,4.78025 -1.76404,7.30361 3.02467,35.00583 -8.31468,-1.26063 -3.7713,3.02678 -55.66032,10.82749 -7.80706,6.04088 0.75724,14.60726 16.87469,13.85004 -5.54168,9.06558 -7.80493,3.52808 -1.26276,4.28107 1.76617,4.77812 h 4.27471 l 2.52129,3.02257 -16.36709,5.53536 -9.57107,-3.52597 -5.0383,-3.01197 h -12.08811 l -21.65921,-9.81855 h -13.84579 l -10.83172,3.02044 H 304.1167 l -18.89045,10.31983 -15.10856,-1.76403 -15.11278,5.2879 -12.59787,-4.03362 -7.80281,-6.79176 -20.14685,-3.01832 -13.09493,9.05287 -7.30152,-3.01411 -6.04511,-4.7866 -14.60938,-3.52595 -2.26322,-2.51493 -6.043,-0.50129 -20.69044,12.5746 -21.22983,-2.64393 -1.73865,-0.75935 2.35416,-18.23899 -9.56896,-2.51915 -19.895151,-14.59881 -5.541708,-0.50974 -4.278959,-9.57109 3.018327,-9.82066 -1.00893,-4.78025 -7.299402,-4.79295 -2.521265,-4.78025 -15.108556,-8.56427 v -2.51492 l 7.301516,-3.02677 4.278961,2.51702 4.283191,-4.28319 -1.264865,-14.35132 1.264865,-12.09024 -9.827014,-9.81856 -6.546407,1.76194 -2.51492,-7.05616 3.775554,-7.30154 -2.013628,-6.7981 6.425843,-5.81455 2.639712,-2.50011 v -5.53749 l 9.063442,-4.28108 9.065558,-1.76191 8.060857,-3.02257 6.554869,1.75981 4.78025,-1.75981 1.76193,1.25853 0.75299,6.04723 4.27684,1.7598 10.07872,-0.5034 c 0,0 7.54265,-10.00257 11.58682,-12.84534 4.04207,-2.84701 23.66859,5.03618 23.66859,5.03618 l 12.09235,-8.56214 35.01005,-7.80283 2.2611,-4.78868 3.02467,-13.34665 9.82067,-7.80493 h 3.03103 v -4.03148 l 0.49916,-33.49561 1.76193,-6.79386 -9.56262,-3.52808 -0.50763,-2.51917 10.07237,-3.02044 26.19409,-2.26958 4.02936,5.29002 9.06767,2.01363 2.52126,0.50554 3.52175,-4.7845 -4.79083,-4.78659 19.39386,-39.2869 3.02678,-2.01575 17.62982,8.56004 h 7.80281 l 3.52598,4.78872 16.87683,-5.29213 4.27895,-27.94544 7.30152,-4.79082 8.56214,-0.5034 6.04723,-7.30153 2.26534,-7.30574 4.78659,-2.51916 10.93325,2.54877 z"
     sodipodi:nodetypes="28"
     inkscape:connector-curvature="0" />
  <path
     style="fill:#d3d3d3;fill-opacity:1;stroke:#ffffff;stroke-width:1;stroke-miterlimit:4;stroke-opacity:1;stroke-dasharray:none"
     id="23"
     d="m 822.65555,555.65619 -3.02043,-7.30574 5.28365,-18.63452 -7.8028,-35.75247 c 0,0 6.89962,-12.21927 5.53958,-9.06554 -1.36639,3.15155 2.26322,-8.31049 2.26322,-8.31049 l -7.05193,-14.60513 6.54853,-10.33042 1.2564,-9.57107 3.53231,-7.30153 -0.50342,-8.5579 -3.02889,-2.27169 -4.78024,5.29211 -12.84324,0.75301 -6.54852,9.57319 0.49918,5.54172 -1.25429,3.52171 -5.29213,1.76406 -19.89515,28.45728 -2.51701,-1.76825 -5.53539,-1.25642 -11.33511,0.75933 -3.78402,5.2858 -0.49284,11.58683 1.76406,3.52594 19.38751,9.80797 10.32831,6.55488 1.7598,6.03878 -5.53958,7.80704 3.02678,9.06556 -1.76616,4.27473 -14.3492,1.26909 -3.03104,1.76615 1.01106,2.5128 v 4.02724 l -11.32665,1.26066 -6.04088,-3.02045 h -7.80706 l -1.26063,1.75979 1.26063,4.28532 -3.78402,4.27685 -1.25217,4.78236 7.29941,6.05147 -5.28788,10.82325 2.26533,5.53959 -0.5013,2.51916 h -8.57062 l -6.03663,3.02255 4.78448,6.55276 -3.02469,8.56214 5.04042,1.01105 0.5034,5.53535 4.27473,0.5013 15.62255,-3.01833 3.02466,1.25428 0.74877,4.28319 6.55487,1.76615 13.84794,6.80234 7.8049,-3.03312 17.12644,6.04302 3.52383,4.78022 8.56849,-1.75346 -1.26063,-9.06978 -1.76403,-2.51915 1.76403,-7.29941 9.06557,-4.27473 2.25899,-3.52808 -4.78026,-1.77038 -5.2879,-1.25429 -5.53959,-5.5417 2.51491,-2.25898 h 18.12902 4.03571 l 2.51493,1.75556 5.53326,-4.27682 v -7.30577 l -16.36497,-24.67963 -0.007,-3.01833 0,0 z"
     sodipodi:nodetypes="23"
     inkscape:connector-curvature="0" />
  <path
     style="fill:#d3d3d3;fill-opacity:1;stroke:#ffffff;stroke-width:1;stroke-miterlimit:4;stroke-opacity:1;stroke-dasharray:none"
     id="10"
     d="m 839.02263,590.65992 19.89304,17.63193 16.37554,3.52171 15.11067,-2.26743 4.78447,2.26743 5.28789,-3.02467 3.77133,3.77978 1.76402,6.04089 7.30786,4.02937 h 9.56897 l 7.29941,6.04301 6.55277,-3.02045 5.03828,3.02045 4.02514,-8.31046 6.03878,-3.02466 1.26484,-6.80234 -2.26319,-12.08812 -1.26064,-1.01314 -6.04088,6.04934 -9.06766,-7.30364 -6.80659,-8.56428 6.80659,-4.78657 1.76403,-8.56217 4.27472,-3.02678 -0.74875,-11.33511 3.02466,-2.51281 5.53959,3.77978 3.51962,4.78025 7.30786,-4.78025 2.51703,-3.03313 -1.26485,-5.53536 -8.56428,-4.78661 -1.76404,-5.53959 -15.10643,1.76616 -9.56895,-8.31255 -4.27474,-1.26064 v -5.54383 l 21.15156,-23.42324 -7.80493,1.76406 -4.78235,3.53019 -2.02421,-3.02257 v -3.52383 l -3.51751,-1.26911 -9.57109,3.77557 -24.17623,-3.02046 -1.26276,19.89941 c 0,0 -13.96846,10.93323 -11.58892,9.06766 2.38802,-1.86979 -15.61197,3.02256 -15.61197,3.02256 l -21.91088,15.10643 -17.37601,4.78872 v 3.02468 l 16.36706,24.67538 10e-4,7.32904 0,0 z"
     sodipodi:nodetypes="10"
     inkscape:connector-curvature="0" />
  <path
     style="fill:#d3d3d3;fill-opacity:1;stroke:#ffffff;stroke-width:1;stroke-miterlimit:4;stroke-opacity:1;stroke-dasharray:none"
     id="22"
     d="m 822.65555,555.65619 17.38022,-4.79084 21.90668,-15.10642 15.61197,-3.02678 11.58473,-9.06769 1.26696,-19.89302 -5.54807,-7.29518 1.76829,-6.04088 3.77978,-5.53959 1.00891,-8.31046 3.77557,-6.04934 -6.04724,-12.08389 -8.56003,-9.82489 4.7845,-15.61618 10.33463,-6.79389 1.75558,-10.07872 -4.02724,-9.06557 v -11.08764 l -6.80024,-6.03665 -15.61197,8.05663 -2.51916,-2.51491 -8.31253,6.03878 -6.79601,-0.4971 -13.35086,19.13795 h -4.03149 l -7.30151,6.04512 0.50128,8.55793 -3.5323,7.30148 -1.25639,9.57109 -6.54853,10.33042 7.05194,14.60516 -2.26324,8.31044 -5.53958,9.06554 c 0,0 8.76944,40.17952 7.80282,35.7525 -0.96665,-4.42702 -5.28368,18.63451 -5.28368,18.63451 l 3.01621,7.31209 z"
     sodipodi:nodetypes="22"
     inkscape:connector-curvature="0" />
  <path
     style="fill:#d3d3d3;fill-opacity:1;stroke:#ffffff;stroke-width:1;stroke-miterlimit:4;stroke-opacity:1;stroke-dasharray:none"
     id="21"
     d="m 954.36206,541.04469 1.26276,-6.04088 5.28788,-2.2611 9.8249,8.30623 h 3.03101 l 9.06134,-1.00682 5.2879,-4.27685 7.30361,6.04088 3.02255,-5.54169 0.753,-3.02469 6.04299,-3.52597 1.7641,-7.29729 6.0366,-1.2585 16.879,-28.45731 -3.0226,-4.78871 3.0226,-3.01831 3.5238,1.25851 5.5396,-3.02258 3.0289,-6.54428 13.8437,-12.84533 10.8317,-3.52384 5.0362,-4.79295 -1.2522,-10.32196 -7.3121,-0.75088 -16.367,2.01364 -11.3288,-5.54172 -6.8024,1.26063 -16.8726,21.65708 -4.7844,3.02256 -10.82328,-4.78661 -0.75936,-5.53958 -2.26109,-9.56686 -6.04724,-3.53018 -9.82066,2.26956 -6.09589,-4.16898 -9.02325,11.4705 -9.56686,2.5128 c 0,0 -18.00843,16.49399 -13.35298,12.09446 4.65548,-4.40164 -14.59879,26.43942 -14.59879,26.43942 l 3.77131,7.29731 -0.75509,3.02676 v 3.52387 l 2.0242,3.02256 4.78238,-3.53021 7.8049,-1.76402 -21.15577,23.42324 v 5.5438 l 4.27895,1.26066 9.56896,8.31254 15.11491,-1.76615 4.27261,-1.26276 z"
     sodipodi:nodetypes="21"
     inkscape:connector-curvature="0" />
  <path
     style="fill:#d3d3d3;fill-opacity:1;stroke:#ffffff;stroke-width:1;stroke-miterlimit:4;stroke-opacity:1;stroke-dasharray:none"
     id="09"
     d="m 927.66668,504.27906 0.75512,-3.01619 -3.77133,-7.30364 14.5988,-26.43946 c 0,0 18.45474,-16.70971 13.35299,-12.09445 -5.09966,4.62162 9.56684,-2.51281 9.56684,-2.51281 l 9.02748,-11.47049 -3.48367,-2.37955 -3.29964,-8.26389 -7.0202,2.72007 -11.58892,-3.02044 -0.50129,-3.02044 -0.50342,-19.39598 7.80493,-3.52596 -0.88627,-3.30598 -0.37436,-0.21999 1.71328,-7.52362 -10.77462,4.50106 1.75983,4.02938 0.37649,3.01197 0.38072,3.03101 -6.04299,2.51706 -3.77556,3.52596 -7.80916,-2.26533 -10.32407,1.76403 -1.75982,-4.78871 1.2564,-9.06767 7.81128,-9.06556 1.75771,-10.32194 7.80703,-7.80706 14.09962,7.30576 h 3.52808 l 2.51493,10.07236 4.02935,2.00941 2.01577,6.55697 -0.75301,4.28108 8.56004,6.03665 1.25641,4.78871 7.06037,3.02043 17.62349,-9.56683 v -5.54382 l 10.32829,-15.10857 -7.29729,-10.32407 -5.5438,-0.5034 -10.07449,-6.80657 3.52807,-10.82536 -15.62464,-1.25853 -6.79602,-10.07871 0.75511,-5.53961 -13.3466,-14.60726 -8.56852,4.28532 -7.29939,7.30151 2.51916,5.54172 -1.76405,3.52597 -10.32619,0.50127 -4.78871,4.27685 -4.27686,-1.76615 -4.27472,4.28529 -9.5753,7.30364 -4.28108,-3.02466 v -9.8228 l -3.52387,-1.75982 -5.53957,2.51493 -6.54852,13.84792 -2.51493,13.34877 7.80282,13.09279 6.8002,6.04513 v 11.08342 l 4.02727,9.06555 -1.76403,10.0766 -10.33042,6.796 -4.78025,15.61408 8.56424,9.82491 6.04301,12.09234 -3.77553,6.04299 -1.00895,8.30833 -3.77979,5.53958 -1.76402,6.04723 5.54381,7.28884 24.17621,3.02678 9.56899,-3.77979 3.52173,1.27544 z"
     sodipodi:nodetypes="09"
     inkscape:connector-curvature="0" />
  <path
     style="fill:#d3d3d3;fill-opacity:1;stroke:#ffffff;stroke-width:1;stroke-miterlimit:4;stroke-opacity:1;stroke-dasharray:none"
     id="26"
     d="m 964.41327,430.80279 c 0,0 -3.87495,3.53653 -7.0202,2.71586 -3.15158,-0.82068 -11.58892,-3.02044 -11.58892,-3.02044 l -0.50129,-3.02256 -0.50342,-19.39386 7.80493,-3.52596 -1.26063,-3.52387 1.71328,-7.5236 0.81433,-3.5598 4.02089,2.00941 2.01577,6.55274 -0.75301,4.27684 8.56004,6.04512 1.25641,4.7866 -5.03196,3.52808 -1.76406,8.05665 2.23784,5.59879 z"
     sodipodi:nodetypes="26"
     inkscape:connector-curvature="0" />
  <path
     style="fill:#d3d3d3;fill-opacity:1;stroke:#ffffff;stroke-width:1;stroke-miterlimit:4;stroke-opacity:1;stroke-dasharray:none"
     id="02"
     d="m 944.79734,408.08391 -0.75511,-6.04089 -1.75983,-4.02938 10.77672,-4.49682 0.80588,-3.5598 -2.51492,-10.08293 H 947.822 l -14.09961,-7.29519 -7.80494,7.80493 c 0,0 -2.37956,13.92829 -1.75982,10.32196 0.61129,-3.60423 -7.81127,9.06978 -7.81127,9.06978 l -1.25639,9.06556 1.75979,4.7866 10.3241,-1.76405 7.81126,2.26532 3.77344,-3.52595 6.03878,-2.51914 z"
     sodipodi:nodetypes="02"
     inkscape:connector-curvature="0" />
  <path
     style="fill:#d3d3d3;fill-opacity:1;stroke:#ffffff;stroke-width:1;stroke-miterlimit:4;stroke-opacity:1;stroke-dasharray:none"
     id="19"
     d="m 751.88457,493.45369 0.50764,-11.58258 3.77556,-5.28578 -1.75982,-5.54169 -19.39176,-7.30576 1.25641,-7.80704 6.04513,-8.56426 -3.77768,-13.09282 -1.76617,-2.01361 -12.59363,8.56425 -6.03875,19.39176 -2.01577,13.34661 -10.07236,8.31256 -6.04721,2.51494 -7.2719,1.6477 c 0,0 19.42558,23.76589 16.34802,20.00514 -3.07757,-3.76497 3.51962,15.1149 3.51962,15.1149 l -1.76404,7.29519 11.33088,6.0472 v 4.78449 l 10.32409,2.51705 h 3.02466 v -8.56217 l 7.80705,-1.26273 2.01151,-10.0745 -5.53958,-4.28531 -4.27898,-4.27473 1.7598,-19.38117 4.27897,-2.26955 7.30365,3.02467 3.02466,-1.26276 z"
     sodipodi:nodetypes="19"
     inkscape:connector-curvature="0" />
  <path
     style="fill:#d3d3d3;fill-opacity:1;stroke:#ffffff;stroke-width:1;stroke-miterlimit:4;stroke-opacity:1;stroke-dasharray:none"
     id="18"
     d="m 692.73426,486.03586 7.2719,-1.64772 6.04721,-2.51281 10.07236,-8.31678 2.01577,-13.34663 6.03875,-19.39176 12.59363,-8.56214 1.76617,2.01152 3.77768,13.0928 -6.04513,8.56425 -1.25641,7.80706 19.39176,7.30364 1.75982,5.54382 11.33299,-0.75935 5.53536,1.26064 2.51913,1.76402 19.89306,-28.4573 5.29212,-1.76615 1.25428,-3.51962 -0.49917,-5.54804 6.54853,-9.56685 12.84322,-0.75722 4.78448,-5.2879 3.02679,2.27169 7.30151,-6.04934 h 4.02725 l 13.35087,-19.13373 6.80021,0.4971 8.31259,-6.03878 2.51913,2.51491 15.61197,-8.05663 -7.80281,-13.09914 2.51491,-13.34877 6.54853,-13.85214 5.53959,-2.51281 3.52385,1.7598 v 9.82277 l 4.2832,3.02469 9.5732,-7.30364 4.27472,-4.28529 4.27686,1.76616 4.79081,-4.28319 10.32407,-0.49495 1.76404,-3.52597 -2.51915,-5.54595 7.30364,-7.30149 8.56426,-4.28109 13.34663,14.61149 -0.75088,5.53747 6.79599,10.0745 15.62044,1.25852 3.52386,-7.30365 -4.02517,-21.15576 3.52387,-3.52597 7.30361,4.78449 6.54854,9.82277 10.3241,-15.86366 4.7887,-1.26064 7.8028,-7.80915 h 3.7798 l 6.5443,-6.54641 h 3.7797 l 3.5239,-6.04088 h 9.5753 l 8.56,-8.56852 4.2748,-4.27471 v -4.7887 l -6.796,-3.52598 v -9.06554 l -12.5915,-15.86793 -12.0924,11.58685 -3.5238,-2.51703 -0.7552,-6.54854 -4.7887,-7.30363 -1.2564,-8.31468 v -8.55792 l -8.3083,-6.04511 -1.2712,-3.52596 2.2717,-5.03831 15.8679,4.27685 0.5034,-7.30151 5.5438,-6.55488 -3.784,-3.52385 0.7572,-6.79809 7.8028,-3.52597 1.7641,-2.51704 -1.2649,-2.26323 -8.3062,2.26323 -15.1128,-10.3262 -0.7551,-3.02466 7.3036,-9.56896 15.1149,-22.41432 1.2564,-2.26743 h 2.5234 l 4.7803,6.04511 1.2606,1.01316 0.5034,-28.20772 4.7802,-2.51915 v -10.83171 l -1.2564,-17.625591 6.0452,-24.679635 -18.1375,-13.350863 -13.8501,11.586824 -7.2972,1.006813 -3.5281,3.777667 -12.0945,-1.759809 -6.03662,-6.800224 -3.51962,-10.833827 0.49916,-4.27473 -9.57107,-6.045114 -5.54382,9.0719 -10.32407,-6.548521 -1.76405,-1.766153 6.04089,-15.863668 -4.78026,-6.552753 h -4.28105 l -10.8275,7.800695 -9.06343,13.348748 3.52808,2.265331 6.79176,0.759341 5.29633,13.850038 -3.02466,5.537478 -5.29213,7.802808 -9.82277,36.268575 3.77555,6.04088 -3.02044,5.28366 -22.41852,16.37554 -12.08388,-2.26533 -6.80025,-2.51916 -1.01314,3.52597 -9.81855,39.29324 -4.78871,5.02983 2.51913,7.05405 6.03668,5.0383 10.07659,-5.54805 16.3713,1.26486 4.78025,-7.80916 8.57062,-2.0115 16.36495,6.04089 19.89938,20.65449 v 4.27897 l -4.28108,3.02254 -22.91983,1.26698 -7.80703,6.03666 -6.04299,-0.7509 -4.27686,6.79814 -10.83171,2.2632 -7.3121,10.82961 -1.25214,8.05874 -15.60777,10.07449 -9.827,1.26485 -10.82748,14.60303 -10.32831,6.04724 -19.89938,-4.28318 -6.54006,-3.0268 -7.80915,7.8134 -3.77555,13.85001 10.82749,15.86579 -7.05406,7.2994 -9.82068,6.04724 c 0,0 -17.81382,22.50101 -14.35556,18.12898 3.46252,-4.36568 -14.0002,7.10692 -18.88834,8.31258 -4.88598,1.20138 -30.7226,3.02255 -30.7226,3.02255 l -4.78874,-0.50129 -35.75881,15.11068 -16.37553,10.32408 -4.78448,-2.51705 -1.75558,-4.78448 -21.91301,-1.26274 -25.1894,-7.8007 -6.79174,-7.80493 -36.77199,-4.28319 -6.80446,3.02466 -44.57056,-4.27683 -0.75723,6.54641 3.02468,10.32829 -1.76405,16.8705 12.84533,18.88621 6.54853,4.2853 10.32832,-8.06297 h 21.65285 l 5.54804,2.01574 3.01621,4.7845 -2.51704,5.28789 -12.086,9.82699 1.26276,4.78237 13.85215,10.32197 h 5.53746 l 1.76408,2.26746 -1.26066,4.27895 8.56638,6.80445 19.88882,3.02257 9.57531,-2.51705 12.09021,-12.09657 14.60094,1.26487 6.04299,9.0719 -3.51962,8.30409 1.00047,5.0383 -7.80071,4.7866 -3.52807,4.28109 1.26065,10.06812 13.84369,9.82914 6.08743,-1.38542 z"
     sodipodi:nodetypes="18"
     inkscape:connector-curvature="0" />
  <path
     style="fill:#d3d3d3;fill-opacity:1;stroke:#ffffff;stroke-width:1;stroke-miterlimit:4;stroke-opacity:1;stroke-dasharray:none"
     id="17"
     d="m 1092.8815,373.07809 14.3471,-21.15578 9.0677,-10.32409 -1.2586,-10.07447 -9.5689,-11.08131 -1.2564,-9.06556 -17.3781,-23.42534 -0.7573,2.27167 -3.5238,3.77767 -7.3037,-8.56639 -10.3283,-3.02256 -0.4991,3.02256 v 4.78872 l -4.2769,4.27686 -8.56,8.56635 h -9.5732 l -3.5239,6.04089 h -3.784 l -6.5443,6.54852 h -3.7798 l -7.807,7.80703 -4.7845,1.26066 -10.324,15.86365 -6.54857,-9.82277 -7.30363,-4.78449 -3.52386,3.52597 4.02517,21.1558 -3.52387,7.30361 -3.52807,10.82962 10.07447,6.80021 5.54385,0.5034 7.29731,10.32407 5.2879,-3.02256 c 0,0 6.043,-6.09374 8.5663,-10.32617 2.5213,-4.23454 8.5643,-14.35768 8.5643,-14.35768 l 14.3556,-3.02257 9.0676,9.06557 -6.5548,14.35556 -8.5643,13.34873 7.8007,5.54172 -0.4928,6.55275 -6.043,6.03878 1.2627,2.51701 10.3241,-5.53959 15.1085,-19.89724 22.9199,-12.84324 7.3015,-1.75557 z"
     sodipodi:nodetypes="17"
     inkscape:connector-curvature="0" />
  <path
     style="fill:#d3d3d3;fill-opacity:1;stroke:#ffffff;stroke-width:1;stroke-miterlimit:4;stroke-opacity:1;stroke-dasharray:none"
     id="14"
     d="m 1206.5626,245.83456 -4.3783,-0.18622 h -6.0452 l -9.0634,-3.02677 -3.0247,-5.53961 -3.0268,4.28109 -4.2768,-3.02043 -9.5669,10.82959 -1.764,3.01832 -4.2768,0.75511 -6.0472,-6.79811 -5.5439,-2.26744 -6.0366,-12.08812 -4.2875,3.02678 1.2565,10.82959 -3.0163,1.76194 -7.8028,-8.56639 -3.0289,-4.02514 h -6.0366 l -3.5239,-9.06976 -8.0651,-4.27897 -11.3245,4.27897 -4.2832,-0.75511 -6.5527,-6.5443 -9.0635,5.28789 h -5.0404 l -6.043,2.51914 -9.0634,-6.5485 -6.0367,-11.08343 -14.3556,2.51492 -5.5438,6.55487 -0.5034,7.29728 -15.8679,-4.27896 -2.2717,5.0362 1.2712,3.52594 8.3084,6.04724 v 8.55792 l 1.2564,8.31044 4.7908,7.30997 0.753,6.54641 3.5238,2.51916 12.0924,-11.58895 12.5915,15.86792 v 9.06979 l 6.796,3.52594 0.5034,-3.02678 10.3326,3.02678 7.2993,8.55794 3.5239,-3.77344 0.7551,-2.27169 17.3802,23.42535 1.2564,9.06557 9.5754,11.08127 1.2521,10.07028 8.5685,-5.28578 7.8028,-22.41643 3.5323,-1.2585 8.5601,4.78658 13.8521,-1.76401 4.7803,-4.28108 -6.5401,-10.07451 1.7598,-2.51915 c 0,0 16.5829,-5.52266 12.8433,-4.27684 -3.7354,1.24372 5.2878,-10.32832 5.2878,-10.32832 l 6.8003,-3.02042 0.5034,-10.08082 1.7598,-6.79389 3.7755,-1.26063 3.5281,3.78402 3.5281,3.01619 9.0677,-12.08811 2.5128,-9.06979 -1.6795,-2.83007 z"
     sodipodi:nodetypes="14"
     inkscape:connector-curvature="0" />
  <path
     style="fill:#d3d3d3;fill-opacity:1;stroke:#ffffff;stroke-width:1;stroke-miterlimit:4;stroke-opacity:1;stroke-dasharray:none"
     id="11"
     d="m 1037.2275,211.13965 14.3556,-2.51704 6.0366,11.08556 9.0635,6.54638 6.0409,-2.51281 h 5.0467 l 9.0635,-5.28999 6.5443,6.5443 4.281,0.75511 11.3309,-4.27897 8.0651,4.27897 3.5238,9.06977 h 6.0431 l 3.0246,4.02726 7.8028,8.56427 3.0162,-1.76192 -1.2564,-10.82961 4.2853,-3.02889 6.0367,12.09022 5.5438,2.27169 6.0451,6.79386 4.2748,-0.75511 1.7682,-3.01832 9.5669,-10.82959 4.2768,3.02043 3.0247,-4.27682 3.0268,5.53958 9.0592,3.02256 h 6.0494 l 4.3783,0.1862 -2.6185,-4.46931 -1.2649,-14.60726 -10.819,-16.87472 6.0387,-6.04301 5.5333,-10.3283 h 20.4028 l 3.7755,-3.52173 -1.2627,-7.80492 4.2832,-7.80704 -1.2607,-4.28107 1.7598,-7.2994 -0.4991,-37.52709 6.0387,-12.08812 -6.7981,-7.80915 1.2585,-4.78237 -3.0183,-4.281074 -7.8049,3.022557 -9.0719,10.330427 -9.0592,4.27895 -9.0719,12.58729 -22.4164,7.80916 -10.3199,-7.80916 1.2564,-4.78448 -5.2879,-7.80281 -2.5191,-8.06085 -8.5601,-0.50553 -15.1127,-7.804921 -6.0473,2.26533 -7.0434,-3.525963 -10.3368,1.764039 -9.0592,-3.022555 -5.5438,-7.804926 -5.2837,-6.042998 -2.0115,-6.043 -7.0519,-7.301516 -4.2853,-6.554868 -9.8228,-13.346631 -3.0205,-7.804925 -10.8275,-13.850039 -3.0289,-7.305747 -13.8521,-6.80234 -9.0677,3.022559 -7.8028,-1.761927 -17.63192,-3.5280786 -23.41476,8.3167916 -4.2811,3.777668 4.78449,6.548521 -6.04089,15.861553 1.76404,1.766153 10.32408,6.548523 5.54384,-9.065557 9.56896,6.040884 -0.49709,4.276843 3.51962,10.827483 6.03663,6.80657 12.0924,1.761927 3.5281,-3.779785 7.2994,-1.008928 13.8479,-11.582594 18.1396,13.346633 -6.0452,24.681751 1.2565,17.62559 v 10.82748 l -4.7803,2.51915 -0.5034,28.2056 -1.2628,-1.00681 -4.7802,-6.04512 h -2.5213 l -1.2585,2.26957 c 0,0 -18.607,27.59009 -15.1149,22.41218 3.4942,-5.1779 -7.2994,9.56684 -7.2994,9.56684 l 0.7551,3.02044 15.1128,10.33467 8.3041,-2.26533 1.267,2.26533 -1.7641,2.51491 -7.8028,3.52597 -0.7593,6.7981 3.7988,3.51751 z"
     sodipodi:nodetypes="11"
     inkscape:connector-curvature="0" />
  <path
     style="fill:#d3d3d3;fill-opacity:1;stroke:#ffffff;stroke-width:1;stroke-miterlimit:4;stroke-opacity:1;stroke-dasharray:none"
     id="31"
     d="m 728.72785,679.07974 11.80255,-4.4249 9.65356,4.4249 2.14479,-12.29115 11.30763,-7.86839 2.85756,-16.22535 8.31681,-2.23995 v -15.80023 l 7.80279,-3.02888 17.12431,6.043 3.52384,4.78025 8.56849,-1.75346 5.2879,0.50341 5.5396,7.30152 2.26321,13.85004 -1.7598,4.78446 -3.52387,-1.25638 c 0,0 -6.49774,7.40515 -10.33042,8.06297 -3.82631,0.65781 -17.63193,3.02253 -17.63193,3.02253 l -4.78025,4.7866 3.7713,4.78449 0.50765,10.32832 4.7845,1.26273 12.0881,15.10644 0.75511,19.89726 -6.80657,5.10178 -1.25218,0.94123 -7.05193,-7.29939 -6.80021,-9.07401 -0.50765,-5.53961 -4.78023,-1.00681 -5.54384,1.76403 -9.06766,-4.28318 -4.27685,10.3283 -7.80705,0.50552 -5.53958,8.56427 -3.52386,-1.76406 -4.82255,-14.75742 -13.76332,-8.60869 1.47005,-18.92219 z"
     sodipodi:nodetypes="31"
     inkscape:connector-curvature="0" />
  <path
     style="fill:#d3d3d3;fill-opacity:1;stroke:#ffffff;stroke-width:1;stroke-miterlimit:4;stroke-opacity:1;stroke-dasharray:none"
     id="25"
     d="m 644.84925,600.98608 3.78189,-8.56636 -4.28319,-4.78239 -0.75513,-7.30571 15.11279,-6.54854 h 3.77978 l 2.2611,5.53959 0.75511,7.05617 7.30787,5.04251 9.56474,9.56264 5.54381,-3.53021 3.51962,3.53021 1.26909,9.57107 6.03878,4.27471 15.6162,1.26698 2.51492,-3.02678 -0.75511,-4.27895 9.06768,-2.26323 5.03618,1.01106 0.5034,5.53536 4.28108,0.50128 15.61407,-3.01832 3.02468,1.25428 0.74876,4.2853 6.55486,1.76406 13.85216,6.79811 v 15.80022 l -8.31679,2.23995 -2.85758,16.22534 -11.30762,7.86838 -2.14476,12.29117 -9.65356,-4.4249 -11.80258,4.4249 -0.48861,9.34054 -0.98142,9.58164 13.76332,8.60869 4.82256,14.75743 -5.54807,1.76194 -8.30833,-4.78661 -6.79599,7.80704 v 3.52385 l 13.34875,7.30151 3.01832,5.54172 -9.56684,3.52384 -14.60304,-0.50339 -1.75769,-6.03879 -5.54382,-2.01786 -9.06346,5.54807 -6.04721,-3.02257 -0.50342,-7.81337 -3.02466,-3.77768 v -4.02513 l -8.56006,-2.01362 -2.26742,2.5128 1.26698,6.0451 -6.80024,3.02678 -1.76828,4.27473 1.76828,5.29636 -15.11489,17.62771 2.51913,20.65237 -7.30362,6.03877 -3.52386,-3.77344 -14.60727,8.56428 -5.54381,-3.0268 -21.15366,-40.54753 -8.31468,-6.03666 -6.80235,-1.76615 -3.02045,-5.54805 3.77979,-6.03665 -6.04299,-4.78873 -7.30789,6.04513 -7.29727,1.25851 -4.78871,-21.91088 -1.26276,-5.28579 c 0,0 -4.3149,-47.7348 -1.25638,-35.00582 3.05851,12.72691 -6.55489,-17.63193 -6.55489,-17.63193 l 4.79506,-3.52172 -13.85426,-25.43901 -16.87258,-13.34874 2.2611,-7.80913 2.01573,-2.51281 24.68176,-3.52384 16.36705,4.78447 9.56686,-3.02678 3.77556,6.04721 12.09235,12.08813 9.56896,-1.76193 v -7.30362 l 2.51913,-4.79297 9.56475,-3.7713 3.52596,6.04088 5.54384,-4.02514 7.8028,1.01104 v -0.50977 h 0.0106 z"
     sodipodi:nodetypes="25"
     inkscape:connector-curvature="0" />
  <text
     xml:space="preserve"
     style="font-size:18px;font-style:normal;font-variant:normal;font-weight:normal;font-stretch:normal;line-height:125%;letter-spacing:0px;word-spacing:0px;fill:#000000;fill-opacity:1;stroke:none;font-family:Microsoft YaHei;-inkscape-font-specification:Microsoft YaHei"
     x="915.41998"
     y="899.06433"
     id="text3297"
     sodipodi:linespacing="125%"><tspan
       sodipodi:role="line"
       id="tspan3299"
       x="915.41998"
       y="899.06433">澳门</tspan></text>
  <text
     xml:space="preserve"
     style="font-size:18px;font-style:normal;font-variant:normal;font-weight:normal;font-stretch:normal;line-height:125%;letter-spacing:0px;word-spacing:0px;fill:#000000;fill-opacity:1;stroke:none;font-family:Microsoft YaHei;-inkscape-font-specification:Microsoft YaHei"
     x="823.67511"
     y="974.41681"
     id="text3301"
     sodipodi:linespacing="125%"><tspan
       sodipodi:role="line"
       id="tspan3303"
       x="823.67511"
       y="974.41681">海南</tspan></text>
  <text
     xml:space="preserve"
     style="font-size:18px;font-style:normal;font-variant:normal;font-weight:normal;font-stretch:normal;line-height:125%;letter-spacing:0px;word-spacing:0px;fill:#000000;fill-opacity:1;stroke:none;font-family:Microsoft YaHei;-inkscape-font-specification:Microsoft YaHei"
     x="954.37659"
     y="880.17181"
     id="text3309"
     sodipodi:linespacing="125%"><tspan
       sodipodi:role="line"
       id="tspan3311"
       x="954.37659"
       y="880.17181">香港</tspan></text>
  <text
     xml:space="preserve"
     style="font-size:18px;font-style:normal;font-variant:normal;font-weight:normal;font-stretch:normal;line-height:125%;letter-spacing:0px;word-spacing:0px;fill:#000000;fill-opacity:1;stroke:none;font-family:Microsoft YaHei;-inkscape-font-specification:Microsoft YaHei"
     x="909.60327"
     y="843.80591"
     id="text3313"
     sodipodi:linespacing="125%"><tspan
       sodipodi:role="line"
       id="tspan3315"
       x="909.60327"
       y="843.80591">广东</tspan></text>
  <text
     xml:space="preserve"
     style="font-size:18px;font-style:normal;font-variant:normal;font-weight:normal;font-stretch:normal;line-height:125%;letter-spacing:0px;word-spacing:0px;fill:#000000;fill-opacity:1;stroke:none;font-family:Microsoft YaHei;-inkscape-font-specification:Microsoft YaHei"
     x="774.76208"
     y="855.17493"
     id="text3317"
     sodipodi:linespacing="125%"><tspan
       sodipodi:role="line"
       id="tspan3319"
       x="774.76208"
       y="855.17493">广西</tspan></text>
  <text
     xml:space="preserve"
     style="font-size:18px;font-style:normal;font-variant:normal;font-weight:normal;font-stretch:normal;line-height:125%;letter-spacing:0px;word-spacing:0px;fill:#000000;fill-opacity:1;stroke:none;font-family:Microsoft YaHei;-inkscape-font-specification:Microsoft YaHei"
     x="1013.2459"
     y="764.22327"
     id="text3321"
     sodipodi:linespacing="125%"><tspan
       sodipodi:role="line"
       id="tspan3323"
       x="1013.2459"
       y="764.22327">福建</tspan></text>
  <text
     xml:space="preserve"
     style="font-size:18px;font-style:normal;font-variant:normal;font-weight:normal;font-stretch:normal;line-height:125%;letter-spacing:0px;word-spacing:0px;fill:#000000;fill-opacity:1;stroke:none;font-family:Microsoft YaHei;-inkscape-font-specification:Microsoft YaHei"
     x="1093.093"
     y="812.07867"
     id="text3325"
     sodipodi:linespacing="125%"><tspan
       sodipodi:role="line"
       id="tspan3327"
       x="1093.093"
       y="812.07867">台湾</tspan></text>
  <text
     xml:space="preserve"
     style="font-size:18px;font-style:normal;font-variant:normal;font-weight:normal;font-stretch:normal;line-height:125%;letter-spacing:0px;word-spacing:0px;fill:#000000;fill-opacity:1;stroke:none;font-family:Microsoft YaHei;-inkscape-font-specification:Microsoft YaHei"
     x="948.99799"
     y="730.90955"
     id="text3329"
     sodipodi:linespacing="125%"><tspan
       sodipodi:role="line"
       id="tspan3331"
       x="948.99799"
       y="730.90955">江西</tspan></text>
  <text
     xml:space="preserve"
     style="font-size:18px;font-style:normal;font-variant:normal;font-weight:normal;font-stretch:normal;line-height:125%;letter-spacing:0px;word-spacing:0px;fill:#000000;fill-opacity:1;stroke:none;font-family:Microsoft YaHei;-inkscape-font-specification:Microsoft YaHei"
     x="856.72437"
     y="735.93298"
     id="text3333"
     sodipodi:linespacing="125%"><tspan
       sodipodi:role="line"
       id="tspan3335"
       x="856.72437"
       y="735.93298">湖南</tspan></text>
  <text
     xml:space="preserve"
     style="font-size:18px;font-style:normal;font-variant:normal;font-weight:normal;font-stretch:normal;line-height:125%;letter-spacing:0px;word-spacing:0px;fill:#000000;fill-opacity:1;stroke:none;font-family:Microsoft YaHei;-inkscape-font-specification:Microsoft YaHei"
     x="740.91956"
     y="772.9483"
     id="text3337"
     sodipodi:linespacing="125%"><tspan
       sodipodi:role="line"
       id="tspan3339"
       x="740.91956"
       y="772.9483">贵州</tspan></text>
  <text
     xml:space="preserve"
     style="font-size:18px;font-style:normal;font-variant:normal;font-weight:normal;font-stretch:normal;line-height:125%;letter-spacing:0px;word-spacing:0px;fill:#000000;fill-opacity:1;stroke:none;font-family:Microsoft YaHei;-inkscape-font-specification:Microsoft YaHei"
     x="611.63074"
     y="836.9317"
     id="text3341"
     sodipodi:linespacing="125%"><tspan
       sodipodi:role="line"
       id="tspan3343"
       x="611.63074"
       y="836.9317">云南</tspan></text>
  <text
     xml:space="preserve"
     style="font-size:18px;font-style:normal;font-variant:normal;font-weight:normal;font-stretch:normal;line-height:125%;letter-spacing:0px;word-spacing:0px;fill:#000000;fill-opacity:1;stroke:none;font-family:Microsoft YaHei;-inkscape-font-specification:Microsoft YaHei"
     x="1044.1372"
     y="676.9726"
     id="text3345"
     sodipodi:linespacing="125%"><tspan
       sodipodi:role="line"
       id="tspan3347"
       x="1044.1372"
       y="676.9726">浙江</tspan></text>
  <text
     xml:space="preserve"
     style="font-size:18px;font-style:normal;font-variant:normal;font-weight:normal;font-stretch:normal;line-height:125%;letter-spacing:0px;word-spacing:0px;fill:#000000;fill-opacity:1;stroke:none;font-family:Microsoft YaHei;-inkscape-font-specification:Microsoft YaHei"
     x="1086.5282"
     y="616.89038"
     id="text3349"
     sodipodi:linespacing="125%"><tspan
       sodipodi:role="line"
       id="tspan3351"
       x="1086.5282"
       y="616.89038">上海</tspan></text>
  <text
     xml:space="preserve"
     style="font-size:18px;font-style:normal;font-variant:normal;font-weight:normal;font-stretch:normal;line-height:125%;letter-spacing:0px;word-spacing:0px;fill:#000000;fill-opacity:1;stroke:none;font-family:Microsoft YaHei;-inkscape-font-specification:Microsoft YaHei"
     x="1024.6937"
     y="566.29517"
     id="text3353"
     sodipodi:linespacing="125%"><tspan
       sodipodi:role="line"
       id="tspan3355"
       x="1024.6937"
       y="566.29517">江苏</tspan></text>
  <text
     xml:space="preserve"
     style="font-size:18px;font-style:normal;font-variant:normal;font-weight:normal;font-stretch:normal;line-height:125%;letter-spacing:0px;word-spacing:0px;fill:#000000;fill-opacity:1;stroke:none;font-family:Microsoft YaHei;-inkscape-font-specification:Microsoft YaHei"
     x="970.85071"
     y="614.1557"
     id="text3357"
     sodipodi:linespacing="125%"><tspan
       sodipodi:role="line"
       id="tspan3359"
       x="970.85071"
       y="614.1557">安徽</tspan></text>
  <text
     xml:space="preserve"
     style="font-size:18px;font-style:normal;font-variant:normal;font-weight:normal;font-stretch:normal;line-height:125%;letter-spacing:0px;word-spacing:0px;fill:#000000;fill-opacity:1;stroke:none;font-family:Microsoft YaHei;-inkscape-font-specification:Microsoft YaHei"
     x="878.12091"
     y="568.53864"
     id="text3361"
     sodipodi:linespacing="125%"><tspan
       sodipodi:role="line"
       id="tspan3363"
       x="878.12091"
       y="568.53864">河南</tspan></text>
  <text
     xml:space="preserve"
     style="font-size:18px;font-style:normal;font-variant:normal;font-weight:normal;font-stretch:normal;line-height:125%;letter-spacing:0px;word-spacing:0px;fill:#000000;fill-opacity:1;stroke:none;font-family:Microsoft YaHei;-inkscape-font-specification:Microsoft YaHei"
     x="976.08539"
     y="491.23453"
     id="text3365"
     sodipodi:linespacing="125%"><tspan
       sodipodi:role="line"
       id="tspan3367"
       x="976.08539"
       y="491.23453">山东</tspan></text>
  <text
     xml:space="preserve"
     style="font-size:18px;font-style:normal;font-variant:normal;font-weight:normal;font-stretch:normal;line-height:125%;letter-spacing:0px;word-spacing:0px;fill:#000000;fill-opacity:1;stroke:none;font-family:Microsoft YaHei;-inkscape-font-specification:Microsoft YaHei"
     x="906.79468"
     y="447.11313"
     id="text3369"
     sodipodi:linespacing="125%"><tspan
       sodipodi:role="line"
       id="tspan3371"
       x="906.79468"
       y="447.11313">河北</tspan></text>
  <text
     xml:space="preserve"
     style="font-size:18px;font-style:normal;font-variant:normal;font-weight:normal;font-stretch:normal;line-height:125%;letter-spacing:0px;word-spacing:0px;fill:#000000;fill-opacity:1;stroke:none;font-family:Microsoft YaHei;-inkscape-font-specification:Microsoft YaHei"
     x="950.16821"
     y="426.68741"
     id="text3373"
     sodipodi:linespacing="125%"><tspan
       sodipodi:role="line"
       id="tspan3375"
       x="950.16821"
       y="426.68741">天津</tspan></text>
  <text
     xml:space="preserve"
     style="font-size:18px;font-style:normal;font-variant:normal;font-weight:normal;font-stretch:normal;line-height:125%;letter-spacing:0px;word-spacing:0px;fill:#000000;fill-opacity:1;stroke:none;font-family:Microsoft YaHei;-inkscape-font-specification:Microsoft YaHei"
     x="926.72931"
     y="390.06622"
     id="text3377"
     sodipodi:linespacing="125%"><tspan
       sodipodi:role="line"
       id="tspan3379"
       x="926.72931"
       y="390.06622">北京</tspan></text>
  <text
     xml:space="preserve"
     style="font-size:18px;font-style:normal;font-variant:normal;font-weight:normal;font-stretch:normal;line-height:125%;letter-spacing:0px;word-spacing:0px;fill:#000000;fill-opacity:1;stroke:none;font-family:Microsoft YaHei;-inkscape-font-specification:Microsoft YaHei"
     x="734.40735"
     y="401.75269"
     id="text3381"
     sodipodi:linespacing="125%"><tspan
       sodipodi:role="line"
       id="tspan3383"
       x="734.40735"
       y="401.75269">内蒙古</tspan></text>
  <text
     xml:space="preserve"
     style="font-size:18px;font-style:normal;font-variant:normal;font-weight:normal;font-stretch:normal;line-height:125%;letter-spacing:0px;word-spacing:0px;fill:#000000;fill-opacity:1;stroke:none;font-family:Microsoft YaHei;-inkscape-font-specification:Microsoft YaHei"
     x="1052.3632"
     y="340.45349"
     id="text3385"
     sodipodi:linespacing="125%"><tspan
       sodipodi:role="line"
       id="tspan3387"
       x="1052.3632"
       y="340.45349">辽宁</tspan></text>
  <text
     xml:space="preserve"
     style="font-size:18px;font-style:normal;font-variant:normal;font-weight:normal;font-stretch:normal;line-height:125%;letter-spacing:0px;word-spacing:0px;fill:#000000;fill-opacity:1;stroke:none;font-family:Microsoft YaHei;-inkscape-font-specification:Microsoft YaHei"
     x="1095.7366"
     y="267.16705"
     id="text3389"
     sodipodi:linespacing="125%"><tspan
       sodipodi:role="line"
       id="tspan3391"
       x="1095.7366"
       y="267.16705">吉林</tspan></text>
  <text
     xml:space="preserve"
     style="font-size:18px;font-style:normal;font-variant:normal;font-weight:normal;font-stretch:normal;line-height:125%;letter-spacing:0px;word-spacing:0px;fill:#000000;fill-opacity:1;stroke:none;font-family:Microsoft YaHei;-inkscape-font-specification:Microsoft YaHei"
     x="1103.2148"
     y="172.19385"
     id="text3393"
     sodipodi:linespacing="125%"><tspan
       sodipodi:role="line"
       id="tspan3395"
       x="1103.2148"
       y="172.19385">黑龙江</tspan></text>
  <text
     xml:space="preserve"
     style="font-size:18px;font-style:normal;font-variant:normal;font-weight:normal;font-stretch:normal;line-height:125%;letter-spacing:0px;word-spacing:0px;fill:#000000;fill-opacity:1;stroke:none;font-family:Microsoft YaHei;-inkscape-font-specification:Microsoft YaHei"
     x="842.22559"
     y="478.05237"
     id="text3397"
     sodipodi:linespacing="125%"><tspan
       sodipodi:role="line"
       id="tspan3399"
       x="842.22559"
       y="478.05237">山西</tspan></text>
  <text
     xml:space="preserve"
     style="font-size:18px;font-style:normal;font-variant:normal;font-weight:normal;font-stretch:normal;line-height:125%;letter-spacing:0px;word-spacing:0px;fill:#000000;fill-opacity:1;stroke:none;font-family:Microsoft YaHei;-inkscape-font-specification:Microsoft YaHei"
     x="702.38312"
     y="490.01749"
     id="text3401"
     sodipodi:linespacing="125%"><tspan
       sodipodi:role="line"
       id="tspan3403"
       x="702.38312"
       y="490.01749">宁夏</tspan></text>
  <text
     xml:space="preserve"
     style="font-size:18px;font-style:normal;font-variant:normal;font-weight:normal;font-stretch:normal;line-height:125%;letter-spacing:0px;word-spacing:0px;fill:#000000;fill-opacity:1;stroke:none;font-family:Microsoft YaHei;-inkscape-font-specification:Microsoft YaHei"
     x="675.46149"
     y="554.33008"
     id="text3405"
     sodipodi:linespacing="125%"><tspan
       sodipodi:role="line"
       id="tspan3407"
       x="675.46149"
       y="554.33008">甘肃</tspan></text>
  <text
     xml:space="preserve"
     style="font-size:18px;font-style:normal;font-variant:normal;font-weight:normal;font-stretch:normal;line-height:125%;letter-spacing:0px;word-spacing:0px;fill:#000000;fill-opacity:1;stroke:none;font-family:Microsoft YaHei;-inkscape-font-specification:Microsoft YaHei"
     x="497.48032"
     y="528.90417"
     id="text3409"
     sodipodi:linespacing="125%"><tspan
       sodipodi:role="line"
       id="tspan3411"
       x="497.48032"
       y="528.90417">青海</tspan></text>
  <text
     xml:space="preserve"
     style="font-size:18px;font-style:normal;font-variant:normal;font-weight:normal;font-stretch:normal;line-height:125%;letter-spacing:0px;word-spacing:0px;fill:#000000;fill-opacity:1;stroke:none;font-family:Microsoft YaHei;-inkscape-font-specification:Microsoft YaHei"
     x="310.52524"
     y="621.63391"
     id="text3413"
     sodipodi:linespacing="125%"><tspan
       sodipodi:role="line"
       id="tspan3415"
       x="310.52524"
       y="621.63391">西藏</tspan></text>
  <text
     xml:space="preserve"
     style="font-size:18px;font-style:normal;font-variant:normal;font-weight:normal;font-stretch:normal;line-height:125%;letter-spacing:0px;word-spacing:0px;fill:#000000;fill-opacity:1;stroke:none;font-family:Microsoft YaHei;-inkscape-font-specification:Microsoft YaHei"
     x="267.15164"
     y="402.52252"
     id="text3417"
     sodipodi:linespacing="125%"><tspan
       sodipodi:role="line"
       id="tspan3419"
       x="267.15164"
       y="402.52252">新疆</tspan></text>
  <text
     xml:space="preserve"
     style="font-size:18px;font-style:normal;font-variant:normal;font-weight:normal;font-stretch:normal;line-height:125%;letter-spacing:0px;word-spacing:0px;fill:#000000;fill-opacity:1;stroke:none;font-family:Microsoft YaHei;-inkscape-font-specification:Microsoft YaHei"
     x="771.18256"
     y="576.01697"
     id="text3421"
     sodipodi:linespacing="125%"><tspan
       sodipodi:role="line"
       id="tspan3423"
       x="771.18256"
       y="576.01697">陕西</tspan></text>
  <text
     xml:space="preserve"
     style="font-size:18px;font-style:normal;font-variant:normal;font-weight:normal;font-stretch:normal;line-height:125%;letter-spacing:0px;word-spacing:0px;fill:#000000;fill-opacity:1;stroke:none;font-family:Microsoft YaHei;-inkscape-font-specification:Microsoft YaHei"
     x="639.56616"
     y="679.21606"
     id="text3425"
     sodipodi:linespacing="125%"><tspan
       sodipodi:role="line"
       id="tspan3427"
       x="639.56616"
       y="679.21606">四川</tspan></text>
  <text
     xml:space="preserve"
     style="font-size:18px;font-style:normal;font-variant:normal;font-weight:normal;font-stretch:normal;line-height:125%;letter-spacing:0px;word-spacing:0px;fill:#000000;fill-opacity:1;stroke:none;font-family:Microsoft YaHei;-inkscape-font-specification:Microsoft YaHei"
     x="756.97406"
     y="688.93774"
     id="text3429"
     sodipodi:linespacing="125%"><tspan
       sodipodi:role="line"
       id="tspan3431"
       x="756.97406"
       y="688.93774">重庆</tspan></text>
  <text
     xml:space="preserve"
     style="font-size:18px;font-style:normal;font-variant:normal;font-weight:normal;font-stretch:normal;line-height:125%;letter-spacing:0px;word-spacing:0px;fill:#000000;fill-opacity:1;stroke:none;font-family:Microsoft YaHei;-inkscape-font-specification:Microsoft YaHei"
     x="860.92102"
     y="642.57294"
     id="text3433"
     sodipodi:linespacing="125%"><tspan
       sodipodi:role="line"
       id="tspan3435"
       x="860.92102"
       y="642.57294">湖北</tspan></text>
</svg>
