<?xml version="1.0" encoding="utf-8"?>
<!-- Generator: Adobe Illustrator 16.0.0, SVG Export Plug-In . SVG Version: 6.00 Build 0)  -->
<!DOCTYPE svg PUBLIC "-//W3C//DTD SVG 1.1//EN" "http://www.w3.org/Graphics/SVG/1.1/DTD/svg11.dtd">
<svg version="1.1" id="图层_1_x5F_复制" xmlns="http://www.w3.org/2000/svg" xmlns:xlink="http://www.w3.org/1999/xlink" x="0px" y="0px" width="1280px" height="1024px" viewBox="0 0 1280 1024" enable-background="new 0 0 1280 1024" xml:space="preserve">
	<path id="0591-yongtaixian" fill-rule="evenodd" clip-rule="evenodd" fill="#D3D3D3" stroke="#FFFFFF" stroke-miterlimit="10" d="M98.756,648.575&#xD;&#xA;	c1.483-3.658,7.603-5.491,3.64-11.455c-1.361-2.048-0.817-5.732-1.908-8.633c-0.833-2.213-0.17-4.693,1.968-6.371&#xD;&#xA;	c1.623-1.272,3.431-2.396,3.126-4.951c-0.133-1.117,0.769-1.362,1.712-1.364c1.132-0.002,1.981-0.176,2.884-1.234&#xD;&#xA;	c1.477-1.734,3.235-3.785,5.739-0.756c0.515,0.624,2.43,0.091,3.715,0.091c-0.875-4.181-3.448-7.851-2.957-12.304&#xD;&#xA;	c0.343-3.109-1.347-5.896-2.422-8.512c-1.578-3.838-1.847-7.253,1.291-9.646c3.932-2.998,5.044-8.23,9.579-10.718&#xD;&#xA;	c2.019-1.107,5.479-1.734,4.779-5.511c1.573,1.359,4.114-0.759,4.99,0.633c2.864,4.553,8.762,6.344,10.513,11.861&#xD;&#xA;	c0.176,0.555,0.85,1.146,0.724,1.822c-1.241,6.671,2.454,12.887,1.766,19.503c-0.159,1.532,0.002,3.113,2.126,2.662&#xD;&#xA;	c1.594-0.338,4.357,1.652,4.517-2.008c0.035-0.797-0.246-1.826,0.898-2.124c2.595-0.677,2.119-1.132-0.041-1.756&#xD;&#xA;	c-1.32-0.38-0.826-1.664-0.843-2.574c-0.059-3.147,0.514-6.418-0.162-9.415c-0.806-3.574,2.687-4.703,3.33-7.416&#xD;&#xA;	c0.226-0.95,2.252-0.473,3.433,0.868c1.331,1.512,2.594,2.997,5.419,0.854c1.844-1.398,5.522-0.494,8.373-0.418&#xD;&#xA;	c3.311,0.09,4.391-1.374,5.595-4.58c2.61-6.955,1.211-13.924,1.351-20.852c0.065-3.242,1.051-6.017,2.402-8.581&#xD;&#xA;	c1.588-3.015,2.004-5.541-0.143-8.292c-0.24-0.308-0.414-0.838-0.333-1.2c1.179-5.282-2.378-9.999-1.789-15.208&#xD;&#xA;	c0.079-0.701,0.241-1.833-0.113-2.079c-5.032-3.484-1.352-7.059,0.325-9.977c1.386-2.412,1.519-4.654,1.503-7.107&#xD;&#xA;	c-0.008-1.391,0.497-2.147,1.873-2.309c3.334-1.479,6.045-0.563,8.513,1.977c2.701,2.776,5.638,5.55,7.482,8.801&#xD;&#xA;	c2.628,4.633,6.939,5.174,11.127,6.178c3.107,0.747,6.027,0.469,6.414-3.947c0.195-2.23,2.178-3.35,4.143-3.912&#xD;&#xA;	c3.303-0.945,6.856-0.279,10.169-1.373c0.38-0.126,0.89,0.021,1.179,0.371c5.039,6.09,12.989,5.929,19.485,8.853&#xD;&#xA;	c5.387,2.424,6.348,3.934,2.451,8.519c-3.567,4.197-3.501,4.435,1.23,7.69c4.418,3.041,9.686,4.12,14.548,6.042&#xD;&#xA;	c3.306,1.308,7.141,0.462,10.553-1.897c4.254-2.94,7.047-1.557,7.762,3.568c0.364,2.612,1.49,4.161,3.789,5.18&#xD;&#xA;	c2.355,1.043,4.55,2.461,6.969,3.337c2.528,0.917,4.406,2.46,6.05,4.568c2.946,3.778,5.154,4.346,9.773,2.876&#xD;&#xA;	c1.092-0.348,2.164-0.748,3.296-0.948c3.499-0.621,4.985-3.065,5.576-6.253c0.261-1.409,0.018-2.869,0.179-4.285&#xD;&#xA;	c0.211-1.853-0.587-4.719,2.177-4.82c2.466-0.091,3.298,2.379,3.513,4.663c0.298,3.174-0.179,6.205-1.125,9.288&#xD;&#xA;	c-1.537,5.011-0.275,6.489,4.928,6.542c0.859,0.01,1.718,0.017,2.578-0.001c3.267-0.065,7.455,0.621,8.71-2.983&#xD;&#xA;	c1.293-3.713,1.854-8.033-1.316-11.748c-2.214-2.595-1.333-6.307,1.728-8.602c1.978-1.484,4.257-2.195,6.754-2.499&#xD;&#xA;	c4.523-0.551,5.699-3.216,3.356-7.214c-0.36-0.616-0.876-1.141-1.195-1.781c-2.061-4.129-0.394-7.009,4.207-7.268&#xD;&#xA;	c1.286-0.072,2.58-0.087,3.865-0.028c3.394,0.153,5.255-1.147,5.788-4.774c0.641-4.361,2.244-5.29,7.679-5.545&#xD;&#xA;	c5.904-0.275,8.335-1.846,9.669-6.07c0.6-1.9,0.143-3.623-0.327-5.454c-1.041-4.045,0.899-6.262,4.868-5.298&#xD;&#xA;	c3.101,0.754,4.552-0.437,5.502-3.129c1.095-3.102,1.004-6.134,0.029-9.252c-1.782-5.702,0.684-13.083,5.383-16.508&#xD;&#xA;	c0.591-0.431,1.289-0.996,1.935-0.754c4.051,1.515,8.665-0.021,12.541,2.344c4.382-0.075,7.252,3.191,10.725,5.031&#xD;&#xA;	c4.191,2.22,7.935,2.463,12.173,0.139c3.102-1.701,6.663-2.522,9.396-5.002c1.078-0.977,2.611-1.647,3.994-1.038&#xD;&#xA;	c3.335,1.47,6.097,0.148,8.949-1.305c1.582-0.806,3.401-1.271,4.791,0.204c1.492,1.583,0.526,3.18-0.523,4.636&#xD;&#xA;	c-1.011,1.402-1.903,2.868-2.292,4.581c-0.911,4.015-0.117,5.286,4.014,6.045c3.132,0.575,5.519,2.461,6.269,5.246&#xD;&#xA;	c0.946,3.51,3.416,5.157,6.073,6.8c3.324,2.057,7.104,3.058,10.843,3.979c3.189,0.785,6.018-0.453,8.063-2.938&#xD;&#xA;	c2.347-2.853,5.282-3.793,8.364-2.096c3.109,1.713,3.574,4.776,2.752,8.251c-1.924,8.141,8.029,14.037,13.599,13.244&#xD;&#xA;	c1.714-0.244,2.529-1.141,2.641-2.809c0.057-0.861-0.042-1.715-0.069-2.572c-0.07-2.185-2.839-4.773,0.363-6.451&#xD;&#xA;	c2.442-1.279,8.593,2.17,9.575,4.912c2.096,5.844,2.045,5.629,8.27,4.165c4.94-1.162,9.373-0.796,14.056,2.669&#xD;&#xA;	c4.761,3.522,8.833,8.696,15.546,9.325c1.873,0.176,3.135,1.931,3.378,4.003c0.239,2.033-0.937,3.181-2.596,4.013&#xD;&#xA;	c-0.64,0.321-1.272,0.661-1.875,1.049c-2.764,1.776-2.515,4.525-1.566,6.891c0.938,2.341,3.129,1.187,4.878,0.646&#xD;&#xA;	c2.365-0.731,5.112-1.69,6.637,0.847c1.629,2.711,1.549,6.086-0.888,8.363c-3.762,3.515-4.507,7.739-4.258,12.508&#xD;&#xA;	c0.217,4.148,0.233,8.308-1.594,12.203c0.446,3.799,2.878,5.246,6.396,5.714c4.514,0.6,5.1,1.804,3.252,5.964&#xD;&#xA;	c-0.116,0.262-0.249,0.515-0.367,0.776c-0.998,2.199-2.833,4.766-0.917,6.774c2.018,2.116,5.098,1.199,7.691,0.312&#xD;&#xA;	c2.153-0.737,4.296-1.51,5.822-3.443c1.466-1.857,3.797-2.486,5.785-3.601c2.9-1.625,4.776-0.672,6.271,2.106&#xD;&#xA;	c2.506,4.661,3.66,4.832,7.662,1.494c2.48-2.07,3.819-1.858,5.42,0.854c2.928,4.966,5.229,5.973,10.546,4.521&#xD;&#xA;	c1.76-0.48,3.685-1.689,5.035,0.394c1.255,1.935-0.201,3.491-1.333,4.987c-2.155,2.849-3.283,6.036-2.907,9.63&#xD;&#xA;	c0.712,6.8,1.248,13.538,7.164,18.503c3.676,3.085,3.246,4.139-1.49,5.817c-5.083,1.802-8.727,5.903-13.563,8.161&#xD;&#xA;	c-5.134,2.396-9.902,5.452-14.041,9.511c-2.279,2.235-3.867,4.333-3.951,7.666c-0.113,4.505-0.928,4.869-5.422,5.313&#xD;&#xA;	c-5.91,0.583-10.982-1.365-15.766-4.465c-5.701-3.694-12.755-3.516-17.824,0.866c-2.213,1.913-4.525,3.45-7.255,4.419&#xD;&#xA;	c-5.613,1.993-10.273,5.628-14.813,9.253c-3.828,3.057-5.146,7.778-5.861,12.53c-0.231,1.539,0.092,3.175-0.909,4.558&#xD;&#xA;	c-0.271,1.943-0.813,3.952,2.925,5.646c-5.85,0.204-8.536,2.539-10.632,6.229c-1.106,1.948-3.388,3.421-5.814,0.842&#xD;&#xA;	c-0.841-0.895-2.718-0.979-2.776,0.228c-0.182,3.687-2.723,2.511-4.613,2.622c-1.926,0.114-3.588,0.193-5.354,1.586&#xD;&#xA;	c-3.2,2.523-6.925,3.075-10.63,0.539c-0.849-0.581-1.756-0.47-2.727,0.174c-2.762,1.834-5.556,1.949-8.361-0.094&#xD;&#xA;	c-0.948-0.691-2.001-0.74-2.951,0.366c-3.224,3.754-8.357,5.034-11.699,8.121c-3.131,2.895-7.269,4.509-9.784,8.088&#xD;&#xA;	c-1.435,2.042-3.784,1.207-5.468,0.684c-1.068-0.332-3.387-2.035-2.328-3.339c1.839-2.261,0.382-4.048-0.292-5.562&#xD;&#xA;	c-2.004-4.503-3.5-9.21-5.636-13.615c-0.412-0.847-1.115-4.313-3.131-2.683c-1.282,1.036-3.468,1.785-3.812,4.132&#xD;&#xA;	c-1.059,7.214-3.073,8.668-10.175,10.455c-2.283,0.574-6.332,0.274-6.581,5.097c-0.096,1.85-3.166,3.569-4.933,5.294&#xD;&#xA;	c-0.617,0.602-1.079,0.115-1.749-0.274c-2.249-1.31-4.596-1.619-6.811,0.264c-1.231,1.047-2.743,0.451-4.127,0.551&#xD;&#xA;	c-1.634,0.118-3.65-0.5-3.514,2.312c0.031,0.651-0.483,1.118-1.084,1.047c-4.094-0.484-8.298,1.462-12.17-2.533&#xD;&#xA;	c-4.204-4.339-9.337-7.834-13.689-12.121c-2.806-2.765-3.07,0.162-3.85,1.671c-0.294,0.567-0.088,1.409-0.062,2.125&#xD;&#xA;	c0.133,3.615,0.156,6.518-4.567,8.116c-2.274,0.769-5.789,3.354-5.817,7.33c-0.003,0.47-0.352,1.194-0.735,1.365&#xD;&#xA;	c-6.398,2.868-12.592,7.659-20.022,5.15c-4.839-1.634-7.25,0.03-9.508,3.684c-1.747,2.826-4.963,2.185-6.893,1.424&#xD;&#xA;	c-3.433-1.354-7.32-1.711-10.327-4.147c-1.752-1.421-4.006-1.36-5.492-0.207c-2.589,2.009-4.603,1.585-6.445-0.602&#xD;&#xA;	c-1.789-2.122-3.327-2.243-4.969,0.004c-1.106,1.515-2.594,1.763-4.388,1.778c-6.104,0.055-9.569-3.615-13.273-7.885&#xD;&#xA;	c-1.53-1.763-2.849-7.248-8.054-3.873c-0.903,0.586-4.441-2.333-6.379-4.063c-1.904-1.698-4.056-3.261-6.225-2.061&#xD;&#xA;	c-1.778,0.985-3.005,3.329-2.962,5.749c0.029,1.664-0.343,2.387-2.286,2.718c-5.305,0.904-10.49,2.378-14.104,6.845&#xD;&#xA;	c-1.626,2.009-3.633,2.386-6.153,2.657c-5.416,0.582-11.299,0.62-15.079,5.566c-1.171,1.532-2.532,1.316-3.781,1.113&#xD;&#xA;	c-2.579-0.421-4.436,0.515-5.239,2.764c-1.28,3.582-3.859,4.967-7.335,5.02c-2.909,0.043-3.057,4.101-6.297,3.559&#xD;&#xA;	c0.63,1.833,2.336,1.604,3.182,2.809c1.84,2.62,1.496,3.653-1.289,4.951c-2.868,1.337-5.416,2.792-7.024-1.077&#xD;&#xA;	c-0.604-1.454-1.327-3.074-1.616-4.439c-0.542-2.56-1.891-2.494-3.603-2.319c-4.878,0.501-7.435-1.558-9.971-5.99&#xD;&#xA;	c-3.086-5.393-6.379-10.934-12.223-14.601c-3.207-2.013-4.299-6.855-7.229-9.905c-3.063-3.189-7.006-4.945-10.63-7.125&#xD;&#xA;	c-1.401-0.842-3.218-1.593-3.782-2.827c-1.723-3.774-4.79-3.672-7.971-3.39c-3.026,0.27-5.037-0.759-7.233-3.048&#xD;&#xA;	c-4.218-4.399-7.25-8.611-8.725-15.098c-1.21-5.323,0.607-8.599,1.996-12.71c0.624-1.846,0.892-3.517-2.205-3.635&#xD;&#xA;	c-6.967-0.267-6.822-0.423-7.017-7.38c-0.108-3.843,1.606-8.317-2.991-11.039c-0.323-0.191-0.366-1.058-0.342-1.602&#xD;&#xA;	c0.172-3.873-1.712-4.981-5.739-3.239c-3.908,1.69-7.502,1.796-10.532-1.723C98.756,652.588,98.756,650.581,98.756,648.575z" />
	<path id="0591-lianjiangxian" fill-rule="evenodd" clip-rule="evenodd" fill="#D3D3D3" stroke="#FFFFFF" stroke-miterlimit="10" d="M1139.963,241.034&#xD;&#xA;	c-3.359,1.32-6.523,2.821-10.191,0.195c-1.984-1.421-7.614,2.288-7.619,5.864c-0.004,4.414-2.852,5.259-5.524,6.354&#xD;&#xA;	c-1.816,0.745-3.131,1.792-4.423,3.096c-3.559,3.59-3.562,3.571,0.623,6.23c1.754,1.114,1.706,3.294,0.217,3.553&#xD;&#xA;	c-2.363,0.41-5.379,1.753-7.378-1.108c-0.46-0.659-0.932-1.121-1.677-1.07c-3.797,0.254-4.424,4.27-7.019,6.006&#xD;&#xA;	c-1.444,0.965-1.169,2.314-0.147,3.695c3.112,4.211-1.326,6.442-3.167,8.44c-1.442,1.564-5.172,1.744-7.701-0.445&#xD;&#xA;	c-2.581-2.233-6.417-1.811-9.154-4.151c-0.442-0.378-3.926,2.447-5.726,4.094c-2.661,2.435-5.832,1.504-8.348,0.742&#xD;&#xA;	c-1.703-0.516-0.97-3.344-0.096-5.268c1.095-2.408-0.94-3.706-2.541-3.546c-5.114,0.507-10.672-2.279-15.345,2.652&#xD;&#xA;	c-1.619,1.71-5.169,2.269-7.81,2.207c-7.347-0.173-9.802,6.179-14.178,9.93c-1.148,0.983,0.375,1.727,0.967,2.375&#xD;&#xA;	c1.515,1.657,3.486,1.458,5.076,0.455c2.762-1.741,4.959-1.328,7.761,0.222c2.632,1.454,2.328,4.068,1.49,4.958&#xD;&#xA;	c-2.75,2.921-3.173,6.508-4.041,10.016c-0.264,1.065-0.904,1.315-1.833,1.39c-0.848,0.068-2.07-0.1-2.472,0.382&#xD;&#xA;	c-4.913,5.888-9.48,0.579-13.908-0.697c-1.752-0.505-2.965-3.449-2.924-5.985c0.022-1.432,0-2.864-0.019-4.296&#xD;&#xA;	c-0.014-1.056-0.164-2.046-1.504-2.182c-0.89-0.089-1.707-0.019-2.121,0.983c-1.069,2.584-3.05,3.577-5.766,3.229&#xD;&#xA;	c-1.378-0.177-2.038,0.884-2.803,1.678c-1.989,2.066-3.911,4.127-7.238,3.512c-0.99-0.183-1.853,0.163-2.305,1.389&#xD;&#xA;	c-1.401,3.799-3.606,4.959-7.187,3.102c-1.95-1.011-2.512-0.571-2.234,1.057c0.414,2.421-1.438,3.893-1.859,5.911&#xD;&#xA;	c-0.398,1.904-1.93,1.31-3.119,1.332c-1.663,0.032-1.837-1.239-1.638-2.39c0.775-4.5-1.225-5.982-5.456-5.321&#xD;&#xA;	c-0.833,0.13-1.568-0.287-2.362-0.718c-3.558-1.937-6.18-1.009-7.043,2.771c-0.425,1.864-1.155,2.609-2.777,2.228&#xD;&#xA;	c-2.396-0.564-4.058,1.211-5.857,1.942c-6.092,2.472-12.38,0.713-18.435,1.679c-5.006,0.797-10.153,2.14-13.408,6.781&#xD;&#xA;	c-5.863,2.427-10.494,6.939-16.223,9.59c-1.772,1.482-4.577,0.35-5.573,2.362c1.461-1.056,3.879-1.17,5.77-2.563&#xD;&#xA;	c4.293-2.272,9.259-3.416,12.448-7.54c0.928-1.2,2.744-0.576,3.811-1.609c1.14-0.045,2.379,0.186,3.4-0.185&#xD;&#xA;	c5.154-1.869,10.795,1.501,10.805,7.091c0.005,3.797,1.418,4.515,4.778,4.399c4.315-0.148,6.302,3.477,8.021,6.526&#xD;&#xA;	c0.928,1.643,1.107,4.5-2.829,4.361c-3.797-0.134-3.32,4.688-6.01,6.144c-0.297,0.162,0.78,0.625,1.065,1.007&#xD;&#xA;	c1.64,2.198,1.536,4.133-0.102,6.606c-2.311,3.488-6.5,4.888-8.558,8.594c-0.695,1.253-2.126,1.152-2.805-0.688&#xD;&#xA;	c-0.652-1.769-1.597-3.429-2.498-5.315c-3.782,4.236-5.674,9.19-8.24,13.744c-1.063,1.887-0.981,3.249,0.584,4.877&#xD;&#xA;	c4.144,4.307,8.456,7.746,14.869,8.524c2.597,0.315,5.277,1.434,8.097,1.498c1.675,0.039,1.393,1.452,1.492,2.562&#xD;&#xA;	c0.202,2.234-0.736,3.827-2.744,4.711c-0.932,0.41-2.335-0.4-3.079,1.504c3.627,0.228,6.148,3.871,10.692,0.987&#xD;&#xA;	c4.072-2.584,11.764,3.367,11.492,7.989c-0.138,2.346-1.365,3.506-3.433,4.201c-2.932,0.986-5.816,1.742-3.063,6.04&#xD;&#xA;	c2.006,3.132-0.308,7.773-3.883,8.332c-3.527,0.551-4.493-2.962-5.372-5.021c-3.343-7.832-4.638-8.843-12.864-7.621&#xD;&#xA;	c-0.685,0.102-1.431,0.006-2.096,1.072c2.105,0.741,3.11,2.491,4.14,4.358c1.223,2.216,1.122,4.578,0.471,6.595&#xD;&#xA;	c-0.979,3.031-3.959,2.683-6.541,2.586c-0.765-0.833-0.78-1.836-0.519-2.826c0.502-1.885-0.449-2.863-1.934-3.805&#xD;&#xA;	c-8.505-5.398-17.551-9.218-27.827-8.279c-7.316,0.668-14.848,1.047-20.824,6.434c-2.462,2.217-5.34,2.419-8.378,0.837&#xD;&#xA;	c-4.822-2.511-9.716-4.883-14.752-6.951c-1.459-0.6-2.854-1.381-3.87-2.638c-4.415-5.464-10.378-7.525-17.094-7.153&#xD;&#xA;	c-8.599,0.477-16.085-2.595-23.553-6.22c-4.474-2.172-9.286-3.622-13.648-6.075c-1.312-3.176-3.265-6.007-4.896-9.013&#xD;&#xA;	c-2.385-4.394-6.784-6.202-11.624-4.896c-7.123,1.921-8.358,0.92-13.107-5.036c-3.117-3.908-4.566-7.731-4.183-12.519&#xD;&#xA;	c0.104-1.298-0.202-2.568-0.956-3.682c-1.976-2.918-1.902-5.763-0.152-8.847c1.714-3.019,2.247-6.615-0.216-9.218&#xD;&#xA;	c-2.463-2.602-5.795-3.92-9.789-2.577c-6.563,2.207-9.096,1.131-12.044-5.059c-2.512-5.273-5.194-10.454-6.474-16.299&#xD;&#xA;	c-0.935-4.273-2.542-8.434-6.99-10.829c-2.751-1.482-2.27-4.493-1.479-6.972c1.5-4.707,1.915-9.021-1.23-13.44&#xD;&#xA;	c-2.116-2.972,0.009-6.262,4.04-7.144c4.351-0.951,5.293-2.474,2.359-5.294c-4.077-3.919-4.072-8.486-4.026-13.401&#xD;&#xA;	c0.086-9.498,0.034-9.46-8.949-6.5c-2.707,0.892-5.397,1.589-7.853,3.26c-2.24,1.525-5.061,1.401-7.318-0.205&#xD;&#xA;	c-2.215-1.574-4.507-2.224-7.178-2.369c-4.335-0.236-6.119-3.297-3.807-7.083c1.522-2.491,1.649-4.634,0.97-7.256&#xD;&#xA;	c-0.501-1.931-0.187-3.989-0.172-5.995c0.026-3.455,2.567-4.512,5.151-5.518c3.961-1.542,4.087-2.145,1.238-5.438&#xD;&#xA;	c-2.507-2.898-5.323-5.584-6.758-9.271c-0.117-1.752,1.169-2.446,2.388-3.234c3.932-2.545,7.108-6.254,11.89-7.506&#xD;&#xA;	c1.078-0.282,1.94-1.289,2.521-2.267c2.256-3.803,5.646-4.905,9.859-4.649c3.426,0.208,6.873,0.048,10.311,0.053&#xD;&#xA;	c3.347,0.005,5.966,1.108,6.773,4.655c0.481,2.107,1.516,2.386,3.399,1.757c4.327-1.446,8.978-2.236,12.531-5.32&#xD;&#xA;	c3.256-2.824,6.921-3.3,10.849-2.543c2.794,0.537,4.72,0.064,5.766-2.858c1.084-3.028,3.83-2.537,6.213-2.497&#xD;&#xA;	c2.719,0.045,5.207,0.946,6.415,3.542c1.112,2.393,0.044,4.402-1.88,6.063c-1.905,1.645-2.264,4.268-3.754,6.212&#xD;&#xA;	c-1.139,1.488-0.059,2.521,1.235,2.942c3.381,1.099,5.308,3.072,5.168,6.848c-0.054,1.462,0.92,2.458,2.533,2.18&#xD;&#xA;	c2.64-0.455,5.386-0.147,7.859-1.775c2.511-1.653,5.186-1.557,7.395,0.811c2.316,2.483,4.51,1.771,6.001-0.639&#xD;&#xA;	c1.409-2.278,3.203-3.074,5.671-3.042c4.655,0.06,7.801-2.542,10.122-6.179c3.966-6.218,13.588-8.271,19.372-3.852&#xD;&#xA;	c1.298,0.992,2.458,1.321,3.937,0.809c0.812-0.281,1.605-0.614,2.45-0.794c6.458-1.386,8.414,0.185,8.457,6.736&#xD;&#xA;	c0.014,2.006-0.129,3.996-0.467,6.404c3.834-2.706,7.866-3.425,12.211-3.134c2.977,0.2,4.482,1.466,4.538,4.479&#xD;&#xA;	c0.034,1.862,0.028,3.724,0.088,5.584c0.096,2.938,1.433,3.733,4.205,2.763c6.925-2.423,13.926-2.578,20.912-0.246&#xD;&#xA;	c0.989,0.33,1.646,0.1,2.311-0.516c0.949-0.88,1.867-1.812,2.46-2.965c2.276-4.429,5.488-7.548,10.672-8.292&#xD;&#xA;	c7.1-1.019,9.625-6.726,10.729-12.43c0.827-4.273,2.172-8.169,3.807-12.081c2.761-2.424,6.12-2.249,9.377-1.857&#xD;&#xA;	c4.24,0.509,6.201,4.168,4.01,7.818c-1.221,2.035-0.783,3.488,0.176,5.123c0.863,1.473,1.807,2.883,2.618,4.404&#xD;&#xA;	c1.688,3.165,2.994,6.082,0.335,9.404c-0.666,0.833-0.375,2.233-0.308,3.373c0.207,3.509-0.447,6.754-2.098,9.931&#xD;&#xA;	c-1.998,3.847-1.71,3.988,2.343,5.69c3.191,1.341,5.515,3.555,5.681,7.352c0.165,3.763-1.863,5.772-5.234,6.892&#xD;&#xA;	c-1.47,0.49-2.952,1.086-4.437,2.418c3.473,2.761,7.712,4.25,10.816,7.393c1.017,1.03,2.747,0.276,4.088-0.295&#xD;&#xA;	c3.168-1.352,6.495-1.119,9.743-0.693c3.574,0.468,5.956,3.95,4.313,6.874c-2.115,3.765-3.312,8.334-7.498,10.824&#xD;&#xA;	c3.252-1.944,6.506-2.006,9.874-0.308c1.956,0.987,3.036,2.287,3.353,4.555c0.532,3.811,1.327,4.085,4.632,2.02&#xD;&#xA;	c1.212-0.757,2.484-1.419,3.604-2.331c2.763-2.25,4.672-5.491,8.072-6.99c3.108-1.372,5.701-3.7,10.121-4.746&#xD;&#xA;	c-5.341-1.988-7.007-5.07-5.924-9.692c0.367-1.568-0.79-2.989-1.567-4.361c-2.778-4.9-1.743-8.894,2.855-12.048&#xD;&#xA;	c3.701-2.539,7.948-4.599,9.146-9.622c0.341-1.428,1.838-1.679,3.155-1.807c2.567-0.25,5.106-0.104,7.645,0.739&#xD;&#xA;	c-2.353-3.931-2.17-4.979,2.033-6.083c6.853-1.799,10.702-6.803,14.187-12.325c0.761-1.207,1.4-2.507,1.967-3.818&#xD;&#xA;	c3.024-7.008,9.597-8.333,15.936-9.415c4.643-0.792,5.966,0.826,5.688,5.589c-0.135,2.311-0.158,3.679,2.794,3.958&#xD;&#xA;	c3.243,0.308,4.885,3.288,6.63,5.632c1.617,2.173,2.747,4.848,3.037,7.503c0.311,2.861,1.65,4.812,3.667,6.482&#xD;&#xA;	c1.47,1.216,2.413,2.825,3.575,4.269c0.759,0.942,1.288,1.975,2.631,0.654c1.599-1.571,3.344-1.622,4.865,0.091&#xD;&#xA;	c1.627,1.832,2.569,3.881,0.854,6.193c-1.274,1.715-2.7,3.355-1.05,6.614c2.106-4.198,5.126-5.824,9.218-4.737&#xD;&#xA;	c4.548,1.209,4.104,5.287,4.707,9.019c6.265-4.762,12.625-8.52,19.957-10.299c2.061-0.5,3.108-1.138,2.514-3.679&#xD;&#xA;	c-0.49-2.099-0.903-4.844,1.876-5.976c2.452-0.998,4.743-0.311,6.682,1.599c3.426,3.374,7.088,6.245,12.363,5.767&#xD;&#xA;	c1.961-0.178,3.055,1.299,4.068,2.725C1139.963,238.74,1139.963,239.888,1139.963,241.034z" />
	<path id="0591-luoyuanxian" fill-rule="evenodd" clip-rule="evenodd" fill="#D3D3D3" stroke="#FFFFFF" stroke-miterlimit="10" d="M923.516,187.706&#xD;&#xA;	c-2.416,7.11-2.792,14.881-6.88,21.445c-2.237,3.593-6.458,4.746-9.791,4.95c-4.341,0.267-5.773,3.312-7.193,5.68&#xD;&#xA;	c-1.154,1.926-2.574,3.519-4.012,5.059c-0.634,0.68-2.739,5.197-3.563-0.208c-0.141-0.921-1.134-0.711-1.788-0.715&#xD;&#xA;	c-4.724-0.029-9.452-0.143-14.169,0.051c-1.833,0.075-3.76,1.19-5.192,1.973c-4.148,2.268-3.844-0.754-4.396-2.935&#xD;&#xA;	c-0.205-0.807,0.076-1.727-0.057-2.565c-0.402-2.535,1.361-5.739-1.127-7.512c-2.559-1.823-11.328,0.311-13.317,3.005&#xD;&#xA;	c-0.96,1.302-2.065,1.327-2.849,0.833c-1.282-0.809-0.15-1.6,0.296-2.651c1.472-3.476,1.453-7.615,0.216-10.802&#xD;&#xA;	c-0.825-2.126-5.051-1.384-7.431-0.507c-2.894,1.066-5.483,3.572-6.937-1.439c-0.081-0.281-0.641-0.478-1.014-0.614&#xD;&#xA;	c-5.584-2.034-13.618,0.513-16.212,5.33c-2.379,4.419-5.807,6.854-10.915,6.623c-2.363-0.106-4.111-0.287-4.513,3.234&#xD;&#xA;	c-0.328,2.877-6.057,3.204-8.024,0.732c-2.415-3.033-3.593-3.145-6.429-0.354c-0.999,0.984-2.107,0.59-3.184,0.677&#xD;&#xA;	c-1.563,0.125-3.533-0.433-4.626,0.32c-3.329,2.294-4.326-0.777-4.005-2.242c1.159-5.298-2.703-6.208-5.963-7.389&#xD;&#xA;	c-1.589-0.576-2.631-1.614-1.763-2.512c2.404-2.49,2.709-6.537,5.371-8.271c2.055-1.336,2.492-2.592,2.048-4.321&#xD;&#xA;	c-0.462-1.796-2.49-3.004-3.951-2.897c-2.7,0.196-7.284-2.656-7.246,3.74c0.01,1.624-3.912,2.816-4.378,2.488&#xD;&#xA;	c-5.85-4.127-10.746-0.368-14.432,2.728c-3.034,2.548-6.585,1.727-9.354,3.716c-0.622,0.447-1.786,0.168-2.366,0.637&#xD;&#xA;	c-3.258,2.632-3.775,0.759-3.719-2.154c0.062-3.25-1.706-4.486-4.741-4.469c-4.866,0.028-9.742,0.18-14.596-0.069&#xD;&#xA;	c-2.246-0.115-3.497,1.1-4.443,2.507c-1.877,2.787-3.485,5.5-7.515,5.44c-2.032-0.03-2.647,2.499-4.408,3.444&#xD;&#xA;	c-2.36,1.266-4.31,3.298-6.436,5.001c-3.463,3.999-7.432,7.151-13.051,7.1c-2.644-0.024-4.706,0.91-6.438,2.823&#xD;&#xA;	c-2.033,2.246-4.288,2.627-6.846,0.812c-2.343-1.664-5.042-2.696-7.525-4.119c-3.497-5.648-8.383-10.376-11.056-16.571&#xD;&#xA;	c-1.104-2.559-3.021-3.656-5.76-3.575c-1.446,0.043-2.812-0.793-4.165-0.864c-8.254-0.431-13.14-7.776-20.58-9.849&#xD;&#xA;	c-1.531-0.426-1.939-1.864-0.661-3.011c2.806-2.515,4.624-5.997,8.868-7.101c4.061-1.056,4.636-4.216,2.2-7.644&#xD;&#xA;	c-5.316-7.485-12.07-12.066-21.728-11.055c-1.841,0.192-3.72,0.042-5.58,0.021c-7.577-0.083-12.574-7.176-9.375-14.11&#xD;&#xA;	c2.65-5.747,4.696-11.64,6.588-17.634c0.787-2.494,2.494-4.476,4.049-6.537c0.951-1.258,2.086-1.328,3.418-0.941&#xD;&#xA;	c2.939,0.503,5.803,0.632,7.268-2.676c0.788-1.778,2.223-1.42,3.594-1.458c7.35-0.207,11.403-5.052,14.875-10.647&#xD;&#xA;	c1.855-2.99,3.652-6.098,7.831-5.642c3.983,0.435,6.31,3.933,7.022,8.314c0.59,3.636,2.156,7.081,5.023,9.79&#xD;&#xA;	c2.929,2.768,4.48,6.766,5.627,10.232c1.717,5.191,5.09,4.142,8.538,4.287c3.472,0.146,4.786-2.586,6.326-4.879&#xD;&#xA;	c2.548-3.796,1.928-8.489,3.31-12.677c0.947-2.869,1.957-2.886,3.648-1.384c2.927,2.599,7.146,1.703,10.175,4.004&#xD;&#xA;	c0.232,0.176,2.368-1.216,2.317-1.759c-0.309-3.314,2.414-5.73,2.181-9.106c-0.461-6.653,1.826-12.291,7.588-16.182&#xD;&#xA;	c0.647-0.437,1.627-1.166,1.589-1.699c-0.165-2.369,0.756-4.741,2.726-5.036c3.768-0.563,7.754-0.567,11.515,0.039&#xD;&#xA;	c2.435,0.393,1.71,3.862,2.877,5.403c2.48,3.277-1.926,2.944-1.975,5.096c1.06,0.363,1.875,0.47,3.133-0.422&#xD;&#xA;	c3.604-2.556,6.521-6.527,11.689-6.155c0.602,0.044,0.991-0.264,1.14-0.955c0.332-1.54-1.369-2.262-1.833-2.461&#xD;&#xA;	c-5.177-2.217-1.813-4.919,0.315-5.179c3.083-0.375,5.445-3.723,9.599-1.147c4.132,2.564,10.843-1.82,9.965-6.706&#xD;&#xA;	c-0.583-3.248,2.6-5.476,2.109-8.703c-0.035-0.234,1.212-2.406,2.614-2.219c4.632,0.619,9.455-1.665,13.995,1.236&#xD;&#xA;	c1.6,1.022,4.271,1.088,5.677-0.087c1.111-0.93,1.281-3.123-0.512-4.765c-1.106-1.013-1.388-3.4,0.231-3.945&#xD;&#xA;	c1.504-0.506,3.756-1.26,5.286,0.889c3.268,4.589,5.308,4.614,8.41-0.016c0.6-0.897,1.144-0.925,1.922-1.185&#xD;&#xA;	c1.995-0.665,2.322-1.319,1.767-3.759c-0.361-1.582,2.239-1.411,1.593-3.02c2.579,0,5.158,0,7.737,0&#xD;&#xA;	c0.486,0.53,1.156,0.841,1.64,1.374c1.03,1.137-0.014,3.396,2.032,3.942c2.535,0.678,5.18,0.771,7.635-0.058&#xD;&#xA;	c3.046-1.027,5.346,0.048,7.411,1.997c3.544,3.344,8.036,4.857,12.496,6.108c5.215,1.462,7.533,3.6,7.714,9.163&#xD;&#xA;	c0.091,2.809,1.234,4.749,3.183,6.7c3.51,3.516,7.726,7.058,8.396,12.075c0.52,3.886,2.407,7.128,3.095,10.811&#xD;&#xA;	c0.227,1.216,0.657,2.432,2.004,2.42c4.913-0.042,7.939,4.45,12.578,5.078c1.277,0.173,2.604,1.318,2.707,2.53&#xD;&#xA;	c0.415,4.923,4.946,5.967,7.849,8.363c2.144,1.771,4.699,2.828,7.836,0.004c4.705-4.237,7.805-3.501,11.872,1.665&#xD;&#xA;	c2.674,3.395,5.656,6.483,8.906,9.283c3.867,3.33,6.445,3.078,10.522,0.027c2.926-2.189,5.758-4.779,9.902-4.549&#xD;&#xA;	c1.487,0.083,2.621-0.974,3.671-2.003c5.439-5.333,6.558-5.192,10.517,2.23c0.083-9.01,5.973-15.03,7.468-22.674&#xD;&#xA;	c0.421-2.148,1.667-3.565,3.514-4.6c2.738-1.537,5.623-2.833,8.426-4.192c2.697-1.308,5.792,0.544,8.669,1.155&#xD;&#xA;	c1.503,0.32,2.953,1.07,4.401,1.689c5.507,2.356,9.627,1.041,13.101-4.001c2.222-3.222,3.558-7.142,7.873-8.665&#xD;&#xA;	c4.432-1.563,6.699-1.113,9.339,2.895c1.054,1.6,2.358,2.88,4.073,3.708c2.662,1.287,4.755,3.183,6.178,5.765&#xD;&#xA;	c0.79,1.433,1.891,2.448,3.292,3.274c2.476,1.461,4.69,3.27,6.56,5.477c3.391,4,3.655,6.303,1.11,10.849&#xD;&#xA;	c-1.413,2.523-4.396,2.614-5.298,0.84c-2.182-4.286-6.738-5.827-9.328-9.386c-0.049-0.235-0.21-0.367-0.459-0.36&#xD;&#xA;	c0.072,0.221,0.311,0.386,0.227,0.682c-1.706,5.79-1.553,6.206,3.666,8.364c2.558,1.058,3.835,2.931,3.818,5.632&#xD;&#xA;	c-0.018,2.78,0.186,5.444,2.33,7.539c0.201,0.195,0.33,0.47,0.433,0.736c2.074,5.386,4.926,8.191,10.293,9.853&#xD;&#xA;	c1.857,0.575,3.715,1.199,4.138,3.254c0.424,2.058-1.701,2.402-2.906,3.222c-2.438,1.657-3.745,4.784-6.992,5.36&#xD;&#xA;	c-0.371-0.196-0.677-0.487-0.995-0.76c0.181,0.187,0.39,0.344,0.577,0.551c1.454,1.182,2.346-0.288,3.459-0.698&#xD;&#xA;	c3.733-1.37,5.837,0.023,6.019,3.96c0.073,1.592-0.475,3.138-0.447,4.691c0.039,2.1,0.002,4.284,2.617,5.324&#xD;&#xA;	c4.034,1.604,5.993,4.375,5.351,8.497c-0.521,3.353,0.654,5.185,3.479,6.432c0.393,0.173,0.837,0.354,1.089,0.676&#xD;&#xA;	c1.794,2.303,6.488,2.309,5.586,6.699c-0.947,4.61-5.113,8.357-9.735,9.062c-1.421,0.217-2.863,0.182-4.293,0.14&#xD;&#xA;	c-3.453-0.102-5.712,1.542-6.964,4.668c-1.217,3.04-2.968,5.853-4.49,8.693c-2.756,5.14-8.454,6.39-13.742,7.605&#xD;&#xA;	c-1.046,0.24-1.634-0.217-2.404,1.226c-1.848,3.46-6.049,3.886-9.197,1.407c-2.965-2.334-3.695-7.287-1.524-9.899&#xD;&#xA;	c2.05-2.468,5.847-3.173,6.735-6.854c0.215-0.889,2.383-0.776,1.551-2.493c-0.744-1.536-1.211-3.624-3.074-3.88&#xD;&#xA;	c-3.52-0.484-5.865-2.63-8.451-4.694c-1.887-1.505-4.111-3.483-5.81,0.823c-1.009,2.558-5.773,2.923-8.699,2.085&#xD;&#xA;	c-4.509-1.292-8.217-4.193-12.629-5.652c-2.851-0.943-5.384-2.57-7.204-5.173c-2.126-3.037-5.923-2.553-8.889-3.831&#xD;&#xA;	c-5.928-2.552-10.574-5.877-11.499-12.945c-0.527-4.025-4.166-5.521-7.363-7.078c-1.138-0.553-2.793-0.5-3.399-1.646&#xD;&#xA;	c-1.858-3.514-3.788-1.278-5.676-0.231c-2.501,1.385-1.546,3.173-0.641,5.125c1.22,2.632-2.674,8.971-6.062,9.278&#xD;&#xA;	c-3.715,0.336-5.198,2.18-5.961,5.523c-0.839,3.683-2.213,7.177-7.278,8.203c5.626,2.018,10.474,1.092,15.314,0.86&#xD;&#xA;	C920.879,185.043,923.61,184.078,923.516,187.706z" />
	<path id="0591-fuqingshi" fill-rule="evenodd" clip-rule="evenodd" fill="#D3D3D3" stroke="#FFFFFF" stroke-miterlimit="10" d="M541.859,688.125&#xD;&#xA;	c-1.517-6.953,2.278-12.421,5.079-18.168c4.753-0.272,6.631-5.036,10.604-6.732c4.743-2.024,9.692-3.569,13.555-7.675&#xD;&#xA;	c3.807-4.048,13.121-3.291,17.688-0.019c5.402,3.873,11.608,5.079,18.235,4.369c2.396-0.258,1.817-1.962,1.662-3.156&#xD;&#xA;	c-0.624-4.824,2.136-7.118,5.415-10.276c4.844-4.668,10.602-6.949,16.115-10.128c3.195-1.843,6.318-4.292,9.358-6.6&#xD;&#xA;	c1.692-1.285,3.616-0.045,5.389-1.576c-1.499-1.584-2.813-3.249-4.401-4.591c-2.829-2.392-4.086-5.047-4.671-8.955&#xD;&#xA;	c-0.472-3.149-1.128-6.347-1.394-9.604c-0.335-4.091,1.24-7.461,3.956-10.163c1.285-1.279,1.709-2.477,0.775-3.538&#xD;&#xA;	c-0.725-0.823-1.991-0.497-3.301,0.373c-4.611,3.068-11.347,0.245-12.55-5.032c-0.193-0.849-0.07-1.794-1.277-1.778&#xD;&#xA;	c-0.913,0.011-1.993-0.419-2.417,1.031c-0.86,2.944-3.153,3.622-5.821,3.178c-2.564-0.427-3.223-2.273-3.621-4.703&#xD;&#xA;	c-0.15-0.921-0.69-4.195-4.102-1.723c-2.498,1.811-5.672,2.754-7.898,5.283c-1.8,2.045-11.841,4.22-13.473,2.735&#xD;&#xA;	c-2.107-1.918-0.912-4.706-0.486-7.112c0.061-0.338,0.951-0.688,1.248-1.438c2.156-5.451,2.19-5.438-3.771-5.9&#xD;&#xA;	c-2.75-0.213-5.488-3.549-5.529-6.733c7.724-2.898,15.081-6.87,23.387-8.064c3.018-0.435,5.77-1.416,8.408-2.995&#xD;&#xA;	c8.12-4.859,16.994-7.473,26.4-8.153c3.043-0.221,5.908-0.815,8.738-1.923c9.785-3.826,19.857-5.278,30.297-3.421&#xD;&#xA;	c2.277,0.405,4.538,0.326,6.811-0.196c12.272-2.823,24.221-1.592,35.655,3.507c4.895,2.183,10.097,1.727,15.093,2.83&#xD;&#xA;	c5.031,1.113,10.103,2.043,14.484,5.008c2.988,8.758,6.758,17.225,9.899,25.929c0.834,2.307,0.214,4.424-1.639,6.263&#xD;&#xA;	c-3.058,3.035-5.453,6.643-7.902,10.152c-4.61,6.606-4.947,13.668-0.913,20.64c4.076,7.042,10.544,9.444,18.505,9.352&#xD;&#xA;	c4.87-0.057,9.243,0.322,13.164-3.823c2.428-2.567,9.34-0.531,11.84,2.813c1.451,1.94,3.11,2.859,5.425,2.788&#xD;&#xA;	c6.109-0.188,9.271,3.745,10.756,8.75c1.854,6.254,6.367,10.598,9.807,15.718c0.808,1.199,2.172,1.194,3.472,1.331&#xD;&#xA;	c7.528,0.791,14.394-1.375,21.103-4.493c5.311-2.469,10.839-2.423,16.125-0.129c2.75,1.193,5.737,1.692,8.338,3.32&#xD;&#xA;	c6.082,3.809,6.89,9.521,1.724,14.429c-1.711,1.625-1.957,3.39-1.514,5.446c0.433,2.007,1.988,2.517,3.782,2.931&#xD;&#xA;	c5.678,1.311,11.548,2.123,15.73,7.008c1.264,1.474,3.504,1.86,5.328,2.692c3.722,1.698,4.604,4.09,3.356,8.037&#xD;&#xA;	c-1.014,3.21-3.136,5.769-4.771,8.607c-1.478,2.567-1.564,4.831-0.322,7.66c1.827,4.161,3.729,8.328,5.107,12.675&#xD;&#xA;	c0.914,2.883,1.475,5.846-0.323,8.671c-0.895,0.043-1.788,0.085-2.682,0.128c-1.14,0.646-2.78-0.337-3.635,0.838&#xD;&#xA;	c-1.713,2.361-3.047,0.492-3.513-0.616c-1.17-2.79-3.307-2.582-5.585-2.54c-2.862,0.051-5.728,0.06-8.589,0&#xD;&#xA;	c-3.387-0.071-4.046-1.121-2.34-4.108c0.648-1.139,1.44-2.09-0.217-2.597c-1.248-0.381-3.01-0.708-3.201,1.567&#xD;&#xA;	c-0.094,1.121-0.573,2.199-0.167,3.381c0.256,0.743-0.105,1.635-0.907,1.622c-6.229-0.093-9.737,6.671-16.043,6.303&#xD;&#xA;	c-4.033,5.024-9.496,3.146-14.592,3.013c-1.241-0.032-2.144,0.23-2.659,1.572c-1.539,4.013-4.563,5.875-8.822,5.537&#xD;&#xA;	c-1.647-0.13-2.461,0.317-2.384,2.041c0.185,4.217-1.467,8.642,2.756,12.229c1.788,1.52,0.963,4.721,0.507,6.986&#xD;&#xA;	c-0.729,3.612,2.259,4.591,3.858,6.545c0.582,0.71,1.27,0.108,1.731-0.488c1.79-2.312,4.384-3.284,6.755-1.911&#xD;&#xA;	c2.549,1.477,3.476,4.516,4.162,7.385c1.544,6.443-2.223,11.181-5.272,16.11c-1.054,1.704-3.104,3.229,0.87,3.871&#xD;&#xA;	c1.293,0.209,1.266,1.757-0.001,2.087c-2.107,0.551-4.073,1.496-4.054,3.642c0.024,2.555,1.145,5.151,2.78,7.124&#xD;&#xA;	c2.803,3.379,5.918,6.562,9.287,9.354c5.739,4.756,10.845,3.105,13.081-1.683c1.332-2.854,2.817-6.252,2.361-9.996&#xD;&#xA;	c-0.449-3.682,1.64-5.5,5.472-5.59c3.292-0.077,6.586,0.02,9.878-0.034c1.224-0.021,2.433,0.265,3.576-0.858&#xD;&#xA;	c1.623-1.596,3.152-0.989,4.712,0.598c1.648,1.678,1.546,3.259,0.428,4.959c-1.084,1.649-2.503,3.05-4.074,4.802&#xD;&#xA;	c2.002,0.413,2.821-0.54,3.215-1.938c0.907-3.232,3.66-4.363,6.196-5.919c2.391-1.466,5.262-1.771,6.986-4.981&#xD;&#xA;	c1.611-3,5.942-3.673,9.168-5.151c1.785-0.818,2.908,1.065,3.754,2.203c0.84,1.128,0.825,2.707-0.602,3.795&#xD;&#xA;	c-3.077,2.348-4.78,5.132-4.311,9.34c0.212,1.897-1.614,3.561-4.01,3.447c-2.383-0.113-3.819,1.243-4.306,3.256&#xD;&#xA;	c-0.339,1.4-1.332,1.592-2.114,2.317c-1,0.929-0.986,2.521-0.022,3.479c0.886,0.88,2.114,0.601,2.979-0.462&#xD;&#xA;	c0.696-0.855,1.479-1.52,1.796-2.774c0.403-1.601,1.537-3.267,3.481-3.129c2.922,0.207,5.25-0.432,7.021-2.92&#xD;&#xA;	c0.65-0.913,1.735-0.813,2.648-0.091c1.102,2.617,5.172,4.272,3.434,7.707c-3.019,5.962,2.043,9.311,4.192,13.329&#xD;&#xA;	c1.03,1.929,0.248,1.929-0.545,2.69c-2.313,2.225-4.239,5.314-8.299,2.985c-2.127-1.221-3.169,1.823-5.245,1.688&#xD;&#xA;	c-2.995-0.197-6.015-0.131-9.018-0.004c-1.117,0.048-2.803-0.841-3.225,1.022c-0.22,0.971-0.748,2.637,0.701,2.938&#xD;&#xA;	c1.663,0.345,2.512,3.125,4.7,1.545c0.316-0.229,0.402-0.81,0.728-0.99c3.372-1.876,6.602-2.99,9.202,1.295&#xD;&#xA;	c0.723,1.188,1.992,2.057,3.605,2.641c-2.572,1.006-4.608,2.108-6.606,3.773c-1.697,1.415-4.228,3.326-7.869,0.944&#xD;&#xA;	c-3.796-2.483-8.998,0.128-11.396,4.477c-1.075,1.948-4.102,2.662-3.51,5.607c0.156,0.78-0.327,1.886,0.755,2.197&#xD;&#xA;	c0.888,0.255,1.764,0.37,2.621-0.661c2.152-2.586,5.117-4.478,6.799-7.464c0.8-1.419,1.544-1.445,2.551-0.503&#xD;&#xA;	c2.952,2.762,7.257,2.377,10.729-0.006c2.003-1.374,4.42-2.246,6.425-3.803c0.234-0.182,2.117,0.968,2.389,1.783&#xD;&#xA;	c0.609,1.826,1.148,4.013-0.337,5.601c-0.575,0.616-0.845,1.944-2.09,1.854c-3.879-0.282-4.914,3.461-7.399,5.142&#xD;&#xA;	c-1.306,0.883-1.259,2.2-0.577,2.865c0.873,0.851,1.958,0.771,3.149-0.543c2.623-2.892,5.868-4.614,10.138-4.185&#xD;&#xA;	c2.14,0.216,3.331,1.312,4.225,2.764c0.947,1.542-0.537,2.593-1.567,3.431c-1.562,1.27-2.334,3.044-4.64,4.007&#xD;&#xA;	c-3.411,1.424-0.647,4.308,0.531,6.222c0.974,1.581,2.877,2.574,3.95,4.118c0.77,1.105,1.974,1.405,2.453,0.9&#xD;&#xA;	c2.077-2.187,4.642-1.413,7.063-1.579c0.687-0.047,1.482,0.037,1.639-0.94c0.876-5.501,4.908-4.104,9.2-4.034&#xD;&#xA;	c-3.635,2.986-1.133,7.195-3.662,10.397c-1.497,1.894-2.585,4.755-1.972,7.723c0.353,1.704-1.233,1.786-2.312,1.553&#xD;&#xA;	c-1.897-0.412-3.713,0.962-3.758,1.884c-0.281,5.809-4.605,3.77-7.624,4.292c-0.214,0.036-0.389,0.298-1.055,0.839&#xD;&#xA;	c3.141,0.283,4.345,3.21,6.758,3.977c3.353,1.065,6.467-0.613,9.398-2.066c3.176-1.574,5.619-0.714,5.413,2.62&#xD;&#xA;	c-0.202,3.261,0.985,5.05,3.734,6.225c1.66-5.257,6.398-6.799,9.903-3.453c1.039,0.992,0.939,1.874,1.122,2.937&#xD;&#xA;	c0.689,3.988-2.512,7.252-2.067,11.307c0.092,0.845-1.734,2.855-3.81,2.436c-2.224-0.449-3.99,1.22-4.171,2.561&#xD;&#xA;	c-0.304,2.258-1.079,4.695,0.871,7.151c1.506,1.897,6.694,3.238,2.519,7.316c-0.078,0.077,0.083,0.538,0.248,0.705&#xD;&#xA;	c1.983,2.002,2.146,5.443,0.227,5.952c-3.122,0.827-6.917,1.428-10.171-0.552c-0.327-0.199-0.307-0.972-0.652-2.219&#xD;&#xA;	c-2.996,5.36-7.12,8.863-11.46,12.519c1.911,1.556,3.051-0.531,4.155-0.543c5.672-0.059,9.771-3.994,14.835-5.37&#xD;&#xA;	c0.746-0.203,2.048-0.48,2.26,0.486c0.36,1.643,0.188,3.395,0.341,5.092c0.183,2.018-0.785,2.431-2.563,3.358&#xD;&#xA;	c-2.161,1.129-3.922,3.559-5.27,5.988c-1.116,2.013-2.249,4.862-5.43,1.949c-0.941-0.861-2.005-0.738-3.247,0.46&#xD;&#xA;	c-3.008,2.902-12.624,3.478-16.397,1.364c-3.161-1.77-3.905,0.824-4.983,2.797l-0.064-0.066c3.405,1.399,1.573,3.203,0.749,5.393&#xD;&#xA;	c-1.351,3.589-4.639,3.146-6.031,1.925c-1.769-1.55-1.269-4.567,0.873-6.564c-3.886-1.357-7.587-8.024-6.748-12.036&#xD;&#xA;	c0.108-0.516,0.324-1.388,0.601-1.434c6.227-1.037,1.62-3.343,0.573-5.096c-1.635-2.741-3.262-5.455-5.961-7.437&#xD;&#xA;	c-0.878-0.646-0.911-2.747,0.013-3.547c1.151-0.999,1.447-2.001,1.297-3.285c-0.286-2.435,1.286-2.253,2.951-2.408&#xD;&#xA;	c2.981-0.276,5.125-3.535,3.78-5.977c-3.547-6.441-5.098-13.302-4.999-20.595c0.016-1.146-0.235-1.938-1.243-2.854&#xD;&#xA;	c-2.741-2.492-2.997-5.267-1.028-8.759c1.156-2.051,1.354-4.575,3.641-6.055c0.655-0.425,0.59-1.743,0.04-2.368&#xD;&#xA;	c-0.736-0.837-0.988,0.418-1.47,0.596c-2.857,1.062-0.784-2.365-2.415-2.6c-1.702,2.162-4.1,1.531-6.412,1.284&#xD;&#xA;	c-0.749-0.079-0.768-2.463-1.974-0.768c-0.463,0.649-0.556,1.946,0.65,2.6c1.353,0.732,1.021,2.021,0.562,2.975&#xD;&#xA;	c-0.408,0.851-1.543,0.613-2.353,0.427c-1.66-0.38-0.202-2.443-1.827-3.234c-3.328,4.116-7.057,7.754-12.938,7.93&#xD;&#xA;	c-0.769,0.023-2.07,1.418-2.137,2.257c-0.267,3.323-2.675,4.131-5.132,4.76c-0.05,1.042,0.512,1.175,1.086,1.146&#xD;&#xA;	c3.782-0.187,5.809,1.369,5.584,5.382c-0.049,0.875-0.457,2.156,1.083,2.345c1.002,0.122,1.699-0.087,2.452-1.104&#xD;&#xA;	c2.446-3.302,5.695-5.733,9.314-7.703c1.646-0.896,2.58-0.61,3.932,0.772c1.377,1.409,1.657,2.307,0.508,3.888&#xD;&#xA;	c-1.356,1.867-2.341,3.839,1.312,4.263c0.649,0.075,1.127,0.446,1.055,1.077c-0.323,2.845,1.015,5.274,1.688,7.894&#xD;&#xA;	c0.736,2.862-0.151,5.313-2.635,7.713c-2.353,2.273-4.89,4.732-6.369,7.965c-0.368,0.803-1.673,1.815-3.223,2.266&#xD;&#xA;	c-2.064,0.601-4.411,1.651-4.099,5.062c0.385,4.203-8.659,8.956-12.721,7.554c-1.592-0.551-0.843-1.883-1.035-2.897&#xD;&#xA;	c-0.514-2.694,1.775-2.251,3.293-2.448c-1.368-3.959-4.416-3.065-7.076-3.178c-1.843-0.077-4.242,0.823-4.254-3.597&#xD;&#xA;	c-1.771,3.352-3.059,5.848-6.244,5.56c-0.186,1.541,1.938,1.537,1.479,2.986c-0.403,1.275,1.075,3.396-1.632,3.624&#xD;&#xA;	c-2.424,0.205-1.764-1.614-1.922-2.921c-0.107-0.883,0.321-2.481-1.25-2.045c-1.333,0.368-3,1.473-2.815,3.036&#xD;&#xA;	c0.434,3.688-1.558,3.846-4.317,3.724c-2.887-0.129-3.873-1.541-4.615-4.255c-1.343-4.914,0.876-6.922,4.795-9.347&#xD;&#xA;	c3.058-1.891,5.731-4.051,9.378-4.933c2.292-0.555,2.756-7.777,1.754-10.675c-2.479-7.169-9.076-9.625-14.451-13.523&#xD;&#xA;	c-0.947-0.688-2.973,0.469-2.998-1.583c-0.034-2.685-0.864-5.574,0.427-8.011c1.383-2.611,2.843-4.943,3.088-8.11&#xD;&#xA;	c0.217-2.791,3.223-4.287,5.168-5.998c2.838-2.496-0.695-3.64-0.802-5.446c-0.052-0.883-2.087-0.001-3.25,1.111&#xD;&#xA;	c-4.931,4.718-7.752,4.489-14.328,1.118c-2.347-1.203-4.478,2.159-4.682,3.968c-0.876,7.767-8.443,9.643-12.37,14.654&#xD;&#xA;	c-0.758,0.967-4.36,1.164-5.558-0.333c-1.511-1.889-0.255-4.116,1.393-5.876c5.339-5.705,5.536-12.73,4.992-19.931&#xD;&#xA;	c-0.051-0.67-0.614-0.831-0.965-1.229c-3.003-3.412-2.49-6.721,1.854-8.35c2.688-1.006,3.192-3.024,4.65-4.745&#xD;&#xA;	c2.099-2.48,2.081-4.695,2.267-7.321c0.142-2.027-0.548-2.885-2.647-2.71c-1.708,0.142-3.438,0.001-5.156,0.032&#xD;&#xA;	c-5.371,0.098-10.33-1.486-15.356-3.214c-3.146-1.08-7.102,0.699-9.933-1.982c-3.762-3.563-9.121-0.973-12.48-2.936&#xD;&#xA;	c-3.572-2.085-7.636-2.705-11.066-5.077c-3.082-2.132-6.719-3.218-9.423-6.287c-2.373-2.692-2.691-5.261,0.544-7.131&#xD;&#xA;	c-0.137-1.453-2.302-0.437-2.487-2.299c-0.478-4.773,1.581-9.825-1.459-14.324c3.282-4.02,0.686-8.723,1.516-13.026&#xD;&#xA;	c0.785-4.065-1.099-6.79-4.573-8.957c-1.29,2.455,0.79,5.76-2.087,7.717c0.804,1.179,6.128,0.177,1.926,3.799&#xD;&#xA;	c-0.516,0.444,0.176,0.87,0.63,1.245c1.489,1.226,1.235,3.515,0.556,4.271c-3.904,4.345-0.271,8.072,0.899,11.741&#xD;&#xA;	c1.222,3.834,1.715,7.242-0.175,10.922c-1.077,2.098-1.124,4.785-0.201,6.649c2.075,4.189,1.613,7.74,0.061,12.055&#xD;&#xA;	c-1.065,2.959-1.397,6.192-3.368,8.861c-0.669,0.906,0.43,1.023,0.741,1.524c0.745,1.202-0.652,8.767-1.771,9.116&#xD;&#xA;	c-1.219,0.381-3.052,0.908-2.904-1.606l0.065,0.064c-3.675,2.466-2.324,6.821-1.329,8.948c1.783,3.809,1.443,7.438,1.195,11.028&#xD;&#xA;	c-0.393,5.659,1.007,10.374,5.489,13.743c1.872,1.407,1.417,3.669,3.037,5.164c1.219,1.124-0.66,2.459-1.609,3.343&#xD;&#xA;	c-1.53,1.423-3.492,1.287-5.009,0.184c-3.14-2.286-6.492-3.07-10.343-2.872c-4.903,0.254-7.663,2.827-7.769,7.845&#xD;&#xA;	c-0.095,4.545-7.267,9.298-10.367,6.505c-1.643-1.479-3.533-3.818-4.177-6.072c-1.277-4.471-4.837-8.313-3.706-13.513&#xD;&#xA;	c0.414-1.904-2.167-2.331-2.853-4.365c-1.171-3.478-1.361-7.657-4.421-10.456c-0.409-0.374-0.413-1.359-0.359-2.042&#xD;&#xA;	c0.3-3.827-0.774-8.008,3.009-10.968c0.543-0.425,0.387-1.871,0.383-2.843c-0.007-2.043-0.336-4.108,2.91-3.772&#xD;&#xA;	c1.81,0.187,1.485-1.493,1.37-2.5c-0.483-4.23,0.748-8.181,1.79-12.167c0.132-0.508,0.375-1.348,0.673-1.397&#xD;&#xA;	c4.209-0.703,3.013-4.732,4.437-7.121c2.56-4.293,1.92-10.763,6.092-13.408c5.989-3.799,5.134-11.157,9.741-15.401&#xD;&#xA;	c0.348-0.32-1.031-3.543-2.288-4.328c-1.732-1.083-1.945,0.778-2.388,2.249c-1.841,6.119-5.148,11.354-10.053,15.546&#xD;&#xA;	c-2.239,1.915-0.741,4.95-2.412,7.518c-2.693,4.14-4.49,8.791-7.452,13.003c-2.55,3.625-5.147,8.556-5.158,12.979&#xD;&#xA;	c-0.014,5.444-1.315,9.259-5.428,12.56c-1.117,0.896-1.295,1.635-2.341-0.002c-1.255-1.961-5.071-2.113-4.042-5.736l0.064,0.066&#xD;&#xA;	c-2.382,2.982-6.276,1.885-9.321,2.931c-4.059,1.393-4.27,5.115-6.807,7.199c-0.843,0.693-2.488,2.45-2.292,4.622&#xD;&#xA;	c-3.243-3.666-6.996-3.655-9.223-0.072c-1.247-1.724-2.003-3.761-4.311-4.507c-1.571-0.509-0.993-2.353-0.748-3.386&#xD;&#xA;	c0.73-3.08-1.847-6.502,2.156-9.497c2.024-1.515,1.371-2.261,2.44,0.291c0.461,1.1,2.062,1.172,3.177-0.713&#xD;&#xA;	c2.209-3.733,3.406-8.132,6.906-11.064c1.584-1.326,3.052-2.871,6.425-1.893c-1.986-2.219-2.496-3.28-0.847-5.447&#xD;&#xA;	c2.653-3.486,0.698-8.291-3.37-11.252c-0.945-0.688-2.024-1.717-2.262-2.766c-1.458-6.46-5.487-12.179-5.72-19.682&#xD;&#xA;	c-2.255,4.079-5.618,4.937-9.785,4.884c-1.416-0.018-2.771,2.761-4.336,4.041c-1.022,0.838-1.639,2.738-3.105,2.406&#xD;&#xA;	c-4.818-1.09-9.821-1.532-14.379-3.587c-1.271-0.573-1.323-2.54-1.629-3.488c-0.862-2.668-1.361-4.72-4.78-4.101&#xD;&#xA;	c-0.646,0.117-1.136-0.549-0.98-1.104c0.896-3.223-1.822-4.153-3.547-5.667c-1.74-1.526-2.094-3.454-2.742-5.612&#xD;&#xA;	c-1.877-6.248-0.35-13.324-4.648-18.964c-0.439-0.577-0.426-1.678-0.291-2.48c0.328-1.974-1.326-2.797-2.357-3.591&#xD;&#xA;	c-1.418-1.093-4.882,0.558-5.059-0.966c-0.767-6.607-8.07-11.485-5.326-18.631c1.09-2.839,0.926-5.955,2.721-8.649&#xD;&#xA;	c1.432-2.15,1.189-5.396,0.313-7.476c-1.195-2.834-0.668-6.15-2.739-8.628c-0.251-0.301-0.432-0.773-0.424-1.163&#xD;&#xA;	c0.124-6.413-3.776-12.81-1.521-18.941c1.672-4.547,0.669-9.296,2.86-13.811c1.541-3.173,3.559-2.295,5.027-1.975&#xD;&#xA;	c4.229,0.92,5.189-2.243,6.314-4.71c1.389-3.042-0.014-4.566-3.301-4.828c-2.412-0.192-5.965,1.638-6.432-2.992&#xD;&#xA;	c-0.018-0.171-1.115-0.504-1.516-0.326c-8.017,3.577-16.441,0.811-24.633,1.603c-2.979,0.288-6.049-0.259-9.005,0.131&#xD;&#xA;	c-3.12,0.411-5.208-2.799-8.302-1.913c-0.146-3.8-5.028-2.753-5.923-5.786c-0.583,0.366-1.155,0.338-1.718-0.045l-0.258-0.141&#xD;&#xA;	L541.859,688.125z" />
	<path id="0591-changyueshi" fill-rule="evenodd" clip-rule="evenodd" fill="#D3D3D3" stroke="#FFFFFF" stroke-miterlimit="10" d="M891.575,732.851&#xD;&#xA;	c0.612-5.417-0.246-10.107-3.548-14.975c-1.684-2.483-2.853-6.411-3.584-9.71c-0.574-2.585,1.856-6.482,3.586-7.705&#xD;&#xA;	c2.53-1.79,1.819-4.432,3.481-6.283c1.317-1.469,0.628-5.309-1.752-5.699c-5.039-0.826-7.851-4.865-11.952-6.938&#xD;&#xA;	c-3.573-1.806-7.303-2.877-11.229-3.186c-2.386-0.188-4.017-1.532-3.801-3.526c0.223-2.067-2.27-5.168,1.974-6.311&#xD;&#xA;	c2.334-0.627,2.893-2.813,3.139-5.338c0.388-3.981-1.855-6.73-4.613-7.734c-5.565-2.025-10.762-5.102-17.267-4.921&#xD;&#xA;	c-4.411,0.123-7.792,2.166-11.255,3.679c-6.47,2.824-12.985,2.631-19.639,2.599c-0.785-0.004-1.177-0.359-1.523-1.142&#xD;&#xA;	c-1.613-3.64-4.323-6.294-7.248-8.986c-1.134-1.045-1.667-4.136-2.133-6.347c-1.295-6.148-4.798-9.357-11.098-9.237&#xD;&#xA;	c-2.41,0.046-4.336-0.605-5.161-2.697c-1.612-4.082-5.6-3.277-8.483-4.029c-2.963-0.772-5.771,1.903-6.702,4.472&#xD;&#xA;	c-1.112,3.069-1.738,2.583-3.568,0.852c-0.911-0.862-2.315-1.03-3.657-0.777c-9.534,1.793-17.346-1.555-21.903-9.375&#xD;&#xA;	c-4.327-7.426-3.461-17.074,2.724-23.853c2.736-2.997,4.321-6.788,7.785-9.391c2.19-1.646,0.226-5.224-0.854-7.4&#xD;&#xA;	c-3.552-7.159-6.443-14.498-8.116-22.313c-2.198-8.611-3.405-17.135,2.245-25.042c1.083-1.516,2.133-3.072,4.053-3.654&#xD;&#xA;	c1.891-0.135,2.786,1.13,3.54,2.566c0.813,1.544,1.887,2.91,3.348,3.818c1.814,1.127,3.342,4.205,4.923,3.646&#xD;&#xA;	c3.021-1.069,6.21-1.958,9.206-2.853c7.204-2.149,11.315-7.775,16.425-12.34c0.645-0.576,1.368-1.035,2.313-0.874&#xD;&#xA;	c2.077,1.124,1.669,3.498,2.603,5.205c1.737,3.175,5.288,4.311,7.362,1.737c4.44-5.506,10.997-8.576,15.426-14.075&#xD;&#xA;	c1.66-2.06,2.92-3.94,3.344-6.685c0.962-6.224,3.357-11.68,9.244-15.118c3.793-2.215,4.893-6.306,5.135-10.35&#xD;&#xA;	c0.397-6.628,2.882-12.413,6.264-17.938c0.96-1.567,1.922-3.013,2.129-5.029c0.799-7.794,10.886-13.328,17.902-9.687&#xD;&#xA;	c5.246,2.721,9.864,6.151,10.78,12.835c0.475,3.467,4.882,6.713,8.365,6.659c6.104-0.096,12.279,0.786,18.244-1.507&#xD;&#xA;	c1.463-0.563,2.841-0.956,4.121-2.011c2.1-1.73,4.133-1.916,4.898,1.463c0.412,1.795,0.988,3.553,0.791,5.454&#xD;&#xA;	c-0.146,1.407-0.411,2.993,1.783,3.15c0.799,0.057,1.196,0.548,1.422,1.336c1.818,6.329,5.35,10.677,12.559,10.693&#xD;&#xA;	c0.866,0.002,1.688,0.039,2.088,1.075c0.661,1.718,1.171,1.504,2.169,0.04c1.182-1.732,2.961-1.815,2.87,0.677&#xD;&#xA;	c-0.109,2.961,1.788,4.837,2.488,7.587c2.869-4.167,4.725-4.406,8.309-1.489c2.766,2.251,4.552-0.395,6.297-1.636&#xD;&#xA;	c1.691-1.203,3.143-2.099,5.327-2.035c2.43,0.071,5.651,1.294,5.861-3.303c0.067-1.462,4.947-1.291,6.227,0.229&#xD;&#xA;	c0.72,0.857,1.317,1.825,2.094,2.625c1.543,1.593,1.742,5.3,5.896,2.619c1.328-0.856,4.721,2.389,4.836,5.285&#xD;&#xA;	c0.265,6.695,0.821,13.502-2.979,19.647c-0.453,0.732-0.598,2.31-0.134,2.849c2.592,3.017,1.67,5.416-0.993,7.609&#xD;&#xA;	c-1.218,1.004-1.116,2.36-0.913,3.551c0.475,2.785-0.322,5.358-2.7,6.348c-3.469,1.443-3.787,5.715-7.639,7.061&#xD;&#xA;	c-2.005,0.701-1.354,4.752-0.285,7.017c1.134,2.403,2.564,4.233-1.191,5.488c-1.657,0.555-1.374,2.172-0.519,3.192&#xD;&#xA;	c2.052,2.449,1.327,4.509-0.751,6.245c-2.621,2.189-1.44,5.043-1.531,7.609c-0.203,5.691-2.601,7.154-7.815,4.817&#xD;&#xA;	c-3.229-1.446-6.774-0.396-10.171-0.577c-2.159-0.114-4.537,0.394-4.132-3.098c0.102-0.87-0.208-1.629-1.311-1.866&#xD;&#xA;	c-5.737-1.238-11.345-1.197-16.484,2.003c-1.242,0.772-2.344,1.927-2.301,3.827c0.191,8.346-3.348,15.72-5.692,23.475&#xD;&#xA;	c-0.95,3.144-0.757,6.979-2.912,9.767c-2.028,2.622-3.407,6.324-7.776,6.298c-4.699-0.029-7.019-2.968-5.441-7.557&#xD;&#xA;	c0.487-1.419-0.309-1.719-0.867-2.452c-0.813-1.068-1.47-1.051-2.39-0.052c-0.533,0.577-1.412,0.835-2.664,1.531&#xD;&#xA;	c2.877,1.14,2.919,3.216,2.89,5.537c-0.07,5.572-0.895,11.238,3.164,16.168c1.615,1.963,2.275,2.481,4.059,0.398&#xD;&#xA;	c1.602-1.872,3.518-2.318,4.912,0.435c1.06,2.093,4.111,2.335,4.525,5.211c0.157,1.091,1.234,0.119,1.954-0.33&#xD;&#xA;	c1.27-0.793,2.942-1.001,4.017-0.024c1.26,1.146-0.202,2.137-0.759,3.249c-1.969,3.931-2.652,7.565-0.832,12.296&#xD;&#xA;	c1.587,4.126,0.373,9.328,0.408,14.055c0.031,4.283,2.269,6.78,6.59,7.794c2.124,0.499,4.766,1.217,4.467,3.999&#xD;&#xA;	c-0.271,2.514,2.398,6.288-3.193,7.145c-3.91,0.599-6.499,4.05-7.753,7.949c-0.621,1.933-1.74,3.477-3.05,4.887&#xD;&#xA;	c-2.389,2.572-3.818,5.561-5.422,8.626c-2.318,4.434-3.945,7.032-1.36,12.097c2.332,4.569-2.699,8.284-4.784,12.116&#xD;&#xA;	C896.869,736.625,892.699,735.616,891.575,732.851z" />
	<path id="0591-pingtanxian" fill-rule="evenodd" clip-rule="evenodd" fill="#D3D3D3" stroke="#FFFFFF" stroke-miterlimit="10" d="M1055.618,801.607&#xD;&#xA;	c5.711-0.101,7.827,1.679,7.021,5.793c-0.242,1.235-1.012,1.128-1.861,1.105c-0.712-0.702-0.712-1.813-1.481-2.563&#xD;&#xA;	c0.353,0.987,0.863,1.793,1.571,2.474c0.049,2.806,4.449,1.231,4.281,4.255c5.173-0.476,10.208,0.639,15.781,2.209&#xD;&#xA;	c-0.825-2.123-2.594-2.633-2.109-4.341c0.256-0.906-0.161-2.066,1.39-2.1c1.222-0.025,2.261-0.042,2.242,1.69&#xD;&#xA;	c-0.011,0.971-0.631,2.499,1.254,2.573c1.346,0.054,2.465,0.312,3.156-1.758c0.543-1.623,3.54-1.301,4.397-0.416&#xD;&#xA;	c1.352,1.396,1.267,4.102,0.049,5.472c-0.889,0.998-1.327,1.827-1.104,2.819c0.821,3.643-1.843,5.558-3.956,7.375&#xD;&#xA;	c-0.987,0.851-1.979,1.377-2.512,2.712c-1.821,4.569-6.418,5.399-10.235,7.109c-4.031,1.809-5.797,0.545-5.765-3.977&#xD;&#xA;	c0.017-2.427-1.169-4.648-2.84-5.177c-2.084-0.659-4.732-1.196-6.528,2.136c-1.501,2.783-4.611,4.696-7.01,6.995&#xD;&#xA;	c-1.242,1.41-2.883,0.642-4.354,0.812c1.454,0.335,3.169-0.486,4.379,0.962c-0.325,3.675-3.669,0.552-5.013,2.362&#xD;&#xA;	c1.708,1.561,2.2,1.946-0.906,3.166c-4.05,1.59-5.504,5.834-3.847,10.828c1.25-1.43,4.177-1.871,1.243-4.511&#xD;&#xA;	c-0.352-0.316-0.687-2.141,0.814-2.37c0.964-0.148,2.03-0.58,2.69,1.127c1.704,4.406,0.196,8.708-4.25,10.943&#xD;&#xA;	c-1.472,0.74-1.172,1.488-0.156,2.433c2.039,1.898,4.05,3.831,5.984,5.836c0.371,0.385,0.711,1.275,1.139,0.814&#xD;&#xA;	c3.387-3.644,4.326-1.108,5.749,1.855c1.063,2.213,2.994,2.254,9.198,1.453c0.498-1.435-1.924-1.177-1.509-2.63&#xD;&#xA;	c0.213-0.749-0.333-1.853,0.882-2.078c0.802-0.148,2.405-0.236,2.32,0.323c-0.651,4.295,4.452,1.924,5.118,4.56&#xD;&#xA;	c0.028,0.114,0.599,0.248,0.784,0.142c5.133-2.955,7.265,3.885,11.613,3.561c0.963-0.071,1.023,1.472,0.837,1.518&#xD;&#xA;	c-3.664,0.904,3.867,6.849-2.84,6.273c-1.229-0.105-2.474-0.016-3.932-0.016c2.787,4.495,0.107,10.778-4.807,12.943&#xD;&#xA;	c-3.193,1.405-5.539,2.769-8.536-1.03c-1.805-2.287-1.174-2.983,0.369-4.55c-1.385-0.843-4.229,0.152-3.617-2.909&#xD;&#xA;	c0.189-0.949-0.793-0.97-1.498-1.007c-5.357-0.276-10.17,0.323-14.83,3.946c-2.202,1.712-5.234,4.044-8.818,3.815&#xD;&#xA;	c-0.735-0.047-1.82-0.419-2.084,0.82c-0.294,1.377,0.372,2.104,1.43,3.076c0.836,0.767,1.525,1.591,2.261,0.805&#xD;&#xA;	c2.909-3.105,3.602,0.708,3.754,1.627c0.246,1.494,1.109,2.211,1.971,2.92c1.731,1.424,2.698,3.898,1.166,4.779&#xD;&#xA;	c-1.64,0.942-4.419,1.782-6.62-0.838c-1.412-1.682-2.359-2.942-2.655-5.289c-0.369-2.927-4.397-2.281-5.852-4.394&#xD;&#xA;	c-3.289,3.437,0.568,7.428-1.039,10.896c-1.433,0.305-1.189-0.749-1.578-1.453c-1.46-2.646-6.562-2.844-9.127-0.47&#xD;&#xA;	c-1.671,1.548-1.683,1.547-3.005-0.774c-0.714,1.546-0.723,2.809-0.251,4.134c1.858-1.173,2.932,3.465,5.154,0.656&#xD;&#xA;	c0.5-0.632,2.021-0.774,2.208,0.764c0.104,0.862,0.568,2.346-0.911,2.37c-1.711,0.028-3.437,0.663-5.197-0.69&#xD;&#xA;	c-2.64-2.028-5.526-0.933-6.683,2.218c-0.229,0.624,0.147,1.603-0.611,1.903c-1.85,0.731-1.102,1.962-0.774,3.15&#xD;&#xA;	c1.838-0.737,2.685,2.479,4.698,1.155c1.838-1.209,3.65-1.695,5.373,0.302c0.306,0.355,1.08,0.635,1.506,0.508&#xD;&#xA;	c5.234-1.574,3.948,3.864,6.055,5.63c0.207,0.174,0.186,1.074-0.02,1.216c-2.579,1.77-2.76,5.564-5.853,6.883&#xD;&#xA;	c-0.122,1.688,2.957,0.166,2.273,2.148c-0.398,1.158-1.754,0.598-2.665,0.594c-1.8-0.007-3.566-0.2-3.155,2.525&#xD;&#xA;	c0.183,1.21-0.323,1.841-1.663,1.82c-1.16-0.018-1.888-0.215-1.905-1.616c-0.015-1.12,0.621-2.691-1.599-2.719&#xD;&#xA;	c-2.191-0.026-1.68,1.482-1.678,2.65c0.002,1.86-1.885,2.089-2.486,3.44c-1.773-0.917-0.826-2.371-1.082-3.486&#xD;&#xA;	c-0.188-0.815-0.029-1.854-0.481-2.437c-1.412-1.819-1.496-1.754,0.858-2.977c-2.562-0.635-3.955-2.351-5.463-3.974&#xD;&#xA;	c-1.583,0.638-0.119,2.536-1.771,3.376c-0.7-1.407-3.814-1.644-1.069-4.546c1.512-1.6-2.498-2.845-1.621-5.055&#xD;&#xA;	c-2.661,1.796-3.175-7.146-7.366-1.185c-1.814,2.581-4.694-1.094-5.224-3.28c-0.531-2.185-1.752-1.733-3.02-2.412&#xD;&#xA;	c-4.088-2.186-8.074-4.065-12.911-3.578c-0.703,0.07-1.578-1.566-2.713-2.775c3.319-0.637,5.775-1.64,5.639-5.4&#xD;&#xA;	c-0.055-1.523,3.37-1.349,2.519-3.935c-0.342-1.041,0.102-2.427-1.697-2.217c-0.992,0.115-2.293-0.577-2.566,1.332&#xD;&#xA;	c-0.657,4.581-4.236,3.847-7.353,3.77c-1.864-0.047-1.104-1.581-1.349-2.564c-0.568-2.284,1.917-5.936-2.978-6.376&#xD;&#xA;	c-0.825-0.074-0.75-2.281-0.183-2.591c1.637-0.892,1.455-2.21,1.474-3.59c0.012-0.836,0.563-1.641,1.239-1.063&#xD;&#xA;	c3.642,3.113,3.198-2.609,5.426-2.414c-0.842-2.348,3.66-3.725,1.243-6.125c-0.701-0.695-1.147-2.445-2.896-1.889&#xD;&#xA;	c-2.332,0.743-4.096,2.748-4.615,4.535c-0.498,1.718-2.695,2.584-2.086,4.665c0.079,0.269-0.301,0.935-0.567,0.997&#xD;&#xA;	c-1.998,0.464-2.871-2.244-5.163-1.719c-1.393,0.319-4.12,1.207-3.779-2.13c0.14-1.372-2.218-1.066-1.413-2.854&#xD;&#xA;	c4.731,0.734,5.877-2.554,6.58-6.314c0.437-2.337,2.582-3.041,4.505-4.058c-2.041-2.021-4.868,0.467-6.68-2.179&#xD;&#xA;	c-1.104-1.612-1.818-2.417-0.337-4.005c1.296-1.391,2.518-2.854,4.27-0.811c0.556,0.648,1.406,1.144,1.667,0.75&#xD;&#xA;	c1.847-2.791,6.26-2.9,7.326-5.559c2.24-5.584,2.021,0.707,3.001,0.385c0.787-0.03,0.741-0.622,0.851-1.172&#xD;&#xA;	c0.42-2.116-1.206-5.633,0.995-6.124c3.204-0.715,7.019-1.383,10.224,0.579c0.919,0.563,1.352,1.115,1.591-0.188&#xD;&#xA;	c0.578-3.149,1.69-4.805,4.995-2.498c0.492,0.343,1.4,0.091,2.116,0.114c0.9,0.954,2.189,1.086,3.437,1.69&#xD;&#xA;	c-1.039-1.117-2.609-0.605-3.525-1.601c-0.105-0.663,0.011-1.298-0.819-1.771c-2.62-1.493-2.904-2.992-0.388-5.231&#xD;&#xA;	c2.363-2.103,1.593-5.108,0.397-7.567c-1.372-2.82-1.497-3.067,1.384-3.597c1.031-0.189,2.182-0.076,1.909-1.541&#xD;&#xA;	c-0.225-1.207,0.863-2.609-1.135-3.623c-2.297-1.167-2.39-2.767,0.116-4.447c1.52-1.02,4.747-2.196,1.62-5.056&#xD;&#xA;	c-0.929-0.848-0.096-1.145,0.524-1.837c2.295-2.563,3.03-5.938,4.389-8.969c2.031-4.534-3.754-6.232-2.257-10.007&#xD;&#xA;	c0.199-0.501-1.274-0.744-1.799-0.483c-4.36,2.171-9.018,3.854-10.938,9.186c-0.627,1.74-1.919,3.981-5.29,2.034&#xD;&#xA;	c-1.619-0.936-5.644,0.192-7.111,1.76c-1.176,1.255-2.262,2.009-3.157,1.367c-1.31-0.938-1.245-2.971-0.025-4.005&#xD;&#xA;	c1.194-1.012,1.146-1.019-0.05-1.958c-1.33-1.044-3.156-2.474-0.752-4.521c0.409-0.349,0.542-2.175-1.068-2.15&#xD;&#xA;	c-4.761,0.073-3.088-4.964-5.444-6.913c-0.704-0.582,1.44-1.592,2.132-2.576c1.314-1.873,4.434-2.559,1.359-5.971&#xD;&#xA;	c-2.143-2.377-0.066-5.442,2.833-5.396c1.684,0.026,2.339,0.563,2.156,2.233c-0.286,2.623,1.345,2.248,3.39,1.794&#xD;&#xA;	c-1.7-2.114-3.254-4.229-0.166-6.265c2.558-1.687,3.64-6.388,8.415-3.244c2.5,1.646,3.943-1.005,4.466-3.077&#xD;&#xA;	c0.434-1.717-0.352-3.786,2.7-3.564c1.119,0.083,0.69-1.292,0.848-2.063c0.526-2.596,5.603-6.928,7.754-7.332&#xD;&#xA;	c4.828-0.909,3.062,3.021,3.992,5.646c1.09-1.759,2.777-2.167,2.951-4.367c0.273-3.476,2.475-5.341,5.889-6.544&#xD;&#xA;	c2.002-0.706,5.69-0.6,5.236-4.587c-0.098-0.862,0.428-1.291,1.304-1.248c2.488,0.122,4.046-2.127,4.46-3.495&#xD;&#xA;	c1.938-6.401,5.74-2.465,8.23-1.344c1.731,0.78,6.938,1.872,2.543,6.1c-0.414,0.398-0.765,2.306,0.662,2.937&#xD;&#xA;	c1.598,0.706,2.432-0.682,3.961-2.206c-0.585,4.007,2.838,3.809,4.407,5.489c0.695,0.746,1.868,0.325,1.908-1.157&#xD;&#xA;	c0.102-3.722,2.87-1.71,4.444-1.866c1.097-0.109,0.883,1.936,0.79,1.955c-2.869,0.609-2.609,4.915-6.058,4.935&#xD;&#xA;	c-2.63,0.016-5.546-1.04-7.794,1.538c-0.367,0.423-1.831,0.443-2.292-0.368c-0.67-1.182,1.129-1.174,1.203-1.739&#xD;&#xA;	c0.161-1.223,1.584-1.117,1.927-2.45c-1.275-0.92-3.762,0.214-4.055-3.019c-1.282,2.137-0.49,4.12-3.333,4.531&#xD;&#xA;	c-3.565,0.517-4.126,3.776-3.783,7.747c0.406,4.691,4.112,7.962,4.534,12.505c0.066,0.719,0.896,1.082,1.226,0.793&#xD;&#xA;	c3.118-2.734,7.479,0.511,10.834-2.579c1.719-1.582,4.867-1.597,6.502-4.033c0.339-0.506,2.061-0.654,2.635,0.377&#xD;&#xA;	c0.455,0.816,0.343,1.87-0.215,2.836c-2.397,4.151-1.975,5.054,2.307,5.177c2.188,0.063,7.414,4.95,8.151,7.709&#xD;&#xA;	c2.999-3.31,4.708-1.234,6.501,1.375c1.044,1.521,2.253,8.282,1.301,9.404c-0.883,1.04-2.18,0.63-3.214,0.497&#xD;&#xA;	c-2.838-0.366-3.897,0.774-3.49,3.508c-0.824,2.6-4.664,1.964-5.399,5.05C1053.048,805.781,1054.532,803.9,1055.618,801.607z" />
	<path id="0591-maweiqu" fill-rule="evenodd" clip-rule="evenodd" fill="#D3D3D3" stroke="#FFFFFF" stroke-miterlimit="10" d="M907.045,467.345&#xD;&#xA;	c-1.739-1.277-3.677-3.761-4.443,0.754c-0.119,0.703-0.759,0.872-1.312,0.845c-4.642-0.228-8.791,2.821-13.6,1.871&#xD;&#xA;	c-2.204-0.436-4.565-0.074-6.855-0.074c-6.628-0.001-10.261-3.208-10.939-9.912c-0.133-1.314-0.771-2.02-1.572-2.815&#xD;&#xA;	c-3.917-3.877-7.214-8.716-13.825-8.079c-3.729,0.359-11,5.011-10.437,8.079c0.64,3.482-0.979,5.335-2.358,7.58&#xD;&#xA;	c-3.657,5.958-5.736,12.181-6.265,19.319c-0.289,3.903-2.017,8.556-7.212,10.08c-2.875,0.843-3.907,4.203-5.002,6.422&#xD;&#xA;	c-0.824,1.672-2.451,3.848-2.049,6.095c0.673,3.758-1.256,6.298-3.854,8.28c-3.744,2.858-5.651,7.811-10.772,9.148&#xD;&#xA;	c-1.185,0.31-2.721,1.711-2.942,2.837c-0.77,3.911-3.862,3.782-6.414,3.705c-3.39-0.102-4.271-3.283-5.351-5.879&#xD;&#xA;	c-0.465-1.114,0.447-2.627-0.936-3.528c-2.813-5.987-6.031-11.738-9.802-17.185c-0.95-1.373-1.886-2.848-1.83-4.663&#xD;&#xA;	c0.796-5.726-1.434-10.499-4.389-15.201c-1.794-2.854-3.941-6.323-3.021-9.533c2.449-8.528-1.223-16.779-0.303-25.208&#xD;&#xA;	c0.612-5.61,0.197-5.714,5.896-6.679c0.86-0.146,1.922-0.147,2.296-0.931c1.725-3.62,5.218-6.443,4.839-11.037&#xD;&#xA;	c-0.148-1.797-0.497-3.108-2.068-4.354c-4.531-3.594-4.289-8.705,0.871-10.834c4.228-1.745,4.722-5.282,6.024-8.605&#xD;&#xA;	c0.456-1.161-0.206-2.155-0.849-3.162c-3.457-5.415-2.863-7.491,2.821-10.224c0.522-0.251,0.961-0.611,1.398-0.979&#xD;&#xA;	c0.204-0.106,0.41-0.206,0.615-0.307c4.227-1.211,7.132,2.08,10.409,3.484c9.794,4.197,19.27,8.416,30.458,7.809&#xD;&#xA;	c5.09-0.276,10.505,1.682,13.776,6.845c2.223,3.51,6.769,3.383,9.983,5.509c2.612,1.727,6.061,2.23,8.573,4.055&#xD;&#xA;	c2.777,2.017,4.877,1.583,7.102-0.322c3.896-3.337,8.256-4.689,13.412-5.608c4.022-0.717,7.975-1.141,11.983-1.238&#xD;&#xA;	c7.527-0.181,14.34,2.385,20.829,5.959c0.729,0.401,1.402,0.927,2.164,1.241c4.358,1.796,6.965,4.261,3.671,9.121&#xD;&#xA;	c-0.82,0.339-2.822,0.728-2.108,1.249c3.231,2.362-0.026,6.518,3.076,8.984c2.765,2.196,1.795,5.86,1.946,9.002&#xD;&#xA;	c0.053,1.101-0.699,3.225,1.265,2.957c4.256-0.58,4.5,2.926,5.441,5.203c1.151,2.785-1.658,4.554-3.42,5.475&#xD;&#xA;	c-5.382,2.81-10.51,6.25-17.103,6.358C911.865,469.305,909.891,466.83,907.045,467.345z" />
	<path id="0591-minhouxian" fill-rule="evenodd" clip-rule="evenodd" fill="#D3D3D3" stroke="#FFFFFF" stroke-miterlimit="10" d="M751.923,528.204&#xD;&#xA;	c-5.922,5.716-8.888,12.296-6.762,20.742c0.602,2.394,0.042,5.079,0.015,7.631c-7.716-3.045-15.635-4.729-23.984-5.404&#xD;&#xA;	c-5.531-0.448-10.538-4.108-16.164-5.338c-8.003-1.749-16.037-2.003-23.906-0.029c-4.299,1.077-8.152-0.119-12.221-0.354&#xD;&#xA;	c-7.935-0.459-15.858,0.072-23.174,3.417c-5.403,2.472-11.161,2.403-16.771,3.36c-7.366,1.257-14.447,3.272-20.59,7.601&#xD;&#xA;	c-3.645,2.566-7.881,2.578-11.871,3.479c-4.542,1.026-8.786,2.75-12.975,4.578c-2.41,1.053-4.694,1.82-7.295,1.607&#xD;&#xA;	c2.304-5.653,1.383-11.589,1.497-17.428c0.058-2.957,1.327-5.182,3.699-6.822c3.017-2.086,2.96-5.324,2.071-8.034&#xD;&#xA;	c-0.846-2.577-3.893-1.748-5.451-0.769c-2.49,1.563-5.08,1.945-6.828,0.121c-1.027-1.072-0.159-3.847-0.387-5.827&#xD;&#xA;	c-0.268-2.317,1.015-2.813,2.788-3.853c1.463-0.855,5.233-0.599,4.042-4.196c-0.9-2.715-3.045-3.417-5.712-3.194&#xD;&#xA;	c-0.813,0.067-2.054,0.055-2.425-0.433c-2.771-3.646-7.263-5.084-10.372-8.085c-4.706-4.541-9.454-4.468-14.874-2.042&#xD;&#xA;	c-3.994,1.789-7.518-0.281-7.763-4.635c-0.167-2.974-1.524-4.57-4.426-4.487c-1.78,0.051-3.208-0.547-5.075-2.028&#xD;&#xA;	c-0.121,3.81,2.229,6.483,1.715,9.813c-0.386,2.503-1.043,2.948-3.466,3.492c-5.316,1.193-9.101-2.265-12.398-4.615&#xD;&#xA;	c-2.384-1.699-5.014-6.25-2.496-10.786c1.439-2.591-0.246-5.482-2.19-6.569c-1.649-0.923-4.376-1.793-6.586,1.256&#xD;&#xA;	c-3.191,4.401-7.022,5.54-12.798,3.071c-3.402-1.455-6.945-2.112-10.19-4.453c-2.408-1.738-3.58-3.035-4.335-5.876&#xD;&#xA;	c-0.602-2.265-2.511-4.635-5.678-4.899c-1.703-0.142-4.249,1.155-4.936-1.084c-0.729-2.373-1.069-5.415,0.231-7.51&#xD;&#xA;	c0.821-1.323,0.474-3.527,2.464-4.095c1.569-0.447,1.595-1.709,1.087-2.718c-0.733-1.454-2.694-1.271-3.341-0.581&#xD;&#xA;	c-1.267,1.352-3.204,1.041-4.364,2.358c-1.125,1.278-3.173,1.253-3.939,0.535c-3.658-3.428-5.383,0.245-7.691,1.771&#xD;&#xA;	c-3.784,2.5-8.092,3.998-12.325,5.178c-4.618,1.288-8.567-1.998-11.962-4.55c-2.312-1.739-4.43-2.167-6.959-2.287&#xD;&#xA;	c-0.967-2.503-1.564-4.419,2.582-4.03c2.591,0.243,5.456,0.11,7.947-0.733c2.995-1.015,5.388-8.523,3.739-11.323&#xD;&#xA;	c-4.363-7.405-2.478-15.161-1.636-22.901c0.571-5.252,4.514-8.775,6.669-13.211c1.179-2.425,2.016-4.675,1.885-7.304&#xD;&#xA;	c-0.529-10.643,4.789-18.585,12.079-25.439c2.822-2.653,4.486-5.436,4.286-9.342c-0.132-2.573,0.284-5.203-0.081-7.729&#xD;&#xA;	c-1.124-7.789,2.243-14.559,4.642-21.525c1.205-3.498,3.659-6.128,7.309-7.398c2.388-0.832,4.246-2.27,5.526-4.51&#xD;&#xA;	c1.804-3.155,4.729-5.356,7.068-8.057c2.197-2.537,1.602-4.5-1.682-4.492c-6.166,0.014-12.256,0.418-15.954,6.871&#xD;&#xA;	c-2.417,4.22-5.342,8.293-11.333,7.659c-1.98-0.21-2.863,1.611-3.962,2.918c-3.245,3.856-7.317,5.777-12.447,5.545&#xD;&#xA;	c-3.932-0.177-6.384-2.252-7.938-5.6c-3.325-7.163-4.588-14.692-3.825-22.562c0.167-1.718,0.028-3.675,1.786-4.577&#xD;&#xA;	c3.276-1.683,5.192-4.589,6.703-7.621c2.38-4.773,6.428-7.953,9.988-11.625c3.894-4.016,4.095-7.84,0.81-12.542&#xD;&#xA;	c-1.914-2.739-1.55-5.796-0.56-8.663c1.544-4.467,4.024-8.529,6.054-12.776c4.103-8.584,11.353-15.352,13.954-24.764&#xD;&#xA;	c0.584-2.114,2.032-3.754,4.139-4.698c3.257-1.458,4.807-3.954,4.395-7.549c-0.458-3.99,1.202-6.592,5.001-7.889&#xD;&#xA;	c7.391-2.524,13.706-6.986,20.117-11.259c3.559-2.372,3.933-3.879,2.149-7.926c-0.976-2.217-2.291-4.286-2.292-6.859&#xD;&#xA;	c-0.002-3.965,0.974-5.081,4.969-5.348c7.891-0.527,7.778-0.529,7.93-8.452c0.103-5.385-0.964-10.898,1.611-16.083&#xD;&#xA;	c0.772-1.557,1.772-2.932,2.632-4.411c0.919-1.581,1.16-3.303,0.028-4.867c-1.09-1.506-2.571-0.721-3.939-0.395&#xD;&#xA;	c-2.617,0.625-5.113,0.474-7.395-1.141c-2.534-1.793-3.298-4.619-1.637-6.753c2.55-3.277,5.272-7.098,10.24-6.869&#xD;&#xA;	c3.531,0.162,6.436-0.967,9.03-3.204c0.901-0.015,2.319,2.381,2.597-0.534c0.244-2.566-1.071-4.344-3.477-4.514&#xD;&#xA;	c-4.13-0.292-8.296-0.111-12.447-0.071c-2.16,0.021-4.092,0.474-4.108-3.06c-0.006-1.259-2.066-3.152-3.289-4.637&#xD;&#xA;	c-1.23-1.496-1.139-3.7-0.558-4.235c2.583-2.381,1.641-5.301,1.41-7.841c-0.33-3.626,2.003-4.471,4.277-6.152&#xD;&#xA;	c3.464-2.561,9.553-2.994,8.763-9.536c-0.127-1.054,0.382-1.628,1.483-1.524c4.564,0.432,7.551-3.285,11.464-4.369&#xD;&#xA;	c6.363-1.763,11.248-6.857,17.945-7.64c1.701-0.199,3.041-0.413,3.831,2.39c0.661,2.346,3.87,3.962,5.429,6.442&#xD;&#xA;	c1.512,2.404,3.13,4.668,3.736,7.545c0.541,2.569,3.896,3.568,3.993,6.582c0.007,0.188,1.952,0.647,2.869-0.607&#xD;&#xA;	c1.338-1.829,3.475-1.048,5.054-0.72c1.866,0.387,0.87,2.413,0.889,3.673c0.064,4.516,1.549,7.544,6.213,9.384&#xD;&#xA;	c2.018,0.796,4.976,3.032,4.169,6.653c-0.672,3.021,1.012,3.309,3.563,3.41c5.147,0.206,10.424-1.212,15.449,1.498&#xD;&#xA;	c1.441,0.778,2.675,1.87,4.18,2.503c-3.18,0.437-3.928,3.371-5.128,5.502c-1.946,3.453-3.032,7.266-3.706,11.28&#xD;&#xA;	c-0.458,2.734-2.469,5.164-3.627,7.833c-2.039,4.696-1.667,8.391,1.664,12.132c1.033,1.16,1.949,1.376,3.238,1.369&#xD;&#xA;	c3.435-0.016,6.883,0.194,10.301-0.042c8.885-0.616,15.033,3.552,19.762,10.639c0.854,1.28,2.605,1.99,3.153,3.547&#xD;&#xA;	c0.663,1.886-2.213,7.038-4.351,7.022c-3.482-0.026-5.205,1.538-6.613,4.403c-0.592,1.204-2.021,2.073-4.73,2.563&#xD;&#xA;	c4.313,1.383,7.273,2.96,10.289,4.319c1.313,0.592,2.565,1.375,3.229,2.231c1.889,2.437,4.123,2.926,7.06,3.341&#xD;&#xA;	c3.464,0.491,6.795,1.957,10.443,1.593c0.919-0.092,0.785,0.952,1.169,1.424c3.889,4.784,4.882,11.588,10.674,15.091&#xD;&#xA;	c1.276,0.772-0.422,3.171,1.324,4.198c1.833,2.336,1.368,4.932,0.476,7.347c-1,2.706-1.026,5.179-0.059,7.915&#xD;&#xA;	c1.333,3.769,0.593,6.447-3.145,7.729c-9.072,3.113-12.825,11.331-18.259,17.921c-1.953,2.369-1.105,5.259,0.361,7.685&#xD;&#xA;	c1.943,3.219,1.602,5.796-0.586,8.999c-2.716,3.976-4.558,8.528-7.48,12.467c-1.952,2.631-1.066,5.387,1.716,7.407&#xD;&#xA;	c4.074,2.959,5.599,8.105,3.752,12.756c-0.423,1.062-0.801,2.143-1.348,3.158c-4.044,7.512-0.161,14.181,8.51,14.417&#xD;&#xA;	c5.478,0.15,9.43,3.032,12.756,6.889c3.3,3.824,4.776,8.73,7.055,13.158c1.013,1.968,0.305,3.604-1.685,4.639&#xD;&#xA;	c-0.891,0.462-1.77,0.943-2.718,1.28c-1.962,0.696-4.783,0.809-4.551,3.647c0.228,2.787,0.896,5.872,3.825,7.26&#xD;&#xA;	c3.549,1.68,6.574,3.476,6.151,8.132c-0.115,1.282,0.863,2.112,2.146,2.28c2.674,0.35,4.119,2.235,5.75,4.109&#xD;&#xA;	c3.08,3.542,6.063,7.165,10.507,9.307c3.229,1.557,6.277,10.861,5.091,14.27c-0.85,2.442-2.672,3.67-5.193,3.794&#xD;&#xA;	c-2.855,0.141-5.727,0.366-8.518-0.57c-2.646-0.888-4.123,0.622-5.05,2.735c-0.998,2.275,0.566,3.445,2.339,4.337&#xD;&#xA;	c3.959,1.992,8.118,3.677,10.619,7.701c0.869,1.399,2.133,1.131,3.408,0.536c1.946-0.91,3.813-1.98,5.798-2.81&#xD;&#xA;	c1.679-0.703,3.118-0.834,3.491,1.505c0.04,1.49-0.815,2.453-2.074,2.908c-3.795,1.372-5.3,4.448-6.164,8.017&#xD;&#xA;	c-0.382,1.573-0.992,3.077-2.376,3.896c-4.614,2.729-8.671,6.322-13.517,8.692c-3.031,0.673-5.551,0.131-7.54-2.566&#xD;&#xA;	c-1.107-1.503-2.783-2.761-4.817-1.558c-2.015,1.192-1.153,3.018-0.499,4.579c2.098,5.004,2.75,10.259,2.127,15.548&#xD;&#xA;	c-0.875,7.441,3.841,12.612,7.139,18.252c1.567,2.68,5.185,4.639,6.553,7.014c2.868,4.981,7.683,9.245,7.824,15.585&#xD;&#xA;	c0.063,2.835,0.571,5.371,2.697,7.414c1.339,1.284,1.561,2.999,1.609,4.745c0.07,2.431,0.032,4.862,0.039,7.292&#xD;&#xA;	c0.005,1.98,0.02,3.299,2.841,2.147c3.216-1.313,6.763-1.278,9.985,0.373c1.473,0.754,2.544,0.435,3.979-0.119&#xD;&#xA;	c4.021-1.549,8.007-1.592,11.868,0.863c4.497,2.861,9.392,3.227,14.414,1.566c3.362-1.111,6.883-1.383,10.149-0.43&#xD;&#xA;	c4.813,1.404,9.925,1.209,14.605,3.068C750.14,526.614,752.156,525.829,751.923,528.204z" />
	<path id="0591-minqingxian" fill-rule="evenodd" clip-rule="evenodd" fill="#D3D3D3" stroke="#FFFFFF" stroke-miterlimit="10" d="M517.437,125.8&#xD;&#xA;	c-1.006,2.788-3.168,4.516-5.924,3.84c-5.873-1.438-8.925,2.915-12.682,5.662c-2.188,1.599-0.08,7.143,3.043,7.916&#xD;&#xA;	c1.746,0.433,4.24,0.773,5.429-0.126c2.045-1.548,3.331-1.905,4.716,0.317c1.263,2.028,1.51,4.289-0.127,6.148&#xD;&#xA;	c-3.17,3.601-4.438,7.704-4.285,12.443c0.149,4.579-0.107,9.174,0.088,13.75c0.108,2.536-0.832,3.285-3.188,3.03&#xD;&#xA;	c-1.416-0.154-2.862-0.03-4.294-0.029c-5.745,0.005-7.217,3.162-4.488,8.609c1.048,2.094,2.687,4.02,2.585,6.796&#xD;&#xA;	c-0.069,1.877-0.93,3.157-2.059,3.852c-4.927,3.029-9.789,6.15-14.654,9.257c-2.757,1.761-6.417,2.595-9.645,3.956&#xD;&#xA;	c-2.029,0.856-2.295,1.819-2.12,3.403c0.625,5.63-0.5,9.698-6.791,11.871c-2.559,0.883-2.614,5.547-4.197,8.359&#xD;&#xA;	c-2.613,4.642-3.484,10.389-9.032,12.993c-0.294,0.138-0.55,0.69-0.558,1.055c-0.149,6.743-6.149,10.844-7.588,17.225&#xD;&#xA;	c-1.089,4.827-1.769,6.531,1.823,9.924c1.099,1.038,0.651,9.04-0.685,10.443c-2.201,2.312-4.239,4.897-6.809,6.711&#xD;&#xA;	c-3.269,2.308-4.169,6.087-6.32,9.039c-1.65,2.265-3.005,4.514-5.64,5.477c-1.491,0.544-1.506,1.5-1.509,2.649&#xD;&#xA;	c-0.01,4.441-0.555,8.972,0.151,13.298c0.68,4.164,2.052,8.477,4.197,12.085c4.357,7.329,16.215,3.479,19.354-2.783&#xD;&#xA;	c0.937-1.868,1.708-2.496,3.264-2.095c6.302,1.621,8.846-3.363,11.274-7.123c2.085-3.229,3.719-5.279,7.838-6.141&#xD;&#xA;	c2.947-0.616,5.84-1.189,8.853-1.456c2.073-0.183,3.22,1.079,4.119,2.329c1.208,1.682-0.898,2.514-1.696,3.387&#xD;&#xA;	c-3.111,3.404-7.003,6.054-8.619,10.796c-0.409,1.202-2.766,1.941-4.365,2.498c-5.02,1.748-8.038,5.142-8.152,10.399&#xD;&#xA;	c-0.041,1.851-1.182,2.755-1.847,4.021c-3.248,6.176-1.081,12.774-1.696,19.143c-0.301,3.114,0.818,6.41-1.633,9.246&#xD;&#xA;	c-0.526,0.609-1.055,1.306-1.683,1.728c-6.596,4.432-9.711,11.368-12.643,18.238c-1.043,2.443-0.415,5.647-0.359,8.499&#xD;&#xA;	c0.053,2.722-1.582,4.935-2.146,7.181c-1.108,4.404-4.892,6.777-6.107,11.331c-1.76,6.588-0.348,12.898-1.256,19.237&#xD;&#xA;	c-0.245,1.713,0.759,2.752,1.831,3.524c2.003,1.444,2.225,3.691,1.485,5.281c-1.263,2.71-1.381,6.052-4.319,8.023&#xD;&#xA;	c-1.359,0.911-2.107,2.413-3.664,0.404c-0.654-0.844-1.35-0.551-2.113,0.182c-1.763,1.692-3.516,1.085-5.241-0.371&#xD;&#xA;	c-0.915,1.26-0.406,2.678-0.503,4.004c-0.985-1.377-2.347-1.554-3.969-1.707c-2.522-0.238-5.411,1.391-7.571-1.286&#xD;&#xA;	c-0.305-0.377-1.006-0.07-1.398,0.499c-2.91,4.227-7.437,8.018-5.862,13.792c0.688,2.523,1.199,4.971,1.645,7.531&#xD;&#xA;	c0.543,3.118-1.419,5.365-2.242,7.836c-0.657,1.977-4.201,1.473-5.979,0.335c-1.328-0.85-1.444-0.794-2.542,0.15&#xD;&#xA;	c-1.332,1.146-2.015,2.509-0.989,3.593c3.711,3.922-0.388,7.254-0.884,10.758c-0.07,0.495-3.918,2.471-6.485,2.443&#xD;&#xA;	c-1.575-0.016-3.151,0.004-4.726,0c-3.101-0.009-4.542,1.548-4.669,4.633c-0.216,5.214-0.763,5.668-6.076,5.683&#xD;&#xA;	c-1.433,0.005-2.881-0.133-4.292,0.039c-1.408,0.17-3.561-0.951-4.02,1.143c-0.383,1.745-1.063,3.9,1.146,5.401&#xD;&#xA;	c2.637,1.791,2.719,4.731,1.845,7.211c-0.885,2.508-3.493,2.722-6.037,2.586c-3.402-0.183-5.958,1.636-7.577,4.425&#xD;&#xA;	c-1.066,1.839-2.147,4.304,1.258,5.18c1.388,0.357,1.406,1.183,1.409,2.196c0.011,3.293,0.25,6.61-0.059,9.875&#xD;&#xA;	c-0.333,3.529-3.681,3.511-6.095,3.969c-2.489,0.472-5.15,0.271-7.709,0.051c-1.857-0.159-4.75,1.249-5.366-0.953&#xD;&#xA;	c-0.707-2.528-1.061-5.557,0.482-8.242c2.047-3.564,1.108-9.461-2.187-12.277c-1.026,2.438-0.485,4.842-0.52,7.127&#xD;&#xA;	c-0.094,6.301-1.486,8.045-7.8,9.25c-0.719,0.137-1.227,0.688-1.767,0.893c-2.86,1.084-6.479,2.267-8.426-0.524&#xD;&#xA;	c-4.299-6.162-11.206-8.02-17.202-11.209c-2.21-1.175-2.604-2.085-2.416-3.917c0.253-2.459-0.279-4.985-2.587-5.561&#xD;&#xA;	c-1.837-0.458-4.271,0.877-5.288,2.756c-0.8,1.477-1.793,1.05-2.816,1.218c-5.606,0.91-10.273-1.917-15.361-3.39&#xD;&#xA;	c-3.522-1.021-5.851-3.959-9.415-4.35c-1.063-0.117-1.668-0.591-1.489-1.6c0.299-1.679-1.113-3.774,1.021-4.998&#xD;&#xA;	c1.458-0.836,2.381-1.97,3.398-3.331c2.385-3.192,0.132-4.374-2.033-4.546c-4.77-0.378-8.34-3.676-12.818-4.639&#xD;&#xA;	c-0.568-0.123-1.209-0.713-1.896-0.629c-3.79,0.473-5.677-1.483-6.29-5.611c-2.178,2.834-4.801,2.109-7.249,2.131&#xD;&#xA;	c-5.465,0.051-6.663,1.027-7.045,6.168c-0.106,1.432-0.263,2.179-2.037,2.515c-4.792,0.907-9.408-0.765-13.343-2.362&#xD;&#xA;	c-3.249-1.317-4.859-6.155-7.527-9.228c-3.141-3.615-5.831-7.43-11.384-6.741c0.849-1.317,1.83-2.57,2.519-3.967&#xD;&#xA;	c1.252-2.54,1.904-4.706-1.313-6.85c-2.908-1.938-5.16-4.895-7.583-7.512c-1.86-2.009-1.876-11.213-0.165-13.339&#xD;&#xA;	c2.864-3.555,7.318-4.456,11.743-2.148c1.261,0.657,2.771,1.12,3.648,0.5c3.259-2.305,6.853-1.471,10.326-1.51&#xD;&#xA;	c6.191-0.068,12.114-1.39,17.964-3.264c0.922-0.295,2.067-0.427,2.97-0.161c3.938,1.157,4.836-2.033,6.093-4.333&#xD;&#xA;	c1.209-2.214-0.525-3.828-2.074-5.069c-2.209-1.77-3.017-3.867-2.862-6.686c0.135-2.469,0.173-4.851-1.206-7.378&#xD;&#xA;	c-1.13-2.071,1.015-4.832,1.897-6.968c1.081-2.619-0.544-3.725-1.625-3.826c-3.654-0.341-5.878-3.55-9.113-4.183&#xD;&#xA;	c-3.884-0.76-5.459-4.062-5.795-6.564c-0.832-6.179-1.633-12.591,3.115-18.195c3.138-3.703,5.688-8.355,4.896-13.369&#xD;&#xA;	c-0.775-4.903,2.158-8.521,3.565-12.408c1.392-3.846,5.473-6.873,10.775-5.673c4.781,1.081,7.445-1.211,8.155-5.841&#xD;&#xA;	c0.283-1.852,1.443-2.042,2.749-1.837c7.3,1.145,14.189-2.487,21.446-1.789c0.665,0.064,1.713-0.053,2-0.479&#xD;&#xA;	c2.311-3.428,7.088-4.023,8.98-7.931c0.339-0.701,1.156-1.413,1.899-1.639c5.126-1.563,5.65-6.13,5.799-10.107&#xD;&#xA;	c0.396-10.589,0.225-21.204,0.076-31.806c-0.041-2.925,0.714-4.102,3.82-3.952c4.163,0.2,7.647-2.286,11.436-3.573&#xD;&#xA;	c0.359-0.122,0.935-0.614,0.886-0.784c-1.091-3.816,2.697-5.968,3.147-9.55c0.546-4.353,4.521-7.546,8.237-10.001&#xD;&#xA;	c1.92-1.27,2.749-2.606,3.676-4.672c1.58-3.525,4.081-6.732,6.665-9.657c0.829-0.938,3.161-1.09,4.314,1.058&#xD;&#xA;	c0.891,1.659,2.32,1.638,3.31,0.014c1.159-1.902,2.343-2.062,3.406-0.148c0.734,1.322,1.832,1.44,2.9,1.226&#xD;&#xA;	c5.984-1.202,10.07,1.666,13.496,6.071c0.174,0.225,0.36,0.456,0.585,0.625c2.193,1.66,5.062,5.332,6.48,4.436&#xD;&#xA;	c2.192-1.384,3.204-5.059,4.109-7.951c1.131-3.614,2.113-6.793,6.586-7.645c2.775-0.529,3.167-4.253,0.346-6.52&#xD;&#xA;	c-2.973-2.388-1.688-4.033,0.231-6.291c-5.705,0.635-7.807-3.44-10.654-7.06c-3.53-4.486-6.721-9.693-12.989-11.109&#xD;&#xA;	c-0.276-0.062-0.752-0.132-0.781-0.27c-0.73-3.623-2.806-7.699-1.819-10.795c2.13-6.691,1.096-9.475-5.669-12.135&#xD;&#xA;	c-7.572-2.978-9.755-7.297-6.586-14.791c0.54-1.275,0.897-2.722,0.269-3.72c-3.501-5.56-0.795-10.896,0.441-16.243&#xD;&#xA;	c0.34-1.471,1.606-2.688,3.391-2.823c0.855-0.064,1.735,0.079,2.575-0.055c2.15-0.341,6.105,0.92,6.056-0.962&#xD;&#xA;	c-0.058-2.264-0.517-5.387-2.594-7.609c-2.323-2.484-3.836-5.432-3.686-9.109c0.092-2.239,0.846-3.205,3.046-2.926&#xD;&#xA;	c2.637,0.335,4.876-0.629,7.271-1.646c6.215-2.641,12.467-3.993,17.738,2.126c0.434,0.504,1.121,1.065,1.723,1.104&#xD;&#xA;	c6.562,0.435,8.857,6.217,12.646,10.079c0.918,0.935,0.77,2.582,0.188,3.702c-2.304,4.436-2.677,8.566,1.297,12.297&#xD;&#xA;	c0.971,0.911,0.63,2.129,0.701,3.243c0.192,3.054-0.638,6.207,1.515,9.041c0.66,0.869,0.428,2.488-0.472,3.63&#xD;&#xA;	c-1.908,2.421-0.793,4.961-0.852,7.721c0.85-0.342,1.172-0.37,1.315-0.545c1.214-1.485-0.99-4.781,1.883-4.972&#xD;&#xA;	c3.245-0.214,6.813-1.471,9.877,1.027c3.723,3.036,11.451-0.154,12.707-5.056c0.947-3.698,1.635-7.705,5.941-9.324&#xD;&#xA;	c2.238-9.344,12.208-5.676,17.138-10.171c5.97-5.443,12.948-4.098,19.814-4.214c1.258-0.021,2.514-0.131,4.346-0.231&#xD;&#xA;	c-4.623-6.056,0.766-9.498,2.888-13.701c1.078-2.136,2.503-3.823-0.131-5.98c-2.038-1.67-1.115-4.361-0.893-6.501&#xD;&#xA;	c0.459-4.425,5.685-9.107,10.232-9.704c0.696-0.092,1.61-0.052,2.031-0.469c4.705-4.656,9.788-3.385,15.227-1.51&#xD;&#xA;	c3.233,1.114,7.1-0.523,10.267,1.827c0.237,0.176,1.402-0.418,1.733-0.92c3.828-5.795,9.755-5.625,15.688-5.873&#xD;&#xA;	C513.663,123.127,515.401,124.636,517.437,125.8z" />
	<path id="0591-jinanqu" fill-rule="evenodd" clip-rule="evenodd" fill="#D3D3D3" stroke="#FFFFFF" stroke-miterlimit="10" d="M689.552,419.215&#xD;&#xA;	c-0.353-0.852,0.194-2.852-1.779-1.693c-0.688,0.404-1.439,0.782-2.063,1.221c-4.498,3.154-8.253,4.223-11.689-1.72&#xD;&#xA;	c-1.696-2.934-5.692-3.791-8.726-4.926c-3.686-1.379-2.532-4.307-1.628-5.196c1.567-1.539,2.453-5.671,6.834-2.583&#xD;&#xA;	c2.194,1.546,6.573,0.959,9.606,0.088c3.516-1.009,3.307-4.743,2.608-7.608c-0.659-2.701-2.348-5.131-3.332-7.774&#xD;&#xA;	c-0.84-2.256-3.286-0.61-4.587-2.386c-2.513-3.43-6.472-5.601-8.634-9.498c-0.479-0.861-1.423-2.461-2.846-2.225&#xD;&#xA;	c-5.012,0.83-4.858-2.407-4.451-5.615c0.487-3.848-3.136-3.887-4.866-4.518c-4.491-1.639-4.293-5.641-5.339-8.872&#xD;&#xA;	c-0.589-1.82,1.315-3.144,3.242-3.585c0.547-0.125,1.161,0.045,1.71-0.077c5.46-1.212,6.214-2.926,3.374-7.494&#xD;&#xA;	c-1.904-3.063-2.787-6.635-5.014-9.575c-1.677-2.215-3.779-3.649-5.92-5.311c-3.401-2.641-6.91-1.76-10.381-2.482&#xD;&#xA;	c-3.395-0.708-6.216-3.749-7.398-6.438c-0.878-1.995-1.861-5.648,1.281-8.804c1.754-1.761,3.696-5.561,1.694-10.173&#xD;&#xA;	c-1.37-3.156-3.78-4.211-5.412-6.429c-2.072-2.817-2.025-5.149,0.22-7.776c2.665-3.118,3.894-7.292,6.314-10.372&#xD;&#xA;	c3.464-4.411,3.016-7.513,0.109-11.832c-1.348-2.002-0.534-5.163,1.663-7.701c3.147-3.634,6.822-6.974,8.457-11.819&#xD;&#xA;	c0.782-2.32,4.158-0.791,5.542-2.867c0.299-0.449,1.396-0.581,2.137-1.034c5.357-3.273,5.313-3.19,3.535-9.333&#xD;&#xA;	c-0.421-1.456-0.75-3.631,0.003-4.606c2.325-3.013,0.975-6.212,1.206-9.315c3.279-0.171,5.593,2.134,7.951,3.698&#xD;&#xA;	c2.175,1.442,3.398,1.594,4.848-0.363c2.227-3.006,5.148-3.845,8.807-3.564c4.612,0.353,7.035-3.877,10.651-5.667&#xD;&#xA;	c0.369-0.183,0.821-0.202,1.234-0.296c3.177,4.061,6.394,8.091,9.515,12.194c1.258,1.653,1.087,2.766-1.338,3.157&#xD;&#xA;	c-7.255,1.17-9.959,6.306-6.565,12.837c0.928,1.785,1.017,2.838-0.481,3.982c-2.104,1.607-2.65,3.879-1.828,6.104&#xD;&#xA;	c0.943,2.556,3.505,1.252,5.299,1.266c2.164,0.017,3.913,0.47,5.269,2.149c1.792,2.219,4.958,2.135,6.235,1.054&#xD;&#xA;	c4.087-3.463,9.191-3.591,13.756-5.38c3.388-1.328,5.189-0.365,5.308,3.39c0.113,3.576,0.148,7.163-0.013,10.735&#xD;&#xA;	c-0.118,2.629,0.432,4.696,2.85,6.13c2.045,1.211,2.613,3.479,3.136,5.57c0.452,1.812-0.287,3.057-2.493,2.883&#xD;&#xA;	c-1.137-0.09-2.323-0.158-3.427,0.062c-3.382,0.672-4.583,3.859-2.236,6.339c3.619,3.824,2.659,8.215,1.438,12.328&#xD;&#xA;	c-1.039,3.5-2.21,6.058,2.328,8.077c4.532,2.017,5.063,7.113,6.028,11.21c1.617,6.867,4.815,12.95,8.187,18.926&#xD;&#xA;	c1.749,3.101,5.378,2.121,8.154,1.122c3.288-1.183,10.585,0.154,12.603,2.765c1.225,1.584,0.154,8.491-1.501,10.938&#xD;&#xA;	c-1.205,1.781-1.354,4.795-0.246,5.627c2.957,2.219,2.302,5.008,2.112,7.639c-0.265,3.695,0.582,6.669,3.594,8.963&#xD;&#xA;	c2.085,1.587,1.484,5.148,5.02,6.038c2.166,0.545,4.042,1.079,6.035,0.139c5.57-2.626,11.397-0.736,13.967,4.795&#xD;&#xA;	c1.449,3.12,5.034,5.307,4.19,9.439l0.018,0.004c-0.525,0.928-0.674,1.893-2.17,2.248c-4.804,1.139-5.962,4.777-2.723,8.261&#xD;&#xA;	c1.858,1.998,1.14,3.587,0.85,6.075c-0.589,5.045-3.641,5.935-7.107,7.616c-3.336,1.617-2.961,7.837,0.366,9.6&#xD;&#xA;	c1.028,0.544,2.845,0.063,2.606,2.043c-0.311,2.583,1.094,5.416-1.071,7.73c-1.254,1.339-2.24,2.61-2.562,4.669&#xD;&#xA;	c-0.3,1.917-2.147,2.99-4.509,3.001c-4.713,0.022-4.713,0.159-4.716,4.923c-0.003,3.58-0.054,7.162,0.021,10.742&#xD;&#xA;	c0.04,1.914-0.447,3.84,1.272,5.595c1.047,1.07,0.89,3.241,0.158,4.513c-3.278,5.701-0.551,10.145,2.179,15.052&#xD;&#xA;	c2.36,4.246,4.984,8.72,4.092,14.044c-0.359,1.078-1.231,1.186-2.063,0.837c-3.021-1.267-5.604-1.435-7.953,1.552&#xD;&#xA;	c-1.068,1.359-2.978,0.654-4.323-0.311c-5.712-4.09-12.486-6.856-16.476-13.12c-0.255-0.392-0.439-0.813-0.571-1.26&#xD;&#xA;	c-0.755-5.48,0.066-11.072-2.064-16.491c-2.556-6.499-4.292-8.097-11.271-8.125c-3.289-0.014-6.582,0.085-9.87-0.065&#xD;&#xA;	c-1.581-0.072-3.558-0.153-3.944-1.937c-0.674-3.107-3.058-4.688-5.032-6.681c-1.67-2.727-2.375-5.678-2.664-8.885&#xD;&#xA;	c-0.511-5.668-4.417-10.412-4.687-16.244c-0.072-1.549-1.759-2.311-3.263-2.196c-5.437,0.411-10.116-0.716-13.411-5.548&#xD;&#xA;	C691.942,419.963,690.422,420.003,689.552,419.215z" />
	<path id="0591-cangshanqu" fill-rule="evenodd" clip-rule="evenodd" fill="#D3D3D3" stroke="#FFFFFF" stroke-miterlimit="10" d="M751.923,528.204&#xD;&#xA;	c-4.127-0.505-7.888-2.824-12.184-2.48c-3.497,0.279-6.345-2.183-10.05-1.907c-4.153,0.31-7.793,2.729-12.195,2.029&#xD;&#xA;	c-3.604-0.573-7.039-0.66-9.522-3.931c-1.115-1.468-8.469-0.407-9.925,1.19c-1.296,1.424-2.903,1.293-4.126,0.336&#xD;&#xA;	c-3.579-2.801-7.086-2.786-10.684-0.013c-1.226,0.945-3.146,1.527-3.317-1.198c-0.134-2.141-0.017-4.297-0.044-6.445&#xD;&#xA;	c-0.048-3.721,0.826-7.731-2.958-10.354c-0.899-0.623-1.449-1.265-1.336-2.403c0.475-4.754,0.096-9.153-4.621-11.951&#xD;&#xA;	c-0.973-0.577-0.434-1.845-0.533-2.803c-0.124-1.199,0.446-2.696-1.283-3.211c-3.772-1.125-4.915-5.263-8.008-7.021&#xD;&#xA;	c-2.48-1.411-1.544-4.098-3.035-5.986c-3.478-4.403-4.805-9.618-4.092-15.416c0.643-5.218-0.211-10.285-3.09-14.936&#xD;&#xA;	c-1.23-1.988,0.079-4.017,1.709-5.015c1.593-0.975,3.635-1.344,5.281,0.63c2.231,2.671,4.645,5.199,8.698,4.18&#xD;&#xA;	c4.178,11.212,12.979,18.142,22.568,24.34c2.924,2.29,5.939,4.513,8.055,7.61c1.012,1.479,2.118,1.804,3.63,1.175&#xD;&#xA;	c2.461-1.023,5.047-0.882,7.62-0.909c1.428-0.016,2.891,0.091,4.203-0.62c5.436-2.947,10.861-2.93,16.297-0.012&#xD;&#xA;	c1.296,0.695,2.795,0.584,4.15,1.019c1.918,0.616,4.221,1.182,5.21,2.812c2.842,4.686,7.354,7.461,11.345,10.847l-0.027-0.022&#xD;&#xA;	c1.922,2.012,2.865,5.263,5.453,6.21c4.643,1.698,7.48,5.871,11.854,7.758c1.139,0.492,3.167,0.863,3.377-0.453&#xD;&#xA;	c0.411-2.578,1.715-2.73,3.8-2.77c1.858-0.033,3.251,0.554,4.515,1.762c0.436,0.012,0.853,0.102,1.254,0.27&#xD;&#xA;	c3.272,5.287,6.537,10.58,9.824,15.859c1.098,1.764,1.277,3.696,1.171,5.698c-3.702,3.77-7.495,7.456-11.047,11.361&#xD;&#xA;	c-1.021,1.122-2.03,0.696-3.057,0.835c-1.352,0.184-2.608-0.07-3.599,1.521c-1.035,1.663-2.926,2.353-5.066,2.002&#xD;&#xA;	c-0.793-0.131-2.223-0.095-2.399,0.3c-2.143,4.759-3.311,1.117-5.191-0.299C757.008,535.13,754.198,531.94,751.923,528.204z" />
	<path id="0591-gulouqu" fill-rule="evenodd" clip-rule="evenodd" fill="#D3D3D3" stroke="#FFFFFF" stroke-miterlimit="10" d="M688.496,466.208&#xD;&#xA;	c-9.16-5.894-17.619-12.459-21.869-23.008c-0.198-0.491-0.021-1.132-0.02-1.702c3.278-2.202,6.091-5.12,9.919-6.475&#xD;&#xA;	c4.104-1.452,5.021-5.5,5.748-8.749c0.775-3.465,3.183-4.047,5.413-5.174c0.971-0.49,1.731-0.755,1.864-1.888&#xD;&#xA;	c2.313-0.015,4.224-0.406,5.581,2.795c1.192,2.813,4.691,3.458,8.17,3.297c7.147-0.329,7.261-0.085,7.409,6.874&#xD;&#xA;	c0.069,3.221,2.478,5.411,3.234,8.483c1.036,4.201,0.816,8.753,2.907,12.698c1.067,2.411-0.926,2.809-2.267,2.726&#xD;&#xA;	c-5.403-0.333-9.608,2.197-14.218,4.538C696.517,462.581,692.575,464.609,688.496,466.208z" />
	<path id="0591-taijiangqu" fill-rule="evenodd" clip-rule="evenodd" fill="#D3D3D3" stroke="#FFFFFF" stroke-miterlimit="10" d="M688.496,466.208&#xD;&#xA;	c2.297-4.833,7.849-4.474,11.38-7.15c4.798-3.636,9.893-4.795,15.644-4.296c0.91,0.079,1.075-0.755,1.335-1.402&#xD;&#xA;	c2.571,1.277,6.169,1.469,5.495,5.935c-0.284,1.892,1.505,1.685,2.754,1.692c3.998,0.023,7.997,0.009,11.996,0.011&#xD;&#xA;	c5.832,0.002,9.238,3.209,11.016,8.82c1.885,5.952,1.701,11.909,1.571,17.943c-4.747-1.593-8.802-3.947-10.925-8.878&#xD;&#xA;	c-0.592-1.376-2.134-2.057-3.753-2.504c-5.549-1.536-10.588-4.509-16.788-4.239c-3.311,0.144-4.652,3.683-8.294,2.996&#xD;&#xA;	c-2.808-0.531-6.03-1.017-9.037,0.979c-1.835,1.218-3.628,1.098-4.957-2.18C694.686,470.86,691.07,468.746,688.496,466.208z" />
	<text x="805" y="451" xml:space="preserve" font-family="Microsoft YaHei" font-size="18" fill="#666666" stroke="none" stroke-opacity="0" baseline-shift="baseline" >马尾区</text>
	<text x="691" y="499" xml:space="preserve" font-family="Microsoft YaHei" font-size="18" fill="#666666" stroke="none" stroke-opacity="0" baseline-shift="baseline" transform="matrix(1,0,0,1,0,8)" >仓山区</text>
	<text x="698" y="470" xml:space="preserve" font-family="Microsoft YaHei" font-size="18" fill="#666666" stroke="none" stroke-opacity="0" baseline-shift="baseline">
台江区</text>
<text x="675" y="448" xml:space="preserve" font-family="Microsoft YaHei" font-size="18" fill="#666666" stroke="none" stroke-opacity="0" baseline-shift="baseline">
鼓楼区</text>
<text x="796" y="294" xml:space="preserve" font-family="Microsoft YaHei" font-size="18" fill="#666666" stroke="none" stroke-opacity="0" baseline-shift="baseline">
连江县</text>
<text x="722" y="139" xml:space="preserve" font-family="Microsoft YaHei" font-size="18" fill="#666666" stroke="none" stroke-opacity="0" baseline-shift="baseline">
罗源县</text>
<text x="681" y="709" xml:space="preserve" font-family="Microsoft YaHei" font-size="18" fill="#666666" stroke="none" stroke-opacity="0" baseline-shift="baseline">
福清市</text>
<text x="1002" y="835" xml:space="preserve" font-family="Microsoft YaHei" font-size="18" fill="#666666" stroke="none" stroke-opacity="0" baseline-shift="baseline">
平潭县</text>
<text x="831" y="565" xml:space="preserve" font-family="Microsoft YaHei" font-size="18" fill="#666666" stroke="none" stroke-opacity="0" baseline-shift="baseline">
长乐市</text>
<text x="677" y="347" xml:space="preserve" font-family="Microsoft YaHei" font-size="18" fill="#666666" stroke="none" stroke-opacity="0" baseline-shift="baseline">
晋安区</text>
<text x="501" y="356" xml:space="preserve" font-family="Microsoft YaHei" font-size="18" fill="#666666" stroke="none" stroke-opacity="0" baseline-shift="baseline">
闽侯县</text>
<text x="290" y="403" xml:space="preserve" font-family="Microsoft YaHei" font-size="18" fill="#666666" stroke="none" stroke-opacity="0" baseline-shift="baseline">
闽清县</text>
<text x="311" y="626" xml:space="preserve" font-family="Microsoft YaHei" font-size="18" fill="#666666" stroke="none" stroke-opacity="0" baseline-shift="baseline">
永泰县</text>
</svg>
