<?xml version="1.0" encoding="utf-8"?>
<!-- Generator: Adobe Illustrator 16.0.0, SVG Export Plug-In . SVG Version: 6.00 Build 0)  -->
<!DOCTYPE svg PUBLIC "-//W3C//DTD SVG 1.1//EN" "http://www.w3.org/Graphics/SVG/1.1/DTD/svg11.dtd">
<svg version="1.1" id="图层_1_x5F_复制" xmlns="http://www.w3.org/2000/svg" xmlns:xlink="http://www.w3.org/1999/xlink"
	 x="0px" y="0px" width="1280px" height="1024px" viewBox="0 0 1280 1024" enable-background="new 0 0 1280 1024"
	 xml:space="preserve">
<path id="0595-anxixian" fill="#D3D3D3" stroke="#FFFFFF" stroke-miterlimit="10" d="M540.835,742.178c0.229,2.988-0.075,5.45-4.15,4.384
	c-9.451-2.474-15.907,2.204-21.268,9.137c-1.426,1.844-2.933,2.604-5.202,3.336c-6.819,2.2-13.239,5.462-18.019,11.104
	c-0.911,1.076-1.539,2.582-3.176,1.889c-1.665-0.704-1.101-2.3-0.819-3.636c0.142-0.673,0.384-1.325,0.592-1.982
	c0.625-1.98,0.638-4.022-1.083-5.313c-1.936-1.451-4.148-1.149-6.171,0.193c-0.804,0.533-1.572,1.149-2.436,1.557
	c-2.919,1.38-5.181,0.857-5.994-2.555c-0.479-2.01-1.162-3.53-3.358-4.246c-2.714-0.885-2.577-3.418-2.38-5.574
	c0.408-4.49-1.255-7.101-5.872-7.811c-2.818-0.435-5.122-2.533-8.256-2.368c-2.79,0.146-4.628,0.66-5.489,3.75
	c-1.018,3.651-2.871,3.923-5.599,1.247c-0.59-0.58-1.069-1.275-1.682-1.826c-1.896-1.705-4.085-2.021-5.966-0.295
	c-2.182,2.002-1.116,4.22,0.73,5.68c3.012,2.383,6.318,4.39,9.458,6.615c0.974,0.689,2.412,1.497,1.52,2.918
	c-0.682,1.084-1.987,0.418-3.043,0.092c-3.179-0.981-6.213-1.363-8.63,1.728c-1.99,2.545-2.942,5.092-0.307,7.718
	c1.695,1.689,1.098,2.716-0.609,3.885c-3.26,2.232-7.023,3.142-10.721,4.106c-2.137,0.557-3.551-1.263-4.645-2.841
	c-0.771-1.111-1.311-2.458-1.652-3.778c-2.042-7.905-10.771-8.671-15.801-5.992c-2.45,1.305-3.461,1.278-5.224-1.134
	c-1.713-2.342-4.45-4.141-7.071-5.56c-2.938-1.59-4.716,0.753-5.764,3.066c-1.099,2.428-2.1,4.91-5.266,3.795
	c-3.213-1.131-6.753-2.426-6.172-7.044c0.542-4.307-2.927-5.245-5.684-6.553c-2.621-1.243-4.823-0.192-6.406,2.178
	c-2.417,3.616-5.524,5.703-10.097,4.546c-1.636-0.414-2.978,0.268-4.215,1.222c-4.88,3.764-5.604,3.76-10.485-0.112
	c-2.935-2.328-7.978-2.262-10.583,0.18c-2.648,2.48-3.565,5.368-1.155,8.407c1.199,1.513,0.91,2.227-0.333,3.37
	c-2.022,1.86-3.954,3.837-5.76,5.906c-2.593,2.973-5.15,2.66-6.822-0.971c-2.526-5.484-5.353-6.087-9.929-2.114
	c-6.5,5.643-8.261,5.031-10.325-3.583c-1.018-4.249-2.825-5.541-6.947-4.524c-2.638,0.65-4.28-0.694-5.659-2.403
	c-1.88-2.332-4.225-3.721-7.121-3.548c-5.062,0.305-10.131,0.763-15.141,1.528c-2.767,0.422-4.671,2.342-5.109,5.295
	c-0.701,4.727-3.378,7.065-8.174,6.883c-1.835-0.07-3.07,0.829-4.243,2.145c-4.666,5.229-9.477,5.358-14.595,0.434
	c-1.065-1.025-2.336-1.612-3.717-1.57c-3.803,0.115-7.349-1.688-10.893-1.863c-5.655-0.281-9.708-4.083-14.848-5.163
	c-1.534-0.322-1.32-1.604-1.29-2.653c0.062-2.181-0.587-4.006-2.022-5.687c-5.234-6.129-3.727-11.324,1.191-15.179
	c3.117-2.443,6.231-4.898,6.613-9.508c0.387-4.668-0.75-6.491-5.421-6.678c-4.286-0.171-8.149-1.235-10.989-4.657
	c-4.261-5.132-3.181-9.114,0.682-14.453c3.78-5.224,7.249-9.148,14.237-9.192c2.515-0.016,5.018-2.156,6.733-4.479
	c1.185-1.604,2.705-2.557,4.682-3.152c3.549-1.071,5.517-3.267,4.744-7.432c-0.751-4.045,1.355-6.143,5.482-6.297
	c4.21-0.156,7.63,0.975,10.515,4.358c3.169,3.719,8.452,2.939,11.429-1.978c2.119-3.497,4.072-5.987,8.6-5.943
	c2.851,0.028,4.388-2.252,4.241-5.133c-0.194-3.79,1.458-5.431,5.217-5.906c3.69-0.467,6.508-3.109,8.983-5.599
	c2.224-2.236,2.458-5.365-0.22-7.731c-3.207-2.834-5.714-5.191-5.163-10.532c0.411-3.98-1.026-8.573-1.731-12.869
	c-0.991-6.032-6.936-7.632-11.513-3.5c-0.723,0.653-1.447,2.291-2.598,0.924c-4.586-5.448-11.665-6.476-17.446-9.76
	c-5.351-3.039-5.688-7.393-5.61-12.13c0.055-3.27,0.229-6.6,0.393-9.877c0.218-4.353-3.406-6.781-6.815-8.633
	c-2.508-1.362-5.42-2.467-8.344-1.998c-6.234,0.999-10.797-2.695-15.685-5.318c-2.535-1.36-3.113-3.857-2.22-6.83
	c1.676-5.584-0.408-8.247-6.287-8.724c-3.773-0.306-7.661-0.175-9.302-5.008c-0.758-2.233-3.375-2.451-5.724-2.422
	c-4.232,0.054-8.388,0.188-9.082-5.851c-0.233-2.029-2.835-3.726-4.998-3.722c-3.344,0.007-5.693-1.53-8.025-3.468
	c0-1.104,0-2.211,0-3.315c1.378-2.905,0.78-6.207,2.011-9.206c1.896-4.619,4.762-8.326,8.753-11.272
	c2.555-1.887,4.841-2.137,7.416,0.102c3.308,2.875,7.312,4.323,11.653,4.938c2.15,0.303,4.205,0.159,5.959-1.079
	c4.82-3.404,6.559-8.329,6.381-14.007c-0.15-4.822-3.204-7.835-7.122-9.87c-5.28-2.743-5.273-2.57-4.188-8.213
	c0.932-4.843,0.395-9.565-1.406-14.212c-1.806-4.661-0.453-6.834,4.635-6.902c3.799-0.051,6.949-1.193,9.988-3.278
	c5.006-3.435,10.567-5.946,15.619-9.339c3.157-2.121,5.525-4.632,6.162-8.394c0.693-4.095,3.012-6.554,6.752-8.158
	c4.529-1.943,8.61-4.369,9.036-10.184c0.161-2.204,2.23-3.334,3.972-4.507c3.958-2.664,5.051-6.35,3.103-10.725
	c-0.965-2.168-1.918-4.247-1.427-6.733c0.446-2.255-1.101-3.542-2.643-4.779c-2.346-1.879-3.3-4.168-1.477-6.851
	c2.393-3.522,5.357-6.633,7.509-10.34c0.291-0.501,0.896-0.582,1.477-0.415c1.407,2.248,3.09,4.145,5.577,5.332
	c2.107,1.007,3.086,2.902,3.687,5.198c1.414,5.405,7.801,7.809,12.388,4.829c0.463-0.301-0.169-0.095,0.339-0.223
	c7.307-1.854,14.905-2.667,21.768-6.106c6.771,3.081,12.238,0.063,17.547-3.734c0.33-0.236,0.761-0.322,1.137-0.495
	c7.307-3.354,7.209-3.283,12.024,3.302c2.765,3.782,5.888,7.278,7.933,11.577c0.956,2.009,8.141,4.997,10.211,4.578
	c1.702-0.346,2.337-1.758,3.095-3.089c2.811-4.931,4.276-4.876,9.713-3.309c5.069,1.461,9.898,3.172,14.448,5.784
	c0.838,0.481,1.924,0.835,2.8,0.445c4.999-2.227,10.726-2.652,15.289-5.817c2.542-1.763,4.692-1.916,7.212-0.324
	c1.75,1.106,3.519,2.178,5.256,3.305c3.29,2.134,4.486,1.902,5.964-1.721c1.702-4.168,4.25-7.391,8.437-9.16
	c3.499-1.477,4.31-1.156,5.201,2.451c0.846,3.421,3.38,4.808,6.292,5.958c4.75,1.877,9.708,1.807,14.69,1.772
	c6.73-0.047,8.649,1.592,7.825,8.283c-0.619,5.027,1.762,9.078,2.86,13.51c0.791,3.193,3.553,4.746,7.119,4.274
	c4.066-0.537,7.405,1.879,10.96,3.148c2.073,0.739,2.915,3.262,2.31,5.684c-2.951,11.812,4.369,19.047,11.773,26.139
	c1.537,1.471,3.073,2.536,3.169,4.944c0.153,3.862,2.023,5.274,5.804,4.77c0.979-0.131,1.85-0.514,2.685-1.022
	c2.025-1.234,3.686-4.09,6.47-2.557c3.632,2,6.99,4.52,8.171,8.889c0.18,0.667,0.198,1.366,0.315,2.046
	c0.303,1.765,1.084,3.202,3.008,3.485c1.758,0.259,2.971-0.824,3.581-2.277c1.983-4.719,6.011-6.908,10.531-7.853
	c4.403-0.92,8.971-1.54,13.473-1.535c5.671,0.007,10.498,5.513,10.387,11.177c-0.044,2.214,0.565,4.388,0.325,6.605
	c-0.032,0.621-0.141,1.229-0.298,1.829c-0.569,1.512-0.529,3.128-0.771,4.698c-0.059,0.4-0.152,0.791-0.255,1.181
	c-0.713,2.53,0.192,5.327-1.252,7.739c-0.304,0.521-0.693,0.974-1.135,1.379c-2.614,1.843-2.411,4.361-1.668,7.001
	c0.316,0.655,0.646,1.306,0.918,1.98c0.37,1.006,0.733,2.017,1.288,2.944c0.197,0.305,0.374,0.62,0.553,0.934
	c1.038,1.779,2.469,3.143,4.297,4.09c0.698,0.349,1.418,0.642,2.156,0.898c5.136,1.825,5.754,2.968,4.321,7.95
	c-0.26,0.56-0.619,1.051-1.055,1.482c-3.139,2.615-5.675,5.485-4.194,10.035c0.145,3.078,2.748,4.352,4.557,6.201
	c0.639,0.836,1.207,1.743,2.168,2.279c0.31,0.177,0.603,0.375,0.895,0.578c1.543,1.215,2.858,2.693,4.472,3.824
	c0.838,0.863,1.483,1.925,2.589,2.512c1.221,0.762,2.508,1.165,3.954,0.762c2.097-0.288,4.029-1.338,6.189-1.325
	c3.704-0.603,6.985,1.055,10.415,1.92c0.586,0.195,1.112,0.501,1.591,0.885c2.252,1.993,4.059,4.488,6.723,6.027
	c1.507,1.056,3.333,1.688,4.431,3.298c0.842,1.031,1.843,1.916,2.712,2.926c1.151,1.469,1.849,3.105,1.855,4.998
	c-0.022,1.018-0.217,1.982-0.885,2.795c-0.92,0.924-1.989,1.713-2.671,2.864c-0.707,1.102-1.722,1.949-2.455,3.027
	c-1,2.165-0.276,4.475-0.564,6.696c-0.031,0.562-0.132,1.111-0.289,1.649c-0.548,1.617-1.729,3.099-1.061,4.981
	c0.117,0.349,0.201,0.7,0.277,1.06c0.056,2.243,1.189,3.919,2.796,5.341c0.375,0.387,0.71,0.809,1.017,1.249
	c0.54,0.883,1.208,1.617,2.257,1.909c0.341,0.112,0.664,0.253,0.986,0.406c1.505,0.755,2.808,1.763,3.907,3.037
	c0.247,0.287,0.456,0.6,0.647,0.923c1.213,2.648,3.04,4.598,5.983,5.271c1.105,0.09,2.132-0.241,3.157-0.589
	c1.63-0.519,3.254-1.087,5.006-0.675c0.354,0.1,0.688,0.255,0.997,0.457c0.834,0.889,1.681,1.771,2.896,2.162
	c0.322,0.154,0.623,0.343,0.915,0.543c1.137,0.869,2.321,0.663,3.518,0.149c0.888-0.378,1.773-0.752,2.725-0.938
	c1.583-0.232,3.196-0.209,4.766-0.578c0.638-0.044,1.236,0.067,1.77,0.44c1.458,2.259,0.428,4.06-1.005,5.851
	c-1.875,2.344-4.646,3.708-6.485,6.07c-0.898,0.979-1.5,2.101-1.606,3.454c-0.084,0.755-0.201,1.502-0.388,2.237
	c-0.484,3.281-1.107,6.504-3.724,8.889c-0.265,0.271-0.558,0.511-0.861,0.736c-1.218,0.682-1.758,1.729-1.668,3.113
	c-0.038,1.633,0.512,3.16,0.835,4.725c0.273,1.442,1.009,2.581,2.234,3.403c0.295,0.228,0.559,0.482,0.813,0.753
	c2.783,2.562,1.061,4.72-0.606,6.886c-0.182,0.308-0.389,0.601-0.6,0.888c-0.824,0.944-1.114,2.121-1.399,3.304
	c-0.121,0.351-0.29,0.673-0.494,0.98c-0.861,1.021-1.614,2.136-2.661,2.995c-2.253,1.004-4.042-0.045-5.787-1.298
	c-3.018-2.224-6.492-0.69-9.719-1.173c-1.727-0.066-3.29-0.613-4.696-1.604c-2.734-1.121-5.536-1.901-8.536-1.669
	c-1.347,0.615-2.672,0.602-3.974-0.117c-2.315-1.161-4.668-1.077-7.044-0.206c-0.5,0.3-1.02,0.546-1.578,0.713
	c-3.343,0.815-5.427-1.644-7.921-3.034c-0.316-0.187-0.615-0.404-0.902-0.631c-1.047-0.862-1.994-1.946-3.583-1.626
	c-1.034,0.188-2.062,0.454-3.122,0.248c-1.998,0.157-2.953,2.234-4.821,2.629c-1.343,0.509-2.705,0.938-4.141,1.097
	c-1.898,0.103-3.796,0.098-5.692,0.022c-1.514-0.069-3.098-0.802-4.46,0.493c-1.573,3.247-0.477,6.685-0.753,10.015
	c-0.167,2.023,0.077,4.071-0.175,6.101c-0.232,1.294-0.819,2.423-1.621,3.444c-1.861,2.05-2.083,4.344-0.994,6.828
	c1.041,1.987,0.793,3.815-0.67,5.493c-0.907,0.946-1.583,2.003-1.587,3.381c0.005,0.386-0.014,0.764-0.026,1.146
	c-0.027,1.191,0.022,2.381-0.021,3.57c-0.388,2.861-0.73,5.743-3.104,7.811c-1.417,1.278-1.137,2.888-0.854,4.49
	c0.115,0.327,0.211,0.662,0.311,0.993c0.247,1.034,1.03,1.777,1.482,2.702c0.237,0.718,0.19,1.421-0.089,2.114
	c-0.492,0.882-1.2,1.747-0.19,2.736c0.372,0.379,0.75,0.747,1.127,1.116c0.881,0.933,1.899,1.666,3.071,2.19
	c0.494,0.271,0.914,0.63,1.277,1.056c1.526,1.759,2.329,4.112,4.446,5.386C540.092,740.935,540.677,741.381,540.835,742.178z"/>
<path id="0595-dehuaxian" fill="#D3D3D3" stroke="#FFFFFF" stroke-miterlimit="10" d="M445.234,286.865c1.718-3.326,4.497-5.669,7.712-7.261
	c2.897-1.435,3.951-3.754,4.19-6.548c0.452-5.277,2.704-9.794,5.494-14.107c3.979-6.151,3.87-17.162-0.315-23.122
	c-3.4-4.842-8.479-5.151-12.438-0.675c-0.949,1.073-1.959,2.299-3.316,2.264c-3.462-0.086-6.278,1.233-9.18,2.929
	c-2.078,1.214-5.021-1.125-4.635-3.524c0.514-3.197-1.199-4.155-3.767-3.78c-3.385,0.495-5.478-0.857-7.146-3.622
	c-1.61-2.67-4.334-4.195-6.789-5.967c-1.055-0.762-2.734-1.41-3.488-0.792c-4.315,3.541-3.711-0.048-3.97-2.547
	c-0.389-3.755-3.347-5.792-7.354-5.19c-1.32,0.198-3.354,1.984-3.819-0.231c-0.416-1.981-0.719-4.896,2.248-5.926
	c2.112-0.732,3.875-2.415,5.841-2.924c4.457-1.155,8.018-3.313,11.017-6.708c1.642-1.859,3.744-2.227,5.995-1.026
	c1.173,0.625,2.579,1.022,3.525,0.153c3.028-2.783,6.669-2.918,10.422-2.938c1.813-0.009,3.397-0.883,3.871-2.606
	c1.963-7.146,5.365-13.891,5.597-21.531c0.115-3.765-1.242-5.44-4.963-5.269c-1.067,0.048-2.368,0.538-3.069-0.601
	c-3.049-4.946-8.204-7.679-12.125-11.7c-5.383-5.519-5.064-10.592,0.851-15.542c1.078-0.902,1.849-0.632,2.955-0.116
	c6.099,2.849,13.073-0.941,14.237-7.596c0.704-4.023,0.447-8.012-0.47-11.925c-1.391-5.94-0.971-11.396,3.228-16.209
	c0.583-0.668,0.693-1.775,0.949-2.699c0.603-2.176,1.804-3.06,3.963-1.888c3.397,1.844,5.094,0.058,6.279-2.888
	c1.797-4.468,0.635-8.137-3.388-11.005c-2.242-1.598-4.484-3.217-6.558-5.021c-1.444-1.255-2.152-2.421,0.645-3.404
	c3.743-1.316,7.136-3.629,11.009-0.088c1.181,1.08,3.35,0.288,4.782-0.378c2.829-1.315,4.368-0.05,5.845,2.098
	c1.543,2.242,3.028,5.349,6.251,4.452c3.176-0.883,6.616-2.203,7.699-6.079c0.688-2.458,2.263-3.774,4.696-4.704
	c3.993-1.523,4.606-5.274,1.854-8.239c-1.216-1.31-4.55-1.809-3.382-3.91c1.176-2.117,4.449-3.244,6.804-2.955
	c3.259,0.401,5.311-0.514,7.08-2.939c0.242-0.332,0.607-0.891,0.85-0.858c5.467,0.738,8.834-4.631,13.969-4.779
	c6.966-0.199,13.686-1.201,19.397-5.689c0.419-0.33,0.985-0.557,1.514-0.646c2.499-0.422,10.377,5.369,10.714,7.861
	c0.5,3.694,2.766,5.984,6.09,7.131c3.849,1.328,7.794,2.265,10.909-1.674c1.455-1.839,2.975-3.629,4.37-5.513
	c2.272-3.068,4.75-3.044,7.827-1.079c2.714,1.732,4.656,4.243,7.091,6.246c2.287,1.88,4.244,2.043,6.68,0.318
	c2.617-1.853,4.845-4.042,6.965-6.417c2.566-2.876,5.701-3.584,9.347-2.1c4.305,1.752,7.327-0.472,6.868-5.179
	c-0.252-2.588-0.661-5.256-1.59-7.66c-1.813-4.694,1.786-6.547,4.346-8.789c2.647-2.318,4.743-0.479,6.751,1.489
	c2.517,2.466,5.099,1.071,7.597-0.195c4.007-2.031,5.007-1.682,6.782,2.425c3.245,7.504,7.227,9.46,15.277,7.396
	c2.994-0.769,4.457-2.954,5.172-5.862c0.871-3.549,0.99-7.343,3.234-10.472c1.657,0,3.315,0,4.973,0
	c1.978,2.283,3.718,4.633,3.036,7.964c-0.129,0.629-0.009,1.497,0.348,2.009c3.261,4.687,5.041,9.707,5.426,15.54
	c0.237,3.601,5.464,4.889,8.532,2.672c5.121-3.701,12.067-3.01,16.446,1.57c1.198,1.253,1.067,2.383,0.151,3.68
	c-2.058,2.912-1.21,5.164,1.704,6.831c4.526,2.59,4.751,7.83,6.963,11.786c1.322,2.365-6.094,8.743-9.854,8.166
	c-4.688-0.72-5.69,2.275-6.837,5.417c-0.368,1.008-0.253,2.185-0.442,3.27c-0.728,4.168-0.148,8.541-4.61,11.634
	c-3.035,2.105-1.67,6.566,2.128,7.659c2.462,0.709,3.59,2.021,4.524,4.194c1.208,2.811,3.257,4.777,6.675,4.617
	c0.677-0.031,1.434,0.014,2.034,0.288c1.95,0.886,7.136,12.265,6.351,14.331c-1.181,3.107-0.096,5.277,2.156,7.33
	c1.415,1.29,2.557,2.875,3.869,4.283c1.352,1.451,1.188,2.87,0.306,4.526c-2.686,5.049,0.09,13.976,5.153,16.646
	c1.104,0.581,2.202,0.983,2.836,2.223c1.8,3.524,4.848,4.62,8.626,4.259c0.937-0.089,2.257-0.285,2.793,0.217
	c5.431,5.077,12.992,7.056,18.034,12.74c6.811,7.678,13.841,15.163,20.846,22.666c3.652,3.91,7.789,6.556,13.518,4.466
	c1.103-0.402,2.673-0.71,3.306,0.742c0.645,1.479-0.789,2.123-1.731,2.894c-0.531,0.435-1.021,0.927-1.489,1.43
	c-4.453,4.783-3.146,9.32,3.169,11.021c5.186,1.396,4.377,1.189,2.979,6.634c-1.298,5.058-5.302,8.346-6.858,12.377
	c-3.282,8.502-11.283,12.61-15.35,19.991c-1.515,2.749-4.603,5.583,0.733,7.881c1.22,0.525,0.532,1.465-0.681,2.269
	c-4.1,2.717-8.007,5.727-11.97,8.648c-1.468,1.082-2.848,2.233-2.554,4.382c0.116,0.849-0.13,1.649-0.764,2.275
	c-4.582,4.525-7.209,10.575-12.21,14.882c-5.332,4.595-4.87,15.981,0.22,20.917c2.925,2.836,3.94,6.895,6.36,10.058
	c0.527,0.916,0.549,1.795-0.188,2.619c-2.49,2.184-4.5,4.631-5.201,8.025c-0.488,2.361-2.348,3.926-3.947,5.573
	c-1.265,1.303-2.216,2.732-2.556,4.531c-1.478,2.228-3.815,1.995-5.988,1.958c-4.386-0.072-8.381,0.133-11.354,4.345
	c-1.76,2.49-5.378,1.226-5.665-2.036c-0.32-3.633-2.348-5.38-5.175-6.804c-3.279-1.651-5.734-0.274-6.033,3.384
	c-0.411,5.011-1.224,5.706-6.185,4.258c-6.386-1.863-12.77-1.985-19.228-0.707c-1.327,0.262-2.486,0.351-3.177-1.07
	c-0.715-1.473-0.178-2.692,0.896-3.725c0.906-0.873,2.152-1.236,3.16-1.959c1.313-0.943,2.349-2.125,1.589-3.835
	c-0.758-1.711-2.35-1.708-3.92-1.426c-5.672,1.017-10.681,3.677-15.486,6.645c-3.036,1.876-6.098,2.869-9.679,3.11
	c-3.832,0.257-7.64,1.212-10.665,3.965c-1.044,0.949-2.347,1.429-3.665,1.867c-1.184,0.395-2.71,0.695-3.17,1.8
	c-1.429,3.43-3.945,5.761-6.653,8.164c-1.94,1.723-0.725,3.667,1.181,5.168c4.361,3.438,4.091,5.616-0.961,7.937
	c-1.776,0.816-3.365,1.794-4.87,3.058c-3.133,2.63-6.103,2.099-7.632-1.558c-1.408-3.368-3.771-5.287-7.09-6.416
	c-6.411-2.179-9.973-6.665-10.451-13.451c-0.174-2.479-1.328-4.147-3.533-5.155c-3.55-1.621-6.654-3.9-9.661-6.357
	c-3.143-2.569-6.417-3.888-10.694-2.234c-2.906,1.125-6.148,1.492-9.217,2.313c-3.206,0.859-6.005,0.16-8.162-2.547
	c-2.578-3.235-5.938-4.231-9.968-3.56c-9.341,1.559-17.277-1.344-23.961-7.87c-1.772-1.731-4.135-2.156-6.199-3.232
	c-5.035-2.628-5.518-4.066-2.83-8.899c0.612-1.1,1.335-2.247,1.14-3.491c-1.392-8.863-2.825-17.765-8.801-24.977
	c-3.028-3.656-7.17-3.187-11.092-1.962c-2.81,0.877-5.462,1.098-8.019-0.281c-4.364-2.354-8.222-1.277-12.028,1.281
	c-1.956,1.314-3.698,2.893-5.593,4.27c-4.827,3.506-10.062,1.381-10.481-4.477c-0.273-3.805-1.924-5.971-5.2-7.681
	C449.485,292.801,445.938,291.133,445.234,286.865z"/>
<path id="0595-jinjiangshi" fill="#D3D3D3" stroke="#FFFFFF" stroke-miterlimit="10" d="M819.413,1012.409c-1.762-1.59-2.417-3.107,0.377-4.267
	c1.931-0.801,2.317-1.967,1.443-3.905c-1.559-3.458-1.227-6.411,2.68-8.212c1.494-0.688,1.651-1.654,0.206-2.782
	c-2.865-2.234-2.53-4.688-0.085-6.942c1.212-1.116,1.761-2.565,0.979-3.663c-3.441-4.838-4.904-10.236-5.271-16.045
	c-0.144-2.266-1.344-3.354-3.499-4.437c-5.636-2.829-11.781-5.31-13.8-12.379c-0.393-1.378-1.774-2.399-3.378-2.799
	c-4.378-1.091-8.695-2.518-13.128-3.268c-4.854-0.821-9.085-2.664-11.908-6.628c-3.711-5.211-9.346-5.119-14.62-5.849
	c-5.8-0.802-11.489,0.441-17.087,2.014c-1.396,0.393-3.139,1.172-3.939-0.734c-0.87-2.073,0.66-2.862,2.364-3.504
	c1.666-0.63,3.232-1.615,5.091-1.438c1.526,0.145,2.493-0.696,2.818-1.896c0.343-1.268-0.443-2.684-1.552-3.11
	c-4.767-1.839-4.304-5.79-4.927-9.833c-0.953-6.189,1.305-12.533-1.354-18.609c-0.741-1.694-0.168-3.772,0.828-5.575
	c1.24-2.242,2.282-4.593,3.693-7.478c-3.245,0.715-3.588,3.303-5.166,4.581c-0.962,0.778-1.31,3.075-3.042,2.012
	c-1.466-0.9-1.935-2.785-1.002-4.436c1.488-2.63,0.916-3.773-2.144-3.521c0.962-5.574-1.611-10.362-3.754-15.104
	c-1.312-2.902-3.187-5.462-2.648-8.878c0.199-1.261-0.063-2.576-0.806-3.568c-2.401-3.207-3.575-7.136-6.053-10.262
	c-1.708-2.155-1.714-4.139-0.416-6.464c2.451-4.396,2.39-4.437-2.303-5.303c-1.096-0.202-2.141-0.539-3.127-1.047
	c-2.168-1.116-4.039-2.494-4.06-5.248c-0.02-2.564,1.643-4.001,3.681-5.061c2.491-1.294,4.647-2.949,6.316-5.227
	c0.571-0.78,1.312-1.394,2.086-1.988c1.533-1.178,4.658,0.11,4.924-2.866c0.469-5.245,4.121-10.211,1.492-15.718
	c-2.012-4.215-1.554-8.659-1.078-13.016c0.421-3.846,3.334-5.929,7.519-5.187c5.454,0.967,10.301-1.259,15.385-2.219
	c1.749-0.33,3.213-1.496,4.623-2.653c2.009-1.649,2.681-3.392,1.064-5.698c-0.789-1.127-1.286-2.442-1.984-3.628
	c-1.629-2.77-1.871-5.361,0.392-7.981c1.76-2.038,1.604-4.511,1.406-7.069c-0.398-5.189,3.56-8.667,8.859-8.048
	c2.656,2.271,5.639,3.705,9.103,4.53c3.683,0.877,6.868,2.87,8.585,6.556c1.101,2.366,2.695,2.978,5.362,2.275
	c5.008-1.319,7.804,0.726,8.694,5.916c0.291,1.694,0.511,3.401,2.539,3.796c2.318,0.451,2.508-1.543,3.245-2.978
	c1.643-3.199,3.828-6.054,5.981-8.916c0.939-1.25,2.296-2.289,3.823-2.238c5.029,0.169,10.101,0.219,14.943,1.925
	c0.827,0.76,1.264,1.776,1.775,2.744c2.199,4.164,5.447,6.752,10.305,7.146c0.92,0.075,2.24-0.46,2.768,0.958
	c0.89,2.053,2.749,2.062,4.533,2.049c2.905-0.02,5.641,0.758,8.455,1.277c5.918,1.094,7.348,5.703,9.213,10.011
	c0.568,1.312,0.892,2.791,1.529,4.165c2.156,4.65,1.228,7.482-3.262,10.113c-2.661,1.561-3.845,2.788-1.368,5.981
	c1.988,2.564,2.97,6.121,3.715,9.392c1.35,5.928,2.917,11.671,6.903,16.451c-2.755,3.895-7.326,5.127-11.1,7.52
	c-0.998,0.634-2.128,0.048-3.109-0.539c-0.707-0.423-1.529-0.924-2.235-0.146c-0.617,0.681-0.312,1.56-0.077,2.358
	c0.076,0.265,0.176,0.522,0.252,0.787c2.116,7.348-0.657,12.204-8.213,13.887c-2.543,0.565-4.679,1.498-6.396,3.437
	c-0.749,0.847-1.702,1.563-2.837,1.54c-4.151-0.084-5.997,2.929-7.913,5.792c-3.199,4.786-2.943,6.406,1.639,9.87
	c2.074,1.567,3.271,3.646,4.304,5.937c2.533,5.61,6.186,6.727,11.493,4.027c4.283-2.18,8.754-3.938,12.755-6.713
	c1.897-1.315,4.387-1.559,6.754-1.666c2.881-0.131,4.926,1.145,5.441,3.976c0.482,2.646,1.771,4.497,3.899,6.023
	c2.787,2,3.474,4.544,1.358,7.477c-0.962,1.334-0.958,2.829-0.978,4.346c0.438,5.312-1.815,10.187-4.095,14.432
	c-6.727,12.525-2.633,25.797,6.27,34.494c1.804,1.763,3.203,1.748,4.851-0.035c0.644-0.696,1.501-1.192,2.248-1.795
	c5.742-4.63,5.738-4.631,7.235,2.688c0.247,1.204,0.383,2.452,0.794,3.6c1.956,5.453,1.097,8.255-3.985,10.925
	c-1.732,0.91-2.511,1.514-2.118,3.664c1.191,6.521-0.723,10.267-7.026,12.637c-5.242,1.972-7.887,5.229-7.436,10.804
	c0.237,2.922-1.513,3.351-3.609,2.825c-1.761-0.442-3.2-0.462-4.516,0.852c-3.661,3.656-7.433,7.211-10.956,10.995
	c-5.057,5.431-10.73,9.799-18.549,8.764c-3.21-0.426-4.942,0.759-6.732,2.704c-2.351,2.556-4.502,5.274-6.209,8.317
	C822.176,1012.409,820.795,1012.409,819.413,1012.409z"/>
<path id="0595-nananshi" fill="#D3D3D3" stroke="#FFFFFF" stroke-miterlimit="10" d="M765.402,738.125c-5.756-0.046-8.212,2.761-7.489,8.482
	c0.224,1.771,0.764,3.897-0.705,5.137c-4.579,3.862-2.111,7.525,0.079,11.147c2.759,4.561,2.15,7.898-2.941,9.546
	c-6.226,2.015-12.368,5.028-19.401,3.283c-3.343-0.829-5.678,1.599-5.799,5.252c-0.146,4.385-0.653,8.794,1.695,12.912
	c1.501,2.631,0.394,5.494-0.238,8.092c-0.644,2.651-1.749,5.121-1.384,7.99c0.214,1.682-0.84,2.502-2.646,2.06
	c-2.558-0.627-4.068,0.495-5.242,2.793c-1.317,2.581-4.05,3.683-6.463,4.962c-1.857,0.985-3.104,2.046-3.135,4.359
	c-0.033,2.571,1.903,2.999,3.552,3.969c1.778,1.045,3.625,1.171,5.579,1.137c1.175-0.02,2.613-0.493,3.238,1.059
	c0.55,1.362-0.301,2.326-1.117,3.313c-0.788,0.951-1.434,2.021-2.153,3.029c-0.674,0.949-1.349,2.512-0.545,3.018
	c3.389,2.128,3.373,6.257,5.722,8.995c1.944,2.265,3.643,4.931,2.577,8.267c-0.318,0.995-0.281,2.011,0.255,2.801
	c2.779,4.094,3.884,8.906,5.913,13.291c1.319,2.847,1.688,4.687-0.761,6.688c-3.696,1.119-5.395,3.249-4.407,7.362
	c0.976,4.07-0.878,7.65-3.486,10.483c-4.933,5.361-5.372,8.26-1.227,13.762c0.724,0.807,0.719,1.617,0.016,2.433
	c-3.724,4.791-3.572,9.017,0.497,13.887c2.707,3.24,2.684,9.534-0.017,12.749c-0.521,0.619-0.975,1.311-1.366,2.02
	c-1.634,2.959-3.766,4.425-7.31,5.658c-8.17,2.845-16.998,4.603-23.667,11.095c-2.764,2.689-6.55,4.247-10.787,2.139
	c-1.135-0.564-2.704-0.434-4.058-0.351c-4.389,0.27-8.495-1.959-10.194-6.056c-1.226-2.955-2.562-5.095-6.22-5.71
	c-2.978-0.501-0.991-2.458,0.038-3.521c3.263-3.366,6.446-6.675,8.222-11.224c1.065-2.728,1.406-5.225,0.743-8.013
	c-0.72-3.023-0.906-5.676,2.138-8.091c3.263-2.591,2.117-12.135-1.416-15.035c-2.691-2.21-6.165-3.639-5.176-8.372
	c0.389-1.86-2.097-2.662-3.606-3.575c-11.096-6.712-8.955-4.576-3.721-15.534c0.696-1.456,1.824-2.832,3.06-3.883
	c5.827-4.955,2.957-11.313-4.302-13.528c-2.977-0.908-4.404-2.528-5.145-5.192c-1.14-4.1,0.492-6.538,4.587-6.97
	c4.399-0.463,8.559-5.323,7.854-9.874c-0.428-2.769-0.162-4.409,2.638-5.507c2.337-0.915,2.289-3.059,1.206-4.869
	c-0.982-1.645-2.383-3.198-4.737-2.07c-1.119,0.536-2.169,1.257-3.332,1.654c-2.502,0.853-4.363-0.625-4.176-3.255
	c0.399-5.616-0.614-10.051-5.901-13.808c-3.109-2.21-5.452-5.984-8.979-8.177c-1.271-0.791-0.748-1.813-0.588-2.91
	c0.38-2.616-0.688-4.656-3.079-5.744c-4.265-1.939-8.614-3.758-13.38-3.935c-3.09-0.114-6.094,0.416-8.279,2.955
	c-1.973,2.292-4.242,2.314-6.68,0.939c-4.073-2.296-7.706-2.476-11.032,1.507c-1.886,2.259-3.659,1.973-4.89-1.013
	c-1.737-4.213-4.976-7.78-4.63-12.871c0.137-2.019-1.481-3.922-3.359-4.963c-4.813-2.667-8.817-6.558-13.916-8.815
	c-4.332-1.918-4.548-3.884-1.292-7.504c3.575-3.975,2.084-10.252-3.232-11.294c-6.843-1.341-13.793-2.181-20.629-3.666
	c-0.964-0.21-2.11,0.437-3.176,0.669c-1.351,0.294-1.874-0.949-2.763-1.513c-0.442-0.279-0.883-0.559-1.325-0.838
	c-2.234-1.537-2.952-4.429-5.268-5.893c-0.229-0.237-0.459-0.474-0.689-0.711c-1.243-0.665-2.174-1.76-3.39-2.462
	c-0.3-0.279-0.601-0.559-0.901-0.838c-0.846-1.114-0.863-2.229-0.004-3.346c0-0.827,0.001-1.654,0.001-2.481
	c-0.805-0.669-0.785-1.873-1.635-2.512l0.023,0.035c-0.65-1.938-0.658-3.875,0.004-5.813c3.13-1.578,2.655-4.758,3.301-7.439
	c0.668-1.403,0.662-2.807-0.001-4.209c0.001-0.26,0.004-0.518,0.009-0.775c0.911-0.932,1.065-2.242,1.67-3.326
	c1.605-1.463,2.035-3.106,0.77-5.011c-0.893-2.627-0.297-5.071,0.917-7.438c0.539-0.824,1.078-1.649,1.617-2.474
	c0.89-4.722,0.173-9.491,0.419-14.231c0.074-1.437-0.458-3.082,1.258-4.011c1.345-1.187,2.692-0.144,4.038-0.003
	c2.25,0.703,4.501,0.699,6.752,0.004c1.37-0.285,2.739-0.572,4.108-0.857c1.689-0.313,2.758-1.688,4.186-2.449
	c1.176,0.114,2.227-0.252,3.222-0.836c1.584,0.527,2.897,1.513,4.206,2.504l-0.039-0.029c2.69,1.418,4.543,4.965,8.438,3.313
	c0.225-0.236,0.45-0.472,0.674-0.706c2.762-0.896,5.534-0.723,8.311-0.088c1.116,1.146,2.227,1.145,3.333-0.014
	c3.05,0.458,5.992,1.508,9.098,1.664c1.083,1.29,2.52,1.697,4.137,1.648c2.053,0.909,4.21,0.315,6.313,0.38
	c1.656,0.051,3.195,0.181,4.484,1.326c1.573,0.809,3.027,2.366,4.98,0.795c1.041-0.635,1.883-1.466,2.497-2.521l-0.03,0.038
	c0.621-1.37,0.516-3.031,1.683-4.182l-0.025,0.042c0.431-0.525,0.713-1.178,1.237-1.619c2.567-2.164,2.048-4.093-0.415-5.892
	l0.033,0.035c-1.563-0.664-1.942-2.504-3.324-3.35c-0.283-1.893-0.567-3.785-0.851-5.678c0.542-1.362,1.037-2.76,2.522-3.428
	l-0.037,0.023c3.493-2.072,3.68-5.645,4.124-9.099c0.012-0.828,0.023-1.655,0.036-2.483c0.725-0.864,1.093-1.938,1.691-2.879
	c1.848-2.784,5.104-4.012,7.179-6.646c1.433-1.82,2.004-3.352,1.044-5.418c-0.552,0.007-1.104,0.014-1.656,0.02
	c-1.546,0.96-3.437-0.258-4.968,0.788c-0.827,0.287-1.654,0.574-2.48,0.862c-1.572,0.611-3.049,0.78-4.137-0.881l0.034,0.033
	c-1.303-0.589-2.717-1.031-3.349-2.515l0.029,0.028c-2.109-0.904-4.051-0.594-5.84,0.811c-0.99,0.569-2.026,0.968-3.199,0.851
	c-2.587-1.879-5.396-3.534-6.739-6.669l0.029,0.039c-0.974-1.618-2.238-2.872-4.156-3.302c-0.257-0.011-0.515-0.018-0.773-0.021
	c-1.074-0.588-1.878-1.451-2.543-2.461c-0.289-0.284-0.578-0.57-0.866-0.855c-1.656-1.944-3.231-3.929-3.286-6.662l0.019,0.037
	c-1.125-1.873,0.395-3.332,0.778-4.969c0.009-0.535,0.017-1.069,0.025-1.604c1.217-2.691-0.355-5.674,0.875-8.365
	c1.083-0.545,1.896-1.362,2.447-2.441c1.044-0.646,1.88-1.499,2.54-2.529c0.946-0.607,0.734-1.583,0.79-2.475
	c1.098-1.86-0.204-3.225-0.971-4.695c-0.903-1.085-1.96-1.995-3.161-2.741c-0.917-1.72-3.408-1.464-4.195-3.346
	c-2.475-1.615-4.063-4.243-6.607-5.78c-0.285-0.275-0.569-0.55-0.854-0.826c-3.815-0.841-7.389-3.311-11.565-1.709
	c-2.068-0.515-3.669,2.037-5.833,0.884c-1.581,0.786-2.73-0.569-4.101-0.824c-1.648-0.038-1.909-1.472-2.543-2.528
	c-1.428-1.655-2.9-3.259-4.962-4.157l0.042,0.025c-1.049-0.61-1.85-1.474-2.522-2.469c-2.292-1.758-5.683-2.695-4.992-6.683
	c-1.781-4.855,1.862-7.564,4.261-10.767c0.244-0.246,0.489-0.491,0.734-0.737c2.459-4.761,1.48-6.549-4.112-7.506
	c-0.695-0.043-1.344-0.177-1.717-0.862c-1.913-1.401-3.593-3.033-4.948-4.988l0.024,0.035c-0.575-1.121-0.781-2.425-1.671-3.391
	c-0.286-0.536-0.571-1.073-0.857-1.609c-0.863-3.056-0.698-5.897,1.711-8.275c0.267-0.268,0.534-0.532,0.801-0.8
	c1.701-0.919,1.134-2.548,1.266-3.974c0.134-1.453-0.416-2.973,0.407-4.359l-0.016,0.03c1.075-1.544-0.198-3.474,0.826-5.025
	c0.002-0.499,0.004-0.998,0.007-1.497c2.43-1.868,5.488-1.606,8.24-2.16c2.328-0.468,3.877,1.581,4.093,3.8
	c0.426,4.377,1.427,8.742,1.604,13.053c0.227,5.543,3.82,8.148,7.281,11.1c1.222,1.042,2.958,1.463,4.408,2.26
	c3.192,1.754,6.022,1.604,8.529-1.285c3.341-3.854,8.203-4.943,12.653-6.728c1.864-0.748,3.506,0.229,4.921,1.44
	c3.255,2.785,7.27,3.875,11.231,5.078c1.471,0.446,3.011,0.539,4.509,0.183c3.58-0.854,4.847-4.371,2.548-7.194
	c-1.067-1.311-2.076-2.563-2.163-4.342c-0.11-2.268,0.767-4.036,2.616-5.307c1.97-1.354,3.922-0.951,5.828,0.186
	c1.077,0.644,1.912,1.57,2.832,2.404c1.131,1.024,1.757,3.351,3.816,2.355c1.738-0.84,1.312-2.894,1.311-4.5
	c-0.002-2.824,0.38-5.506,2.078-7.861c0.806-0.908,1.38-1.941,1.642-3.141c0.901-2.475,2.442-4.061,5.291-3.412
	c1.864,0.425,2.677-0.601,3.659-1.913c2.726-3.637,5.219-3.35,7.433,0.704c2.603,4.764,3.995,5.401,8.918,3.569
	c3.76-1.4,6.816-1.308,10.295,1.441c4.027,3.183,9.325,3.201,14.242,2.318c2.63-0.472,5.008-2.225,7.777-2.659
	c1.002-0.158,1.698-0.866,2.158-1.776c2.556-5.056,6.123-9.035,11.569-11.104c2.106-0.801,2.967-2.678,3.78-4.656
	c2.614-6.363,6.249-8.373,13.005-7.019c4.012,0.804,7.18-0.263,9.274-3.697c2.413-3.954,6.352-5.042,10.373-6.077
	c1.21-0.311,2.663-0.45,3.626,0.31c3.617,2.852,8.349,3.485,11.98,6.383c4.053,3.234,5.939,2.931,9.553-0.607
	c0.396-0.386-0.143,0.044,0.296-0.288c4.431-3.365,9.807-4.445,14.928-6.14c0.082,1.597,0.346,2.149,2.162,1.138
	c4.903-2.728,6.094-2.201,8.107,2.877c2.888,7.286,6.648,9.218,14.472,8.862c3.65-0.166,8.02-1.817,11.037,2.143
	c0.463,5.583,3.011,11.077,0.175,16.791c-1.537,3.097,0.083,6.279,3.182,7.345c10.315,3.551,13.376,8.915,11.288,19.769
	c-0.788,1.191-1.342,2.481-1.581,3.901c-5.1,6.522-2.618,13.695-1.788,20.729c0.267,2.254,1.254,4.242,2.354,6.143
	c1.496,2.586,1.445,4.971-0.447,7.271c-1.662,2.021-2.331,4.305-2.195,6.91c0.14,2.652-0.495,5.206-1.324,7.707
	c-0.435,1.313-1.043,2.641-0.719,4.024c1.096,4.677-0.353,8.223-4.064,11.295c-2.99,2.475-4.792,6.175-6.358,9.549
	c-1.955,4.211,0.224,8.654,2.342,12.48c1.445,2.612,3.348,5.068,5.394,7.308c2.599,2.845,2.416,5.656,0.289,8.6
	c-0.323,0.446-0.617,0.915-0.938,1.363c-3.854,5.397-3.75,6.067,2.14,8.596c4.013,1.723,6.248,4.353,5.772,8.911
	c-0.211,2.018,0.618,3.646,1.88,5.276c4.535,5.857,7.492,12.195,5.217,19.893c-0.831,2.813,0.467,5.765-0.424,8.594
	c-3.652,2.223-7.355,3.895-11.895,3.729c-4.359-0.159-6.041,1.878-4.898,5.937c1.226,4.355-0.74,7.147-3.875,9.038
	c-4.479,2.7-7.153,6.698-9.618,11.008c-0.78,0.876-1.394,1.849-1.693,3.003c-1.022,2.021-2.562,3.634-4.117,5.238
	c-2.112,1.472-4.195,0.553-6.299-0.055c-4.297-1.241-5.257-0.762-5.67,3.576c-0.31,3.244-1.6,5.067-4.956,5.37
	c-3.364,0.303-5.28,2.049-5.069,5.654c0.191,3.283-1.041,5.917-3.813,7.708C767.647,734.708,767.037,736.857,765.402,738.125z"/>
<path id="0595-yongchunxian" fill="#D3D3D3" stroke="#FFFFFF" stroke-miterlimit="10" d="M775.377,455.866c-3.918,2.519-8.179,4.198-12.683,5.349
	c-0.702,0.18-1.306,0.974-1.824,1.592c-3.459,4.128-6.458,4.686-10.778,1.124c-3.589-2.958-8.521-3.268-11.826-6.77
	c-1.353-1.432-10.178,1.6-11.482,3.944c-3.091,5.554-7.174,7.458-13.516,5.602c-4.479-1.311-8.32,1.339-9.73,6.165
	c-0.939,3.217-2.721,5.163-5.702,6.377c-4.981,2.027-8.309,5.618-9.833,10.825c-0.347,1.183-1.316,2.118-2.398,1.931
	c-3.157-0.546-5.503,1.203-8.129,2.319c-3.89,1.652-13.736-0.421-16.48-3.533c-2.096-2.376-4.396-1.949-6.756-0.951
	c-7.045,2.979-8.998,2.393-11.929-4.209c-0.642-1.445-1.187-2.365-2.889-2.271c-1.766,0.098-2.031,1.202-2.514,2.657
	c-0.589,1.778-1.227,3.903-4.271,1.971c-2.591-1.642-3.819,0.913-4.782,2.976c-0.732,0.751-0.812,1.859-1.451,2.661
	c-1.317,3.329-2.483,6.642-1.946,10.374c0.237,1.646-0.351,3.301-2.266,3.971c-2.338,0.818-2.62-1.157-3.563-2.438
	c-0.88-1.197-2.073-2.183-3.207-3.17c-2.054-1.788-4.272-2.2-6.115,0.138c-1.683,2.135-2.1,4.552,0.154,6.664
	c1.707,1.601,3.96,3.016,2.269,5.764c-1.639,2.66-3.296,5.203-7.383,4.246c-4.035-0.944-8.777-1.187-11.51-4.012
	c-4.653-4.809-8.766-2.163-13.097-0.521c-2.411,0.915-4.504,2.484-6.056,4.731c-0.82,1.188-1.868,2.572-3.673,2.24
	c-5.68-1.044-11.091-2.677-14.529-7.835c-0.609-0.915-0.909-1.967-2.124-2.332c-1.028-0.31-1.814-1.188-1.553-2.158
	c1.391-5.163-1.472-9.955-1.108-15.111c0.297-4.225-1.375-4.95-5.333-3.387c-2.027,0.801-4.092,0.093-6.122,0.359
	c0.596-3.175-1.379-6.253,0.036-9.621c0.73-1.739-5.964-7.656-8.834-7.427c-6.882,0.549-14.043-0.112-20.342,3.901
	c-1.521,0.97-2.644,1.876-2.894,3.662c-0.449,3.198-2.628,4.606-5.49,4.395c-2.905-0.214-3.979-2.287-3.981-5.229
	c-0.002-3.875-4.638-9.395-8.28-10.329c-1.343-0.345-2.078,0.537-2.745,1.398c-2.429,3.137-5.484,3.708-9.198,2.702
	c-2.652-0.719-3.844-2.253-3.035-4.761c0.844-2.614-0.388-4.236-2.362-4.961c-3.561-1.308-5.44-3.923-7.004-7.087
	c-0.894-1.809-1.795-3.769-3.202-5.139c-4.344-4.23-3.424-9.352-2.528-14.297c0.671-3.705-0.335-5.407-3.907-6.24
	c-3.877-0.905-7.509-2.533-11.713-2.157c-1.543,0.139-3.478-1.444-3.946-3.249c-1.238-4.767-4.485-9.03-3.67-14.32
	c0.083-0.541,0.019-1.104,0.025-1.656c0.071-6.533,0.068-6.43-6.307-6.634c-5.179-0.166-10.359,0.074-15.44-1.787
	c-4.149-1.519-6.677-3.753-6.973-8.266c-0.152-2.324-1.205-1.539-2.397-1.079c-5.114,1.973-7.941,6.002-9.881,10.866
	c-1.319,3.305-3.273,3.766-6.115,1.462c-1.484-1.203-3.028-2.297-4.604-3.377c-3.481-2.384-5.43-1.177-8.895,0.793
	c-4.49,2.554-10.05,4.213-15.255,4.943c-2.907,0.408-6.325-2.71-9.489-4.287c-3.343-1.666-7.202-1.32-10.637-3.184
	c-2.3-1.248-4.137,1.359-5.063,3.619c-2.019,4.924-2.387,5.083-7.545,2.947c-0.878-0.363-1.88-0.411-2.8-0.689
	c-2.532-0.764-4.573-1.708-5.651-4.697c-2.058-5.707-7.289-9.468-9.947-14.972c-0.872-1.805-3.498-0.61-5.205,0.309
	c-3.686,1.987-7.346,4.021-11.008,6.052c-2.841,1.575-5.585,1.826-8.571,0.12c-1.827-1.043-4.104-1.254-5.745,0.464
	c-3.657,3.833-8.41,3.609-13.02,3.613c-2.095,0.002-3.827,0.216-5.093,1.936c-1.729,2.349-4.406,2.468-6.305,1.328
	c-2.76-1.658-7.069-2.058-7.516-6.206c-0.338-3.138-1.532-5.029-4.471-6.144c-2.317-0.879-3.906-2.571-3.742-5.337
	c1.13-2.883,0.568-5.578-1.081-8.051c-2.367-3.551-2.784-7.479-2.209-11.521c0.413-2.902,1.167-5.649,4.827-6.375
	c2.333-0.463,3.333-2.496,3.246-4.726c-0.178-4.51,1.403-7.906,5.125-10.621c2.849-2.078,3.848-7.167,1.882-10.601
	c-2.566-4.482,1.229-8.214,0.802-12.378c-0.084-0.816,1.139-1.189,1.981-0.843c1.561,0.64,2.985,0.001,4.452-0.272
	c1.881-0.351,2.988,0.227,3.844,2.123c1.873,4.148,4.033,4.821,8.258,3.048c4.91-2.062,5.435-1.848,7.73,2.954
	c0.843,1.763,2.366,2.635,4.242,2.945c4.47,0.737,7.626,2.809,9.63,7.233c1.533,3.384,4.919,5.037,8.904,4.901
	c2.67-0.091,3.997-1.632,4.591-3.975c0.599-2.364-0.944-3.559-2.741-4.513c-2.75-1.46-5.634-8.555-4.467-11.418
	c0.782-1.919,1.991-3.134,4.49-2.329c4.714,1.521,9.174,1.577,12.235-3.315c1.03-1.646,2.099-1.071,3.43-0.18
	c2.793,1.872,3.983,4.866,5.702,7.502c2.622,4.023,5.166,8.083,9.417,10.719c4.528,2.808,7.282,2.377,9.741-2.227
	c1.113-2.082,2.63-2.452,4.404-1.838c2.908,1.007,5.613,1.133,8.313-0.506c0.443-0.27,1.089-0.398,1.603-0.325
	c6.276,0.896,11.452-3.031,17.315-3.888c1.327-0.194,2.407-0.702,3.203-1.681c1.464-1.801,3.326-2.36,5.521-2.007
	c2.746,0.441,4.819-0.75,6.623-2.632c0.476-0.497,1.027-0.975,1.339-1.568c3.825-7.277,11.017-8.815,18.044-10.623
	c1.163-0.299,2.125,0.263,3.055,0.933c2.346,1.688,4.698,3.37,7.102,4.974c1.223,0.816,2.462,1.916,4.109,0.764
	c1.529-1.068,2.068-2.492,1.758-4.309c-0.741-4.345,0.57-6.889,4.755-8.417c3.181-1.162,5.388-2.807,6.409-6.312
	c1.264-4.339,6.428-3.692,9.155-6.309c1.943,2.913,4.64,5.013,7.727,6.479c3.92,1.862,6.776,4.129,5.956,9.09
	c-0.314,1.9,0.559,3.687,2.414,4.384c2.411,0.906,4.886,0.976,6.929-1.093c2.818-2.853,5.856-5.271,9.729-6.738
	c2.909-1.102,5.342-0.397,7.784,0.783c2.904,1.403,5.372,1.644,8.53-0.009c5.294-2.771,11.565,0.559,14.823,7.476
	c2.202,4.676,4.853,9.282,4.268,14.819c-0.094,0.886,0.163,2.028,0.689,2.723c2.266,2.988,1.719,5.726-0.751,8.08
	c-2.55,2.431-2.116,4.067,0.794,5.633c1.796,0.966,3.294,2.493,5.533,2.57c0.64,0.022,1.628,0.3,1.843,0.752
	c2.618,5.506,8.646,5.695,13.025,8.416c3.844,2.389,8.03,0.709,12.063,0.369c3.617-0.303,7.053-0.219,9.185,3.347
	c1.847,3.087,4.748,3.958,7.83,3.046c3.033-0.897,6.331-1.117,9.103-2.39c4.532-2.081,7.963-0.871,11.317,2.063
	c3.216,2.812,6.644,5.207,10.662,6.854c1.934,0.793,3.69,2.339,3.531,5.042c-0.306,5.208,2.234,8.913,6.296,11.932
	c1.574,1.169,3.444,0.816,5.013,1.739c2.64,1.552,5.038,3.069,5.851,6.438c0.786,3.258,3.757,4.061,5.836,1.485
	c1.874-2.322,4.359-3.135,6.796-4.245c3.215-1.464,3.289-2.35,0.469-4.642c-1.163-0.945-3.177-0.804-3.648-2.462
	c-0.772-2.717-0.543-5.141,2.579-6.485c2.181-0.937,4.081-2.129,3.934-5.129c-0.101-2.049,2.146-2.783,3.467-3.074
	c4.588-1.015,7.402-5.615,12.317-5.804c0.639-0.024,1.294-0.792,1.884-0.723c7.536,0.895,12.627-4.291,18.662-7.224
	c3.001-1.459,6.458-2.067,9.771-2.761c1.914-0.401,3.595,0.586,4.275,2.495c0.62,1.737-0.106,3.101-1.562,4.319
	c-1.3,1.089-2.721,1.79-4.224,2.472c-1.183,0.537-1.403,1.641-0.923,2.791c0.313,0.749,0.97,0.849,1.723,0.591
	c6.94-2.382,13.784-1.44,20.616,0.554c4.747,1.386,4.799,1.344,4.541-3.489c-0.103-1.933,0.232-3.396,2.104-4.512
	c1.905-1.135,3.293-1.07,5.239,0.102c3.252,1.958,7.283,3,5.769,8.277c-0.333,1.163,0.72,2.056,1.921,2.307
	c1.214,0.253,2.326-0.21,2.695-1.386c1.296-4.126,4.606-4.537,8.15-4.669c3.157-0.117,6.359,0.251,9.44-0.796
	c1.417,5.009,2.846,9.996,4.757,14.866c1.152,2.938,2.466,4.266,5.735,3.801c5.688-0.808,5.539-0.474,6.318,5.391
	c0.581,4.372,0.463,9.659,7.04,10.448c1.812,0.217,1.49,1.791,0.306,3.13c-3.69,4.176-2.501,8.343,2.82,8.95
	c6.419,0.731,9.272,5.806,12.924,9.82c1.795,1.974,2.585,4.823,5.023,6.425c1.813,1.191,1.669,2.81,0.306,4.208
	c-2.181,2.236-2.437,4.757-1.765,7.65c1.228,5.29-2.264,8.846-4.953,12.62c-3.105,4.36-3.054,5.117,0.927,8.466
	C779.259,454.631,776.22,454.874,775.377,455.866z"/>
<path id="0595-huianxian" fill="#D3D3D3" stroke="#FFFFFF" stroke-miterlimit="10" d="M1008.345,607.048c-1.737,0.38-3.411,1.055-5.261,0.887
	c-1.013-0.093-1.972,0.203-2.036,1.5c-0.063,1.237,0.733,1.928,1.796,1.722c8.753-1.697,10.682,4.525,12.582,10.76
	c1.553,5.098,5.243,8.859,8.981,12.053c6.48,5.534,11.239,12.738,18.492,17.579c4.781,3.191,8.82,3.055,13.391,0.685
	c0.972-0.505,1.773-1.319,2.991-1.178c0.894,0.104,1.601,0.515,1.926,1.35c0.269,0.689,0.062,1.3-0.546,1.822
	c-1.409,1.212-3.964,2.224-3.035,4.367c1.135,2.619,3.427,5.303,5.984,6.032c6.119,1.746,12.467,3.779,18.873,0.563
	c1.015-0.51,2.049-0.952,2.653-1.861c2.889-4.348,5.762-8.706,8.496-13.149c0.989-1.608,0.66-3.283-0.238-5.061
	c-2.142-4.237-1.396-6.931,2.414-10.024c0.868-0.704,1.561-1.462,2.083-2.493c1.881-3.716,5.919-5.46,9.923-4.419
	c4.522,1.175,5.044,3.816,2.018,7.439c-4.458,5.337-9.697,10.517-8.516,18.432c0.408,2.731,0.744,5.424,0.791,8.188
	c0.057,3.33-1.63,4.243-4.46,3.4c-2.079-0.618-3.964-0.585-6.052,0.01c-2.416,0.688-3.409,2.297-3.582,4.487
	c-0.415,5.281,0.089,10.464,2.309,15.362c1.475,3.253,3.427,5.845,7.354,6.516c2.051,0.351,3.915,0.997,4.765,3.788
	c0.688,2.264,3.46,2.954,5.936,1.737c1.724-0.848,3.336-1.923,5.021-2.854c1.338-0.739,2.552-0.22,3.231,0.89
	c0.797,1.303,0.182,2.146-1.274,2.815c-2.386,1.098-4.267,2.803-5.806,5.079c-1.619,2.395-4.119,3.748-7.198,2.726
	c-1.396-0.464-2.63-0.25-4.021,0.034c-5.595,1.142-9.516-2.475-9.039-8.175c0.45-5.395-1.78-7.066-7.017-5.283
	c-0.643,0.219-1.445,0.619-1.977,0.417c-4.942-1.889-8.713,1.335-12.821,2.904c-3.369,1.288-6.558,2.002-9.855-0.156
	c-2.008-1.314-3.842-0.286-6.019,0.138c-7.327,1.422-11.044,6.477-14.485,12.14c-0.9,1.482-2.436,3.287-0.123,4.617
	c3.462,1.994,3.825,5.024,3.766,8.508c-0.097,5.618,0.362,6.104,5.687,6.756c2.184,0.267,3.973,1.308,4.032,3.442
	c0.121,4.304,2.905,5.753,6.315,6.375c3.819,0.696,6.593,1.852,7.051,6.427c0.357,3.572,3.723,3.964,6.582,4.464
	c1.21,0.211,2.483,0.074,3.684,0.317c0.865,0.175,1.381,0.948,1.233,1.882c-0.126,0.801-0.84,1.183-1.536,1.06
	c-6.064-1.067-11.211,1.727-16.545,3.802c-2.802,1.091-4.846,0.133-6.008-2.643c-0.926-2.213-2.217-3.03-4.847-2.396
	c-6.545,1.579-8.878,0.447-12.35-5.425c-2.292-3.875-6.146-2.04-9.308-2.655c-1.3-0.252-2.761,0.395-4.092,0.212
	c-6.986-0.963-12.314,1.479-16.354,7.254c-1.719,2.461-4.535,2.908-7.42,2.749c-1.944-0.106-3.899-0.114-5.554,1.147
	c-2.804,2.141-2.501,5.302,0.604,7.292c1.993,1.276,4.371,2.539,1.689,5.325c-1.726,1.794-3.365,1.757-4.619-0.48
	c-0.662-1.181-0.962-2.496-1.937-3.589c-5.577-6.25-16.434-6.084-22.292,0.639c-4.593,5.271-9.891,6.885-16.904,5.791
	c-4.838-0.754-10.275-0.165-14.001,4.14c-2.051,2.371-4.513,2.529-7.131,1.789c-2.664-0.755-5.069-0.558-7.623,0.521
	c-3.94,1.664-7.845-0.266-11.683-0.832c-1.959-0.289-3.493-2.853-2.436-4.997c1.963-3.976,1.372-7.528-0.053-11.497
	c-2.062-5.745-1.089-10.834,5.266-13.62c-1.064-1.104-2.146-0.926-2.9-0.558c-4.859,2.371-9.704,1.797-12.592-1.631
	c-2.583-3.065-2.189-7.845,1.625-11.981c3.166-3.434,5.114-7.788,8.687-10.865c1.357-1.17,1.171-2.382-0.184-3.448
	c-2.422-1.906-3.403-4.604-4.142-7.444c-1.334-5.133-4.11-7.559-9.356-7.896c-1.706-0.11-2.979-0.723-3.733-2.151
	c-1.347-2.55-3.385-4.612-4.709-7.223c-0.875-1.726-1.82-4.247-4.731-3.862c-3.527-1.185-5.449-4.4-8.206-6.563
	c-4.462-3.499-7.602-8.345-11.757-12.204c-2.16-2.007-0.918-6.824,2.527-9.163c1.785-1.211,2.432-2.193,1.896-4.315
	c-0.877-3.47,0.539-6.168,3.388-8.235c1.56-1.132,3.114-2.278,4.433-3.721c1.766-1.934,2.824-3.739,1.661-6.646
	c-1.374-3.438,1.315-5.693,3.896-6.81c3.708-1.605,5.653-4.733,8.105-7.476c1.584-1.771,1.465-3.784,0.605-5.821
	c-1.652-3.921-2.783-7.826-0.346-11.884c0.51-0.849,0.39-1.89,0.075-2.831c-0.946-2.835-0.493-5.427,1.228-7.851
	c1.072-1.513,1.385-3.246,1.497-5.085c0.348-5.708,4.51-7.99,9.68-5.372c0.991,0.503,1.841,1.216,2.71,1.896
	c0.954,0.745,2.247,1.218,3.019,0.313c2.661-3.121,7.124-4.201,9.038-8.115c7.929-2.437,15.682-2.085,23.195,1.544
	c1.389,0.67,2.833,1.06,4.319,1.354c8.534,1.689,13.861,6.819,16.341,15.09c1.027,3.429,2.227,4.033,4.923,1.768
	c4.506-3.784,9.03-3.115,13.925-1.206c5.568,2.172,6.008,1.861,7.455-3.952c0.912-3.663,3.586-4.917,6.839-2.872
	c2.401,1.509,4.821,2.553,7.661,2.736c1.544,0.099,2.982,0.782,4.028,1.926c2.51,2.743,5.071,5.439,7.542,8.217
	C1009.091,603.642,1009.888,605.276,1008.345,607.048z"/>
<path id="0595-luojiangqu" fill="#D3D3D3" stroke="#FFFFFF" stroke-miterlimit="10" d="M911.406,578.162c1.183,1.448,0.454,3.333-0.685,3.38
	c-3.606,0.15-4.872,3.172-7.082,4.981c-1.787,1.463-3.125,1.882-4.803-0.209c-0.888-1.104-2.317-2.219-3.65-2.441
	c-5.374-0.896-7.816,0.321-7.028,5.203c0.389,2.406-0.292,4.281-1.882,6.017c-0.628,0.685-1.622,1.833-1.414,2.363
	c2.547,6.477-3.699,13.543,1.372,19.847c0.499,0.62,0.655,2.163,0.235,2.771c-2.555,3.698-4.035,8.45-8.813,10.132
	c-3.831,1.349-4.98,3.621-3.729,7.446c0.434,1.322,0.431,2.681-0.819,4.128c-1.993,2.308-3.966,4.671-6.523,6.219
	c-3.637,2.202-3.881,5.162-2.467,8.497c0.902,2.126,0.504,3.149-1.681,3.452c-3.502,0.485-3.187,4.035-4.569,6.07
	c-1.367,2.013,1.866,2.378,3,3.547c2.764,2.847,4.791,6.309,7.877,8.929c3.313,2.812,6.302,6.007,9.432,9.035
	c0.192,5.296,1.398,10.214,5.195,14.198c1.532,1.607,2.464,3.604,3.565,5.505c0.814,1.406,1.104,2.633-0.303,3.565
	c-2.941,1.949-2.404,4.571-1.685,7.295c-1.831,2.11-3.613,2.211-5.509,0.291c-1.21-1.225-1.672-2.822-2.09-4.42
	c-0.73-2.792-2.188-5.007-4.793-6.396c-1.225-0.652-2.335-1.521-3.132-2.643c-3.472-4.883-8.702-5.921-14.103-6.339
	c-2.72-0.21-5.144-0.6-7.002-2.803c-0.899-1.064-2.108-1.845-3.452-2.169c-4.993-1.206-8.465-4.681-11.398-8.411
	c-2.596-3.302-3.646-7.468-2.467-11.829c-0.825-4.2-0.042-8.238,0.468-12.444c0.672-5.563-1.666-11.062-5.615-15.255
	c-1.697-1.803-2.361-3.396-2.322-5.734c0.092-5.538-1.221-7.225-6.404-8.853c-4.795-1.506-5.623-4.315-2.489-8.126
	c1.216-1.48,2.296-3.086,3.306-4.717c0.972-1.567,0.875-3.056-0.513-4.498c-1.325-1.379-2.301-3.106-3.673-4.427
	c-3.572-3.437-4.64-8.014-5.79-12.498c-0.656-2.561-0.056-4.857,1.778-7.243c2.883-3.752,5.073-8.01,8.914-11.027
	c1.006-0.79,1.065-2.35,0.738-3.52c-1.879-6.692,3.237-12.718,1.761-19.35c-0.054-0.241,0.008-0.65,0.174-0.781
	c4.875-3.826,3.069-7.618,0.861-12.293c-1.868-3.953-1.335-8.864-2.641-13.263c-0.662-2.232-0.543-4.796,2.028-6.634
	c1.119-0.8,1.341-2.855,1.971-4.341c1.145-0.821,0.553-2.493,1.639-3.344c0.258-2.305-0.065-4.6,0.526-6.951
	c0.867-3.449-5.98-11.497-9.573-11.684c-5.558-0.29-8.424-4.987-5.623-9.684c1.338-2.245,1.703-4.194,0.774-6.573
	c-1.187-3.042-0.254-6.167-0.145-9.254c1.505-0.788,2.569-1.995,3.554-3.376c3.832-5.376,10.164-7.039,16.612-5.076
	c3.948,1.202,7.986,1.884,11.867,3.58c3.002,1.312,6.577,0.795,8.654-2.694c1.536-2.581,3.85-3.138,6.709-2.988
	c3.015,0.158,6.052,0.262,9.084-0.307c2.364-0.444,4.057,0.424,4.243,3.168c0.112,1.649,0.392,3.286,0.509,4.935
	c0.218,3.066-0.812,5.194-3.979,6.369c-3.804,1.409-7.323,3.342-6.73,8.449c0.644,5.538,4.951,7.902,9.654,5.022
	c2.323-1.422,4.588-2.458,7.344-2.094c1.352,0.179,2.529-0.384,3.365-1.293c2.108-2.293,3.763-2.306,6.135-0.022
	c2.392,2.3,3.155,3.978,1.054,6.982c-2.192,3.135-3.922,6.421-0.51,10.439c1.959,2.308-0.25,5.554-1.201,8.147
	c-1.009,2.748-0.908,4.865,0.814,7.308c2.529,3.585,1.032,7.073-3.263,8.419c-3.478,1.09-5.157,4.093-3.584,7.328
	c1.251,2.573,0.455,5.153,0.86,7.702c0.559,3.517,1.188,6.587,5.3,7.919c2.094,0.68,3.671,2.454,4.208,5.156
	c1.237,6.22,1.657,6.396,7.77,6.71c1.006,0.052,1.899,0.273,2.713,0.847c1.46,4.558,6.691,7.188,6.357,12.74
	C908.594,575.915,911.108,576.408,911.406,578.162z"/>
<path id="0595-quangangqu" fill="#D3D3D3" stroke="#FFFFFF" stroke-miterlimit="10" d="M911.406,578.162c-3.322-1.251-5.104-3.37-4.182-7.145
	c0.18-0.736,0.234-1.836-0.756-2.077c-4.105-1.007-3.532-4.527-4.131-7.43c1.979-2.322,4.015-4.598,5.913-6.982
	c1.328-1.667,2.627-3.1,5.024-3.11c3.252-0.017,5.659-1.494,7.49-4.305c3.643-5.585,8.986-8.718,15.316-10.732
	c3.354-1.067,6.525-2.769,10.045-3.468c2.745-0.544,4.079-2.035,4.388-5.067c0.84-8.245,6.942-12.358,15.303-11.285
	c4.178,0.536,8.405,0.185,12.692-0.58c5.247-0.937,10.44-0.975,15.372-3.899c2.838-1.683,6.816,0.667,10.491-0.1
	c5.188-1.081,6.918-2.315,7.316-7.494c0.463-6.024,2.827-7.237,8.268-4.238c1.201,0.731,0.568,2.441,1.712,3.204
	c1.173,2.271,3.199,1.93,5.063,1.43c1.44-0.385,2.721-1.334,4.136-1.862c2.401-0.896,3.436-4.177,6.642-3.672
	c3.702,0.583,6.112,3.573,9.401,4.915c0.353,0.145,0.761,0.517,0.861,0.865c1.298,4.477,4.369,5.79,8.699,5.051
	c0.699-0.119,1.358,0.273,1.54,1.07c0.247,1.088-0.396,1.637-1.147,2.377c-3.99,3.945-5.934,9.247-9.25,13.778
	c8.455-1.735,16.432-4.269,24.866-4.604c2.701-0.108,4.63-0.039,4.858,3.282c0.193,2.8,1.747,3.987,4.681,3.986
	c4.612,0,3.744,0.817,4.455,5.247c0.682,4.246-1.924,7.916-0.431,12.088c1.089,3.047-1.563,5.732-5.779,5.59
	c-4.256-0.145-7.209,0.939-8.915,4.978c-0.271,0.64-1.231,1.353-1.917,1.398c-6.183,0.419-7.023,5.745-8.57,9.865
	c-1.902,5.062,3.221,11.312,8.649,11.346c2.729,0.019,5.52-0.407,7.853,1.683c2.166,1.939,1.92,3.933-0.819,4.855
	c-3.652,1.231-7.164,2.665-10.264,5.054c-2.46,1.896-5.27,3.029-8.469,2.402c-5.291-1.038-10.663,0.923-15.948-0.481
	c-0.595-0.157-1.48-0.058-1.953,0.295c-5.438,4.066-12.309,4.195-18.329,6.677c-2.747,1.134-4.984,2.903-7.405,4.437
	c-1.848,1.171-3.697,1.737-5.83,1.546c0.332-1.957-0.454-3.381-1.858-4.745c-2.169-2.105-4.46-4.115-6.1-6.732
	c-0.482-0.771-1.364-1.658-2.178-1.792c-4.198-0.689-8.029-1.823-11.73-4.28c-1.98-1.315-3.779,1.004-3.824,3.765
	c-0.089,5.29-1.932,6.47-7.017,4.685c-1.299-0.456-2.552-1.039-3.843-1.516c-3.927-1.449-7.353-0.996-10.717,1.865
	c-4.013,3.415-5.493,2.616-6.737-2.613c-1.507-6.345-5.455-11.326-11.571-12.827c-6.188-1.521-11.583-5.232-18.273-5.473
	C920.036,577.224,915.762,577.85,911.406,578.162z"/>
<path id="0595-shishishi" fill="#D3D3D3" stroke="#FFFFFF" stroke-miterlimit="10" d="M877.392,886.54c-2.343-1.573-1.502-3.404-0.068-4.834
	c2.781-2.771,1.421-4.49-1.139-6.188c-2.295-1.521-4.282-3.052-4.113-6.449c0.131-2.598-2.001-4.033-4.535-3.433
	c-2.857,0.679-5.925,0.776-8.332,3.082c-2.402,2.299-5.653,3.148-8.767,4.248c-3.124,1.104-5.395,4.65-9.567,2.4
	c-3.47-1.87-5.112-4.737-6.159-8.257c-0.556-1.869-2.226-2.688-3.741-3.65c-4.267-2.708-4.979-4.039-2.395-8.363
	c2.284-3.826,3.607-9.436,10.09-8.571c0.132,0.018,0.353,0.027,0.399-0.045c3.602-5.519,10.951-4.327,15.301-8.591
	c3.161-3.1,1.772-6.291,0.593-9.518c-0.593-1.627-2.091-3.232,0.096-4.699c2.034-1.365,2.776,0.319,3.873,1.621
	c1.101,1.307,2.147,0.102,3.198-0.548c3.381-2.086,6.815-4.084,10.229-6.117c3.498,1.523,7.011,1.642,10.372-0.253
	c2.98-1.682,6.261-2.843,8.844-5.242c1.405-1.306,3.007-1.6,4.93-0.598c1.925,1.003,4.042,1.71,6.146,2.281
	c6.948,1.888,10.908-1.022,11.301-8.209c0.118-2.165,0.206-4.358,3.21-4.186c0.746,0.043,1.682,0.485,2.137,1.058
	c0.66,0.831-0.159,1.49-0.803,2.023c-2.87,2.376-2.808,5.471-2.105,8.698c1.574,7.232,5.843,12.508,11.975,16.43
	c2.093,1.339,3.773,1.681,5.678-0.678c3.005-3.724,6.796-4.194,10.906-1.893c2.594,1.452,5.035,3.345,8.354,2.102
	c0.964-0.362,2.023-0.073,2,1.303c-0.051,2.998,0.279,6.104-0.396,8.965c-0.799,3.386-2.15,6.832-6.335,7.697
	c-2.34,0.485-3.511,2.051-3.657,4.371c-0.176,2.796-1.895,3.936-4.357,4.78c-3.692,1.268-7.862,1.334-10.748,4.767
	c-1.611,1.914-2.551,3.449-1.229,5.836c1.443,2.609,1.281,4.996-1.348,6.898c-1.646,1.191-1.204,2.925-0.997,4.565
	c0.223,1.767,0.146,3.502-2.029,3.867c-5.348,0.9-7.693,4.968-9.773,9.211c-1.387,2.828-3.382,4.885-5.966,6.635
	c-8.273,5.602-12.29,4.64-16.542-4.18C888.878,888.572,884.341,885.969,877.392,886.54z"/>
<path id="0595-fengzequ" fill="#D3D3D3" stroke="#FFFFFF" stroke-miterlimit="10" d="M831.005,673.374c0.853,9.433,5.365,15.491,14.431,19.478
	c4.776,2.101,8.971,4.826,14.442,5.048c7.244,0.294,10.345,7.38,15.923,10.551c2.043,1.16,2.402,4.067,3.013,6.473
	c0.804,3.162,2.403,5.393,6.136,3.169c0.941,0.563,1.89,1.113,2.821,1.69c1.371,0.853,1.651,2.22,1.4,3.626
	c-0.297,1.67-1.82,1.512-2.994,1.506c-4.256-0.021-7.951,0.927-10.819,4.504c-0.469,0.585-1.429,1.828-2.824,1.961
	c-2.326,0.222-3.333,1.964-3.358,4.042c-0.029,2.392,1.954,3.028,3.839,3.683c2.052,0.713,3.8,1.533,6.272,0.579
	c2.395-0.925,4.638,1.052,6.336,2.807c2.009,2.077,3.768,4.396,5.627,6.618c2.195,2.624,3.074,5.519,1.688,8.817
	c-0.558,1.326-0.625,2.665-0.392,4.056c0.839,4.976-2.014,8.66-7.014,8.417c-3.376-0.165-6.142,1.275-9.11,2.258
	c-3.441,1.139-5.374,0.652-6.739-3.407c-2.133-6.341-7.076-10.229-13.722-11.696c-0.383-0.085-0.904,0.198-1.202,0.029
	c-6.613-3.772-7.387-3.679-12.123,1.607c-7.702,0.852-11.772-1.951-15.012-10.333c-0.095-3.021,1.541-5.639,3.614-7.071
	c3.897-2.691,5.414-5.89,4.82-10.45c-0.154-1.183,0.657-2.379,0.862-3.602c0.516-3.071-1.038-4.966-3.871-3.892
	c-4.327,1.64-9.044,0.866-13.268,2.813c-2.517,1.16-4.232-0.215-5.203-2.572c-0.422-1.023-0.419-2.164-0.674-3.237
	c-1.409-5.958-5.015-8.806-11.15-9.096c-2.525-0.118-5.274,0.856-7.516-1.178c0.442-2.127,2.534-3.068,3.474-4.838
	c0.814-0.675,0.827-1.833,1.549-2.563c1.909-4.439,4.01-8.515,8.624-11.094c3.545-1.981,6.715-4.747,4.197-9.977
	c-1.225-2.545,0.546-5.546,3.146-5.683C821.375,676.146,826.152,674.716,831.005,673.374z"/>
<path id="0595-lichengqu" fill="#D3D3D3" stroke="#FFFFFF" stroke-miterlimit="10" d="M795.239,710.57c2.342,0.061,4.684,0.18,7.025,0.171
	c7.813-0.027,12.061,3.676,12.993,11.394c0.535,4.431,1.717,5.01,5.635,2.713c0.877-0.514,1.784-0.757,2.769-0.596
	c2.959,0.483,5.692-0.183,8.374-1.418c1.865-0.86,3.757-0.937,5.354,0.674c1.514,1.526,1.269,3.223,0.407,4.958
	c-0.061,0.122-0.143,0.273-0.119,0.392c1.773,9.245-6.695,13.338-10.053,19.998c-4.404-0.806-8.917-0.747-13.301-1.837
	c-1.902-0.474-3.579,0.765-4.532,2.321c-2.193,3.585-5.606,6.47-6.319,10.926c-0.303,1.885-1.781,1.931-3.194,1.645
	c-1.859-0.376-3.765-0.628-3.98-3.29c-0.579-7.129-2.218-8.223-8.985-6.156c-2.355,0.719-3.695-0.235-4.535-2.31
	c-2.046-5.055-6.156-7.245-11.247-7.658c-3.088-0.251-4.303-2.622-6.127-4.372c0.002-2.409,1.061-4.2,3.178-5.339
	c3.072-1.651,3.824-4.438,3.791-7.623c-0.049-4.715,0.938-6.057,5.566-6.019c3.419,0.029,4.257-1.297,4.062-4.434
	c-0.324-5.199,1.578-6.435,6.537-4.867C790.675,710.52,792.836,711.944,795.239,710.57z"/>
<text x="562" y="203" xml:space="preserve" font-family="Microsoft YaHei" font-size="18" fill="#000000" stroke="none" stroke-opacity="0" baseline-shift="baseline">
德化县</text>
<text x="542" y="420" xml:space="preserve" font-family="Microsoft YaHei" font-size="18" fill="#000000" stroke="none" stroke-opacity="0" baseline-shift="baseline">
永春县</text>
<text x="359" y="573" xml:space="preserve" font-family="Microsoft YaHei" font-size="18" fill="#000000" stroke="none" stroke-opacity="0" baseline-shift="baseline">
安溪县</text>
<text x="682" y="641" xml:space="preserve" font-family="Microsoft YaHei" font-size="18" fill="#000000" stroke="none" stroke-opacity="0" baseline-shift="baseline">
南安市</text>
<text x="786" y="737" xml:space="preserve" font-family="Microsoft YaHei" font-size="18" fill="#000000" stroke="none" stroke-opacity="0" baseline-shift="baseline">
鲤城区</text>
<text x="824" y="701" xml:space="preserve" font-family="Microsoft YaHei" font-size="18" fill="#000000" stroke="none" stroke-opacity="0" baseline-shift="baseline">
丰泽区</text>
<text x="828" y="581" xml:space="preserve" font-family="Microsoft YaHei" font-size="18" fill="#000000" stroke="none" stroke-opacity="0" baseline-shift="baseline">
洛江区</text>
<text x="948" y="556" xml:space="preserve" font-family="Microsoft YaHei" font-size="18" fill="#000000" stroke="none" stroke-opacity="0" baseline-shift="baseline">
泉港区</text>
<text x="923" y="675" xml:space="preserve" font-family="Microsoft YaHei" font-size="18" fill="#000000" stroke="none" stroke-opacity="0" baseline-shift="baseline">
惠安县</text>
<text x="871" y="852" xml:space="preserve" font-family="Microsoft YaHei" font-size="18" fill="#000000" stroke="none" stroke-opacity="0" baseline-shift="baseline">
石狮市</text>
<text x="750" y="846" xml:space="preserve" font-family="Microsoft YaHei" font-size="18" fill="#000000" stroke="none" stroke-opacity="0" baseline-shift="baseline">
晋江市</text>
</svg>
