<?xml version="1.0" encoding="UTF-8" standalone="no"?>
<svg xmlns:dc="http://purl.org/dc/elements/1.1/" xmlns:cc="http://creativecommons.org/ns#" xmlns:rdf="http://www.w3.org/1999/02/22-rdf-syntax-ns#" xmlns:svg="http://www.w3.org/2000/svg" xmlns="http://www.w3.org/2000/svg" xmlns:sodipodi="http://sodipodi.sourceforge.net/DTD/sodipodi-0.dtd" xmlns:inkscape="http://www.inkscape.org/namespaces/inkscape" width="1280" height="1024" id="svg2" sodipodi:version="0.32" inkscape:version="0.48.4 r9939" sodipodi:docname="xian_chengdushi+.svg" inkscape:output_extension="org.inkscape.output.svg.inkscape" version="1.1">
	<metadata id="metadata62">
		<rdf:RDF>
			<cc:Work>
				<dc:format>image/svg+xml</dc:format>
				<dc:type rdf:resource="http://purl.org/dc/dcmitype/StillImage" />
			</cc:Work>
		</rdf:RDF>
	</metadata>
	<defs id="defs60">
		<inkscape:perspective sodipodi:type="inkscape:persp3d" inkscape:vp_x="0 : 296.5 : 1" inkscape:vp_y="0 : 1000 : 0" inkscape:vp_z="959 : 296.5 : 1" inkscape:persp3d-origin="479.5 : 197.66667 : 1" id="perspective64" />
	</defs>
	<sodipodi:namedview inkscape:window-height="925" inkscape:window-width="1117" inkscape:pageshadow="2" inkscape:pageopacity="0.0" guidetolerance="10.0" gridtolerance="10.0" objecttolerance="10.0" borderopacity="1.0" bordercolor="#666666" pagecolor="#ffffff" id="base" showgrid="true" inkscape:zoom="0.70710678" inkscape:cx="625.07647" inkscape:cy="525.70393" inkscape:window-x="873" inkscape:window-y="28" inkscape:current-layer="svg2" showguides="true" inkscape:guide-bbox="true" inkscape:window-maximized="0" />
	<path id="0596-changtaixian" fill-rule="evenodd" clip-rule="evenodd" fill="#D3D3D3" stroke="#FFFFFF" d="M744.073,381.305&#xD;&#xA;	c1.953-0.448,4.428,1.195,4.428,1.195c2,9,13,12,21,14c2,0,3,3,2,6c9,1,19-1,26,2c4,1,9,2,14,0c3,0,5-7,9-5c1,1,2,2,3,3c3,1,6-1,6-2&#xD;&#xA;	c-0.842-12.621,10.352-10.376,18.688-12.324c-0.567-0.465-1.152-0.927-1.77-1.38c-3.188-2.344,0.249-14.866,3.672-14.418&#xD;&#xA;	c9.303,1.22,14.265-2.625,16.688-11.303c0.473-1.694,2.936-2.834,4.483-4.228c6.519-5.861,14.494-10.541,14.729-21&#xD;&#xA;	c0.188-8.376-3.788-15.328-7.591-22.005c-6.753-11.853-6.998-23.032-0.132-34.746c2.212-3.771,4.852-7.557,4.831-12.324&#xD;&#xA;	c-0.044-10.747-0.091-21.493,0.025-32.24c0.045-4.133-1.412-5.936-5.688-4.899c-2.443,0.593-5.478,2.278-6.958-1.1&#xD;&#xA;	c-2.254-5.14-5.903-8.589-10.898-10.825c-3.667-1.642-1.264-4.747-1.333-7.276c-2.844,0.907-2.069,5.852-5.851,4.643&#xD;&#xA;	c-2.696-0.864-5.044-2.139-5.934-5.608c-1.886-7.355-4.277-7.25-10.709-3.395c-5.555,3.329-11.773,7.741-19.034,4.637&#xD;&#xA;	c-2.664-1.138-4.757-3.342-7.885-1.365c-3.248,2.053-3.282,4.484-2.332,8.096c1.245,4.732-4.475,5.71-6.461,8.911&#xD;&#xA;	c-1.189,1.918-3.472,0.563-4.343-1.296c-2.772-5.925-6.035-4.067-9.879-1.102c-1.357,1.047-4.414,5.079-5.181,0.892&#xD;&#xA;	c-1.536-8.39-8.753-9.059-13.996-12.441c-4.976-3.209-19.415-1.308-20.845,3.131c-2.844,8.827-12.442,7.316-17.591,12.424&#xD;&#xA;	c-0.442,0.44-2.373,0.179-2.918-0.405c-5.137-5.513-12.497-4.747-18.835-6.592c-4.268-1.242-7.618-3.357-9.923-5.991&#xD;&#xA;	c-0.464,0.831-0.819,1.68-1.032,2.531c-3,6,2,13,1,20c0,7-12,6-10,13c1,6,11,7,10,14c0,3-8,5-7,7c3,11,13,18,18,29&#xD;&#xA;	c0.825,0.825,1.66,0.967,3.047,0.993c10.958-1.968,12.963,6.016,19.953,12.007c1,1,0,5-1,5c-4,1-6,2-9,4s-5,8,0,10s6-6,10-4&#xD;&#xA;	c7,3,2,10,2,17c4-1,7-7,9-6c5,2-3,10,0,16c2,3,5,7,2,10c-0.818,0.584-1.565,0.943-2.26,1.128c0.105,4.935,1.482,10.205,2.26,14.872&#xD;&#xA;	C743.683,381.409,743.876,381.35,744.073,381.305" />
	<path id="0596-longwenqu" fill-rule="evenodd" clip-rule="evenodd" fill="#D3D3D3" stroke="#FFFFFF" d="M723.5,452.5c6,6,13-4,21-2c7,2,15,9,19,6&#xD;&#xA;	c10-8,27-17,20-32c3,0,4-5,6-5c5-2,10-2,12-7c0.959-3.356-0.383-5.563-2.368-7.612c-0.56-0.125-1.104-0.256-1.632-0.388&#xD;&#xA;	c-7-3-17-1-26-2c1-3,0-6-2-6c-8-2-19-5-21-14c0,0-2.475-1.644-4.428-1.195c-1.779,6.145-0.473,12.669,2.428,19.195c-9,1-13-4-19,4&#xD;&#xA;	c-2,3-8-7-12-2c9,4,10,7,4,15c2-1,4,1,6,1c-3,8-12,14-6,23c0,0,4-2,6,0c1,2,1,6-2,6c-0.613-0.038-1.233-0.094-1.852-0.145&#xD;&#xA;	C722.168,449.626,722.099,451.799,723.5,452.5z" />
	<path id="0596-yunxiaoxian" fill-rule="evenodd" clip-rule="evenodd" fill="#D3D3D3" stroke="#FFFFFF" d="M613.929,871.836&#xD;&#xA;	c3.222-1.35,2.605-5.668,1.303-8.606c-1.865-4.21-0.018-7.028,3.347-8.347c5.249-2.056,5.859-5.641,8.07-10.482&#xD;&#xA;	c4.768-10.437,5.815-17.292-0.33-28.05c-5.18-9.069-7.241-14.801-18.09-14.71c-8.626,0.072-18.548-0.488-22.745-7.982&#xD;&#xA;	c-3.214-5.737-6.346-7.11-11.725-7.79c9.672-1.807,19.473-9.391,28.645-0.342c3.798-1.276,8.394,0.378,10.096-3.026c3-3,5-6,7-9&#xD;&#xA;	c4-6,1-14,8-17c-2,0-2-2-4-2c2-13-11-1-15-9c-2-6,0-16,1-23c0.785-11.768-7.045-22.92-9.974-35.389&#xD;&#xA;	c-4.784,3.118-10.218,8.132-13.026,4.389c-5-8-10-16-21-12c1-2-1-4-2-5c-7-3-11,9-18,5c-6-4-8-12-5-20c-2,1-2-2-4-2c0-4,4-4,6-6&#xD;&#xA;	c11-15-9-24-17-35c-7,7-13-10-17-6c-8,9-9,17-23,16c-2,0-6,4-6,6c0,10,8,19,13,27c5,7,6,17,5,26c-1,5-4,12-11,10c-1,6,3,16-4,16&#xD;&#xA;	c-3,0-10-3-12-4c-8-7-18-11-28-12c1,2-1,3-1,5c-1-2-4-3-6-2c-4,4-1,11-5,15c-1,1-3,0-5,0c2,10,8,17,4,27c4,1,3,8,8,8c0,4-3,6-4,9&#xD;&#xA;	s1,6,3,9c3,7-9,12-3,18s15,9,19,18c1,0,3,0,4,0c0,15,13,26,25,34c3,2,8,0,11,1c2,2,5,2,7,3c3,1,7,1,10-1c0-1,0-2,0-3c5,2,6-4,9-5&#xD;&#xA;	c11-4,19,6,30,2c1,3,7,4,6,8c-2,3-6,2-9,2c1,5,9,7,5,11c-3,5-5,10-3,15c1.576,4.729,6.255,7.596,10.616,11.045&#xD;&#xA;	c0.284-0.254,0.58-0.474,0.907-0.604c4.93-1.967,4.601-5.52,3.917-9.913c3.144,3.166,6.104,5.898,10.315,7.965&#xD;&#xA;	c-0.308,0.262-0.593,0.516-0.871,0.766c8.875,1.562,15.924,8.037,24.582,10.833C603.517,884.569,605.746,875.267,613.929,871.836z" />
	<path id="0596-dongshanxian" fill-rule="evenodd" clip-rule="evenodd" fill="#D3D3D3" stroke="#FFFFFF" d="M642.72,902.48&#xD;&#xA;	c-4.781-3.954-12.182-3.641-16.115-9.332c-0.266-0.385-2.146-0.173-2.147-0.148c-0.436,5.44-6.545,3.601-8.534,6.578&#xD;&#xA;	c-3.341,5.005-9.167,1.988-13.412,4.939c-6.418,4.461-6.409-2.964-9.487-5.688c-4.207-3.727-1.85-6.269,0.286-7.125&#xD;&#xA;	c1.374-0.551,2.567-1.279,3.655-2.113c-8.658-2.796-15.707-9.271-24.582-10.833c-1.407,1.265-2.492,2.365-3.774,3.122&#xD;&#xA;	c-4.506,2.663-5.697,6.174-2.603,10.467c3.72,5.165,1.028,10.049-1.393,13.941c-5.748,9.245-10.784,19.07-18.834,26.765&#xD;&#xA;	c-1.87,1.787-3.438,4.631-1.068,7.006c2.2,2.206,5.114,4.041,8.494,2.225c1.823-0.981,3.378-2.461,5.046-3.726&#xD;&#xA;	c1.909-1.447,4.288-3.517,6.361-1.883c7.931,6.247,17.111,2.005,28.397,4.029c-10.809,8.588-14.861,20.871-25.878,27.337&#xD;&#xA;	c-2.216,1.302-5.476,0.683-7.034,3.18c-6.796,10.896-16.638,18.882-25.826,27.516c-1.607,1.511-4.141,3.693-2.758,5.9&#xD;&#xA;	c1.87,2.985,4.609-0.013,6.995-0.148c7.179-0.408,15.009-9.484,21.562,1.354c0.756,1.251,2.477,0.371,3.505-0.452&#xD;&#xA;	c7.163-5.747,17.862-0.297,24.571-7.829c1.167-1.311,2.864,0.528,4.055,1.49c1.997,1.61,3.881,1.283,5.727-0.19&#xD;&#xA;	c1.146-0.914,1.613-2.097,0.843-3.447c-1.117-1.955-2.617-3.429-5.112-2.658c-5.179,1.599-6.786-2.08-7.547-5.688&#xD;&#xA;	c-2.18-10.337-1.504-20.508,4.034-29.792c2.51-4.207,5.469-6.801,11.639-5.025c5.382,1.547,9.74,6.645,16.516,4.643&#xD;&#xA;	c2.114-0.624,5.508,0.882,6.797-1.787c1.663-3.446-1.478-5.477-3.944-6.612c-3.859-1.774-4.029-4.728-4.556-8.297&#xD;&#xA;	c-1.462-9.9,6.537-16.069,9.173-24.345c1.142-3.586,4.835-2.863,7.784-0.197c2.215,2.001,5.822,6.817,7.839,1.701&#xD;&#xA;	C643.072,913.104,648.908,907.601,642.72,902.48z" />
	<path id="0596-zhaoanxian" fill-rule="evenodd" clip-rule="evenodd" fill="#D3D3D3" stroke="#FFFFFF" d="M412.5,701.5c-1-1-7,1-9-2c-5-12-21-17-28-22&#xD;&#xA;	c-12.687-9.968-18.804-26.506-31.746-36.962c-0.671,0.711-1.464,1.445-2.411,2.217c-4.685,3.814-9.172,7.893-14.039,11.455&#xD;&#xA;	c-16.888,12.367-20.327,29.576-17.29,48.777c0.823,5.205,2.661,10.837,9.582,12.162c2.505,0.48,3.428,2.669,2.362,5.59&#xD;&#xA;	c-3.233,8.852,0.802,16.688,9.052,20.598c2.67,1.265,9.931,1.292,6.163,7.962c-3.49,6.175-4.154,11.667-0.451,18.338&#xD;&#xA;	c5.333,9.608,1.045,19.889-9.042,24.085c-1.849,0.768-4.017,1.689-2.58,3.766c2.964,4.278,2.276,10.142,7.218,13.712&#xD;&#xA;	c5.874,4.244,4.875,10.832-1.422,14.633c-4.079,2.462-3.949,5.393-0.407,8.107c3.174,2.433,6.933,3.021,10.336,0.685&#xD;&#xA;	c5.967-4.098,11.248-1.68,14.562,2.818c5.581,7.577,13.683,15.055,7.267,26.236c-0.449,0.783-0.526,2.628-0.056,2.96&#xD;&#xA;	c4.909,3.469,4.353,9.141,5.516,13.93c3.087,12.715,10.569,24.18,9.246,38.26c-0.64,6.807-0.912,14.979,6.499,19.83&#xD;&#xA;	c10.411,6.813,20.917,13.486,31.19,20.501c3.108,2.123,6.139,2.204,9.647,2.243c11.161,0.123,19.137,8.437,29.023,11.964&#xD;&#xA;	c0.84,0.3,1.031,2.287,1.623,3.441c1.33,2.592,2.945,4.069,6.282,2.778c2.655-1.027,5.63-1.225,8.464-1.79&#xD;&#xA;	c6.743-1.344,8.785-4.889,6.91-13.003c-1.203-5.209-5.831-3.061-9.157-3.73c-1.645-0.332-3.073,2.854-5.06-0.252&#xD;&#xA;	c3.127-3.126,7.656-5.724,7.152-11.146c-0.516-5.559,2.381-5.54,6.323-4.133c5.054,1.803,9.076,1.815,8.39-6.013&#xD;&#xA;	c5.521,3.785,7.16,7.184,4.406,12.235c-1.344,2.467-2.101,5.511-2.224,8.333c-0.368,8.385-7.317,14.894-6.052,23.928&#xD;&#xA;	c0.63,4.501,1.879,5.221,5.799,4.632c3.686-0.555,6.544-1.535,7.451-5.697c0.879-4.039,3.555-5.789,7.757-6.57&#xD;&#xA;	c9.239-1.72,10.091-4.578,4.102-11.514c-4.115-4.763-6.278-16.998-2.786-18.072c9.848-3.027,4.498-8.406,3.088-13.356&#xD;&#xA;	c-1.371-4.813-2.836-9.6-4.082-14.443c-0.907-3.529-0.161-6.729,2.401-9.511c6.072-6.597,16.127-5.741,22.41-11.999&#xD;&#xA;	c0.377-0.376,1.937,0.428,2.943,0.696c11.034,2.936,19.635-0.726,25.151-10.597c0.935-1.673,1.825-3.889,3.107-5.039&#xD;&#xA;	c-4.36-3.449-9.04-6.316-10.616-11.045c-2-5,0-10,3-15c4-4-4-6-5-11c3,0,7,1,9-2c1-4-5-5-6-8c-11,4-19-6-30-2c-3,1-4,7-9,5&#xD;&#xA;	c0,1,0,2,0,3c-3,2-7,2-10,1c-2-1-5-1-7-3c-3-1-8,1-11-1c-12-8-25-19-25-34c-1,0-3,0-4,0c-4-9-13-12-19-18s6-11,3-18c-2-3-4-6-3-9&#xD;&#xA;	s4-5,4-9c-5,0-4-7-8-8c2.563-6.406,1.02-11.582-0.945-17.104C421.413,717.953,416.615,709.73,412.5,701.5z" />
	<path id="0596-pinghexian" fill-rule="evenodd" clip-rule="evenodd" fill="#D3D3D3" stroke="#FFFFFF" d="M619.5,440.5c-3,3-7,4-9,6c-6,7-13,11-21,10&#xD;&#xA;	c2,10-4,18-11,24c-4,4-12,3-18-1c-2-2-4,3-7,3c-8-1-15-9-17-17c0-3-5-5-9-4c0,1-2,2-1,3c-5,1-11-2-12-5c-2-7-6-9-11-13c-2-1-5,0-6,3&#xD;&#xA;	c-7-4-14-8-22-5c-2,1-3,5-3,8c-4-1-6,1-9,3c-1,2,1,6,0,6c-7,5-15-3-23,3c-14,10-9-9-14-18c-2-4-5-8-11-9c-2,0-5-4-6-8c-4,2-9,1-9-2&#xD;&#xA;	c-1-4,0-9-3-12c-9-8-20-7-29-14c-1.411-1.411-3.824-2.306-6.524-2.371c-0.121,2.36-0.794,4.688-1.586,6.818&#xD;&#xA;	c-1.791,4.815-7.825,10.561-11.259,8.732c-8.047-4.283-16.102,0.148-23.978-2.652c-5.322-1.891-12.056,6.255-11.75,12.56&#xD;&#xA;	c0.083,1.717,1.446,3.786-1.034,4.775c-1.909,0.763-2.741-0.849-3.603-2.191c-1.189-1.849-2.848-2.215-4.775-1.265&#xD;&#xA;	c-2.095,1.032-3.983,3.352-2.849,4.99c4.119,5.947,2.121,13.346,6.246,19.813c4.188,6.565,8.331,13.967,10.531,21.714&#xD;&#xA;	c1.515,5.332,5.458,13.289,1.599,16.273c-7.077,5.472-7.892,12.396-9.458,19.592c-1.093,5.024-4.086,5.753-8.158,4.066&#xD;&#xA;	c-2.323-0.962-4.064-2.076-5.955,0.872c-4.196,6.538-3.822,16.681-0.166,23.679c2.775,5.31,8.022,10.453,6.003,17.026&#xD;&#xA;	c-1.664,5.414-0.9,10.343-0.039,15.501c0.603,3.611,1.846,5.851,6.326,4.294c2.638-0.916,6.79-1.283,6.795,2.805&#xD;&#xA;	c0.013,9.788-0.164,19.682-1.645,29.321c-0.883,5.744-0.019,9.499,5.958,9.574c3.145,0.04,6.445,0.214,7.83,2.536&#xD;&#xA;	c3.454,5.8,9.677,7.467,14.5,11.169c5.405,4.146,6.055,7.366,2.245,11.404c12.942,10.456,19.06,26.994,31.746,36.962&#xD;&#xA;	c7,5,23,10,28,22c2,3,8,1,9,2c4.115,8.23,8.913,16.453,16.055,21.896c-1.102-3.098-2.336-6.303-3.055-9.896c2,0,4,1,5,0&#xD;&#xA;	c4-4,1-11,5-15c2-1,5,0,6,2c0-2,2-3,1-5c10,1,20,5,28,12c2,1,9,4,12,4c7,0,3-10,4-16c7,2,10-5,11-10c1-9,0-19-5-26c-5-8-13-17-13-27&#xD;&#xA;	c0-2,4-6,6-6c14,1,15-7,23-16c4-4,10,13,17,6c8,11,28,20,17,35c-2,2-6,2-6,6c2,0,2,3,4,2c-3,8-1,16,5,20c7,4,11-8,18-5c1,1,3,3,2,5&#xD;&#xA;	c11-4,16,4,21,12c2.808,3.743,8.242-1.271,13.026-4.389c-0.805-3.425-1.241-6.948-1.026-10.611c0-1-3-2-3-3c0-24,2-54-17-71&#xD;&#xA;	c8-4,14,3,22,2c-1-8-8-14-8-23c8,0,19,6,23-1c2-4,3-9,6-11c2,0,4-1,6,1c1-2,1-3,1-5c12.234,0.941,5.872-9.632,5.913-18.382&#xD;&#xA;	c-0.372-0.406-0.684-0.93-0.913-1.618c-1-2-4-7,1-9c-13-9-15-23-6-34c2-3,9-3,14-4c-4-5-12-8-12-12c-2-11-4-20-3-31&#xD;&#xA;	c0-3.972,1.896-9.831,6.183-10.571C630.099,439.065,625.04,434.268,619.5,440.5z" />
	<path id="0596-nanjingxian" fill-rule="evenodd" clip-rule="evenodd" fill="#D3D3D3" stroke="#FFFFFF" d="M680.5,428.5c-6-9-3-22-12-30c-7-6-16,6-24,9&#xD;&#xA;	c-7,2-4-13-1-18c2-3,4,4,7,4c4-2,4-6,3-10c-1-1-2-2-3-3c-3,0-7,3-10,0c0-1-1-2-1-3c-2-1-3,0-5,1c-1-6-5-9-11-7&#xD;&#xA;	c0-10.371,2.994-21.481,12.842-23.663c-4.059-2.535-6.621-6.72-5.842-13.337c11-7,4-22-2-29c-9,10-24,6-30-4c-2-4,2-10-2-15&#xD;&#xA;	c-4-3-9-1-14-1c1-4-2-5-4-6c-4-2-8,6-9,4c0-16-1-34-17-42c1,4,0,5-4,6c2-7,0-13-3-19c-2-3-3,0-5,1c-14,3-21-12-17-24c1-3,6-1,9-3&#xD;&#xA;	c4-2,1-9-2-12c-7-5-15-6-23-8c7-5,13-13,20-16c6.03-3.445,12.056-7.638,17.446-12.567c-6.991-1.767-13.623,0.417-20.327,2.788&#xD;&#xA;	c-2.46,0.868-12.714-5.032-12.438-7.012c0.336-2.425,1.211-4.901-1.742-6.083c-2.709-1.084-4.126,1.486-6.115,2.62&#xD;&#xA;	c-7.294,4.156-11.955,12.909-21.921,12.487c-2.069-0.088-3.361,1.548-3.22,3.718c0.198,3.034,2.513,2.751,4.658,2.8&#xD;&#xA;	c2.091,0.048,4.469-0.065,5.504,2.247c1.244,2.779-0.934,4.881-2.646,6.002c-4.145,2.717-5.14,7.047-7.028,11.035&#xD;&#xA;	c-3.861,8.154-5.585,8.256-12.224,2.496c-4.418-3.833-11.02-5.225-15.225-2.365c-3.884,2.643-0.786,8.494,2.049,11.792&#xD;&#xA;	c6.622,7.706,6.711,9.029-0.953,15.393c-2.467,2.048-5.028,3.67-8.082,4.757c-4.9,1.747-5.426,4.976-2.798,9.318&#xD;&#xA;	c4.57,7.55,4.213,14.114-2.431,19.64c-6.028,5.014-6.74,12.277-9.128,18.536c-3.039,7.965-9.158,12.203-15.965,7.179&#xD;&#xA;	c-5.338-3.94-9.448-5.269-15.492-1.549c-4.134,2.544-10.161-1.603-8.33-5.041c2.793-5.246,0.263-10.305,0.919-15.415&#xD;&#xA;	c0.525-4.09-2.36-7.959-6.491-8.887c-4.294-0.964-5.186,3.481-6.74,6.336c-1.679,3.083-2.403,6.353-1.538,9.908&#xD;&#xA;	c0.502,2.063,0.828,5.551-0.672,5.922c-7.589,1.879-7.992,10.554-13.841,13.802c-4.066,2.256-5.494,5.616-3.531,9.687&#xD;&#xA;	c2.555,5.295,1.313,10.042,0.112,15.452c-1.314,5.92-0.975,11.996,3.677,17.782c2.629,3.273,8.653,6.163,7.058,11.295&#xD;&#xA;	c-2.001,6.434,0.356,10.912,3.379,16.009c3.38,5.698-0.315,12.354-6.722,13.162c-7.296,0.919-8.957,3.792-5.582,10.568&#xD;&#xA;	c2.138,4.292,3.569,8.11-0.634,12.02c-2.93,2.726-3.045,5.941-0.671,9.202c1.768,2.426,2.292,5.029,2.16,7.595&#xD;&#xA;	c2.7,0.064,5.113,0.959,6.524,2.371c9,7,20,6,29,14c3,3,2,8,3,12c0,3,5,4,9,2c1,4,4,8,6,8c6,1,9,5,11,9c5,9,0,28,14,18&#xD;&#xA;	c8-6,16,2,23-3c1,0-1-4,0-6c3-2,5-4,9-3c0-3,1-7,3-8c8-3,15,1,22,5c1-3,4-4,6-3c5,4,9,6,11,13c1,3,7,6,12,5c-1-1,1-2,1-3&#xD;&#xA;	c4-1,9,1,9,4c2,8,9,16,17,17c3,0,5-5,7-3c6,4,14,5,18,1c7-6,13-14,11-24c8,1,15-3,21-10c2-2,6-3,9-6&#xD;&#xA;	c5.54-6.232,10.599-1.435,14.183,4.429c1.11-0.191,2.377-0.045,3.817,0.571c9,5,15,15,23,18c11,4,13-13,20-20&#xD;&#xA;	c2.26-3.013,3.954-6.025,6.361-8.183C684.448,433.334,682.289,431.084,680.5,428.5z" />
	<path id="0596-zhangpuxian" fill-rule="evenodd" clip-rule="evenodd" fill="#D3D3D3" stroke="#FFFFFF" d="M927.5,576.5c-7-3-15,0-23,0c-1,0-2-3-2-5&#xD;&#xA;	c-13,4-20-10-29-12c-10-3-6,13-9,23s-18,0-27-2c-4-1-10,2-14,0c-6-2-3-10-5-16c-1-3-4-5-8-6c0,0,0-3,1-3c3,0,7,5,9,2c4-5-5-7-7-7&#xD;&#xA;	c-13,3-22,3-31-8c-2-1-5-3-7-2c-5,6-15,13-20,6c-2-2,0-7-1-10c-2-4-6-6-9-3c-5,6,1,11,5,16c3,3-4,12-8,8c-6-4-7-23-12-18&#xD;&#xA;	c-15,12-20,33-27,52c0,2-4,1-6,1c4,5-2,8-6,8c-6,1-13-4-15-8c-4-10,13-21,5-27c-4-4-12-1-18-9c-1,2-1,4-1,5c-4,3-10,1-12-2&#xD;&#xA;	s-1-8-3-10c-3.541-3.541-10.214,0.749-13.087-2.382c-0.042,8.75,6.321,19.323-5.913,18.382c0,2,0,3-1,5c-2-2-4-1-6-1c-3,2-4,7-6,11&#xD;&#xA;	c-4,7-15,1-23,1c0,9,7,15,8,23c-8,1-14-6-22-2c19,17,17,47,17,71c0,1,3,2,3,3c-1,17,12,31,11,46c-1,7-3,17-1,23c4,8,17-4,15,9&#xD;&#xA;	c2,0,2,2,4,2c-7,3-4,11-8,17c-2,3-4,6-7,9c-1.702,3.404-6.298,1.75-10.096,3.026c0.323,0.318,0.646,0.654,0.967,1.015&#xD;&#xA;	c5.373,6.031,11.59,8.192,19.517,8.312c4.854,0.072,9.438-2.062,14.681-0.08c10.191,3.854,19.456,11.694,31.594,8.668&#xD;&#xA;	c0.592-0.147,1.569,0.391,2.078,0.898c5.983,5.976,12.957,10.407,16.714,19.163c4.581,10.677,4.061,22.016,7.572,32.649&#xD;&#xA;	c1.733,5.248,0.677,11.377-2.969,14.974c-8.014,7.91-10.025,16.499-6.652,26.883c0.361,1.112-0.592,2.964,1.242,3.118&#xD;&#xA;	c1.072,0.091,2.692-0.69,3.299-1.594c5.487-8.183,10.842-16.457,16.141-24.764c1.062-1.663,0.743-3.521-0.183-5.275&#xD;&#xA;	c-7.218-13.673-5.93-28.18-3.4-42.509c3.945-22.358,16.93-38.449,37.366-47.702c7.219-3.27,7.475-6.034,3.498-11.467&#xD;&#xA;	c-1.242-1.697-2.299-3.529-3.525-5.237c-6.882-9.587-4.276-20.858,6.138-26.021c2.749-1.362,2.522-3.656,2.493-6.036&#xD;&#xA;	c-0.037-2.947-2.071-5.102-4.222-8.256c2.964,1.095,4.637,1.779,6.353,2.334c8.731,2.817,17.369,5.62,26.373,0.448&#xD;&#xA;	c3.11-1.786,16.386,2.896,17.047,6.094c1.061,5.135,4.075,5.817,9.352,4.312c-10.769,13.326-21.905,24.582-27.477,39.687&#xD;&#xA;	c-0.598,1.616-1.992,3.7-3.438,4.12c-9.957,2.89-12.698,8.761-8.629,18.268c0.605,1.414-0.894,3.718,1.374,4.762&#xD;&#xA;	c2.246,1.033,4.098,0.019,5.705-1.521c3.324-3.182,7.067-4.783,11.679-2.366c-3.796-10.226-0.729-18.858,3.017-27.272&#xD;&#xA;	c1.18-2.652,3.708-3.407,6.669-1.755c3.96,2.21,5.784,1.736,4.737-3.569c-1.043-5.27-1.039-12.081,2.701-15.076&#xD;&#xA;	c9.236-7.395,16.229-17.557,26.867-22.932c3.96-2,8.354-2.624,10.004-8.275c1.435,2.44,2,4.352,3.274,5.38&#xD;&#xA;	c3.113,2.507,7.067,4.26,10.798,2.578c4.184-1.888,3.745-5.48,2.781-9.926c-1.828-8.442-2.714-17.427-0.406-25.819&#xD;&#xA;	c2.137-7.769,2.17-17.872,13.674-19.455c0.547-0.074,1.166-1.095,1.396-1.791c2.042-6.164,6.154-10.933,10.182-15.838&#xD;&#xA;	c3.272-3.984,3.941-7.738-1.818-10.724c-4.161-2.157-7.848-5.227-11.762-7.864c-1.305-0.879-3.035-1.572-2.99-3.367&#xD;&#xA;	c0.053-2.061,1.957-2.101,3.48-2.384c4.957-0.917,7.566-4.053,9.104-8.743c1.302-3.971,3.331-7.705,5.088-11.523&#xD;&#xA;	c0.776-1.691,1.713-3.755,3.734-3.651c2.305,0.119,3.078,2.475,4.255,4.243c2.467,3.7-2.024,7.484,0.143,11.432&#xD;&#xA;	c3.54-0.665,6.175-6.091,10.305-0.849c3.619,4.595,1.494,7.851-1.021,11.273c-4.217,5.736-3.687,12.603-5.261,19.143&#xD;&#xA;	c3.486-2.195,8.83-2.288,7.957-8.171c-0.784-5.29,1.486-8.706,5.571-12.064c3.046-2.503,5.745-6.44,6.642-10.204&#xD;&#xA;	c0.651-2.732-5.488-0.988-6.4-4.796c2.874-1.448,4.473-3.662,4.452-7.301c-0.014-2.459,2.722-3.295,4.729-3.394&#xD;&#xA;	c3.134-0.154,1.547,2.388,1.856,3.98c0.724,3.744,1.439,7.585,4.927,11.237c0.423-2.429,1.777-3.854,3.38-4.958&#xD;&#xA;	c-7.452-8.789-0.526-23.021,0.344-33.466C924.5,579.5,928.5,576.5,927.5,576.5z" />
	<path id="0596-longhaishi" fill-rule="evenodd" clip-rule="evenodd" fill="#D3D3D3" stroke="#FFFFFF" d="M983.096,577.04&#xD;&#xA;	c-0.609-1.152-1.673-2.061-2.288-3.21c-3.976-7.427,0.228-17.933-8.831-23.461c2.215-6.786-3.823-10.427-6.061-15.479&#xD;&#xA;	c-1.706-3.849-4.618-5.259-8.985-2.688c-3.546,2.088-17.346-1.129-17.351-4.012c-0.011-6.666-4.82-13.391,1.288-20.274&#xD;&#xA;	c5.432-6.124,3.313-10.489-4.942-11.692c-11.039-1.609-21.723-1.07-32.471,3.494c-11.743,4.986-24.255,8.854-37.348,6.82&#xD;&#xA;	c-6.66-1.035-11.666-0.956-12.404,7.857c-2.526-4.792,1.474-11.66-3.203-13.123c-11.76-3.681-19.517-14.747-32.125-16.378&#xD;&#xA;	c-3.859-0.5-5.264-3.292-5.931-6.637c3.627,2.996,7.34,5.188,12.202,4.847c1.474-0.104,3.349-0.402,4.159,1.382&#xD;&#xA;	c3.527,7.763,12.582,7.546,18.102,12.524c1.562,1.407,4.642,1.053,6.647-0.655c1.125-0.956,1.242-2.813,0.138-3.501&#xD;&#xA;	c-7.752-4.842-10.674-12.651-13.512-20.684c-0.465-1.312-2.861-1.94-5.475-3.582c7.083-0.242,9.171,3.464,9.93,8.061&#xD;&#xA;	c0.471,2.862,1.058,5.225,4.187,5.863c3.381,0.689,5.366-1.436,7.116-3.891c8.31-11.653,0.447-22.244-10.155-23.915&#xD;&#xA;	c-4.325-0.683-8.625-1.52-14.415-2.552c9.346-1.793,16.991-0.917,24.485,1.665c6.719,2.315,13.337,4.93,20.111,7.06&#xD;&#xA;	c2.27,0.715,5.79,2.515,7.044-0.78c1.938-5.085,5.653-11.513,2.638-15.85c-6.079-8.745-13.037-17.881-21.813-23.37&#xD;&#xA;	c-5.094-3.187-8.517-6.055-7.574-10.604c2.028-9.784-1.134-16.413-8.071-22.1c-8.337,1.948-19.53-0.296-18.688,12.324c0,1-3,3-6,2&#xD;&#xA;	c-1-1-2-2-3-3c-4-2-6,5-9,5c-4.342,1.736-8.682,1.211-12.368,0.388c1.985,2.05,3.327,4.256,2.368,7.612c-2,5-7,5-12,7c-2,0-3,5-6,5&#xD;&#xA;	c7,15-10,24-20,32c-4,3-12-4-19-6c-8-2-15,8-21,2c-1.401-0.701-1.332-2.874-1.852-5.145c-12.313-1.001-25.523-4.429-34.787-12.039&#xD;&#xA;	c-2.407,2.158-4.102,5.17-6.361,8.183c-7,7-9,24-20,20c-8-3-14-13-23-18c-7-3-10,5-10,10c-1,11,1,20,3,31c0,4,8,7,12,12&#xD;&#xA;	c-5,1-12,1-14,4c-9,11-7,25,6,34c-5,2-2,7-1,9c2,6,10,0,14,4c2,2,1,7,3,10s8,5,12,2c0-1,0-3,1-5c6,8,14,5,18,9c8,6-9,17-5,27&#xD;&#xA;	c2,4,9,9,15,8c4,0,10-3,6-8c2,0,6,1,6-1c7-19,12-40,27-52c5-5,6,14,12,18c4,4,11-5,8-8c-4-5-10-10-5-16c3-3,7-1,9,3c1,3-1,8,1,10&#xD;&#xA;	c5,7,15,0,20-6c2-1,5,1,7,2c9,11,18,11,31,8c2,0,11,2,7,7c-2,3-6-2-9-2c-1,0-1,3-1,3c4,1,7,3,8,6c2,6-1,14,5,16c4,2,10-1,14,0&#xD;&#xA;	c9,2,24,12,27,2s-1-26,9-23c9,2,16,16,29,12c0,2,1,5,2,5c8,0,16-3,23,0c1,0-3,3-2,6c-0.87,10.445-7.796,24.677-0.344,33.466&#xD;&#xA;	c2.836-1.954,6.46-2.897,7.153-6.551c1.213-6.39,7.08-7.984,10.575-11.955c4.894-5.561,9.949-6.817,17.333-6.363&#xD;&#xA;	c5.989,0.369,8.167-9.825,15.706-9.438c1.29,0.066,2.557,0.524,3.843,0.746c1.548,0.27,3.336,0.817,4.485-0.513&#xD;&#xA;	C985.899,579.988,983.889,578.541,983.096,577.04z" />
	<path id="0596-xiangchengqu" fill-rule="evenodd" clip-rule="evenodd" fill="#D3D3D3" stroke="#FFFFFF" d="M623.5,371.5c6-2,10,1,11,7c2-1,3-2,5-1&#xD;&#xA;	c0,1,1,2,1,3c3,3,7,0,10,0c1,1,2,2,3,3c1,4,1,8-3,10c-3,0-5-7-7-4c-3,5-6,20,1,18c8-3,17-15,24-9c9,8,6,21,12,30c9,13,27,18,43,19&#xD;&#xA;	c3,0,3-4,2-6c-2-2-6,0-6,0c-6-9,3-15,6-23c-2,0-4-2-6-1c6-8,5-11-4-15c4-5,10,5,12,2c6-8,10-3,19-4&#xD;&#xA;	c-2.9-6.526-4.207-13.051-2.428-19.195c-0.196,0.045-0.39,0.104-0.572,0.195c-0.777-4.667-2.154-9.937-2.26-14.872&#xD;&#xA;	c-5.246,1.402-7.324-7.479-11.74-10.128c-6-3-8,5-12,6c-6,2-15-1-18-7c-4-9,8-19,2-28c-1-2-7-4-10-2c-12,9-19,23-32,25&#xD;&#xA;	c-6.719,1.222-16.787,1.316-23.158-2.663C626.494,350.019,623.5,361.129,623.5,371.5z" />
	<path id="0596-huaanxian" fill-rule="evenodd" clip-rule="evenodd" fill="#D3D3D3" stroke="#FFFFFF" d="M507.5,182.5c8,2,16,3,23,8c3,3,6,10,2,12&#xD;&#xA;	c-3,2-8,0-9,3c-4,12,3,27,17,24c2-1,3-4,5-1c3,6,5,12,3,19c4-1,5-2,4-6c16,8,17,26,17,42c1,2,5-6,9-4c2,1,5,2,4,6c5,0,10-2,14,1&#xD;&#xA;	c4,5,0,11,2,15c6,10,21,14,30,4c6,7,13,22,2,29c-2,17,18,18,29,16c13-2,20-16,32-25c3-2,9,0,10,2c6,9-6,19-2,28c3,6,12,9,18,7&#xD;&#xA;	c4-1,6-9,12-6c5,3,7,14,14,9c3-3,0-7-2-10c-3-6,5-14,0-16c-2-1-5,5-9,6c0-7,5-14-2-17c-4-2-5,6-10,4s-3-8,0-10s5-3,9-4c1,0,2-4,1-5&#xD;&#xA;	c-6.99-5.991-8.995-13.976-19.953-12.007c0.294,0.005,0.604,0.007,0.953,0.007c-0.35,0-0.659-0.002-0.953-0.007&#xD;&#xA;	c-0.016,0.003-0.031,0.004-0.047,0.007c0.016-0.003,0.031-0.004,0.047-0.007c-1.387-0.025-2.222-0.167-3.047-0.993&#xD;&#xA;	c-5-11-15-18-18-29c-1-2,7-4,7-7c1-7-9-8-10-14c-2-7,10-6,10-13c1-7-4-14-1-20c0.213-0.851,0.568-1.7,1.032-2.531&#xD;&#xA;	c-4.952-5.663-5.05-13.73,1.104-20.719c1.599-1.815,2.872-3.733,3.258-6.19c0.496-3.173-0.387-5.275-3.971-5.205&#xD;&#xA;	c-6.913,0.136-11.961-1.894-12.278-9.927c-0.294-7.448,5.408-15.76,12.451-16.95c7.105-1.198,11.005-5.364,13.586-11.673&#xD;&#xA;	c3.007-7.347,6.85-8.972,14.31-5.903c4.879,2.006,8.368,1.484,12.916-1.847c5.774-4.229,9.339-10.667,15.714-14.112&#xD;&#xA;	c3.064-1.657,3.641-5.046,1.779-7.545c-3.785-5.084-4.061-10.725-3.888-16.548c0.119-4.003-0.721-5.369-5.429-4.617&#xD;&#xA;	c-12.493,1.996-26.014-10.095-26.133-22.646c-0.095-10.098-2.076-12.242-12.294-13.305c-9.769-1.016-14.306-4.997-16.077-14.852&#xD;&#xA;	c-0.543-3.018-2.464-3.055-4.518-4.249c-12.17-7.084-29.827-7.9-31.912-27.594c-1.456,5.177-2.421,10.104-9.143,9.258&#xD;&#xA;	c-1.324-0.167-1.67,1.753-1.828,3.099c-0.812,6.959-5.364,8.763-11.639,9.126c-8.671,0.502-13.154,5.514-13.646,14.256&#xD;&#xA;	c-0.133,2.361,0.256,4.947-0.575,7.04c-2.796,7.037-0.416,11.81,5.966,14.877c4.905,2.357,7.128,6.453,7.136,11.405&#xD;&#xA;	c0.025,15.184,6.129,31.239-5.974,44.857c-0.804,0.905-0.84,2.471-1.304,3.704c-3.652,9.714-1.417,19.826-2.028,29.745&#xD;&#xA;	c-0.19,3.075,0.71,6.901-4.138,6.93c-10.356,0.062-20.463-0.67-28.673-8.376c-8.311-7.801-25.77-9.344-35.964-3.467&#xD;&#xA;	c-1.614,0.93-3.307,2.292-5.116,1.507c-1.103-0.479-2.195-0.84-3.279-1.114c-5.39,4.929-11.416,9.122-17.446,12.567&#xD;&#xA;	C520.5,169.5,514.5,177.5,507.5,182.5z" />
	<text x="578" y="224" xml:space="preserve" font-family="Microsoft YaHei" font-size="18" fill="#000000" stroke="none" stroke-opacity="0" baseline-shift="baseline" xmlns="http://www.w3.org/2000/svg">
华安县</text>
	<text x="756" y="287" xml:space="preserve" font-family="Microsoft YaHei" font-size="18" fill="#000000" stroke="none" stroke-opacity="0" baseline-shift="baseline">
长泰县</text>
<text x="468" y="340" xml:space="preserve" font-family="Microsoft YaHei" font-size="18" fill="#000000" stroke="none" stroke-opacity="0" baseline-shift="baseline">
南靖县</text>
<text x="662" y="373" xml:space="preserve" font-family="Microsoft YaHei" font-size="18" fill="#000000" stroke="none" stroke-opacity="0" baseline-shift="baseline">
芗城区</text>
<text x="394" y="555" xml:space="preserve" font-family="Microsoft YaHei" font-size="18" fill="#000000" stroke="none" stroke-opacity="0" baseline-shift="baseline">
平和县</text>
<text x="695" y="502" xml:space="preserve" font-family="Microsoft YaHei" font-size="18" fill="#000000" stroke="none" stroke-opacity="0" baseline-shift="baseline">
龙海市</text>
<text x="674" y="668" xml:space="preserve" font-family="Microsoft YaHei" font-size="18" fill="#000000" stroke="none" stroke-opacity="0" baseline-shift="baseline">
漳浦县</text>
<text x="493" y="754" xml:space="preserve" font-family="Microsoft YaHei" font-size="18" fill="#000000" stroke="none" stroke-opacity="0" baseline-shift="baseline">
云霄县</text>
<text x="392" y="844" xml:space="preserve" font-family="Microsoft YaHei" font-size="18" fill="#000000" stroke="none" stroke-opacity="0" baseline-shift="baseline">
诏安县</text>
<text x="576" y="929" xml:space="preserve" font-family="Microsoft YaHei" font-size="18" fill="#000000" stroke="none" stroke-opacity="0" baseline-shift="baseline">
东山县</text>
<text x="730" y="410" xml:space="preserve" font-family="Microsoft YaHei" font-size="18" fill="#000000" stroke="none" stroke-opacity="0" baseline-shift="baseline">
龙文区</text>
</svg>
