<?xml version="1.0" encoding="UTF-8" standalone="no"?>
<svg
   xmlns:dc="http://purl.org/dc/elements/1.1/"
   xmlns:cc="http://creativecommons.org/ns#"
   xmlns:rdf="http://www.w3.org/1999/02/22-rdf-syntax-ns#"
   xmlns:svg="http://www.w3.org/2000/svg"
   xmlns="http://www.w3.org/2000/svg"
   xmlns:sodipodi="http://sodipodi.sourceforge.net/DTD/sodipodi-0.dtd"
   xmlns:inkscape="http://www.inkscape.org/namespaces/inkscape"
   width="1280"
   height="1024"
   id="svg2"
   sodipodi:version="0.32"
   inkscape:version="0.48.4 r9939"
   sodipodi:docname="fujian_xian.svg"
   inkscape:output_extension="org.inkscape.output.svg.inkscape"
   version="1.1">
  <metadata
     id="metadata62">
    <rdf:RDF>
      <cc:Work
         rdf:about="">
        <dc:format>image/svg+xml</dc:format>
        <dc:type
           rdf:resource="http://purl.org/dc/dcmitype/StillImage" />
      </cc:Work>
    </rdf:RDF>
  </metadata>
  <defs
     id="defs60">
    <inkscape:perspective
       sodipodi:type="inkscape:persp3d"
       inkscape:vp_x="0 : 296.5 : 1"
       inkscape:vp_y="0 : 1000 : 0"
       inkscape:vp_z="959 : 296.5 : 1"
       inkscape:persp3d-origin="479.5 : 197.66667 : 1"
       id="perspective64" />
  </defs>
  <sodipodi:namedview
     inkscape:window-height="875"
     inkscape:window-width="827"
     inkscape:pageshadow="2"
     inkscape:pageopacity="0.0"
     guidetolerance="10.0"
     gridtolerance="10.0"
     objecttolerance="10.0"
     borderopacity="1.0"
     bordercolor="#000000"
     pagecolor="#ffffff"
     id="base"
     showgrid="true"
     inkscape:zoom="0.70710678"
     inkscape:cx="633.85191"
     inkscape:cy="478.47763"
     inkscape:window-x="355"
     inkscape:window-y="80"
     inkscape:current-layer="svg2"
     showguides="true"
     inkscape:guide-bbox="true"
     inkscape:window-maximized="0" />
  <path
     style="fill:#d3d3d3;fill-opacity:1;stroke:#ffffff;stroke-width:1;stroke-miterlimit:4;stroke-opacity:1;stroke-dasharray:none"
     id="03-nanpingshi"
     d="m 474.5,292.5 c 0,-3 -1,-7 0,-9 2,-2 6,-1 9,0 12,5 22,12 33,17 7,4 10,12 15,17 1,10 11,14 20,17 4,2 5,7 4,13 -3,4 -2,9 -2,14 11,6 22,-6 31,1 13,10 24,19 40,22 11,10 16,31 35,26 14,-3 29,-10 44,-6 17,3 29,23 49,17 0,-10 -14,-10 -22,-12 -12,-4 -3,-20 -1,-28 4,-15 -2,-31 0,-47 0,-9 7,-16 9,-25 2,0 4,-3 4,-4 3,-10 8,-16 16,-22 8,-3 9,-11 15,-16 2,-1 5,0 7,-2 2,-1 3,-4 3,-7 0,-3 4,-5 3,-8 -1,-4 2,-7 2,-10 6,1 11,6 15,9 8,5 20,3 28,-2 7,-4 1,-11 2,-18 0,-5 10,-4 9,-10 -0.974,-11.679 -2.883,-22.413 -1.141,-34.041 -7.979,1.015 -13.927,-1.333 -18.297,-4.771 -4.688,-3.688 -9.875,-2.75 -17.625,-2.75 -7.75,0 -23.438,0.563 -24.813,0.5 -1.375,-0.063 -13.375,0.063 -10.563,-7.25 2.812,-7.313 4.563,-10.5 3.813,-14.813 C 773.124,152.062 759.5,111 754.25,105.75 749,100.5 731.5,90.25 733.5,70 c 2,-20.25 10.25,-40 -8.75,-47.25 0,0 -4.5,-3 -12.25,4 -7.75,7 -13,1.5 -18.75,-0.5 -5.75,-2 -11,7 -16.25,9.75 -5.25,2.75 -4.75,-2 -15.5,-2 -10.75,0 -9,4.5 -7.5,9 1.5,4.5 11.5,20.5 5.25,23.25 -6.25,2.75 -27.25,9.25 -34,17 C 619,91 620.5,95 615.75,96.5 c -4.75,1.5 -33.25,-1 -41.5,7.75 -8.25,8.75 -13,17.75 -15.5,23.25 -2.5,5.5 -11.5,10.5 -21,5.5 -9.5,-5 -9.75,-11 -11.5,-17.5 -1.75,-6.5 -11.5,-9 -14.5,-7.25 -3,1.75 -11,11.25 -19.5,15.25 -8.5,4 -19.25,9 -19.25,9 0,0 -4.25,29.25 -14,33.5 -9.75,4.25 -22,5 -22,5 l -3.5,9.75 c 0,0 -11,-2.25 -11.5,0.75 -0.5,3 -3,16 0,17 3,1 15.5,1.5 15.5,4.5 0,3 -0.5,11 3,12 3.5,1 5.25,9 5.25,9 0,0 -6,13.5 -3.75,16 2.25,2.5 15.5,9.25 15.5,9.25 0,0 -3.5,10.25 -7.25,14 -1.775,1.775 -10.107,11.954 -19.926,22.5 8.787,2.796 18.478,3.84 28.176,6.75 6,2 14,9 16,0 z"
     sodipodi:nodetypes="03-nanpingshi"
     inkscape:connector-curvature="0" />
  <path
     style="fill:#d3d3d3;fill-opacity:1;stroke:#ffffff;stroke-width:1;stroke-miterlimit:4;stroke-opacity:1;stroke-dasharray:none"
     id="03-sanmingshi"
     d="m 703.5,404.5 c -15,-4 -30,3 -44,6 -19,5 -24,-16 -35,-26 -16,-3 -27,-12 -40,-22 -9,-7 -20,5 -31,-1 0,-5 -1,-10 2,-14 1,-6 0,-11 -4,-13 -9,-3 -19,-7 -20,-17 -5,-5 -8,-13 -15,-17 -11,-5 -21,-12 -33,-17 -3,-1 -7,-2 -9,0 -1,2 0,6 0,9 -2,9 -10,2 -16,0 -9.699,-2.91 -19.39,-3.953 -28.176,-6.75 -10.923,11.732 -23.688,23.919 -31.324,25.5 -14.5,3 -15.25,4.5 -31.5,21.25 -16.25,16.75 -18,21 -18,21 0,0 2.5,15.75 -1.5,23.75 0,0 10.75,17.5 12.75,25.5 2,8 13,23 13,23 0,0 -5,13.5 -7.75,14 -2.75,0.5 -17,4.25 -20.25,8.25 -3.25,4 -8.5,15.5 -8.75,22.75 -0.25,7.25 0.5,15.75 5,15.75 4.5,0 12.75,4.5 8.5,10 -2.055,2.659 -8.432,11.626 -14.473,20.183 7.834,5.335 18.033,1.817 26.473,1.817 5,-5 13,-4 17,1 7,10 15,20 27,24 5,2 4,9 7,10 7,3 16,-2 20,-9 5,-5 13,-5 18,-3 11,5 13,19 15,31 0,11 12,14 19,21 3,0 7,1 9,-3 2,-11 2,-23 9,-32 7,-7 16,-3 21,4 2,9 10,3 13,0 12,-10 29,1 40,10 6,4 12,11 12,19 10,-2 20,4 30,3 11,-5 21,-12 29,-21 0,-3 -2,-3 -4,-4 -6,-2 -16,-2 -13,-11 8,-12 5,-28 3,-42 0,-1 0,-3 0,-4 16,-10 32,-2 48,-4 7,-8 20,-2 29,-3 10,2 12,-6 17,-13 3,-6 0,-13 4,-18 12,-17 13,-35 20,-53 -20,6 -32,-14 -49,-17 z"
     sodipodi:nodetypes="03-sanmingshi"
     inkscape:connector-curvature="0" />
  <path
     style="fill:#d3d3d3;fill-opacity:1;stroke:#ffffff;stroke-width:1;stroke-miterlimit:4;stroke-opacity:1;stroke-dasharray:none"
     id="03-quanzhoushi"
     d="m 852.438,677.313 c 0.688,-2.063 -1.063,-7.063 -3,-6.938 -1.937,0.125 -6.813,8.25 -7.688,9.5 -0.875,1.25 -8.687,-1.875 -11.625,-4.875 -2.938,-3 -6.438,-7.375 -6.438,-7.375 0,0 3.438,-1.75 4.688,-2.438 1.25,-0.688 8.125,-0.188 10.563,-1.125 2.438,-0.937 3.25,-1.75 3.438,-4.688 0.188,-2.938 0.188,-10.75 0,-13.438 -0.188,-2.688 -4.813,-5.5 -6.313,-5.688 -1.5,-0.188 -5.063,0.127 -6.563,-1.248 -1.5,-1.375 -4.375,-3.438 -2.438,-4.813 0.89,-0.632 4.259,-2.778 8.119,-4.874 -1.791,-1.041 -2.85,-2.813 -5.682,-2.813 -14,-6 -26,7 -37,14 -6,4 -16,5 -15,-5 5,-5 -1,-8 -5,-10 -25,4 -49,-16 -42,-42 2,-4 7,-7 9,-11 3,-4 3,-9 6,-13 2,-5 -2,-8 -4,-12 -21,-5 -32,-20 -30,-42 -9,1 -22,-5 -29,3 -16,2 -32,-6 -48,4 0,1 0,3 0,4 2,14 5,30 -3,42 -3,9 7,9 13,11 2,1 4,1 4,4 -8,9 -18,16 -29,21 -10,1 -20,-5 -30,-3 3,26 -13,47 -23,69 10,5 17,14 24,23 8,10 -4,19 -8,27 -1,4 1,8 4,8 5,1 12,5 15,-1 5,-3 10,2 15,2 5,1 8,-3 13,-3 7,-1 10,5 16,6 7,-7 17,-4 26,-4 5,-8 12,-12 20,-8 1,1 5,1 5,4 6,3 10,7 13,12 2,5 4,9 8,13 2,3 0,7 2,9 6.835,10.74 17.486,17.659 29.155,21.703 1.429,-4.455 1.782,-9.317 1.782,-12.516 0,-4.063 0,-10.938 0,-10.938 0,0 4.563,3.188 5.25,4.938 0.687,1.75 1.313,9.563 4.875,12.125 3.562,2.562 12.188,3.438 16.375,3.875 4.187,0.437 2.25,12.5 3.938,13.313 1.688,0.813 14.188,-8.438 15.375,-9.875 1.187,-1.437 2.625,-10.063 2.625,-10.063 0,0 -8.938,-10.313 -6.688,-12.5 2.25,-2.187 13,-1.813 13,-1.813 l 8.563,-9.125 c 0,0 3,-4.375 0.313,-8.063 -2.687,-3.688 -7.688,-3.063 -7.688,-3.063 0,0 -3.5,-5.063 -5.375,-5.438 -1.875,-0.375 -6.375,3.063 -9.25,3.063 -2.875,0 -8.813,-7.688 -8.125,-9.125 0.688,-1.437 5.875,-3.75 8.188,-7.438 2.313,-3.688 4.188,-0.688 4.188,-0.688 0,0 -0.563,6.125 2.75,7.875 3.313,1.75 9.25,3.25 12.5,1.563 3.25,-1.687 12.75,-8.875 12.75,-8.875 0,0 13.188,0.188 17.75,-2.188 4.562,-2.376 7.625,-2.75 7.625,-2.75 l 3.563,-5.438 v -10 c 0,0.004 -1.188,-7.684 -0.5,-9.746 z"
     sodipodi:nodetypes="03-quanzhoushi"
     inkscape:connector-curvature="0" />
  <path
     style="fill:#d3d3d3;fill-opacity:1;stroke:#ffffff;stroke-width:1;stroke-miterlimit:4;stroke-opacity:1;stroke-dasharray:none"
     id="03-putianshi"
     d="m 905.188,612.875 c -8.375,-3.375 -11.313,-4.875 -14.438,0.563 -3.125,5.438 -7.625,10.5 -5.688,2.375 1.937,-8.125 0.875,-8.375 -1.625,-9.5 -2.5,-1.125 -8.75,-2.063 -9.75,-3.25 -1,-1.187 -8.375,-6.75 -3.375,-10.5 4.759,-3.568 13.808,-7.932 18.066,-13.14 -9.867,-6.017 -8.883,-16.961 -9.879,-25.923 -5,-3 -13,-4 -16,-9 -4,-6 -1,-15 -4,-23 -2,-9 -14,-9 -21,-3 -3,2 -7,4 -10,5 -8,3 -16,1 -24,3 -14,4 -28,12 -43,11 -9,-1 -12,7 -19,10 2,4 6,7 4,12 -3,4 -3,9 -6,13 -2,4 -7,7 -9,11 -7,26 17,46 42,42 4,2 10,5 5,10 -1,10 9,9 15,5 11,-7 23,-20 37,-14 2.832,0 3.891,1.772 5.682,2.813 4.546,-2.467 9.773,-4.862 12.443,-4.626 4.938,0.438 6.313,1.25 2.5,1.688 -3.813,0.438 -9.125,1.25 -8.938,4.063 0.187,2.813 1.625,4.375 7.875,4.25 6.25,-0.125 10.563,0.813 10.75,3 0.187,2.187 -3.688,7.375 -9,8.063 -5.312,0.688 0.25,4.813 2.313,5.25 2.063,0.437 4.75,1.25 6.438,1.438 1.688,0.188 6.125,3.938 8.938,3.625 2.813,-0.313 7.875,-2.875 6.375,-6.438 -1.5,-3.563 -6.688,-6.188 -6.5,-8.563 0.188,-2.375 1.25,-2.188 1.688,-6.25 0.438,-4.062 0.813,-10.438 3.938,-2.5 3.125,7.938 9.625,7.313 11.313,7.313 1.688,0 10.25,0.313 10.25,0.313 0,0 5.313,-0.125 6.5,-1.313 1.187,-1.188 0.75,-10.688 3.063,-10.688 2.313,0 7,-0.25 7.25,-4.188 0.25,-3.938 1.186,-7.5 -7.189,-10.875 z"
     sodipodi:nodetypes="03-putianshi"
     inkscape:connector-curvature="0" />
  <path
     style="fill:#d3d3d3;fill-opacity:1;stroke:#ffffff;stroke-width:1;stroke-miterlimit:4;stroke-opacity:1;stroke-dasharray:none"
     id="03-fuzhoushi"
     d="m 1000.917,387.667 c -6.75,-2.5 -12.25,-0.667 -12.25,-0.667 0,0 -6.583,-9.167 -9.666,-8.167 -3.083,1 -11.667,4.5 -14.75,11.833 0,0 -2.876,7.021 -5.126,7.646 -2.25,0.625 -6.688,-1.188 -8.938,-4 -2.25,-2.812 -4.125,-3.625 -4.063,-8.125 0.062,-4.5 1,-7.5 -1.688,-8.688 -2.688,-1.188 -8.75,0.563 -11.25,0.313 -2.5,-0.25 -7,-2.875 -5.813,-5.438 1.187,-2.563 13.438,-1.5 15.563,-0.313 2.125,1.187 6.5,2.625 8.5,2.563 2,-0.062 5.875,-0.5 7.438,0.625 1.563,1.125 6.313,6.125 9.313,4.125 3,-2 6.313,-6.188 4.688,-9.938 -1.625,-3.75 -0.875,-3.875 -3.313,-6 -2.393,-2.085 -4.896,-11.319 -3.807,-13.966 -24.692,-0.952 -46.484,-0.121 -69.256,-14.972 -6,-4 -12,10 -21,12 -15,7 -29,13 -47,8 -5,-2 -10,-3 -14,2 -8,13 -20,19 -31,27 -5,3 -12,-3 -18,-5 0,4 3,7 5,10 10,17 -8,23 -18,33 -7,18 -8,36 -20,53 -4,5 -1,12 -4,18 -5,7 -7,15 -17,13 -2,22 9,37 30,42 7,-3 10,-11 19,-10 15,1 29,-7 43,-11 8,-2 16,0 24,-3 3,-1 7,-3 10,-5 7,-6 19,-6 21,3 3,8 0,17 4,23 3,5 11,6 16,9 0.996,8.962 0.012,19.906 9.879,25.923 0.216,-0.265 0.431,-0.529 0.621,-0.798 3.938,-5.563 3.625,-6.125 3.938,-8.875 0.313,-2.75 0.75,-8.875 2.75,-3.063 2,5.812 -0.5,11.063 1.125,15.875 1.625,4.812 2.688,6.563 5.938,6.625 3.25,0.062 3.125,-2.75 2.75,-8.438 -0.375,-5.688 1.75,-12.5 2.125,-13.313 0.375,-0.813 0.063,-4 -2.438,-5.5 -2.501,-1.5 -2.063,-5.563 -0.625,-4.938 1.438,0.625 2.25,2.063 2.25,3 0,0.937 1.063,3.375 1.5,4.063 0.437,0.688 1.313,2.813 2.75,3.625 1.437,0.812 7.625,5.188 12.188,5.5 4.563,0.312 3.125,2.875 2.438,4.938 -0.687,2.063 -1.938,8.25 -0.563,8.438 1.375,0.188 3.063,0.25 5.25,-1.688 2.187,-1.938 3.063,-1.563 4.25,0.375 1.187,1.938 0.875,8.813 1,11.313 0.125,2.5 -0.188,6.563 1.625,6.5 1.813,-0.063 13.375,-6.313 14,-7.75 0.625,-1.437 -0.75,-3.5 -2.938,-5.75 -2.188,-2.25 -1.438,-6.313 0.5,-5.75 1.938,0.563 3.938,6.125 4.5,7.75 0.562,1.625 4.813,7.563 8.563,7.438 3.75,-0.125 8.688,-6 8.688,-6.625 0,-0.625 0.25,-4.938 -3.5,-9.75 -3.75,-4.812 -6.563,-7.688 -8.125,-8.375 -1.562,-0.687 -8.438,-1.188 -8.438,-1.188 0,0 1.438,-3 1.313,-5.063 -0.125,-2.063 -0.563,-10.375 -0.563,-10.375 0,0 -0.75,-3.875 -2.875,-5.125 -2.125,-1.25 -7.5,-0.313 -8.938,2.813 -1.438,3.126 -1.375,5.938 -4.813,2.938 -3.438,-3 -1.938,-8.063 -1.938,-8.063 0,0 0.688,-1.75 -6.188,-4.563 -6.876,-2.813 -4.063,-5.688 -2.313,-8.313 1.75,-2.625 5.188,-2.875 6.875,-2.875 1.687,0 17.563,-0.813 17.563,-0.813 0,0 4.563,-5.063 5.125,-10.875 0.562,-5.812 1.25,-11 -0.5,-13.125 -1.75,-2.125 -10.56,-11.621 -9.31,-13.871 1.25,-2.25 13.563,-7.938 15.813,-10.375 2.25,-2.437 6.313,-8.938 6.125,-12.625 -0.188,-3.687 -0.188,-10.438 -5.438,-10.563 -5.25,-0.125 -10.938,0.125 -12.688,0 -1.75,-0.125 -5.438,-1.438 -10.125,-1.75 -4.687,-0.312 -10.813,-1.813 -10.5,-2.875 0.313,-1.062 14.125,-0.375 16.063,-0.75 1.938,-0.375 12.813,-4.75 13.563,-6.313 0.75,-1.563 -8.666,-10 -16.166,-13.333 0,0 -2.083,-1 2.25,-5.083 4.333,-4.083 8.751,-6.583 8.834,-8.667 0.083,-2.084 -7.084,-7 -2.667,-8.917 4.417,-1.917 12.416,-3.917 14.916,-6.583 2.5,-2.666 9.251,-6.417 9.751,-6.75 0.5,-0.333 15.165,-1 16.249,-2.417 1.084,-1.417 17.749,-8.582 10.999,-11.082 z"
     sodipodi:nodetypes="03-fuzhoushi"
     inkscape:connector-curvature="0" />
  <path
     style="fill:#d3d3d3;fill-opacity:1;stroke:#ffffff;stroke-width:1;stroke-miterlimit:4;stroke-opacity:1;stroke-dasharray:none"
     id="03-ningdeshi"
     d="m 1068.625,204.813 c 1.188,-3.875 2.938,-11.125 0.063,-13.125 -2.875,-2 -10.75,-7.75 -14,-12.063 -3.25,-4.313 -3.813,-8.813 -3.813,-8.813 L 1036.5,170.5 c 0,0 -3.75,-4.438 -9.313,-4.375 -5.563,0.063 -15.75,1.188 -15.75,1.375 0,0.187 -12.938,14.125 -15.563,15.313 -2.625,1.188 -5.688,1.063 -8.688,-0.625 -3,-1.688 -6.688,-1.25 -11.25,2.438 -4.562,3.688 -19.313,17.625 -24.313,17.125 -5,-0.5 -18.688,-12.25 -20.125,-24.5 -1.437,-12.25 -1.625,-14.625 -6,-16.813 -4.375,-2.188 -4.063,-7.938 -5.938,-12.625 -1.875,-4.687 -8.938,-10.563 -11.188,-13.688 -2.25,-3.125 -14.438,-5.188 -19.063,-0.375 -4.625,4.813 -6.125,10.375 -7.313,16.313 -1.188,5.938 -1.375,12.063 -6,11.688 -4.625,-0.375 -6.563,-2.438 -9.688,0.375 -3.125,2.813 -8.125,8.688 -9.438,11.5 -1.313,2.812 -4.875,9.938 -13.75,11.563 -0.601,0.11 -1.188,0.198 -1.766,0.271 -1.742,11.628 0.167,22.362 1.141,34.041 1,6 -9,5 -9,10 -1,7 5,14 -2,18 -8,5 -20,7 -28,2 -4,-3 -9,-8 -15,-9 0,3 -3,6 -2,10 1,3 -3,5 -3,8 0,3 -1,6 -3,7 -2,2 -5,1 -7,2 -6,5 -7,13 -15,16 -8,6 -13,12 -16,22 0,1 -2,4 -4,4 -2,9 -9,16 -9,25 -2,16 4,32 0,47 -2,8 -11,24 1,28 8,2 22,2 22,12 10,-10 28,-16 18,-33 -2,-3 -5,-6 -5,-10 6,2 13,8 18,5 11,-8 23,-14 31,-27 4,-5 9,-4 14,-2 18,5 32,-1 47,-8 9,-2 15,-16 21,-12 22.771,14.851 44.563,14.02 69.256,14.972 0.021,-0.05 0.033,-0.114 0.057,-0.159 1.25,-2.438 5.563,-8.063 4.625,-12 -0.938,-3.937 -1.625,-8.813 -6.25,-11.5 -4.625,-2.687 -9,-4 -13.188,-6.125 -4.188,-2.125 -6.875,-7.188 -7.563,-9.813 -0.688,-2.625 -0.313,-5.625 -2.563,-8.375 -2.25,-2.75 -8.063,-13.313 -5.438,-13.313 2.625,0 18.5,27.813 18.5,27.813 0,0 2,-17.313 2,-17.5 0,-0.187 5,-6.063 6.875,-4.188 1.875,1.875 -1.938,3.938 -1.875,5.438 0.063,1.5 0.5,3.563 3.688,3.813 3.188,0.25 4.125,2.813 2.063,4.375 -2.062,1.562 -4.125,6.563 -2.25,9.063 1.875,2.5 4.625,3 7.188,4 2.563,1 6.938,8.375 8.438,8 1.5,-0.375 5.625,-7.75 6.813,-10.5 1.188,-2.75 1.75,-17.063 1.75,-17.063 L 1010.5,302 c 0,0 -11.125,15.875 -11.188,18.75 -0.063,2.875 -1.688,12.75 -6.313,12.938 -4.625,0.188 -13,3.875 -14.938,8.313 -1.938,4.438 -6.75,15.938 -1.375,16.438 5.375,0.5 13.375,-4.875 15.875,-12.625 2.5,-7.75 6.5,-4.5 12.563,-8.875 6.063,-4.375 9.313,-7.375 10.938,-7.625 1.625,-0.25 9.313,0.875 9.5,-1.625 0.187,-2.5 -2.438,-3.688 -1.625,-6.188 0.813,-2.5 6.188,-7.375 5.063,-9.063 -1.125,-1.688 -2.25,-4.313 -5.625,-4.5 -3.375,-0.187 -1.563,-11.5 -1.563,-11.5 0,0 -0.563,-1.375 -4.125,-3.063 C 1014.125,291.687 1005.5,287 1005.5,287 c 0,0 -1.875,-3.875 0.813,-5.25 2.688,-1.375 7.75,-1.313 7.75,-1.313 0,0 5.75,-6.125 7.313,-7.75 1.563,-1.625 14.125,-1 15.813,-1.063 1.688,-0.063 5.688,-3.313 4.625,-6.563 -1.063,-3.25 -0.563,-4.25 -2.125,-4.625 -1.562,-0.375 -3.625,-0.813 -3.625,-0.813 l 4.25,-1.125 c 0,0 5.688,-3.125 6.063,-5.563 0.375,-2.438 0.875,-7.938 0.313,-8.813 -0.562,-0.875 -0.313,-3.875 -1.813,-6.125 -1.5,-2.25 -3.313,-6 -3.313,-6 0,0 12.938,3.125 15.5,3.875 2.562,0.75 5.875,-1.875 6.688,-5.813 0.813,-3.938 5.625,-10.813 6.063,-11.625 0.438,-0.812 -2.377,-9.746 -1.19,-13.621 z"
     sodipodi:nodetypes="03-ningdeshi"
     inkscape:connector-curvature="0" />
  <path
     style="fill:#d3d3d3;fill-opacity:1;stroke:#ffffff;stroke-width:1;stroke-miterlimit:4;stroke-opacity:1;stroke-dasharray:none"
     id="03-longyanshi"
     d="m 461.5,816.5 v -1 c 0,-7 4,-13 10,-15 2,-2 5,-3 6,-5 3,-5 1,-12 -5,-15 -4,-10 1,-20 1,-30 0,-3 4,-4 7,-3 11,10 17,-11 23,-17 2,-4 4,-8 5,-13 3,-17 24,-7 37,-7 15,-2 6,-27 12,-36 2,-5 4,-11 9,-13 v -1 c 10,-22 26,-43 23,-69 0,-8 -6,-15 -12,-19 -11,-9 -28,-20 -40,-10 -3,3 -11,9 -13,0 -5,-7 -14,-11 -21,-4 -7,9 -7,21 -9,32 -2,4 -6,3 -9,3 -7,-7 -19,-10 -19,-21 -2,-12 -4,-26 -15,-31 -5,-2 -13,-2 -18,3 -4,7 -13,12 -20,9 -3,-1 -2,-8 -7,-10 -12,-4 -20,-14 -27,-24 -4,-5 -12,-6 -17,-1 -8.44,0 -18.639,3.518 -26.473,-1.817 -6.455,9.143 -12.527,17.817 -12.527,17.817 0,0 -7.5,4.75 -19,5.5 -11.5,0.75 -18.75,6.25 -17.75,11 1,4.75 3.75,11.5 9.75,15.25 6,3.75 -2.25,9.25 -8.75,13.75 -6.5,4.5 -8.25,15.25 -9.75,23.25 -1.5,8 -9.5,22 -10,28.25 -0.5,6.25 3.5,32.75 -3.75,39.5 -7.25,6.75 -19.5,17.5 -19,21.75 0.5,4.25 3.75,11.5 10.25,18 6.5,6.5 -7.75,24.75 0.25,29.5 8,4.75 40.25,17 47.25,17 7,0 12.25,-3.5 20.5,-0.25 8.25,3.25 2.5,7.25 9,6.75 6.5,-0.5 12,-9 14.25,-12.5 0,0 4.359,-4.54 6.647,-3.823 2.288,0.717 4.986,3.621 3.654,6.079 -1.332,2.458 -4.747,6.488 -4.132,8.674 0.615,2.186 3.313,6.319 8.812,7.412 5.499,1.093 10.382,4.337 13.934,8.299 3.552,3.962 5.461,7.109 7.211,13.234 1.75,6.125 5.5,9 13,4.625 7.5,-4.375 30.25,-12 34.5,-13.625 4.25,-1.625 10.25,0.25 10.25,3 0,2.75 -5.25,16.625 -3.375,20.75 1.875,4.125 3.5,5 7.375,5.75 l 14.875,24.5 c 0,0 -0.036,0.625 0.079,1.603 4.108,-6.319 4.532,-13.394 1.92,-21.228 z"
     sodipodi:nodetypes="03-longyanshi"
     inkscape:connector-curvature="0" />
  <path
     style="fill:#d3d3d3;fill-opacity:1;stroke:#ffffff;stroke-width:1;stroke-miterlimit:4;stroke-opacity:1;stroke-dasharray:none"
     id="03-zhangzhoushi"
     d="m 698.5,827.5 c -2.938,-2.063 -4.938,-2.375 -9.25,-1.063 -4.312,1.312 -7.5,2.375 -8.375,0.375 -0.875,-2 4.125,-4.5 5.313,-5.438 1.188,-0.938 1.938,-7.688 -5,-6.938 -6.938,0.75 -13.938,2.063 -18.313,5 -4.375,2.937 -7.875,0.689 -7.875,0.689 0,0 -7.063,-3.438 -6.438,-4.313 0.625,-0.875 4,-1.433 4,-1.433 0,0 2.813,-1.442 1.313,-4.192 -1.5,-2.75 -1.625,-3.625 -1.625,-3.625 0,0 -0.125,-3.188 0.813,-3.375 0.438,-0.088 0.889,-0.021 1.328,0.153 -1.099,-11.668 -4.275,-24.001 -15.891,-28.841 9,-8 11,-17 6,-28 v -1 c 6,-6 8,-16 1,-23 -6,-1 -9,-7 -16,-6 -5,0 -8,4 -13,3 -5,0 -10,-5 -15,-2 -3,6 -10,2 -15,1 -3,0 -5,-4 -4,-8 4,-8 16,-17 8,-27 -7,-9 -14,-18 -24,-23 v 1 c -5,2 -7,8 -9,13 -6,9 3,34 -12,36 -13,0 -34,-10 -37,7 -1,5 -3,9 -5,13 -6,6 -12,27 -23,17 -3,-1 -7,0 -7,3 0,10 -5,20 -1,30 6,3 8,10 5,15 -1,2 -4,3 -6,5 -6,2 -10,8 -10,15 v 1 c 2.611,7.834 2.188,14.909 -1.921,21.228 0.181,1.545 0.738,3.977 2.421,6.272 2.75,3.75 22.75,35.25 22.75,35.25 0,0 1.625,2.375 0.25,4.375 -1.375,2 -7.625,10.625 -6.25,18.875 1.375,8.25 9.5,37.375 9.5,37.375 0,0 8.375,7 10.75,13.25 2.375,6.25 6.125,19 7,19.75 0.875,0.75 14.375,11.375 14.375,11.375 0,0 15.25,-2.875 15.375,-6.5 0.125,-3.625 0,-12.625 0,-12.625 l 12.5,-0.625 c 0,0 -1.125,-13.125 1.375,-16.5 2.5,-3.375 3.25,0.375 6.25,-0.125 3,-0.5 4.75,-1.625 6.625,-3.75 1.875,-2.125 2.375,-2.75 2.75,-0.375 0.375,2.375 1.75,8.125 -2.125,12.375 -3.875,4.25 -4.25,5.875 -3.5,6.75 0.75,0.875 5.5,2.875 8,2.75 2.5,-0.125 3.125,5.5 1.75,7.25 -1.375,1.75 -4.875,4.75 -5.75,5.875 -0.875,1.125 -2.313,6.5 -2.313,6.5 0.938,0.875 10.625,1.438 11.25,-0.375 0.625,-1.813 0.688,-8.625 5.125,-8.125 4.437,0.5 15.25,1 17.063,0.313 1.813,-0.687 8.625,-4.063 8.938,-5.188 0.313,-1.125 0.563,-5.563 0,-7.125 -0.563,-1.562 -8.5,-16.5 -11.25,-19.813 -2.75,-3.313 -0.5,-21.5 -0.5,-21.5 L 577,913.875 c 0,0 23.875,0.688 26.688,2.563 2.813,1.875 10,6.188 10.125,14.25 0.125,8.062 -3.563,12.625 -4.25,15.563 -0.687,2.938 0.813,3.822 2.188,3.724 1.375,-0.098 5.25,-5.224 5.875,-9.036 0.625,-3.812 2.5,-11.5 -0.313,-17.563 -2.813,-6.063 3.562,-12.376 3.562,-12.376 0,0 -1.875,-16.938 3.813,-18.875 5.688,-1.937 11.437,-2.125 11.437,-2.125 0,0 4,5.25 2.688,8.625 -1.312,3.375 -11.688,13.938 -10.375,15.625 1.313,1.687 4.438,2.563 6.125,0.313 1.687,-2.25 3.063,-9.188 7.625,-15.375 4.562,-6.187 9.438,-7.938 12.125,-7.625 2.687,0.313 3.5,0.375 3.5,0.375 l 0.938,-13.188 7.188,-11.75 c 0,0 -2.188,-4.063 -1.438,-6.25 0.75,-2.187 2.563,-5.5 3.75,-4.625 1.187,0.875 0.813,4.875 2.563,6.25 1.75,1.375 4.875,-1.188 5,-3.313 0.125,-2.125 0.375,-5.438 3.75,-6 3.375,-0.562 19.813,-13 19.813,-13 0,0 2.061,-10.499 -0.877,-12.562 z"
     sodipodi:nodetypes="03-zhangzhoushi"
     inkscape:connector-curvature="0" />
  <path
     style="fill:#d3d3d3;fill-opacity:1;stroke:#ffffff;stroke-width:1;stroke-miterlimit:4;stroke-opacity:1;stroke-dasharray:none"
     id="03-xiamenshi"
     d="m 719.5,748.5 c -2,-2 0,-6 -2,-9 -4,-4 -6,-8 -8,-13 -3,-5 -7,-9 -13,-12 0,-3 -4,-3 -5,-4 -8,-4 -15,0 -20,8 -9,0 -19,-3 -26,4 7,7 5,17 -1,23 v 1 c 5,11 3,20 -6,28 11.615,4.84 14.792,17.173 15.891,28.841 0.502,0.199 0.989,0.539 1.422,0.972 0.813,0.813 4.875,4.313 8.25,5.125 3.375,0.812 12.688,-0.625 15.313,-0.438 2.625,0.187 11.75,2 15,9 0,0 2.5,1.563 7.125,-6.813 4.625,-8.376 11.562,-19.187 18.624,-23.187 7.062,-4 24.5,-9.125 27.125,-14.313 0.559,-1.104 1.019,-2.28 1.405,-3.484 C 736.987,766.159 726.335,759.24 719.5,748.5 z"
     sodipodi:nodetypes="03-xiamenshi"
     inkscape:connector-curvature="0" />
  <text
     xml:space="preserve"
     style="font-size:18px;font-style:normal;font-variant:normal;font-weight:normal;font-stretch:normal;line-height:125%;letter-spacing:0px;word-spacing:0px;fill:#000000;fill-opacity:1;stroke:none;font-family:Microsoft YaHei;-inkscape-font-specification:Microsoft YaHei"
     x="818.93445"
     y="590.02271"
     id="text3433"
     sodipodi:linespacing="125%"><tspan
       sodipodi:role="line"
       id="tspan3435"
       x="818.93445"
       y="590.02271">莆田市</tspan></text>
  <text
     xml:space="preserve"
     style="font-size:18px;font-style:normal;font-variant:normal;font-weight:normal;font-stretch:normal;line-height:125%;letter-spacing:0px;word-spacing:0px;fill:#000000;fill-opacity:1;stroke:none;font-family:Microsoft YaHei;-inkscape-font-specification:Microsoft YaHei"
     x="748.85468"
     y="698.74628"
     id="text3433-4"
     sodipodi:linespacing="125%"><tspan
       sodipodi:role="line"
       id="tspan3435-0"
       x="748.85468"
       y="698.74628">泉州市</tspan></text>
  <text
     xml:space="preserve"
     style="font-size:18px;font-style:normal;font-variant:normal;font-weight:normal;font-stretch:normal;line-height:125%;letter-spacing:0px;word-spacing:0px;fill:#000000;fill-opacity:1;stroke:none;font-family:Microsoft YaHei;-inkscape-font-specification:Microsoft YaHei"
     x="681.67957"
     y="797.74115"
     id="text3433-9"
     sodipodi:linespacing="125%"><tspan
       sodipodi:role="line"
       id="tspan3435-4"
       x="681.67957"
       y="797.74115">厦门市</tspan></text>
  <text
     xml:space="preserve"
     style="font-size:18px;font-style:normal;font-variant:normal;font-weight:normal;font-stretch:normal;line-height:125%;letter-spacing:0px;word-spacing:0px;fill:#000000;fill-opacity:1;stroke:none;font-family:Microsoft YaHei;-inkscape-font-specification:Microsoft YaHei"
     x="569.28082"
     y="806.89838"
     id="text3433-9-8"
     sodipodi:linespacing="125%"><tspan
       sodipodi:role="line"
       id="tspan3435-4-8"
       x="569.28082"
       y="806.89838">漳州市</tspan></text>
  <text
     xml:space="preserve"
     style="font-size:18px;font-style:normal;font-variant:normal;font-weight:normal;font-stretch:normal;line-height:125%;letter-spacing:0px;word-spacing:0px;fill:#000000;fill-opacity:1;stroke:none;font-family:Microsoft YaHei;-inkscape-font-specification:Microsoft YaHei"
     x="434.94229"
     y="696.59753"
     id="text3433-9-8-2"
     sodipodi:linespacing="125%"><tspan
       sodipodi:role="line"
       id="tspan3435-4-8-4"
       x="434.94229"
       y="696.59753">龙岩市</tspan></text>
  <text
     xml:space="preserve"
     style="font-size:18px;font-style:normal;font-variant:normal;font-weight:normal;font-stretch:normal;line-height:125%;letter-spacing:0px;word-spacing:0px;fill:#000000;fill-opacity:1;stroke:none;font-family:Microsoft YaHei;-inkscape-font-specification:Microsoft YaHei"
     x="534.67163"
     y="461.1427"
     id="text3433-9-8-2-5"
     sodipodi:linespacing="125%"><tspan
       sodipodi:role="line"
       id="tspan3435-4-8-4-5"
       x="534.67163"
       y="461.1427">三明市</tspan></text>
  <text
     xml:space="preserve"
     style="font-size:18px;font-style:normal;font-variant:normal;font-weight:normal;font-stretch:normal;line-height:125%;letter-spacing:0px;word-spacing:0px;fill:#000000;fill-opacity:1;stroke:none;font-family:Microsoft YaHei;-inkscape-font-specification:Microsoft YaHei"
     x="641.44476"
     y="332.44928"
     id="text3433-9-8-2-1"
     sodipodi:linespacing="125%"><tspan
       sodipodi:role="line"
       id="tspan3435-4-8-4-7"
       x="641.44476"
       y="332.44928">南平市</tspan></text>
  <text
     xml:space="preserve"
     style="font-size:18px;font-style:normal;font-variant:normal;font-weight:normal;font-stretch:normal;line-height:125%;letter-spacing:0px;word-spacing:0px;fill:#000000;fill-opacity:1;stroke:none;font-family:Microsoft YaHei;-inkscape-font-specification:Microsoft YaHei"
     x="903.09869"
     y="310.66455"
     id="text3433-9-8-2-11"
     sodipodi:linespacing="125%"><tspan
       sodipodi:role="line"
       id="tspan3435-4-8-4-52"
       x="903.09869"
       y="310.66455">宁德市</tspan></text>
  <text
     xml:space="preserve"
     style="font-size:18px;font-style:normal;font-variant:normal;font-weight:normal;font-stretch:normal;line-height:125%;letter-spacing:0px;word-spacing:0px;fill:#000000;fill-opacity:1;stroke:none;font-family:Microsoft YaHei;-inkscape-font-specification:Microsoft YaHei"
     x="849.33417"
     y="455.48581"
     id="text3433-9-8-2-7"
     sodipodi:linespacing="125%"><tspan
       sodipodi:role="line"
       id="tspan3435-4-8-4-6"
       x="849.33417"
       y="455.48581">福州市</tspan></text>
</svg>
