<?xml version="1.0" encoding="UTF-8" standalone="no"?>
<svg
   xmlns:dc="http://purl.org/dc/elements/1.1/"
   xmlns:cc="http://creativecommons.org/ns#"
   xmlns:rdf="http://www.w3.org/1999/02/22-rdf-syntax-ns#"
   xmlns:svg="http://www.w3.org/2000/svg"
   xmlns="http://www.w3.org/2000/svg"
   xmlns:sodipodi="http://sodipodi.sourceforge.net/DTD/sodipodi-0.dtd"
   xmlns:inkscape="http://www.inkscape.org/namespaces/inkscape"
   width="1280"
   height="1024"
   id="svg2"
   sodipodi:version="0.32"
   inkscape:version="0.48.4 r9939"
   sodipodi:docname="xian_chengdushi+.svg"
   inkscape:output_extension="org.inkscape.output.svg.inkscape"
   version="1.1">
  <metadata
     id="metadata62">
    <rdf:RDF>
      <cc:Work
         rdf:about="">
        <dc:format>image/svg+xml</dc:format>
        <dc:type
           rdf:resource="http://purl.org/dc/dcmitype/StillImage" />
      </cc:Work>
    </rdf:RDF>
  </metadata>
  <defs
     id="defs60">
    <inkscape:perspective
       sodipodi:type="inkscape:persp3d"
       inkscape:vp_x="0 : 296.5 : 1"
       inkscape:vp_y="0 : 1000 : 0"
       inkscape:vp_z="959 : 296.5 : 1"
       inkscape:persp3d-origin="479.5 : 197.66667 : 1"
       id="perspective64" />
  </defs>
  <sodipodi:namedview
     inkscape:window-height="925"
     inkscape:window-width="1117"
     inkscape:pageshadow="2"
     inkscape:pageopacity="0.0"
     guidetolerance="10.0"
     gridtolerance="10.0"
     objecttolerance="10.0"
     borderopacity="1.0"
     bordercolor="#000000"
     pagecolor="#ffffff"
     id="base"
     showgrid="true"
     inkscape:zoom="0.70710678"
     inkscape:cx="625.07647"
     inkscape:cy="525.70393"
     inkscape:window-x="873"
     inkscape:window-y="28"
     inkscape:current-layer="svg2"
     showguides="true"
     inkscape:guide-bbox="true"
     inkscape:window-maximized="0" />
<path id="0755-longgangqu" fill-rule="evenodd" clip-rule="evenodd" fill="#D3D3D3" stroke="#FFFFFF" stroke-miterlimit="10" d="M651.24,479.054&#xD;
		c1.896-1.365,1.462-3.485,0.792-4.916c-0.799-1.704-2.755-4.409-4.451-1.016c-0.97,1.942-3.678,2.274-3.61,4.746&#xD;
		c-0.237,0.237-0.488,0.507-0.78,0.536c-8.368,0.852-8.371,0.849-8.672-7.637c-0.029-0.813,0-1.628-0.549-2.301&#xD;
		c-0.393-0.301-0.797-0.602-1.208-0.883c-0.653-1.698-2.451-1.88-3.715-2.774c0.042-0.763,0.171-1.563-0.832-1.858&#xD;
		c-1.034-2.305-1.133-4.603,0.051-6.891c1.011-0.325,0.876-1.126,0.792-1.906c2.905-3.895,5.382-8.39,11.304-8.047&#xD;
		c1.796-0.046,4.189,1.409,4.692-1.873c2.433-1.813,5.47,0.267,7.951-1.233c1.435,0.231,2.233-0.245,2.035-1.83&#xD;
		c1.736-1.609,4.158,0.226,5.936-1.18c2.331-1.332,5.858-0.431,7.095-3.803c0.699-2.462,0.693-4.925,0.003-7.388&#xD;
		c0.001-3.783,0.143-7.435,1.941-11.03c0.682-1.363,1.597-2.444,2.482-2.425c3.642,0.078,4.054-3.03,5.57-5.06&#xD;
		c2.114-0.886,3.977-2.236,6.018-3.255c1.453,0.169,2.135-0.438,1.936-1.928c5.572-1.088,7.311-0.148,9.853,5.326&#xD;
		c2.617,7.857,7.072,14.875,10.313,22.449c0.096,0.225,0.898,0.146,1.372,0.208c2.131,1.566-0.052,4.187,1.444,5.907&#xD;
		c1.408,1.176,0.837,4.077,3.572,4.095c1.266,1.266,0.999,3.776,3.368,4.145c0.299,1.022,1.107,0.89,1.884,0.831&#xD;
		c2.751,0.277,3.09,4.233,6.152,4.035c2.341,1.3,4.682,2.601,7.022,3.9c1.744,1.487,4.28-0.611,5.93,1.309&#xD;
		c1.085,1.292,2.091,1.193,3.274,0.018c3.283-3.266,7.075-6.094,8.846-10.616c3.024-3.249,5.796-6.787,9.986-8.696&#xD;
		c2.993-0.463,3.392-3.75,5.769-5.297c3.268-2.128,6.058-4.526,10.15-4.722c1.044-0.051,1.004-1.1,1.063-1.908&#xD;
		c3.341-1.228,6.801-0.293,10.196-0.557c1.71-0.133,2.229,0.845,2.291,2.425c0.083,2.11-0.44,4.268,0.403,6.329&#xD;
		c-0.123,0.539,0.101,0.803,0.645,0.813c1.738,0.323,0.005,4.856,3.581,2.953c1.133-0.153,1.042-0.953,0.932-1.764&#xD;
		c5.635-2.121,9.173-6.805,12.699-11.195c1.357-1.69,2.547-2.572,4.407-3.028c0.295-0.267,0.59-0.533,0.886-0.8&#xD;
		c2.859-1.871,6.231,0.197,9.153-1.191c1.602,0.016,3.732,1.093,3.823-1.912c3.947-1.428,8.032-0.279,12.037-0.639&#xD;
		c1.772-0.159,3.593,0.308,5.323-0.408c1.338,0.138,2.715,0.422,3.632-0.987c3.04-1.309,6.226-0.501,9.332-0.527&#xD;
		c2.424-0.02,2.626,1.515,1.458,3.361c-1.271,2.354-2.54,4.707-3.811,7.062c-1.386,1.789,0.397,4.189-1.147,5.947&#xD;
		c-1.423,0.94-1.101,2.337-0.964,3.685c-0.657,4.518-0.707,9.034,0.031,13.549c2.354,4.481,5.69,8.11,10.533,9.613&#xD;
		c1.583,0.491,2.227,1.565,3.378,2.244c5.35,1.587,6.766,5.046,4.859,11.872c-1.032,0.373-0.777,1.314-0.92,2.081&#xD;
		c-0.254,1.813-1.205,3.113-2.978,3.611c-5.297,1.487-7.049,5.834-8.119,10.45c-1.092,4.71-2.577,8.78-7.366,11.129&#xD;
		c-3.473,1.703-3.389,5.051-1.319,7.662c2.939,3.707,3.221,7.435,1.809,11.673c-1.235,3.706,0.632,6.858,2.21,9.952&#xD;
		c1.736,3.402,2.29,6.401-0.823,9.475c-2.035,2.009-2.006,4.818-1.404,7.547c0.467,2.112,1.116,4.188,1.354,6.349&#xD;
		c0.609,5.566-0.4,6.679-5.623,8.668c-11.267,4.291-20.452,10.912-24.21,23.159c-0.851,2.77-1.098,5.533-0.688,8.382&#xD;
		c0.521,3.623-0.737,6.473-3.606,8.757c-9.52,7.578-20.355,12.454-31.977,15.751c-3.459,0.981-6.901,0.653-10.391,0.076&#xD;
		c-7.118-1.179-13.685-0.313-18.498,5.826c-3.27,4.171-5.185,8.675-3.045,14.073c1.453,3.668,1.43,6.896-3.013,8.534&#xD;
		c-2.228,0.82-2.978,3.042-4.35,4.675c-6.887,2.687-6.723,9.722-8.994,15.115c-1.258,2.986,1.53,5.361,3.776,6.984&#xD;
		c3.587,2.591,5.524,6.135,6.953,10.085c2.77,7.659-2.214,13.89-10.201,12.79c-9.986-1.374-19.213,0.625-26.921,7.18&#xD;
		c-5.149,4.379-8.672,10.091-8.979,17.165c-0.332,7.655-1.516,14.649-8.369,19.764c-3.046,2.271-5.442,5.72-6.106,9.992&#xD;
		c-0.314,2.028-1.232,4.596-4.338,2.446c-2.625-4.2-5.311-8.233-6.388-13.338c-1.606-7.612-10.675-14.339-18.494-14.608&#xD;
		c-6.763-0.233-8.779-2.28-9.011-9.144c-0.011-0.333-0.008-0.666-0.014-0.998c-0.172-10.635-1.034-11.513-11.645-11.826&#xD;
		c-1.164-0.035-2.345,0.11-3.491-0.039c-6.034-0.785-11.101,0.883-15.1,5.606c-3.202,3.782-8.016,5.967-10.4,10.608&#xD;
		c-0.768,1.495-2.344,2.444-3.931,2.941c-7.328,2.294-13.333,6.552-19.165,11.488c-9.93,8.405-21.893,10.47-34.524,9.083&#xD;
		c-3.407-0.374-6.603-0.428-9.709,1.162c-1.525,0.781-3.248,1.229-4.83,0.526c-6.769-3.01-14.463-4.752-18.838-11.449&#xD;
		c-5.84-8.939-22.271-11.482-30.816-2.945c-1.363,1.362-2.738,3.115-5.143,2.019c-0.85-0.693-1.104-1.664-1.256-2.681&#xD;
		c-0.341-4.592-4.399-6.19-7.191-8.744c-2.594-2.373-5.92-3.562-9.215-4.637c-3.422-1.116-4.896-3.133-3.911-6.794&#xD;
		c0.476-1.768,0.336-3.644,0.207-5.477c-0.224-3.187-1.725-5.102-5.134-4.546c-4.312,0.703-5.083-1.385-4.923-5.151&#xD;
		c0.239-5.607-0.124-10.975-2.307-16.562c-1.593-4.075-2.313-9.736,1.525-14.127c1.738-1.989,2.477-4.674,4.113-6.77&#xD;
		c0.703-0.9,0.619-1.6,0.131-2.672c-2.858-6.281-5.762-12.553-8.078-19.059c-1.325-3.723-0.316-7.03,3.006-9.202&#xD;
		c5.279-3.452,10.068-7.526,15.056-11.35c0.535-0.41,1.05-0.967,1.722-0.908c6.677,0.589,13.292-0.931,19.917-0.668&#xD;
		c4.869,0.193,5.658,5.048,6.408,8.414c0.887,3.979,2.818,6.958,5.211,9.935c1.591,1.979,3.519,3.203,6.041,2.442&#xD;
		c2.457-0.741,4.511-1.895,4.319-5.202c-0.185-3.2,2.543-4.729,4.896-5.71c3.37-1.405,4.944-4.341,6.919-6.892&#xD;
		c1.327-1.715,1.102-3.438-1.313-4.84c-7.595-4.408-7.352-13.224,0.384-17.548c1.385-0.774,2.851-1.66,2.981-3.094&#xD;
		c0.181-1.996-2.136-1.576-3.228-2.395c-2-1.497-4.089-2.868-6.182-4.205c-1.711-1.093-2.716-2.273-2.659-4.382&#xD;
		c0.053-1.984-0.418-3.937-0.189-5.971c1.102-9.777,1.711-10.519,11.838-9.642c4.428,0.384,7.725-0.873,10.681-3.967&#xD;
		c0.969-1.014,1.68-1.908,1.81-3.365c0.243-2.72,1.721-4.586,4.37-5.442c0.585,0.309,1.169,0.617,1.754,0.927&#xD;
		c2.417,0.563,4.831,0.846,7.229-0.092c0.994,0.004,1.988,0.009,2.981,0.013c2.462,0.251,3.795,1.608,3.996,4.076&#xD;
		c2.083,4.227,5.374,2.575,7.927,1.111c4.656-2.67,5.553-2.379,6.831,2.808c0.417,1.693-1.447,4.626,2.138,5.025&#xD;
		c1.242,1.602,0.732,3.509,0.527,5.167c-0.282,2.288,1.116,3.101,2.537,4.102c-0.26,1.515,0.428,2.036,1.861,1.778&#xD;
		c2.711,1.399,5.898,2.33,6.119,6.19c1.2,5.76,3.283,10.943,8.975,13.775c4.584,1.422,6.893,5.152,9.111,8.975&#xD;
		c1.293,2.337,2.585,4.673,3.878,7.01c0.193,3.481,2.937,7.475-1.993,9.928c-2.122-0.55-2.77,2.411-4.824,2.024&#xD;
		c-2.094-0.866-4.199-0.666-6.308-0.066c-1.067,0.188-1.014,0.92-0.831,1.715c-5.478,2.396-5.808,2.961-4.956,8.482&#xD;
		c1.81,1.646-0.305,5.912,3.956,5.921c2.452,2.59,5.606,3.703,9.014,4.286c0.038,0.555,0.329,0.811,0.887,0.748&#xD;
		c1.887,1.242,4.322-0.49,6.139,1.132c-0.205,1.596,0.598,2.057,2.033,1.807c4.381,0.841,8.765,0.778,13.151,0.045&#xD;
		c1.196-1.047,1.993-2.325,3.51-3.284c2.896-1.833,5.216-4.555,3.614-8.919c-0.903-2.461,2.036-3.898,3.439-5.556&#xD;
		c0.588-0.694,1.533-0.971,1.353-2.134c1.271-1.863-0.522-4.326,1.195-6.103c0.268-0.27,0.536-0.539,0.805-0.81&#xD;
		c3.347-0.9,4.748-3.626,6.046-6.45c2.103-0.207,2.765-1.545,2.387-3.385c-0.613-2.99,1.088-3.959,3.541-4.398&#xD;
		c1.175-0.243,0.933-1.186,0.979-1.986c0.796-1.682,0.804-3.362-0.002-5.044c0.333-2.068-3.068-2.634-2.012-4.994&#xD;
		c0.324-2.384,2.156-3.95,3.216-5.936c2.876-2.256,2.911-3.882,0.134-6.127c-1.269-2.302-1.462-4.588,0.104-6.847&#xD;
		c1.532,0.359,1.965-0.335,1.66-1.734c0.561-1.854,0.703-3.704-0.038-5.548c1.005-2.75-3.098-1.248-3.069-4.017&#xD;
		c0.043-4.266,1.13-6.681,5.67-6.687c2.837,0.613,5.672,0.766,8.502-0.034c4.426-2.704,5.312-6.012,2.973-11.088&#xD;
		c-1.023-4.313-1.012-8.627-0.008-12.94c0.468-4.647,4.013-7.72,5.948-11.615c1.241-1.271,3.812-0.931,4.084-3.373&#xD;
		c1.528,0.133,2.377-1.673,1.738-1.855c-2.419-0.691-2.18-4.113-4.828-4.215c-4.209-1.554-6.466-4.233-5.596-9.023&#xD;
		c0.772-4.246-1.818-6.103-5.47-7.021c-0.478-2.038-2.896-3.417-2.014-5.918c1.908-3.377-0.436-4.35-2.952-5.225&#xD;
		c-0.312-1.029-1.136-0.881-1.915-0.832C650.328,483.16,649.709,481.522,651.24,479.054z" transform="matrix(1,0,0,1,-2,-112)" xmlns="http://www.w3.org/2000/svg" />
<path id="0755-pingshanxinqu" fill-rule="evenodd" clip-rule="evenodd" fill="#D3D3D3" stroke="#FFFFFF" stroke-miterlimit="10" d="M989.041,633.184&#xD;
		c-0.142,1.158-0.838,2.045-1.949,1.758c-7.124-1.842-13.122,2.637-18.676,5.056c-5.457,2.376-11.256,5.456-16.467,9.089&#xD;
		c-8.88,6.19-18.872,10.55-28.401,15.669c-1.94,1.043-4.053,1.326-5.29,3.901c-1.336,2.779-8.696,2.054-10.896-1.35&#xD;
		c-2.02-3.126-5.132-2.114-7.617-3.213c-1.183-0.523-3.025,0.558-3.591,2.045c-0.518,1.36-0.1,2.573,0.928,4.008&#xD;
		c1.665,2.325,2.726,4.699,1.957,8.374c-0.817,3.912-4.181,4.388-5.578,4.685c-4.272,0.908-5.142,3.272-5.735,6.896&#xD;
		c-0.345,2.107,0.711,5.481-2.98,5.95c-3.84,0.487-7.518-0.274-9.106-4.176c-0.923-2.266-2.103-2.723-4.247-3.191&#xD;
		c-3.025-0.662-6.162-1.136-9.155-1.737c-2.124-0.426-6.609-2.109-7.508,0.856c-0.92,3.037-4.583,3.996-4.33,7.333&#xD;
		c-1.739,0.835-2.743-0.7-4.043-1.262c-4.036-1.742-7.92-2.411-11.682,0.809c-2.572,2.201-6.096,2.838-8.979,2.014&#xD;
		c-5.145-1.473-10.557-2.737-14.946-6.081c-5.383-4.099-8.753-3.932-13.5,0.899c-2.355,2.396-3.699,5.492-5.981,7.974&#xD;
		c-2.337,2.541-4.974,3.137-7.591,1.562c-6.718-4.044-10.176-7.537-6.563-15.749c2.788-6.337,1.707-12.469-2.981-17.037&#xD;
		c-1.554-1.515-3.58-1.647-5.553-1.925c-1.855-0.261-3.933-0.501-4.473-2.582c-1.318-5.07-5.629-7.081-9.248-9.983&#xD;
		c-2.641-2.117-4.979-4.193-8.605-3.685c0.683-2.269,1.58-4.247,4.016-5.334c3.842-1.715,4.692-5.466,1.661-8.696&#xD;
		c-1.773-1.89-1.904-2.811,0.194-4.18c0.458-0.299,0.74-1.025,0.895-1.609c3.019-11.43,10.141-16.215,22.511-13.87&#xD;
		c10.257,1.944,18.349-3.291,27.158-6.471c5.241-1.892,8.942-6.164,13.855-8.491c3.409-1.614,4.169-4.328,3.835-7.79&#xD;
		c-0.897-9.296,2.694-16.523,9.321-23.1c5.554-5.51,11.66-9.13,19.175-10.667c1.827-0.373,2.251-1.628,2.387-3.277&#xD;
		c0.267-3.238-0.822-6.219-1.562-9.27c-0.758-3.128-1.606-6.558,1.252-8.836c4.479-3.566,2.011-7.27,0.105-10.239&#xD;
		c-2.705-4.215-2.306-8.35-0.81-12.354c0.963-2.578,0.421-3.875-1.225-5.616c-4.371-4.625-3.959-9.254,1.619-11.864&#xD;
		c3.236-1.514,4.548-3.758,5.096-6.668c1.355-7.197,3.404-13.654,11.937-15.173c0.448-0.079,0.74-1.031,1.104-1.575&#xD;
		c0.402,1.326,0.805,2.65,1.208,3.975c-0.001,0.212-0.001,0.423-0.001,0.635c0.039,1.259-0.103,2.527,0.19,3.773&#xD;
		c0.218,0.584,0.405,1.183,0.788,1.69c2.672,3.809,6.743,4.261,8.93,0.992c5.972-8.927,6.264-9.036,16.145-6.078&#xD;
		c0.037,2.629,2.515,2.246,3.925,3.181c7.172,5.809,15.161,7.607,24.066,4.897c1.259-2.572-0.227-5.443,0.878-8.032&#xD;
		c2.034-3.12,0.925-6.601,1.139-9.93c1.095-1.556-0.134-3.517,0.889-5.085c0.664-0.707,1.953-1.47,1.896-2.114&#xD;
		c-0.549-6.223,4.187-6.022,8.081-6.88c1.888,1.187,4.157-0.189,6.059,0.902c4.503,4.117,9.097,8.1,15.041,10.063&#xD;
		c0.384,1.607,1.359,2.621,2.99,2.976c3.051,2.244,1.264,7.116,4.91,9.036c0.931,10.325,0.965,20.649-0.026,30.974&#xD;
		c-3.937,0.149-2.538,4.609-4.884,6.045c-1.625,0.356-2.62,1.343-2.97,2.973c-1.007,0.344-1.681,1.021-2.03,2.023&#xD;
		c-1.632,0.354-2.605,1.37-2.992,2.976c-2.983,0.674-4.82,3.029-7.053,4.806c-1.215,0.791-2.756,1.29-2.801,3.129&#xD;
		c-0.133,0.259-0.207,0.534-0.223,0.824c-0.847,0.925-1.79,1.709-3.017,2.082c-1.29,0.11-2.022,0.732-1.936,2.107&#xD;
		c-0.803,1.711-0.755,3.425-0.015,5.141c2.134,6.443,8.113,9.873,11.84,15.071c0.769,1.071,2.073,0.809,3.214,0.836&#xD;
		c0.245,2.412,4.194-0.037,3.955,3.013c5.884,4.738,11.363,10.12,19.053,11.988c0.073,2.608,2.479,2.282,3.946,3.137&#xD;
		c5.614,3.287,10.804,7.038,14.073,12.886c0.698,1.639,0.619,3.286,0.051,4.938c-1.928,1.535-2.533,4.007-3.017,6.024&#xD;
		c-1.523,6.361-7.571,7.722-11.537,11.318c-5.913,5.362-6.564,11.384-1.566,17.751c3.226,0.111,1.513,4.243,4.021,4.938&#xD;
		C984.396,634.154,986.8,634.374,989.041,633.184z" transform="matrix(1,0,0,1,-2,-112)" xmlns="http://www.w3.org/2000/svg" />
<path id="0755-dapengxinqu" fill-rule="evenodd" clip-rule="evenodd" fill="#D3D3D3" stroke="#FFFFFF" stroke-miterlimit="10" d="M1051.254,882.044&#xD;
		c4.906-3.079,4.865-6.99-0.116-11.096c-5.707-1.661-6.796-3.949-4.702-9.876c0.421-2.011,3.744-1.153,3.641-3.683&#xD;
		c1.867-1.628,6.009-1.196,4.956-5.471c-4.508-3.446-0.559-5.754,1.458-7.719c0.848-0.826,1.478-2.039,2.61-2.626&#xD;
		c2.562-4.141,1.966-13.51-1.017-16.004c-4.136-0.329-6.143-4.319-9.7-5.643c-2.077-2.11,0.021-4.965-1.287-7.213&#xD;
		c0.089-1.344,0.507-2.765-0.881-3.764c-1.003-0.841-0.897-3.529-3.325-1.994c-0.304,0.306-0.606,0.612-0.91,0.919&#xD;
		c-1.662,0.895-3.314,1.051-4.947-0.071c-0.274-0.282-0.55-0.564-0.824-0.847c-1.137-1.116-0.25-3.97-3.103-3.614&#xD;
		c-0.652-3.078-3.153-4.959-4.792-7.397c-1.53-2.544-0.735-5.229-0.479-7.882c0.754-0.795,1.652-1.527,1.242-2.833&#xD;
		c1.402-9.927,1.402-9.929-8.42-9.743c-0.986,0.019-2.005-0.142-2.913,0.426c-4.177,0.004-8.354,0.008-12.531,0.012&#xD;
		c-2.265-1.234-4.971,0.466-7.188-1.083c-0.998-1.826-1.387-4.12-3.757-4.893c-1.877-3.549,0.2-7.526-1.209-11.125&#xD;
		c-0.225-0.299-0.449-0.599-0.675-0.898c-2.101-2.063,0.088-4.922-1.318-7.114c-3.795-1.902-3.819-5.872-4.899-9.201&#xD;
		c-0.393-1.207,0.086-2.733-1.929-2.66c-1.221-2.35-3.806-3.451-5.178-5.662c-1.114-0.79-2.229-1.581-3.343-2.371&#xD;
		c-0.842-5.234-5.477-3.918-8.7-5.038c-0.019-0.8,0.063-1.655-1.019-1.88c-1.737-1.505-4.308,0.652-5.933-1.348&#xD;
		c-0.403-2.518-3.919-2.198-4.308-4.729c0.023-2.62-0.509-4.824-3.747-5.002c-0.171-0.533-0.342-1.066-0.513-1.599&#xD;
		c-0.17,0.533-0.341,1.065-0.512,1.599c-1.889,1.367-4.254-0.168-6.173,1.015c-1.606-0.75-3.704,0.97-5.066-1.008&#xD;
		c0.272-2.806-2.559-2.009-3.693-3.182c-0.423-3.183-2.928-1.771-4.566-1.926c-2.068-0.195-4.179,0.05-6.271,0.105&#xD;
		c-4.437-0.707-8.87-0.771-13.302,0.043c-3.611,1.836-6.992,4.01-9.957,6.794c-4.137,1.544-8.431,0.33-12.632,0.728&#xD;
		c-2.108,0.199-4.291-0.535-6.33,0.508c-1.073,0.234-0.987,1.093-1.016,1.889c-2.825,0.472-3.92,2.042-3.564,4.947&#xD;
		c0.162,1.329,0.641,2.919-0.605,4.134c-1.774-0.289-2.528,1.355-3.806,2.009c-2.052,0.945-3.683,3.262-6.423,1.974&#xD;
		c-1.938-3.878-5.53-3.82-9.013-3.545c-4.758,0.377-8.353-1.311-11.013-5.222c-1.096-1.61-1.916-3.459-0.701-5.066&#xD;
		c5.075-6.717,3.783-14.029,2.346-21.396c0.237-3.701,3.549-5.91,4.542-9.299c0.369-1.263,1.921-0.939,3.087-0.976&#xD;
		c5.382-0.166,10.513,1.31,15.718,2.313c1.756,0.339,3.003,1.299,3.843,2.872c0.812,1.521,2.09,2.577,3.633,3.294&#xD;
		c3.353,1.558,5.693,0.682,6.257-2.916c0.76-4.847,2.555-8.223,7.658-9.847c3.904-1.242,4.838-4.452,3.179-8.521&#xD;
		c-1.152-2.825-3.864-5.468-0.479-8.438c2.07-1.816,7.82-1.215,10.818,0.978c5.952,4.354,5.752,4.012,12.188,0.228&#xD;
		c4.843-2.848,9.796-5.68,14.879-8.011c11.434-5.245,21.154-13.521,32.666-18.349c5.373-2.254,10.727-6.185,17.354-4.599&#xD;
		c1.514,0.362,3.38,0.489,4.496-1.269c4.465-1.946,7.136-6.604,12.003-7.941c2.794-1.893,6.146,0.294,8.99-1.23&#xD;
		c3.825-3.183,8.021-4.772,12.993-3.021c1.751,1.457,4.25-0.542,5.92,1.283c-0.111,1.358,0.521,2.45,1.803,2.553&#xD;
		c3.858,0.31,6.733,2.811,10.085,4.233c1.802,0.746,3.608,0.647,5.418,0.029c0.943-0.237,0.991-0.912,0.825-1.691&#xD;
		c3.441-2.982,7.575-2.899,11.805-2.938c6.756-0.062,13.533,0.605,20.271-0.405c1.356,0.198,2.085-0.286,1.905-1.756&#xD;
		c1.589-1.364,3.249-0.973,4.925-0.198c0.087,2.791,2.052,2.11,3.706,2.005c0.299,0.141,0.607,0.243,0.919,0.332&#xD;
		c1.51,0.435,3.63-0.806,4.531,0.926c1.256,2.415-2.367,1.645-2.581,3.289c-0.064,0.499-0.287,0.931-0.545,1.35&#xD;
		c-2.748,0.755-4.834,2.314-6.028,4.958c-0.711,1.47-0.578,3.171-2.836,3.999c-1.962,0.719-3.99,2.398-4.387,4.995&#xD;
		c-0.273,0.296-0.548,0.592-0.821,0.887c-0.063,3.188-3.572,4.295-4.281,7.093c-0.246,0.281-0.493,0.563-0.739,0.846&#xD;
		c-0.699,1.832-0.63,3.667-0.021,5.504c0.598,2.199,1.412,4.217,3.989,4.756c3.452,0.831,6.909,0.686,10.369,0.047&#xD;
		c2.354-1.379,4.325-2.936,2.847-6.104c-0.851-4.905,0.072-5.479,5.83-3.626c2.386,2.693,3.834,2.646,6.096-0.197&#xD;
		c1.844-1.641,4.06-2.669,5.885-4.533c2.315-2.364,5.951-1.367,9.062-0.479c-0.018,0.79-0.073,1.599,0.928,1.889&#xD;
		c1.846,1.306,4.274-0.461,6.063,1.148c2.064,1.793,4.494,0.826,6.786,0.898c5.505,0.7,11.01,0.69,16.515,0.008&#xD;
		c1.343,0.117,2.752,0.548,3.787-0.797c2.893-1.872,6.28,0.092,9.249-1.192c3.149-0.006,6.3-0.012,9.449-0.019&#xD;
		c2.59,0.913,5.266,0.36,7.896,0.402c5.221,0.082,5.222,0.008,4.427-5.711c0.005-0.504,0.009-1.009,0.014-1.513&#xD;
		c0.765-1.713,0.014-5.29,3.896-3.169c-0.165,1.395,0.415,2.078,1.854,1.943c0.976,0.376,0.45,3.202,2.529,1.673&#xD;
		c2.799-2.059,5.678-1.324,8.606-0.56c0.378,0.981,1.216,0.876,2.018,0.854c3.724-0.185,5.912,2.933,8.976,4.17&#xD;
		c0.438,2.371,2.196,4.596-2.075,6.083c-2.625,0.914-4.671,4.187-4.662,7.881c0.01,3.653-1.552,6.324-5.396,7.571&#xD;
		c-5,1.622-6.697,5.566-6.63,10.571c0.062,4.663-0.114,9.329-0.061,13.992c0.041,3.56-1.838,5.47-5.098,6.021&#xD;
		c-6.124,1.034-11.617,2.76-14.325,9.229c-0.632,1.512-2.965,2.173-4.343,2.81c-9.361,4.325-16.127,11.667-23.232,18.688&#xD;
		c-1.004,0.993-2.619,1.993-3.917,1.95c-4.611-0.152-7.276,3.142-9.532,5.951c-2,2.491-3.914,3.063-6.629,3.03&#xD;
		c-5.664-0.068-11.336,0.083-16.99-0.176c-2.993-0.138-5.846-0.207-8.721-2.401c-4.111-3.138-7.849-0.128-10.267,3.256&#xD;
		c-4.076,5.703-7.03,11.64-5.776,19.374c2.22,13.688,1.826,13.713-11.976,13.81c-2.012,0.014-4.719-1.114-5.804,1.487&#xD;
		c-0.979,2.35,0.16,4.513,1.331,6.873c4.472,9.012,12.278,15.025,18.604,22.377c2.3,2.673,4.327,4.901,7.432,5.255&#xD;
		c4.598,0.523,9.324,0.437,13.943,0.024c2.379-0.213,3.058-6.572,0.685-8.389c-2.275-1.742-0.969-2.582-0.483-4.589&#xD;
		c1.619-6.701,9.212-8.598,11.073-15.063c0.643-2.234-1.033-5.974,2.527-6.72c2.46-0.515,3.906,2.436,5.978,3.569&#xD;
		c2.655,1.453,4.098,1.462,5.829-0.629c2.472-2.985,6.534-3.811,9-6.94c1.704-2.163,3.177-1.814,4.553,1.117&#xD;
		c1.633,3.483,3.503,6.13,0.126,9.91c-2.347,2.627,2.459,8.29,5.62,8.517c7.164,0.512,11.452,5.136,15.293,10.202&#xD;
		c2.106,2.779,5.396,4.338,7.038,7.648c0.393,0.792,3.12,1.309,5.363,0.532c6.655-2.301,12.881-0.503,18.502,3.484&#xD;
		c2.296,1.629,15.606,1.956,17.832,0.312c3.572-2.641,10.958-3.677,12.72-1.163c2.579,3.677,2.832,8.001,0.233,12.01&#xD;
		c-0.709,1.093-0.704,2.165-0.743,3.314c-2.658,1.297-4.541,2.499-0.577,4.812c1.321,0.771,1.849,2.798,3.536,3.472&#xD;
		c4.186,2.643,8.579,5.005,11.892,8.823c2.629,0.161,3.991,1.55,4.066,4.189c1.841,1.566-0.16,5.771,3.963,5.771&#xD;
		c0.912,2.323,0.978,4.642-0.034,6.954c-0.324,0.037-0.896-0.01-0.938,0.121c-2.081,6.224-7.699,6.641-12.828,7.852&#xD;
		c-1.026,0.242-1.157,0.999-1.141,1.863c-0.943,2.583-0.244,5.26-0.436,7.886c-0.114,1.564-0.042,3.2-2.434,2.478&#xD;
		c-2.267-2.045-4.65-1.781-7.094-0.364c-1.845,1.586-4.273-0.078-6.189,1.113c-1.333-0.201-2.041,0.271-1.849,1.716&#xD;
		c-3.137,1.073-6.78,1.25-8.048,5.344c-0.315,1.019-2.163,0.188-3.093,0.947c-0.854-0.002-1.709-0.003-2.563-0.005&#xD;
		c-2.619-1.246-5.621,0.473-8.204-1.056c-2.429-3.834-4.698-2.313-6.938,0.206c-0.848,0.615-0.837,1.239-0.02,1.872&#xD;
		c0.958,0.58,1.03,1.872,2.285,2.373c1.87,0.746,1.766,2.665,1.397,4.237c-0.429,1.828-1.993,2.319-3.748,2.3&#xD;
		c-1.662-0.018-3.797-0.926-4.022,1.988c-3.135,1.43-6.438,0.505-9.647,0.56c-2.177,0.037-3.709,0.545-4.642,2.528&#xD;
		c-1.476-0.158-1.943,0.586-1.734,1.937c-0.57,1.713-0.456,3.947-3.106,4.074c-2.49,0.737-4.982,2.404-7.464-0.019&#xD;
		c-1.276-2.677-3.497-4.599-5.412-6.765l-0.148-0.128c-3.586-2.516-7.179-2.404-10.775-0.023c-1.21,1.146-4.057-0.15-4.097,2.743&#xD;
		c-2.386,0.935-2.99,4.572-6.277,4.137c-0.252,0.222-0.503,0.444-0.755,0.666c-4.994,2.818-8.446,7.304-12.291,11.364&#xD;
		c-1.874,2.581-0.423,4.519,1.604,5.748c1.756,1.064,2.851,2.13,2.726,4.213c-0.148,2.583-2.352,2.495-4.025,3.096&#xD;
		c-1.023,0.271-0.961,1.092-0.956,1.884c-3.396,0.887-5.073,3.879-7.419,6.053c-2.009,4.536-4.704,8.566-8.625,11.692&#xD;
		c-4.563,1.92-9.336,0.722-13.997,0.815c-10.416,0.21-10.419,0.065-10.419-10.156c0-5.459-0.161-10.925,0.056-16.376&#xD;
		c0.149-3.75-0.911-5.405-4.799-3.965c-2.525,0.004-5.051,0.007-7.576,0.01c-2.457-0.8-6.295,0.383-6.092-4.239&#xD;
		c-0.005-1.478-0.01-2.954-0.016-4.431c1.321-3.648-0.621-7.621,1.117-11.227c0.956-0.385,0.874-1.191,0.811-1.99&#xD;
		c1.343-4.401,0.354-7.855-4.033-9.93l-0.101-0.097c-0.094-1.824-1.56-2.438-2.837-3.22c-1.896-0.935-3.377-2.138-2.962-4.569&#xD;
		C1051.317,886.327,1049.533,883.854,1051.254,882.044z" transform="matrix(1,0,0,1,-2,-112)" xmlns="http://www.w3.org/2000/svg" />
<path id="0755-yantianqu" fill-rule="evenodd" clip-rule="evenodd" fill="#D3D3D3" stroke="#FFFFFF" stroke-miterlimit="10" d="M648.904,798.619&#xD;
		c1.489-4.466,6.154-5.605,9.136-8.523c3.068-3.002,4.354-7.129,7.591-10.028c1.869-1.676,0.037-4.121-1.742-5.45&#xD;
		c-3.396-2.538-5.319-5.748-3.354-9.711c1.728-3.482,4.442-6.413,9.107-5.707c0.323,0.049,0.663-0.016,0.992,0.009&#xD;
		c6.033,0.452,11.369-0.372,13.4-7.282c3.718,2.034,2.601-1.604,2.576-2.608c-0.136-5.588,3.664-8.649,7.335-11.597&#xD;
		c5.458-4.382,6.859-10.346,7.177-16.745c0.505-10.167,5.807-16.384,14.114-22.199c7.923-5.546,15.82-4.314,23.879-4.024&#xD;
		c4.36,0.157,7.057-1.715,8.647-4.632c1.205-2.208-0.346-5.286-0.928-7.967c-1.25-5.76-6.121-7.254-9.157-10.625&#xD;
		c-1.427-1.583-2.392-3.136-1.818-4.399c2.757-6.079,1.757-14.555,10.393-17.039c5.963-5.648,7.584,2.384,11.171,3.842&#xD;
		c3.996,1.624,7.996,4.266,7.623,9.968c-0.103,1.563,2.098,1.456,3.3,1.346c4.396-0.403,6.816,1.433,9.018,5.371&#xD;
		c1.917,3.431,3.418,6.532,2.924,10.446c-0.181,1.434-0.337,2.604-1.501,3.926c-3.232,3.668-2.174,9.165,2.174,11.756&#xD;
		c1.383,0.823,1.205,2.311,2.708,3.179c6.391,3.689,6.606-3.149,9.467-5.265c1.473-1.09,2.205-3.012,3.631-4.427&#xD;
		c5.424-5.385,9.258-4.545,15.557-0.279c4.146,2.808,9.599,5.313,14.901,5.754c1.823,0.151,5.489,0.044,7.489-3.378&#xD;
		c1.535-2.628,10.751-0.943,13.517,1.604c0.59,0.543,1.438,0.809,2.167,1.204c-0.454,3.892,2.019,7.222,2.004,11.116&#xD;
		c-0.014,3.529-1.151,6.673-3.15,9.11c-1.491,1.818-2.514,3.674-1.265,5.133c1.738,2.029,2.663,5.37,6.276,5.329&#xD;
		c2.991-0.035,5.985-0.041,8.976,0.037c3.218,0.085,5.328,1.43,5.228,5.022c-2.696,1.532-5.818-0.274-8.535,1.091&#xD;
		c-5.128,2.896-9.178,1.382-12.51-3.062c-2.8-3.054-5.228-6.094-10.375-5.632c-3.85,0.346-5.647,2.156-7.213,5.032&#xD;
		c0.271,2.877-0.772,3.995-3.882,3.722c-5.384-0.474-10.824-0.767-15.929,1.799c-0.93,0.468-1.161,1.01-1.087,1.892&#xD;
		c-2.419,1.734-5.379,2.919-6.28,6.192c-1.281,1.086-1.214,2.131,0.098,3.137c1.774,1.68-0.191,4.158,1.262,5.906&#xD;
		c-0.192,1.442,0.322,2.235,1.891,2.059c1.336,3.058,0.686,4.58-3,4.506c-7.239-0.144-14.483-0.035-21.726-0.044&#xD;
		c-0.817-0.001-1.663,0.088-2.102-0.845c0.266-1.554-0.469-2.004-1.881-1.705c-1.861-1.299-4.392,0.616-6.129-1.275&#xD;
		c0.182-0.787,0.22-1.508-0.794-1.753c-1.988-0.955-4.204,0.06-6.213-0.715c-4.995-4.121-9.312,0.05-13.877,1.15&#xD;
		c-0.022,0.006-0.028,0.261,0.027,0.362c0.075,0.139,0.217,0.241,0.33,0.359c1.525,2.288,1.52,4.578,0.005,6.869&#xD;
		c-1.21,1.209-2.421,2.419-3.631,3.629c-2.085,3.067-6.038,4.358-7.578,7.938c-0.678,1.578-2.478,0.493-3.385,1.486&#xD;
		c-1.444-0.172-2.155,0.412-1.975,1.916c-3.263,1.239-5.183,4.228-7.951,6.11c-0.805,0.013-1.716-0.221-2.05,0.884&#xD;
		c-1.694,0.681-3.459,0.904-4.197,3.247c-0.779,2.473-3.75,3.49-5.021,5.805c-0.997,1.582-2.15,3.016-3.778,4.002&#xD;
		c-0.266,2.425-2.132,4-3.187,6.005c-2.381-0.122-2.665,1.978-2.643,3.299c0.032,1.925-1.531,2.283-2.268,3.402&#xD;
		c-1.122,4.547-1.868,4.858-6.813,2.841c-5.29-6.52-10.772-12.513-20.355-11.93c-7.228,0.439-14.486,0.352-21.73,0.498&#xD;
		C652.241,799.479,650.476,800.16,648.904,798.619z" transform="matrix(1,0,0,1,-2,-112)" xmlns="http://www.w3.org/2000/svg" />
<path id="0755-luohuqu" fill-rule="evenodd" clip-rule="evenodd" fill="#D3D3D3" stroke="#FFFFFF" stroke-miterlimit="10" d="M522.855,830.807&#xD;
		c2.229-10.758,0.667-21.789,2.239-32.54c0.735-5.031,2.44-9.872,2.185-15.129c-0.16-3.272-0.8-3.918-4.323-3.724&#xD;
		c-4.539,0.25-9.13,2.741-13.813,0.1c-2.658-1.5-4.655-3.863-7.103-5.579c-2.257-1.582-4.078-2.05-6.382-2.127&#xD;
		c-5.809-0.193-10.124-4.402-10.5-10.187c-0.345-5.314-5.104-7.47-8.164-10.771c-1.556-1.678-3.87-2.652-5.841-3.945&#xD;
		c3.757-4.182,6.639-8.918,8.899-14.047c0.788-0.521,1.154-1.567,2.2-1.766c3.317-1.767,5.854-4.564,9.296-6.334&#xD;
		c4.668-2.4,13.95-2.058,18.886-0.054c5.656,2.296,8.258,7.225,12.399,10.758c2.677,2.283,6.244,3.591,9.532,5.068&#xD;
		c2.503,1.125,7.899,0.878,11.201,0.259c5.943-1.113,11.919,0.542,17.881,0c8.544-0.776,16.559-2.872,23.337-8.599&#xD;
		c3.275-2.768,6.643-5.384,9.494-8.625c1.195-1.358,3.18-0.603,4.747-1.092c3.99-1.243,7.482-2.728,10.071-6.635&#xD;
		c2.346-3.54,6.453-5.857,9.297-9.136c8.093-9.332,18.471-4.797,28.033-4.79c3,0.002,4.862,2.355,4.802,5.702&#xD;
		c-0.057,3.16,0.067,6.325-0.042,9.482c-0.138,3.966,1.633,6.198,5.62,5.611c11.567-1.703,17.17,6.362,20.961,14.537&#xD;
		c2.181,4.7,5.301,9.334,6.265,14.679c-0.914,6.752-2.341,7.974-9.833,8.333c-3.57,0.172-7.212-0.539-10.171,2.648&#xD;
		c-2.887,3.109-3.358,5.79-0.772,9.186c4.951,6.499,4.513,6.223,0.456,12.645c-3.771,5.969-9.603,9.516-14.354,14.306&#xD;
		c-0.467,0.374-0.91,0.349-1.332-0.072l-0.022-0.003c-3.238-1.203-6.675,0.128-9.937-0.78c-1.159-1.771-2.681-2.756-4.888-2.254&#xD;
		c-2.912-1.412-6.285,0.691-9.134-1.196c-0.42-0.848-1.175-0.842-1.957-0.771c-2.552-1.379-5.547,0.5-8.07-1.096&#xD;
		c-1.456-3.506-4.468-1.557-6.814-1.945c-3.396-0.67-6.789-0.829-10.173,0.086c-2.36,1.251-4.72,2.502-7.08,3.753&#xD;
		c-3.987,2.142-6.987,5.271-9.208,9.184c-1.388-0.107-1.909,0.603-1.799,1.907c-0.973,2.356-0.481,4.832-0.387,7.223&#xD;
		c0.086,2.171-0.643,3.354-2.651,3.888c-1.317-0.079-2.026,0.475-1.937,1.86c-3.604,1.263-7.263,0.687-10.915,0.325&#xD;
		c-2.719-3.312-5.425-3.182-8.12,0.031c-1.575,0.78-3.922-0.527-4.917,1.82c-1.75,0.294-3.79,0.143-4.095,2.661&#xD;
		c-0.913,1.479-3.373,0.316-3.975,2.326c-2.978,0.723-5.268,2.411-6.958,4.944C530.936,831.935,526.892,831.691,522.855,830.807z" transform="matrix(1,0,0,1,-2,-112)" xmlns="http://www.w3.org/2000/svg" />
<path id="0755-futianqu" fill-rule="evenodd" clip-rule="evenodd" fill="#D3D3D3" stroke="#FFFFFF" stroke-miterlimit="10" d="M364.229,850.292&#xD;
		c-0.809-5.374,1.005-10.87-1.98-16.276c-1.606-2.91,1.452-6.474,3.413-8.921c1.292-1.613,1.951-3.229,1.912-4.79&#xD;
		c-0.174-6.982,2.066-13.852,1.38-20.726c-0.516-5.167,2.207-7.62,5.858-9.128c4.075-1.684,5.591-3.98,5.491-8.359&#xD;
		c-0.113-4.91-0.211-9.894,1.287-14.748c1.913-6.195,6.708-8.855,12.397-9.952c3.098-0.597,6.345-0.319,9.07-2.321&#xD;
		c2.035,1.479,4.534,0.639,6.723,1.346c2.95,0.379,5.162-1.351,7.444-2.726c8.481-5.11,17.837-3.72,26.818-2.991&#xD;
		c7.278,0.59,13.904-2.596,21.054-2.104c1.93,0.133,2.847-5.05,6.059-1.689c8.016,2.685,14.14,7.036,15.442,16.247&#xD;
		c0.662,4.684,4.797,6.475,8.615,7.115c3.795,0.637,7.271,1.661,9.878,4.225c4.413,4.338,9.465,4.747,15.187,4.099&#xD;
		c7.657-0.867,7.942-0.238,8.195,7.621c0.205,6.384-2.282,12.326-2.359,18.734c-0.072,5.947-0.556,11.942-0.789,17.925&#xD;
		c-0.119,3.055,0.144,6.421-2.882,8.583c-4.779-0.533-9.717,1.266-14.368-1.013c-0.235-1.049-0.886-0.896-1.603-0.556&#xD;
		c-4.537-0.601-9.07-0.741-13.6,0.069c-0.617-0.136-0.917,0.135-0.954,0.744c-2.112,1.886-4.898-0.113-7.104,1.233&#xD;
		c-0.625,2.127-3.979,1.917-3.945,4.607c-0.547,1.955-0.596,3.91,0.008,5.864c3.08,1.187,1.497,5.061,3.843,6.67&#xD;
		c1.163,2.284,1.197,4.566-0.018,6.845c-1.073,1.463-3.82,1.3-3.756,3.867c-2.297,1.06-4.592,1.087-6.884-0.015&#xD;
		c0.063-0.804,0.258-1.678-0.953-1.81c-2.134-1.482-5.003,0.795-7.003-1.37c0.017-0.595-0.257-0.829-0.842-0.679&#xD;
		c-1.817-0.625-3.631-0.712-5.442,0.024c-5.316,0.438-5.902,4.697-6.938,8.592c-1.123,1.983,0.635,4.545-1.28,6.368&#xD;
		c-0.16-0.025-0.422-0.124-0.463-0.065c-2.502,3.534-4.312,7.627-8.163,10.069c-2.652,0.889-5.295,1.084-7.918-0.112&#xD;
		c-0.043-0.617,0.087-1.752-0.597-1.609c-5.138,1.065-4.906-5.866-9.142-6.021c0.862-4.581-4.213-5.787-5.271-9.274&#xD;
		c-0.324-1.069-1.167-0.946-1.983-0.908c-1.766-1.437-4.331,0.669-5.966-1.345c-5.982-1.02-6.488-6.728-9.102-10.631&#xD;
		c-3.866-1.146-7.827-0.172-11.724-0.534c-1.746-0.163-3.617,0.641-5.232-0.622c-0.001-0.797,0.23-1.718-0.995-1.861&#xD;
		c-3.359-1.097-6.81-0.277-10.213-0.476c-2.729-0.16-3.028,4.358-6.262,3.366c-0.397,0.001-0.795,0.002-1.192,0.004&#xD;
		C366.393,850.336,365.231,850.737,364.229,850.292z" transform="matrix(1,0,0,1,-2,-112)" xmlns="http://www.w3.org/2000/svg" />
<path id="0755-longhuaxinqu" fill-rule="evenodd" clip-rule="evenodd" fill="#D3D3D3" stroke="#FFFFFF" stroke-miterlimit="10" d="M322.936,650.441&#xD;
		c4.979-3.145,8.75-7.499,12.165-12.197c1.683-2.314,0.104-8.805-0.976-11.271c-1.666-3.806-7.935-5.839-5.989-10.342&#xD;
		c3.129-7.246,2.371-15.306,6.571-22.494c2.824-4.833,5.275-10.112,8.263-14.991c1.001-1.634,3.734-2.193,2.971-4.932&#xD;
		c-0.219-0.783,0.02-2.072-0.434-2.354c-6.525-4.064-5.41-10.522-5.378-16.65c0.007-2.23,1.352-3.709,2.93-4.986&#xD;
		c5.583-4.52,10.068-10.2,15.438-14.874c4.977-4.331,10.303-8.329,15.549-12.378c1.585-1.224,3.304-2.37,4.576-3.848&#xD;
		c5.05-5.871,8.462-12.219,0.416-19.435c-1.483-1.33-3.059-2.584-4.312-4.157c-4.532-5.689-1.89-12.894,5.294-14.443&#xD;
		c0.721,0.25,1.5,0.405,1.887,1.185c5.137,1.81,10.327,3.158,15.825,1.816c1.826,0.281,3.868,1.532,5.037-1.125l0.195-0.174&#xD;
		c1.806-1.187,2.333-4.219,5.327-3.692c2.296,0.045,4.691,0.784,6.736-0.952c2.316-0.959,4.631-0.97,6.945,0.006&#xD;
		c4.563,2.193,8.296,1.335,11.079-3.015c1.002-0.974-0.333-3.463,1.958-3.448c2.278,0.015,0.945,2.482,1.932,3.473&#xD;
		c3.313,4.262,3.335,8.536,0.05,12.823c-0.639,2.767,2.799,0.561,2.923,2.396c-0.202,1.491,0.52,1.95,1.887,1.688&#xD;
		c2.607,1.273,5.603-0.469,8.177,1.055c2.282,2.305,4.564,4.61,6.846,6.915c0.775,3.536,4.273,1.745,6.143,3.141&#xD;
		c2.186,2.305,2.9,6.013,6.576,6.897c1.592,4.78,5.231,3.644,8.697,3.011c0.927-3.162,5.435-3.331,5.812-6.952&#xD;
		c0.174-2.593,1.556-3.95,4.156-4.06c6.718-0.638,12.286,2.074,17.438,5.993c2.026,1.59-0.176,4.171,1.376,5.872&#xD;
		c0.171,1.145,1.075,1.018,1.872,1.078c1.638,3.876-0.39,8.092,1.108,11.981c0.302,0.345,0.604,0.689,0.907,1.034&#xD;
		c2.627,1.483,6.58-1.178,8.194,1.573c1.386,2.361,0.287,5.784,0.383,8.736c0.021,0.667,0.09,1.307,0.432,1.892&#xD;
		c0.314,0.972,1.08,0.939,1.874,0.842c1.825,0.698,3.652,0.645,5.48,0.012c0.483,0.001,0.967,0.001,1.45,0.002&#xD;
		c2.283,1.219,5.026-0.536,7.24,1.123c-0.037,0.781-0.087,1.567,0.911,1.834c5.95,0.617,2.47,3.082,1.009,5.151&#xD;
		c-0.025,0.33,0.018,0.65,0.128,0.963c-1.614,2.369-3.731,4.319-3.233,7.823c0.313,2.206-8.02,6.95-10.725,6.543&#xD;
		c-0.489-0.073-0.951-0.32-1.44-0.393c-10.319-1.521-13.005,1.763-12.306,12.027c0.458,6.732,5.714,7.476,9.512,9.827&#xD;
		c1.549,0.958,2.962,1.58,3.766,3.234c-2.364,0.621-0.749,4.269-3.741,4.647c-5.433,0.687-5.562,5.422-5.854,9.216&#xD;
		c-0.273,3.545,2.218,5.784,5.942,6.074c1.154,0.089,2.43,0.656,1.777,1.609c-1.335,1.948,1.257,4.026-0.802,5.952&#xD;
		c-3.402,3.183-7.016,6.014-10.938,8.5c-1.001,0.636-1.594,1.578-1.115,2.964c1.723,4.978-3.179,5.195-5.411,6.185&#xD;
		c-2.715,1.202-4.77-1.819-7.129-3.494c-5.648-4.01-4.746-10.528-7.351-15.614c-0.976-1.904-2.242-2.305-3.955-2.206&#xD;
		c-6.274,0.358-12.519,1.663-18.833,0.519c-2.512-0.455-0.969,5.013-4.493,3.073c-1.367,3.579-6.165,3.242-7.616,6.628&#xD;
		c-0.496,1.159-1.314,1.059-2.193,1.452c-5.43,2.427-5.003,4.707-3.785,10.518c1.169,5.577,5.882,9.606,5.576,15.47&#xD;
		c-0.081,1.551,1.366,1.094,2.021,1.669c1.585,1.393,1.346,2.595,0.093,4.247c-3.453,4.556-7.261,8.749-7.094,15.352&#xD;
		c0.081,3.163,1.828,5.181,2.448,7.836c1.156,4.948,0.902,9.924,0.673,14.89c-0.092,2.002-0.375,3.082,2.377,2.8&#xD;
		c6.874-0.704,7.736,0.232,7.764,7.157c0.004,0.999,0.324,2.158-0.066,2.972c-2.753,5.734,2.393,6.614,5.336,7.499&#xD;
		c4.606,1.385,7.847,3.632,10.625,7.558c1.237,1.748,5.131,1.54,4.126,5.303c-0.982,1.773-0.354,3.764-0.744,5.619&#xD;
		c-2.999,5.071-4.522,11.247-10.489,14.129c-9.589,3.268-19.309,4.79-29.544,3.911c-8.714-0.748-17.563-0.633-25.389,4.494&#xD;
		c-1.542,1.011-3.317,1.481-5.197,1.421c-2.033-0.675-4.204-1.062-5.802-2.683c3.715-9.881,2.143-19.443-1.747-28.867&#xD;
		c-0.637-1.543-1.96-2.06-3.427-2.593c-7.624-2.774-13.015-7.499-14.359-16.044c-0.563-3.577-1.213-7.188-2.755-10.575&#xD;
		c-3.176-6.98-9.491-9.523-16.152-11.235c-6.194-1.593-7.393-2.393-8.539-8.438c-1.284-6.774-6.619-10.095-13.479-8.34&#xD;
		c-1.782,0.456-3.599,0.652-5.403,0.934c-8.632,1.348-13.842-2.312-15.063-10.9C323.479,656.059,322.938,653.271,322.936,650.441z" transform="matrix(1,0,0,1,-2,-112)" xmlns="http://www.w3.org/2000/svg" />
<path id="0755-nanshanqu" fill-rule="evenodd" clip-rule="evenodd" fill="#D3D3D3" stroke="#FFFFFF" stroke-miterlimit="10" d="M322.936,650.441&#xD;
		c1.579,1.399,2.629,3.095,2.182,5.256c-0.945,4.57,2.488,7.563,3.944,11.257c0.618,1.567,2.383,1.941,3.775,1.827&#xD;
		c4.29-0.351,8.681,0.286,12.712-2.334c3.583-2.328,13.383,3.653,13.646,8.023c0.139,2.313-0.027,4.658,1.167,6.805&#xD;
		c0.842,1.513,1.725,2.668,3.771,2.553c5.043-0.286,9.16,2.586,13.33,4.677c4.538,2.274,6.866,6.915,7.676,11.76&#xD;
		c1.362,8.147,3.028,15.858,10.739,20.72c1.018,0.642,1.969,1.326,2.992,1.222c5.094-0.522,4.865,3.249,6.6,6.509&#xD;
		c3.769,7.078,2.192,14.279,2.768,21.455c0.246,3.058-1.209,4.109-3.667,4.721c-0.4,0.763-1.06,1.24-1.784,1.651&#xD;
		c-2.114,1.565-4.616,1.646-7.097,1.97c-7.819,1.022-12.22,5.423-13.268,13.13c-0.224,1.647-0.819,3.321-0.673,4.925&#xD;
		c0.714,7.854-1.7,13.896-9.197,17.404c-1.646,0.77-2.171,2.512-2.085,4.255c0.282,5.675-1.302,11.219-1.086,16.89&#xD;
		c0.168,4.415-0.716,8.536-3.348,12.262c-1.993,2.82-2.482,5.802-1.345,9.399c1.351,4.273,1.101,8.852,0.113,13.301&#xD;
		c-0.679,1.056-1.471,1.786-2.793,0.959c-10.394-0.853-20.79,0.23-31.186-0.052c-4.112-0.112-8.229-0.074-12.344-0.105&#xD;
		c-4.221-0.818-8.488-0.156-12.724-0.419c-1.574-0.098-3.283,0.615-4.707-0.635c0.035-2.652-1.994-2.127-3.486-2.13&#xD;
		c-4.402-0.009-8.805,0.116-13.208,0.189c-3.093-1.224-4.906-0.175-5.472,3.084c-0.779,0.07-1.731-0.17-1.878,1.041&#xD;
		c-1.627,3.488,0.828,7.479-1.341,10.902c-1.067,0.345-0.896,1.142-0.709,1.944c-0.914,1.71-0.293,3.555-0.459,5.331&#xD;
		c-0.076,0.811,0.298,1.965-0.283,2.378c-5.44,3.858-1.88,9.158-2.328,13.8c2.767,0.877,1.284,4.775,4.029,5.667&#xD;
		c3.067-0.113,3.706,3.246,6.019,4.211c0.64,3.988,4.856,1.822,6.633,3.855c1.506,2.263,1.445,4.532,0.03,6.809&#xD;
		c-5.237-0.05-10.483-0.288-15.71-0.078c-3.047,0.123-5.208-0.014-4.911-3.901c0.079-1.023-1.076-0.972-1.889-0.959&#xD;
		c-2.72-0.785-5.44-0.791-8.16,0.004c-1.331,1.282-2.662,2.564-3.993,3.846c-0.011,3.173-3.642,4.237-4.149,7.121&#xD;
		c-0.28,0.302-0.561,0.604-0.841,0.904c0.194,3.128-3.208,3.773-4.197,6.084c-1.288,1.307-2.282,2.848-4.435,3.15&#xD;
		c-2.174,0.307-2.063,1.639-0.688,3.02c1.667,2.575,1.562,4.316-2.071,4.381c-1.319,0.023-2.638-0.003-3.944,0.015&#xD;
		c-1.247,0.307-2.439-1.253-3.732-0.133c-2.165-0.091-2.986,2.385-4.986,2.601c-8.69-0.142-8.89-0.4-8.773-9.533&#xD;
		c0.017-1.341,1.162-3.556-1.78-3.525c-0.848-1.313-1.966-2.359-3.232-3.26c-0.525-2.999-2.134-2.481-3.36-0.725&#xD;
		c-2.077,2.976-4.352,2.642-6.96,1.043c-0.607-1.763,0.097-3.686-0.662-5.43c0.336-0.727,0.454-1.376-0.573-1.62&#xD;
		c-2.316-1.535-0.033-4.238-1.521-5.984c0.23-1.455-0.311-2.187-1.855-1.976c-1.002-2.035-2.908-3.602-3.139-6.038&#xD;
		c0.181-1.458-0.42-2.143-1.919-1.941c-0.941-2.314-0.938-4.629-0.001-6.944c2.988-1.821,5.977-3.643,8.965-5.464&#xD;
		c1.894-2.501,4.895,0.032,6.994-1.539c4.08-3.081,8.549-5.507,13.139-7.715c0.93-0.446,1.133-1.019,0.913-1.905&#xD;
		c0.472-1.847,0.777-3.691-0.081-5.518c0.025-1.473,0.05-2.944,0.076-4.416c0.554-4.178,3.085-5.896,7.144-5.991&#xD;
		c2.231-0.052,4.537,0.578,6.699-0.493c2.793,0.308,1.824-3.52,4.125-3.753c0.726-4.563,0.651-9.129,0.038-13.696&#xD;
		c0.311-0.732,0.43-1.394-0.602-1.631c-1.218-3.589-4.711-4.537-7.421-6.395c0.314-0.766,0.385-1.432-0.667-1.643&#xD;
		c-3.239-0.686-6.081-2.57-9.371-3.102l0.148,0.083c-0.713-0.127-0.781-0.409-0.205-0.848c0.219-3.807,4.16-4.301,6.153-6.518&#xD;
		c5.232-5.823,12.366-9.485,18.938-13.657c6.829-4.334,14.141-9.604,11.164-17.871c-3.235-8.984,3.651-11.501,6.634-16.676&#xD;
		c2.229-3.864,6.529-6.131,7.268-11.321c0.549-3.858-0.196-6.425-3.5-7.569c-3.653-1.267-3.099-4.364-1.295-4.969&#xD;
		c7.646-2.564,2.575-7.23,1.127-9.618c-1.195-1.971-1.941-4.546-3.985-6.407c-1.496-1.363-1.961-4.745,2.082-5.981&#xD;
		c3.234-0.989,5.461-4.126,7.264-6.728c1.832-2.645,1.93-6.203-2.144-8.284c-3.322-1.696-3.202-4.376,0.242-5.846&#xD;
		c2.245-0.958,2.992-2.269,2.892-4.534c-0.199-4.474,0.243-8.952-0.626-13.428c-0.729-3.753,0.337-7.165,3.15-9.948&#xD;
		c2.567-2.539,4.847-5.441,4.357-9.23c-0.361-2.795,1.65-3.74,3.07-4.87c5.251-4.177,9.745-9.221,17.719-9.083&#xD;
		C308.625,650.588,315.801,651.094,322.936,650.441z" transform="matrix(1,0,0,1,-2,-112)" xmlns="http://www.w3.org/2000/svg" />
<path id="0755-baoanqu" fill-rule="evenodd" clip-rule="evenodd" fill="#D3D3D3" stroke="#FFFFFF" stroke-miterlimit="10" d="M43.037,590.911&#xD;
		c-0.905-5.086-4.019-9.256-6.227-13.729c-0.975-1.974-1.752-3.653-1.759-5.754c-0.023-7.111-0.079-14.224,0.012-21.333&#xD;
		c0.027-2.108-0.281-3.895-2.139-5.13c-1.182-3.609,0.416-7.443-0.894-11.042c-0.158-2.225-0.287-4.277-1.196-6.557&#xD;
		c-1.337-3.35-2.407-7.119,2.923-9.773c3.998-1.991,7.357-5.981,10.301-9.521c2.335-2.808,6.221-2.146,7.97-5.137&#xD;
		c1.545-1.039,3.509,0.236,5.034-0.911c5.377-2.673,10.898-4.074,14.449-10.518c3.88-7.04,1.721-13.752,2.469-20.551&#xD;
		c0.318-2.899,0.254-4.608,4.031-5.234c6.692-1.108,8.952-4.251,9.001-11.213c0.041-5.6,4.063-3.499,6.371-3.211&#xD;
		c4.215,0.525,7.715,0.048,10.589-3.302c2.154-2.511,0.853-5.412,0.996-8.114c0.129-2.438,0.661-4.893,3.269-4.595&#xD;
		c6.248,0.715,10.936-1.528,14.779-6.177c1.841-1.447,4.218,0.179,6.095-1.063c4.034-0.627,7.785-1.688,9.118-6.239&#xD;
		c0.473-1.613,3.023-1.647,2.789-3.76c0.813-6.712,0.784-13.424,0.018-20.137c1.221-3.756-1.951-5.005-3.95-6.923&#xD;
		c-0.962-1.964-0.746-3.957-0.152-5.96c5.434-7.632,11.319-14.518,21.972-14.019c3.154,0.147,6.328-0.105,9.476,0.096&#xD;
		c2.079,0.132,3.464-0.693,4.654-2.19c1.548-0.997,3.497,0.25,5.019-0.894c8.785,0.112,8.76,0.111,9.015-8.822&#xD;
		c0.04-1.393-0.696-3.235,1.144-3.992c6.675-2.746,12.083-8.275,20.062-8.296c3.947-0.011,6.711,1.315,8.945,4.103&#xD;
		c3.012,3.759,5.818,7.58,11.445,7.206c1.264-0.084,2.477,1.097,2.136,2.27c-1.149,3.956,0.267,7.223,2.067,10.549&#xD;
		c0.432,0.796,0.175,1.965,0.235,2.963c1.047,1.069,2.391,1.489,3.811,1.745c2.264,0.692,5.026-0.984,6.922,1.457&#xD;
		c-1.692,1.46-3.781,1.019-5.736,1.179c-5.497,0.451-10.021,2.746-12.816,7.546c-2.385,4.096-5.339,6.564-10.168,7.912&#xD;
		c-5.94,1.657-10.253,6.156-12.237,12.222c-1.389,4.246-3.055,8.529-2.51,13.149c0.663,5.626-2.051,10.535-5.324,14.042&#xD;
		c-4.727,5.064-11.176,8.327-18.444,9.054c-1.652,0.165-3.346-0.077-4.969,0.393c-3.707,1.074-4.384,2.696-2.509,6.004&#xD;
		c0.494,0.871,1.332,1.735,1.314,2.664c-0.159,8.582,6.229,14.457,8.978,21.836c1.525,4.093,4.128,7.534,8.515,9.32&#xD;
		c3.66,1.49,6.118,4.852,6.68,8.288c1.188,7.258,5.651,12.717,8.877,18.84c2.515,4.772,2.852,9.094-0.792,13.357&#xD;
		c-0.76,0.889-1.12,2.091-1.903,2.926c-4.712,5.022-5.814,9.66-0.704,15.603c3.617,4.205,2.602,7.74-1.094,12.144&#xD;
		c-5.769,6.873-6.313,13.413-1.198,20.842c2.251,3.271,2.742,5.815-0.35,8.73c-1.317,1.241-2.325,3.226-1.627,5.003&#xD;
		c0.845,2.153,3.169,1.27,4.894,1.359c2.326,0.121,4.664,0.011,6.997,0.021c2.334,0.01,4.146-0.708,5.415-2.853&#xD;
		c2.231-3.773,5.554-5.316,10.032-5.203c6.566,0.166,6.22-0.131,7.783-6.321c1.258-4.981,3.311-9.849,8.868-11.859&#xD;
		c1.257-0.455,2.533-1.035,3.374-2.083c3.556-4.428,8.43-5.443,13.531-4.534c5.677,1.013,11.546,1.323,16.93,3.77&#xD;
		c4.006,1.821,7.929,1.68,11.025-1.695c4.224-4.604,9.728-7.507,14.479-11.402c5.165-4.236,10.785-4.871,15.539-0.775&#xD;
		c4.566,3.933,9.468,4.347,14.875,4.07c4.276-0.219,8.408,0.028,11.074,4.153c0.775,1.722,0.732,3.567,0.734,5.387&#xD;
		c0.004,3.482,1.201,6.421,3.472,9.08c3.265,3.822,3.138,6.337,0.263,10.128c-6.658,8.782-12.521,17.942-12.862,29.497&#xD;
		c-0.025,0.831-0.102,1.755-0.617,2.385c-3.646,4.459-2.295,8.414,1.422,11.819c7.498,6.867,4.35,15.271-0.391,20.787&#xD;
		c-2.471,2.875-5.228,5.594-8.813,7.194c-2.036,0.838-4.239,1.47-6.341,0.944c-6.515-1.631-12.938-0.04-19.381,0.298&#xD;
		c-5.992,0.315-14.669,8.071-15.89,14.014c-0.57,2.774-2.188,4.856-3.875,6.88c-2.952,3.539-4.274,7.298-3.359,12.001&#xD;
		c0.762,3.915,0.175,7.974,0.252,11.965c0.069,3.571-4.514,4.477-4.314,7.382c0.18,2.613,3.997,3.814,4.151,7.063&#xD;
		c0.161,3.408-1.715,5.528-3.914,7.695c-6.841,6.744-6.754,6.753-2.196,15.173c1.957,3.615,3.674,7.356-0.692,10.662&#xD;
		c-1.3,0.984-0.72,1.81,0.234,2.832c5.892,6.313,6.04,10.34,0.179,16.682c-3.278,3.547-5.659,7.854-9.473,10.92&#xD;
		c-1.913,1.537-1.508,3.383-0.932,5.44c2.316,8.271-0.234,14.995-7.298,19.817c-10.287,7.023-20.433,14.237-29.897,22.366&#xD;
		c-3.112,0.63-5.694-0.522-8.061-2.396l0.03,0.022c-2.292-1.071-3.809-2.912-5.02-5.057c-2.114-3.926-5.665-6.55-9.299-8.604&#xD;
		c-4.726-2.671-10.072-4.216-14.987-6.587c-3.219-1.552-5.995-4.355-7.446-7.311c-1.414-2.88-4.116-4.938-4.624-8.644&#xD;
		c-0.349-2.551-3.868-5.669-5.94-6.271c-6.776-1.974-9.206-8.556-14.568-11.899c-5.837-3.64-7.628-10.838-12.176-15.877&#xD;
		c-2.677-2.965-3.964-7.892-5.978-11.885c-1.293-2.564-2.332-5.575-6.239-4.925c-1.459,0.243-1.729-1.367-2.708-1.894&#xD;
		c-0.906-3.328-0.962-6.652,0.029-9.975c2.557-7.574,0.188-11.607-7.312-10.961c-8.19,0.705-12.227-3.195-15.563-10.044&#xD;
		c-3.194-6.555-7.699-12.473-11.654-18.653c-1.022-1.599-0.326-3.481-1.22-5.225c-2.808-5.474-6.388-10.439-10.408-14.96&#xD;
		c-2.539-2.856-2.564-3.978,0.684-5.894c1.358-0.801,6.27-1.83,1.096-5.153c-1.543-0.991-1.697-4.964,1.024-6.958&#xD;
		c1.712-1.255,1.7-2.672-0.165-3.35c-3.933-1.43-5.496-5.348-8.453-7.806c-1.731-1.439-3.956-1.46-5.339-3.086&#xD;
		c-0.118-1.704-1.058-2.59-2.733-2.743c-2.373-5.536-6.506-9.328-11.427-12.704c-2.125-1.457-2.738-4.942-4.616-6.971&#xD;
		c-3.104-3.354-2.359-7.842-4.094-11.539C42.911,594.411,44.152,592.453,43.037,590.911z" transform="matrix(1,0,0,1,-2,-112)" xmlns="http://www.w3.org/2000/svg" />
<path id="0755-guangmingxinqu" fill-rule="evenodd" clip-rule="evenodd" fill="#D3D3D3" stroke="#FFFFFF" stroke-miterlimit="10" d="M379.866,481.954&#xD;
		c-3.147,0.347-5.053,2.436-5.789,5.15c-1.081,3.983,0.464,7.165,3.922,9.601c4.521,3.184,7.703,6.943,7.082,13.271&#xD;
		c-0.461,4.688-3.253,8.008-6.121,10.379c-5.869,4.852-11.708,9.824-17.945,14.311c-4.458,3.205-8.514,7.849-12.242,12.289&#xD;
		c-2.605,3.104-6.639,4.604-8.644,8.254c-2.023-1.438-3.899-3.177-6.679-2.935c-7.919,0.692-15.66,0.593-21.917-5.415&#xD;
		c-4.166-3.999-8.656-0.496-10.77,1.474c-2.916,2.719-6.622,3.954-9.526,6.595c-1.983,1.803-3.443,4.188-6.029,5.736&#xD;
		c-4.822,2.891-7.913,3.655-12.655,0.578c-0.542-0.352-1.225-0.726-1.829-0.704c-6.29,0.222-12.083-3.124-18.468-2.432&#xD;
		c-3.014,0.327-5.66,1.046-7.074,3.855c-0.565,1.123-1.431,1.333-2.291,1.601c-7.952,2.468-11.026,8.209-10.689,16.086&#xD;
		c0.124,2.895-0.963,3.923-3.731,3.634c-1.319-0.137-2.687,0.115-3.99-0.084c-5.033-0.769-8.529,1.066-10.545,5.79&#xD;
		c-0.302,0.706-1.069,1.699-1.654,1.723c-5.966,0.236-11.939,0.346-17.911,0.363c-1.008,0.003-1.136-1.037-0.943-1.924&#xD;
		c0.656-3.013,1.262-6.365,3.7-8.202c2.235-1.684,1.743-2.623,0.385-4.175c-6.195-7.077-6.016-15.963,0.455-23.279&#xD;
		c3.666-4.146,3.541-9.7-0.296-13.157c-3.991-3.597-3.925-8.074-0.501-12.077c3.431-4.012,7.782-8.251,6.353-14.031&#xD;
		c-1.068-4.325-3.703-8.383-6.199-12.193c-1.709-2.609-3.357-5.16-3.416-8.231c-0.098-5.196-3.457-9.088-7.298-10.077&#xD;
		c-5.794-1.491-6.54-6.387-8.503-9.96c-2.25-4.095-3.876-8.452-7.376-11.753c-1.693-1.598-0.878-3.752-0.922-5.617&#xD;
		c-0.085-3.608-0.308-6.877-3.899-9.047c-1.769-1.068-1.729-2.372,0.43-3.673c3.389-2.043,6.79-2.979,10.813-3.066&#xD;
		c6.74-0.146,12.24-4.377,17.114-8.186c2.161-1.688,4.354-6.549,4.307-10.342c-0.069-5.542,0.726-10.953,2.476-15.979&#xD;
		c1.542-4.429,3.879-8.823,8.518-11.439c2.873-1.621,5.331-3.451,8.975-3.12c3.974,0.361,4.032-4.109,5.308-6.151&#xD;
		c4.389-7.02,10.529-8.819,18.011-8.469c0.662,0.031,1.318,0.183,1.977,0.278c1.992,1.964,3.381,7.099,6.806,1.054&#xD;
		c0.7-1.234,3.243,0.883,4.423-1.002c3.588-1.611,7.367-0.363,11.041-0.727c1.782-0.176,3.612,0.259,5.36-0.405&#xD;
		c5.665,0.072,10.609,2.437,15.53,4.878c1.814,1.344,4.184-0.35,5.979,1.094c1.086,4.688,2.476,9.089,8.568,9.025&#xD;
		c3.16-0.033,4.26,1.474,4.01,4.627c-0.22,2.762-1.006,5.933,2.339,7.711c0.293,1.061,1.017,0.917,1.788,0.641&#xD;
		c1.833,0.575,3.664,0.729,5.487-0.039c2.255,0.412,4.674-0.402,6.339,2.58c0.782,1.4,3.951,1.02,6.09,0.46&#xD;
		c1.395,0.649,2.904,0.209,4.327,0.449c1.655,0.28,4.023-1.204,4.594,2.013c0.547,3.084-1.158,3.952-3.592,4.411&#xD;
		c-1.9,3.684-2.139,7.371-0.029,11.065c1.979,0.536,3.999,1.486,4.872-1.635c0.434-1.551,2.405-0.392,3.309-1.375&#xD;
		c4.394,0.273,7.812,4.622,12.652,3.032c1.959,2.77-0.29,6.132,1.263,8.959c-0.074,0.616,0.221,0.941,0.814,1.031&#xD;
		c1.593,1.838-0.083,4.265,1.113,6.175c-0.336,1.474,0.15,2.181,1.737,1.863c1.923,1.678-0.068,4.209,1.309,6.005&#xD;
		c1.142,2.361,0.212,5.781,3.582,7.003c2.43,4.728,0.901,8.534-2.757,11.845c0.679,2.649,2.721,4.699,7.083,7.105&#xD;
		c2.707,1.884,6.133,2.161,8.866,3.929C377.931,479.746,380.212,479.528,379.866,481.954z" transform="matrix(1,0,0,1,-2,-112)" xmlns="http://www.w3.org/2000/svg" />
<text x="231" y="354" xml:space="preserve" font-family="Microsoft YaHei" font-size="18" fill="#000000" stroke="none" stroke-opacity="0" baseline-shift="baseline">
光明新区</text>
<text x="368" y="485" xml:space="preserve" font-family="Microsoft YaHei" font-size="18" fill="#000000" stroke="none" stroke-opacity="0" baseline-shift="baseline">
龙华新区</text>
<text x="688" y="457" xml:space="preserve" font-family="Microsoft YaHei" font-size="18" fill="#000000" stroke="none" stroke-opacity="0" baseline-shift="baseline">
龙岗区</text>
<text x="819" y="506" xml:space="preserve" font-family="Microsoft YaHei" font-size="18" fill="#000000" stroke="none" stroke-opacity="0" baseline-shift="baseline">
坪山新区</text>
<text x="992" y="585" xml:space="preserve" font-family="Microsoft YaHei" font-size="18" fill="#000000" stroke="none" stroke-opacity="0" baseline-shift="baseline">
大鹏新区</text>
<text x="713" y="625" xml:space="preserve" font-family="Microsoft YaHei" font-size="18" fill="#000000" stroke="none" stroke-opacity="0" baseline-shift="baseline">
盐田区</text>
<text x="546" y="663" xml:space="preserve" font-family="Microsoft YaHei" font-size="18" fill="#000000" stroke="none" stroke-opacity="0" baseline-shift="baseline">
罗湖区</text>
<text x="404" y="704" xml:space="preserve" font-family="Microsoft YaHei" font-size="18" fill="#000000" stroke="none" stroke-opacity="0" baseline-shift="baseline">
福田区</text>
<text x="279" y="676" xml:space="preserve" font-family="Microsoft YaHei" font-size="18" fill="#000000" stroke="none" stroke-opacity="0" baseline-shift="baseline">
南山区</text>
<text x="131" y="532" xml:space="preserve" font-family="Microsoft YaHei" font-size="18" fill="#000000" stroke="none" stroke-opacity="0" baseline-shift="baseline">
宝安区</text>
</svg>
