<?xml version="1.0" encoding="UTF-8" standalone="no"?>
<!--成都市-->
<svg xmlns:dc="http://purl.org/dc/elements/1.1/" xmlns:cc="http://creativecommons.org/ns#" xmlns:rdf="http://www.w3.org/1999/02/22-rdf-syntax-ns#" xmlns:svg="http://www.w3.org/2000/svg" xmlns="http://www.w3.org/2000/svg" xmlns:sodipodi="http://sodipodi.sourceforge.net/DTD/sodipodi-0.dtd" xmlns:inkscape="http://www.inkscape.org/namespaces/inkscape" width="1280" height="1024" id="svg2" sodipodi:version="0.32" inkscape:version="0.48.4 r9939" sodipodi:docname="shi_sichuansheng.svg" inkscape:output_extension="org.inkscape.output.svg.inkscape" version="1.1">
	<metadata id="metadata62">
		<rdf:RDF>
			<cc:Work>
				<dc:format>image/svg+xml</dc:format>
				<dc:type rdf:resource="http://purl.org/dc/dcmitype/StillImage" />
			</cc:Work>
		</rdf:RDF>
	</metadata>
	<defs id="defs60">
		<inkscape:perspective sodipodi:type="inkscape:persp3d" inkscape:vp_x="0 : 296.5 : 1" inkscape:vp_y="0 : 1000 : 0" inkscape:vp_z="959 : 296.5 : 1" inkscape:persp3d-origin="479.5 : 197.66667 : 1" id="perspective64" />
	</defs>
	<sodipodi:namedview inkscape:window-height="925" inkscape:window-width="1117" inkscape:pageshadow="2" inkscape:pageopacity="0.0" guidetolerance="10.0" gridtolerance="10.0" objecttolerance="10.0" borderopacity="1.0" bordercolor="#000000" pagecolor="#ffffff" id="base" showgrid="true" inkscape:zoom="1" inkscape:cx="728.26918" inkscape:cy="289.57326" inkscape:window-x="801" inkscape:window-y="27" inkscape:current-layer="svg2" showguides="true" inkscape:guide-bbox="true" inkscape:window-maximized="0" />
	<path id="05-zhanjiangshi" fill-rule="evenodd" clip-rule="evenodd" fill="#D3D3D3" stroke="#FFFFFF" d="M239.5,764.5c-5-1-1-7-4-9c-7-3-14-7-15-15&#xD;&#xA;	c-1-3-3-6-6-4c-7,5-4,16-13,20c-3,2-5,6-9,4c-8-6-16-2-24-4c-2-3,2-7-1-8c-9-3-15-12-13-21c5-7-3-9-7-13c-3-5,2-8,4-12c1-4-6-7-2-11&#xD;&#xA;	c3-2,7,0,9-3c0.94-2.821-2.54-4.758-3.79-6.643c-2.79,2.229-3.351,4.324-7.331,4.821c-4.332,0.544-17.063-2.709-21.939,1.354&#xD;&#xA;	c-4.875,4.063-6.771,2.982-11.376,2.441c-4.605-0.544-13.271-1.087-14.897,5.957c-1.624,7.044-4.875,25.462-10.292,29.795&#xD;&#xA;	c-5.417,4.333-4.063,6.5-9.209,4.333c-5.146-2.165-9.481-7.042-12.189-5.687c-2.708,1.354-2.438,5.687-2.438,8.938&#xD;&#xA;	c0,3.252-0.812,13.271,0.542,17.334c1.354,4.065,1.624,2.712,2.166,0.544c0.542-2.165,4.604-3.792,4.334,0.27&#xD;&#xA;	c-0.27,4.063-1.896,10.567,1.355,10.567c3.25,0,4.875-8.398,6.5-5.151c1.626,3.252,0,3.797,5.146,3.797s7.584-0.545,7.584,2.708&#xD;&#xA;	c0,3.249,1.084,3.522,0,6.497c-1.084,2.982-4.875,5.149-2.166,8.671c2.708,3.52,2.166,4.873,7.042,5.144&#xD;&#xA;	c4.874,0.274-15.169,0.543-17.335,0.543c-2.168,0-14.927-3.932-14.927,2.79c0,6.723-0.152,18.789-2.138,21.077&#xD;&#xA;	c-1.985,2.295,1.223,8.861-1.68,6.875c-2.901-1.985-2.596-4.125-4.887-1.83c-2.293,2.287-7.332,7.177-6.111,13.438&#xD;&#xA;	c1.222,6.262,2.598,6.262,2.598,12.829s1.496,11.366-2.074,13.872c-3.571,2.504-5.536,4.473-4.285,9.303&#xD;&#xA;	c1.25,4.827,8.214,19.849,8.391,17.17c0.179-2.681,1.07-7.869,2.677-5.011c1.606,2.863,5.536,5.189,5.178,11.093&#xD;&#xA;	c-0.356,5.9-2.142,11.802,0.714,11.983c2.857,0.175,16.068-2.505,15.176,0.175c-0.893,2.688-4.464,3.4-7.856,3.222&#xD;&#xA;	c-3.393-0.176-8.032-1.965-9.817,1.256c-1.788,3.217-1.964,7.332,1.07,8.763c3.035,1.432,10.465,3.551,10.465,6.784&#xD;&#xA;	c0,3.235-0.44,5.585,0.587,6.027s1.468,0,1.761-1.908c0.294-1.915,3.084-4.561,3.084-1.031c0,3.528,0.732,6.321-1.321,6.174&#xD;&#xA;	c-2.056-0.143-4.112-1.466-4.112,1.327c0,2.792,0.396,7.515,3.648,7.949c3.251,0.434,5.553-1.92,8.425,2.684&#xD;&#xA;	c2.871,4.606,3.636,6.906,5.36,6.714c1.723-0.192,1.34-1.726,0.383-4.221c-0.958-2.493-3.063-8.629-1.148-8.822&#xD;&#xA;	c1.915-0.193,1.915-0.383,2.106,2.301c0.191,2.685,0.958,11.893,3.064,9.399c2.105-2.495,3.445-0.765,4.785,0.386&#xD;&#xA;	c1.34,1.149,2.105-0.386,4.403-1.923c2.299-1.533,2.299-0.765,1.533,2.111c-0.767,2.878-0.958,10.356-4.021,10.356&#xD;&#xA;	c-3.064,0-3.446,4.412-0.575,4.225c2.872-0.193,6.318-2.498,5.553-0.387c-0.766,2.111-2.682,5.37-5.936,4.414&#xD;&#xA;	c-3.255-0.962-5.36-9.403-5.36-10.359c0-0.959-1.916-1.92-4.787-2.878c-2.871-0.957-8.807-0.193-8.807,3.646&#xD;&#xA;	c0,3.838-1.724,6.714,1.723,8.055c3.446,1.343,5.935,1.343,6.318,5.946c0.384,4.605-0.574,5.756-0.765,9.397&#xD;&#xA;	c-0.193,3.649-0.193,7.101,2.871,4.414c3.064-2.688,7.085-7.865,9.189-6.14c2.107,1.726,4.022-3.838,7.849-1.916&#xD;&#xA;	c3.83,1.916,11.105,4.793,15.316,8.056c4.213,3.263,6.703,3.451,8.999,0.765c2.298-2.681,7.084-7.095,11.296-3.642&#xD;&#xA;	c4.213,3.452,4.213,4.027,7.467,1.15c3.256-2.877,12.117-8.735,15.327-8.735c3.208,0,21.396-18.399,21.93-26.262&#xD;&#xA;	c0.535-7.857-2.317-22.683-8.023-22.15c-5.705,0.54-9.272,1.253-9.807-2.498c-0.533-3.752-1.426-12.502-3.922-10.362&#xD;&#xA;	c-2.497,2.147-2.317,2.506-4.636,2.147c-2.317-0.357-4.457,3.928-4.457,0.533c0-3.393,0.891-6.968-1.07-5.179&#xD;&#xA;	c-1.961,1.786-5.527,3.393-3.922,0.892c1.605-2.498,5.528-8.217,4.993-10.896c-0.536-2.681-3.745-4.645-2.14-6.966&#xD;&#xA;	c1.604-2.323,2.319-6.61,2.319-8.217s2.496-1.249,2.496,1.789c0,3.034,2.854,19.646,4.992,14.467&#xD;&#xA;	c2.14-5.181,5.171-16.077,2.14-17.688c-3.031-1.606-11.945-7.858-13.373-6.427c-1.426,1.429-7.844,2.498-9.449,1.249&#xD;&#xA;	c-1.604-1.249-2.496-6.076-5.706-3.754c-3.21,2.326-8.379,4.469-6.418,0.183c1.961-4.287,1.961-4.471,0-6.608&#xD;&#xA;	c-1.961-2.147-2.854-3.93-2.497-6.968c0.356-3.039,1.07-5.183-0.714-7.859c-1.782-2.68-7.488-8.219-6.953-10.541&#xD;&#xA;	c0.535-2.322,3.565,1.61,5.17,3.574c1.605,1.965,7.666,5.179,7.131,0.713c-0.534-4.466,0.713-6.431,1.604-7.679&#xD;&#xA;	c0.894-1.253-0.891-11.255,0.894-10.722c1.782,0.537,2.672-0.533,2.672,3.396c0,3.93-0.356,10.364,2.14,8.753&#xD;&#xA;	c2.496-1.606,1.782-4.107,1.782-6.787c0-2.681-1.247-4.288,2.319-3.93c3.566,0.357,7.309-0.716,7.667,4.466&#xD;&#xA;	c0.356,5.182,1.605,4.466,4.636,2.858c3.031-1.606,5.706-1.252,4.101,0.892s-11.947,5.36-12.661,10.721&#xD;&#xA;	c-0.712,5.357-6.597,9.465-1.96,8.928c4.638-0.537,14.799-8.395,20.326-8.215c5.528,0.179,15.335,0.179,16.048,5.181&#xD;&#xA;	c0.712,5.003,6.418,10.896,7.132,5.536c0.714-5.361-0.358-5.719,1.604-10.538c1.962-4.824,5.35-12.682-0.357-11.254&#xD;&#xA;	c-5.704,1.432-9.805,2.68-13.015,1.785s-9.093-3.571-9.272-6.072c-0.177-2.503-3.744-1.073-4.634-0.716&#xD;&#xA;	c-0.893,0.358-9.095-0.533-9.095-2.498c0-1.968,2.14-5.181,4.101-4.286c1.961,0.89,5.348,0.89,6.063-3.039&#xD;&#xA;	c0.713-3.93,7.381-6.788,7.677-10.215c0.298-3.431,0.447-4.919-2.38-7.9c-2.828-2.982-7.735-7.605-7.735-11.033&#xD;&#xA;	c0-3.429,0.741-4.321,2.231-2.533c1.487,1.79,5.355,0.446,5.059-2.982c-0.298-3.426,0.066-5.347-2.161-7.7&#xD;&#xA;	c-2.226-2.356-6.312-7.935-5.817-8.928c0.497-0.992,7.18-9.174,8.293-7.068c1.114,2.108,1.114,0.992-0.247,4.715&#xD;&#xA;	c-1.363,3.719-1.855,9.296-0.125,11.155c1.733,1.859,2.971-0.494,4.333-2.477c1.361-1.986,5.322-4.837,2.97,0&#xD;&#xA;	c-2.353,4.834-3.341,5.95-3.341,10.665c0,4.708-0.618,7.687,2.475,3.718c3.094-3.971,3.59-6.945,4.952-5.581&#xD;&#xA;	c1.361,1.365-1.609,3.723,0.247,3.842c1.856,0.126,3.467-0.989,2.6,0.748c-0.869,1.735-3.963,0.367-4.085,2.353&#xD;&#xA;	c-0.123,1.986,4.58-1.237,4.952,1.365c0.37,2.606-1.486,5.953-3.219,4.711c-1.733-1.238-6.685-5.08-6.685-1.609&#xD;&#xA;	c0,3.469-0.74,8.556,2.354,9.423c3.092,0.865,4.825-0.124,9.405,2.23s7.796,1.242,9.405-1.115c1.61-2.354,3.591-5.582,4.952-2.976&#xD;&#xA;	c1.361,2.604,8.014,10.618-4.688,10.894c-12.699,0.267-21.076-0.137-16.077,3.651c4.998,3.789,9.324-1.757,9.458,3.248&#xD;&#xA;	c0.135,5.007,4.592,12.185,9.321,6.36c4.729-5.819,1.488-7.714,3.244-10.825c1.757-3.115,8.584-11.269,6.32-15.928&#xD;&#xA;	c-2.265-4.665-4.278-7.188-3.524-10.844c0.756-3.655,0.63-5.673,2.267-2.521c1.637,3.154,3.271,0.632,3.271,4.539&#xD;&#xA;	c0,3.908-1.51,9.202,1.384,7.311c2.894-1.89,11.073-21.428,16.86-22.563c5.787-1.133,4.653-3.276,10.442-0.759&#xD;&#xA;	c2.993,1.305,6.299,1.622,9.27,1.315C251.144,771.176,249.256,762.727,239.5,764.5z" />
	<path id="05-maomingshi" fill-rule="evenodd" clip-rule="evenodd" fill="#D3D3D3" stroke="#FFFFFF" d="M325.5,717.5c-2,0-4,1-5,0c-4-5,5-8,6-12&#xD;&#xA;	c0-2,1-5-1-6c-19-4-27-26-21-43c6-7,10-15,10-25c0-1,3-4,4-4c6-1,11-2,14-8c4-4,6-10,9-12c13-6,22-16,32-27c-16-8-32-5-44,10&#xD;&#xA;	c-1,1-3,0-4-1c-1-5-1-12-4-13c-5-2-12,6-16,0c-2-4,6-7,5-9c-6.872-10.798-24.333-2.34-28.756-15.268&#xD;&#xA;	c-5.841,2.695-13.395,4.234-15.996,6.6c-2.98,2.709-7.313,2.437-12.459,2.709c-5.146,0.27-6.772,4.332-10.292,1.896&#xD;&#xA;	c-3.522-2.438-3.792-5.146-5.961-1.084c-2.166,4.062-3.521,23.022-7.312,22.211c-3.792-0.813-8.126-1.896-6.5,4.333&#xD;&#xA;	c1.624,6.229,5.417,13.545,8.667,15.712c3.25,2.165,6.5,6.771,6.5,10.02c0,3.253,0.814,4.607-3.25,4.607&#xD;&#xA;	c-4.062,0-10.834-0.815-11.917,2.707c-1.084,3.52-3.25,15.438-8.397,15.169s-10.293-4.066-14.899-2.168&#xD;&#xA;	c-4.604,1.898-4.875,6.23-8.938,5.417c-4.063-0.811-8.667-9.75-13.813-7.315c-5.146,2.441-6.772,2.441-8.668,1.087&#xD;&#xA;	c-1.896-1.354-6.501,2.165-3.521,5.144c2.98,2.982,5.146,6.231,3.25,10.837c-1.896,4.605-3.52,10.837-1.626,14.355&#xD;&#xA;	c1.896,3.522,10.022,21.129,3.252,21.939c-6.772,0.814-10.835-7.581-14.357-5.147c-0.288,0.199-0.547,0.398-0.796,0.597&#xD;&#xA;	c1.25,1.885,4.73,3.821,3.79,6.643c-2,3-6,1-9,3c-4,4,3,7,2,11c-2,4-7,7-4,12c4,4,12,6,7,13c-2,9,4,18,13,21c3,1-1,5,1,8&#xD;&#xA;	c8,2,16-2,24,4c4,2,6-2,9-4c9-4,6-15,13-20c3-2,5,1,6,4c1,8,8,12,15,15c3,2-1,8,4,9c9.755-1.773,11.644,6.676,11.249,14.191&#xD;&#xA;	c2.774-0.286,5.256-1.116,6.903-2.213c3.408-2.272,8.712-2.651,12.373-2.399c3.663,0.253,11.491-7.955,12.375-10.229&#xD;&#xA;	c0.884-2.273-2.273-2.904-4.168-0.884c-1.893,2.021-8.965,8.841-8.965,5.304c0-3.535,0.505-6.566,0.505-9.598&#xD;&#xA;	c0-3.03,1.516-2.526,3.158-2.399c1.641,0.125,4.796-5.179,6.691-2.905c1.895,2.274,5.305,3.915,5.431,5.936&#xD;&#xA;	c0.125,2.021,0.125,3.032,2.271,2.778c2.146-0.252,2.904,1.895,0.757,3.032c-2.145,1.136,1.642,2.146,6.188,2.146&#xD;&#xA;	c4.545,0,16.035-4.925,11.741-5.936c-4.292-1.01-12.373-7.198-9.217-6.567c3.157,0.632,8.335,3.03,11.239,0.885&#xD;&#xA;	c2.904-2.147,3.662-2.526,3.536,0.504c-0.126,3.031-0.798,4.617,3.601,4.982c4.4,0.368,7.33,0,3.667,4.767&#xD;&#xA;	c-3.667,4.769-7.332,10.266,0,7.332c7.33-2.933,11.729-12.099,15.395-12.099s1.053-7-0.961-5.14&#xD;&#xA;	c-2.014,1.863-7.43,5.117-7.739,2.947c-0.284-1.985-1.977-5.002,1.047-6.454C321.732,741.052,323.612,728.83,325.5,717.5z" />
	<path id="05-yangjiangshi" fill-rule="evenodd" clip-rule="evenodd" fill="#D3D3D3" stroke="#FFFFFF" d="M474.5,677.5c-6-4-13-5-16-13c-4-1,1-5-1-6&#xD;&#xA;	c-9-2-16-7-22-12c-3,2-7,0-7-1c-3-10,3-19-1-27c-2-4,3-8,4-12c4-9,17,1,17-10c1-1,2-3,1-4c-2-1-5,1-7,2c-8,0-13-6-17-12&#xD;&#xA;	c-3-3-7-5-9-8c-2-5,5-7,5-11c1-4-3-9-7-7c-5,1-7,10-13,9c-12-2-2-12-7-19c-10,10-14,22-21,34c-10,11-19,21-32,27c-3,2-5,8-9,12&#xD;&#xA;	c-3,6-8,7-14,8c-1,0-4,3-4,4c0,10-4,18-10,25c-6,17,2,39,21,43c2,1,1,4,1,6c-1,4-10,7-6,12c1,1,3,0,5,0&#xD;&#xA;	c-1.889,11.33-3.768,23.552,1.078,34.981c0.283-0.137,0.593-0.264,0.964-0.37c4.334-1.242,6.192-3.255,8.977,0&#xD;&#xA;	c2.787,3.255,9.753,3.103,8.049,0.93c-1.703-2.172-6.656-4.654-5.262-6.669c1.393-2.013,3.249-1.242,5.262-2.947&#xD;&#xA;	c2.014-1.704,1.704-1.08,2.014,1.397c0.309,2.482,0.309,7.135,2.166,7.135c1.858,0,2.477,0.464,1.393,2.634&#xD;&#xA;	c-1.084,2.173-1.702,6.67,2.322,4.345c4.024-2.327,7.431-4.345,10.062-2.327c2.631,2.015,14.24-0.154,10.37-2.946&#xD;&#xA;	c-3.87-2.793-7.739-2.638-6.036-4.188c1.701-1.55,2.477-4.188,4.952-0.617c2.477,3.564,7.121,10.232,8.206,7.907&#xD;&#xA;	c1.084-2.325,2.785-13.801,7.893-15.043c5.109-1.241,14.241,0.464,14.087-4.344c-0.157-4.806,1.238-15.043-1.857-15.506&#xD;&#xA;	c-3.096-0.465-13.776-4.96-14.087-8.994c-0.309-4.035,0.93-1.087,5.11-0.309c4.178,0.771,5.262,0.926,6.965-0.778&#xD;&#xA;	c1.702-1.705,3.713-1.705,5.108-0.155c1.393,1.55,1.857,4.497,5.573,2.638c3.715-1.862,7.43-3.413,5.727,0.771&#xD;&#xA;	c-1.704,4.189-4.644,10.55-4.799,12.413c-0.154,1.858,4.488,0.927,7.43,0.771c2.941-0.155,8.979,3.409,4.025,5.431&#xD;&#xA;	c-4.954,2.014-10.68,0.153-10.372,4.343c0.31,4.186,1.238,4.647-1.547,8.216c-2.787,3.568-1.86,8.841,4.178,4.651&#xD;&#xA;	c6.038-4.188,12.849-10.236,15.015-9.303c2.167,0.929,12.23-1.087,12.538-5.273c0.311-4.188-1.238-6.822-4.334-4.497&#xD;&#xA;	c-3.094,2.327-5.572,2.479-8.358-1.084c-2.786-3.571-3.251-6.052-1.858-9.153c1.393-3.097-0.775-3.875,6.347-5.58&#xD;&#xA;	c7.121-1.706,9.752-5.119,3.869-5.119c-5.881,0-10.68-4.497-10.68-7.444c0-2.942,2.322-5.735,2.63-2.788&#xD;&#xA;	c0.311,2.946,1.24,5.114,4.645,6.355c3.405,1.243,5.418-0.152,3.096-1.704c-2.323-1.55-6.192-3.413-3.405-4.498&#xD;&#xA;	c2.786-1.087,3.096,0.463,5.108-0.775c2.012-1.241,5.728-3.259,4.952-0.929c-0.773,2.322-3.096,10.388,0.93,10.233&#xD;&#xA;	c4.026-0.155,11.608-4.497,16.098-3.877c4.489,0.618,8.204,1.242,8.668-2.482c0.463-3.72,1.702-4.032,3.095-3.565&#xD;&#xA;	c0.23,0.076,0.423,0.205,0.599,0.357C476.432,692.079,481.924,683.068,474.5,677.5z" />
	<path id="05-yunfushi" fill-rule="evenodd" clip-rule="evenodd" fill="#D3D3D3" stroke="#FFFFFF" d="M486.5,530.5c-3-4-10-4-11-8c-1-6-6-6-8-9&#xD;&#xA;	c-2-2,2-4,3-6c1-6-10-11-6-14c8-5,1-14,5-20c1-3,2-8-1-8c-9-2-14,12-24,9c-8,2-16,3-22,0c-11-6-22-11-34-10c-8,0-18,1-22-4&#xD;&#xA;	s-11-8-17-11c-2,0-1-3-3-3c0-4,4-8,2-12c-2.847-3.795-7.494-7.576-12.233-3.683c0.065,8.574,0.449,20.909,0.449,24.814&#xD;&#xA;	c0,5.688-0.814,9.21,3.25,15.441c4.063,6.229,8.126,12.189,3.792,15.167c-4.334,2.979-9.751,8.668-8.938,13.542&#xD;&#xA;	c0.812,4.877,4.063,5.689-1.084,11.106c-5.146,5.417-14.355,19.773-24.648,23.294c-10.293,3.521-18.419-0.271-20.585,4.604&#xD;&#xA;	c-2.168,4.877,1.624,8.669-4.334,12.188c-0.758,0.448-1.573,0.864-2.424,1.257c4.423,12.928,21.884,4.47,28.756,15.268c1,2-7,5-5,9&#xD;&#xA;	c4,6,11-2,16,0c3,1,3,8,4,13c1,1,3,2,4,1c12-15,28-18,44-10c7-12,11-24,21-34c5,7-5,17,7,19c6,1,8-8,13-9c4-2,8,3,7,7c0,4-7,6-5,11&#xD;&#xA;	c2,3,6,5,9,8c4,6,9,12,17,12c2-1,5-3,7-2c5,3,10,1,12-2c4-4,5-8,8-13c0-9,7-5,11-11c3-4,5-10,9-11c6-1,9,11,16,7c5-6-6-11-1-17&#xD;&#xA;	C492.5,549.5,485.5,543.5,486.5,530.5z" />
	<path id="05-jiangmenshi" fill-rule="evenodd" clip-rule="evenodd" fill="#D3D3D3" stroke="#FFFFFF" d="M591.5,540.5c-6-3-2-12-9-14c-8-3-16-10-23-9&#xD;&#xA;	c-9,2-10,15-14,24c-1,3-4,6-5,4c-4-5-7-13-15-11c-4,2-2,8-7,9c-9-1,0,10-7,10c-5,0-1-9-7-8c-5,6,6,11,1,17c-7,4-10-8-16-7&#xD;&#xA;	c-4,1-6,7-9,11c-4,6-11,2-11,11c-3,5-4,9-8,13c-2,3-7,5-12,2c1,1,0,3-1,4c0,11-13,1-17,10c-1,4-6,8-4,12c4,8-2,17,1,27c0,1,4,3,7,1&#xD;&#xA;	c6,5,13,10,22,12c2,1-3,5,1,6c3,8,10,9,16,13c7.424,5.568,1.932,14.579-2.095,22.242c0.891,0.771,1.054,2.506,0.021,5.228&#xD;&#xA;	c-1.239,3.256-4.489,8.375-1.393,11.941c3.096,3.564,6.037,8.837,11.299,8.992c5.264,0.157,8.979-3.102,13.003-4.652&#xD;&#xA;	c4.024-1.552,9.132,2.48,9.598-4.964c0.463-7.445-1.083-27.913-2.631-29.773c-1.551-1.863-3.098-10.233-3.715-13.805&#xD;&#xA;	c-0.621-3.563,2.165-11.629,4.333-12.25c2.168-0.617,2.477,1.396,1.858,4.188c-0.621,2.793-3.406,12.872-0.466,16.127&#xD;&#xA;	c2.943,3.26,6.346,1.245,9.752,0.158c3.406-1.088,4.333-0.625,4.333-2.947c0-2.33,1.241-4.498,2.634-2.018&#xD;&#xA;	c1.393,2.479,3.561,3.722-0.621,5.892c-4.178,2.175-10.991,3.412-11.3,7.755c-0.308,4.34-5.261,13.646,3.87,14.423&#xD;&#xA;	c9.135,0.775,10.374,7.598,14.861,9.303c4.49,1.704,6.967,2.947,11.145-1.238c4.178-4.185,4.645-2.789,4.645-7.911&#xD;&#xA;	c0-5.114,1.547-5.739,4.487-6.511c2.943-0.779,6.658-5.427,8.205-7.754c1.547-2.328,4.645-9.151,7.43-9.306&#xD;&#xA;	c2.786-0.155,5.417-5.739,5.417-2.948c0,2.793,0.617,13.182,6.655,16.44c6.037,3.259,6.191,1.551,10.062-1.551&#xD;&#xA;	c3.872-3.101,4.178-4.655,5.265-7.444c1.083-2.793,0-2.171,3.094-3.101c3.098-0.931,3.561-3.877,1.859-5.581&#xD;&#xA;	c-1.705-1.71-6.347-7.137-4.336-7.757c2.014-0.621,2.943-3.723,1.238-6.361c-1.702-2.634-4.49-7.286-1.547-9.766&#xD;&#xA;	c2.939-2.484,14.706-16.906,12.692-22.488c-2.014-5.584-2.248-12.049-2.09-17.518c0.161-5.467-4.652-21.064-2.726-20.904&#xD;&#xA;	c1.925,0.161,4.813-0.964,5.616,4.823c0.087,0.627,0.145,1.418,0.182,2.322c2.099-1.119,3.562-2.874,4.366-5.287c-7-7-7-18-10-27&#xD;&#xA;	C598.5,556.5,585.5,551.5,591.5,540.5z" />
	<path id="05-zhuhaishi" fill-rule="evenodd" clip-rule="evenodd" fill="#D3D3D3" stroke="#FFFFFF" d="M662.5,591.5c-13,4-15,17-10,28c-3,6-14,8-18,3&#xD;&#xA;	c-9-10-14-22-25-29c-0.804,2.413-2.267,4.168-4.366,5.287c0.307,7.445-0.846,23.075,0.299,26.944&#xD;&#xA;	c1.284,4.34,3.533,6.754,6.262,3.218c2.729-3.537,7.542-9.809,8.023-14.313c0.484-4.5,1.288-9.005,1.446-4.343&#xD;&#xA;	c0.161,4.666,0.48,12.545-1.446,15.438c-1.925,2.895-5.936,5.792-5.936,9.328s-2.922,19.219-0.726,23.224&#xD;&#xA;	c2.199,4.004,4.795,8.006,7.191,11.009c2.4,2.999,3,6.002,4.595,10.605c1.597,4.603,3.597,7.605,6.993,10.408&#xD;&#xA;	c3.395,2.8,8.388,2.601,7.591-3.003c-0.8-5.606-2-9.809-4.596-9.008c-2.596,0.803-4.396-1.2-5.192,1.202&#xD;&#xA;	c-0.8,2.402-3.2-1.399-3.799-4.003c-0.597-2.603-4.992-5.402,0.8-4.602c5.795,0.8,5.196-1.601,5.196-5.207&#xD;&#xA;	c0-3.6-1.2-4.603,1.396-6.603c2.6-1.999-0.796-13.607,1.2-11.407c1.997,2.202,2.996,7.006,2.996,11.008&#xD;&#xA;	c0,4.004-2.396,7.002,0.4,6.807c2.796-0.204,2.196,0.398,4.396,2.398c2.196,2,14.184,3.804,15.18,0.8c1-3.003-1.196-9.005,0.8-9.805&#xD;&#xA;	c2-0.8,0.2-2.003-3.396-3.203c-3.597-1.2-11.184-8.005-8.388-11.604c2.795-3.606,7.188-6.007,5.392-8.609s6.279,0.074,10.528,2.905&#xD;&#xA;	c4.245,2.831,6.228-0.565,9.626,0c3.396,0.568,3.96-3.116,4.244-7.36c0.285-4.245,0.85,3.964,3.68,0.568&#xD;&#xA;	c2.831-3.399,6.795-3.964,6.228-8.209c-0.564-4.248-3.96-5.382-0.564-6.511c3.396-1.138,4.769-3.522,2.574-6.269&#xD;&#xA;	c-2.195-2.748,4.937-3.85,2.194-6.322c-2.741-2.475-7.133-4.675-9.604-5.773c-2.47-1.098-1.644-4.671,0.551-9.343&#xD;&#xA;	c0.368-0.784,0.741-1.755,1.097-2.818C675.241,586.051,668.869,588.771,662.5,591.5z" />
	<path id="05-zhaoqingshi" fill-rule="evenodd" clip-rule="evenodd" fill="#D3D3D3" stroke="#FFFFFF" d="M498.5,529.5c8-4,13-14,22-18c10-5,20-5,24-15&#xD;&#xA;	c5-11,7-24,2-36c-1-3,2-7,2-10c2-10,0-21-1-31c-1-11,8-20,4-32c-7-5-5-16-8-23c-1-1-4-2-4-3c-4-13,0-33-13-38c-8-2-14-9-23-8&#xD;&#xA;	c0-8,0-17-4-23c-1-3-8-2-9-5c-5-8,8-14,4-22c-6-12-18-24-33-23c4,6,8,14,4,21c-3,7-11,17-20,12&#xD;&#xA;	c-4.894-2.097-6.374-8.587-9.892-13.331c-7.229,4.986-16.177,11.747-16.55,16.588c-0.542,7.042-0.812,15.439,4.876,22.481&#xD;&#xA;	c5.688,7.042,9.208,14.627,2.438,17.877c-6.772,3.25-11.106,5.417-12.731,8.938c-1.626,3.521-0.542,12.459-6.23,13.271&#xD;&#xA;	c-5.688,0.814-21.939-0.542-25.189,2.98c-3.251,3.521-2.981,5.959-1.355,10.563c1.625,4.606,1.355,17.065-4.605,18.689&#xD;&#xA;	c-5.959,1.626-13.543,3.522-17.064,8.939c-3.522,5.418-2.708,13.544-8.938,18.149s-13.273,18.147-13.814,21.94&#xD;&#xA;	c-0.17,1.188-0.207,4.318-0.177,8.23c4.739-3.893,9.386-0.112,12.233,3.683c2,4-2,8-2,12c2,0,1,3,3,3c6,3,13,6,17,11s14,4,22,4&#xD;&#xA;	c12-1,23,4,34,10c6,3,14,2,22,0c10,3,15-11,24-9c3,0,2,5,1,8c-4,6,3,15-5,20c-4,3,7,8,6,14c-1,2-5,4-3,6c2,3,7,3,8,9c1,4,8,4,11,8&#xD;&#xA;	c-0.004,0.06-0.006,0.117-0.01,0.177C490.303,527.973,494.823,530.419,498.5,529.5z" />
	<path id="05-foshanshi" fill-rule="evenodd" clip-rule="evenodd" fill="#D3D3D3" stroke="#FFFFFF" d="M571.924,413.586&#xD;&#xA;	c-1.347-2.49-2.571-5.103-3.424-8.086c-3,1-4-3-7-3c3-8-1-16-10-15c4,12-5,21-4,32c1,10,3,21,1,31c0,3-3,7-2,10c5,12,3,25-2,36&#xD;&#xA;	c-4,10-14,10-24,15c-9,4-14,14-22,18c-3.677,0.919-8.197-1.527-12.01,1.177c-0.922,12.876,6.065,18.805,18.01,14.823c6-1,2,8,7,8&#xD;&#xA;	c7,0-2-11,7-10c5-1,3-7,7-9c8-2,11,6,15,11c1,2,4-1,5-4c4-9,5-22,14-24c7-1,15,6,23,9c6.868,1.963,3.153,10.66,8.679,13.82&#xD;&#xA;	c2.125-2.456,5.527,3.076,7.321,2.18c1-1,2-4,2-6c13,5,25,4,34-4c6-6-11-5-13-11c-2-5,5-10,0-15c-16-18-9-45-23-64c-1-3-6-8-8-5&#xD;&#xA;	c-2,1-3,9-7,5c-7-5-2-13-6-19C575.779,420.058,573.737,416.937,571.924,413.586" />
	<path id="05-dongguanshi" fill-rule="evenodd" clip-rule="evenodd" fill="#D3D3D3" stroke="#FFFFFF" d="M747.5,533.5c0,0,3,1,5,1c6,5,13,13,18,8&#xD;&#xA;	c4-4-1-14,5-19c9-21-8-33-22-46c-1,0-3-3-3-5c-2,0-2-3-4-2c-13,8-28-4-42-4c-7,1-16-4-21,1c-5.227,4.355-11.211,5.676-17.294,7.927&#xD;&#xA;	c4.817,1.837,9.354,3.914,10.123,6.801c1.098,4.124,1.098,12.37,3.84,10.996c2.745-1.375,6.312-5.497,6.312-2.199&#xD;&#xA;	c0,3.297-1.371,12.918,1.099,9.894c2.466-3.022,7.68-4.673,5.483,0.551c-2.192,5.222-6.308,9.072-5.483,14.019&#xD;&#xA;	c0.821,4.945-0.551,7.97,4.663,10.17c5.108,2.153,6.262,5.364,7.341,8.08c5.528-4.075,10.281-10.421,15.917-13.238&#xD;&#xA;	C726.5,516.5,739.5,522.5,747.5,533.5z" />
	<path id="05-zhongshanshi" fill="#D3D3D3" stroke="#FFFFFF" d="M635.696,529.762c0.248,0.727-0.065,1.608-1.195,2.738c-9,8-21,9-34,4c0,2-1,5-2,6&#xD;&#xA;	c-1.795,0.896-5.196-4.636-7.321-2.18c0.105,0.061,0.208,0.123,0.321,0.18c-6,11,7,16,8,26c3,9,3,20,10,27c11,7,16,19,25,29&#xD;&#xA;	c4,5,15,3,18-3c-5-11-3-24,10-28c6.368-2.729,12.74-5.449,19.863-5.165c1.762-5.282,3.016-13.081,0.275-14.224&#xD;&#xA;	c-3.294-1.377-3.566-6.599-4.394-10.722c-0.819-4.123-5.485-8.521-5.485-8.521s2.197-4.122,6.313-0.825&#xD;&#xA;	c4.114,3.3,8.229,6.323,10.151,2.477c1.919-3.85-6.037-10.172-7.409-12.096c-0.922-1.294-10.387-7.922-15.085-12.132&#xD;&#xA;	C656.51,530.19,645.779,531.946,635.696,529.762z" />
	<path id="05-guangzhoushi" fill="#D3D3D3" stroke="#FFFFFF" d="M733.5,403.5c-15-3-21-14-18-26c-4,1-7-3-11-3c0-2-4-4-1-6c15-10,28-23,46-24&#xD;&#xA;	c-0.937-9.355-2.745-19.586-0.519-29.055c-5.454,0.272-10.967,0.661-16.481,1.055c-8,1-14,5-21,10&#xD;&#xA;	c-2.778,1.853-6.415,1.131-10.115,0.22c-5.088,10.842-18.969,15.794-30.885,17.78c-5,2,6,15,1,20c-10,10-26-3-39-1c-4,1-6,10-11,14&#xD;&#xA;	c-4,3-13,0-14,4c-1,13-11,19-22,23c-4.825,1.608-9.005,5.158-13.576,9.086c1.813,3.351,3.854,6.471,5.576,9.914c4,6-1,14,6,19&#xD;&#xA;	c4,4,5-4,7-5c2-3,7,2,8,5c14,19,7,46,23,64c5,5-2,10,0,15c1.623,4.87,13.127,5.129,14.195,8.262&#xD;&#xA;	c10.083,2.185,20.814,0.429,31.034,0.531c-2.292-2.054-3.454-3.535-1.926-3.535c4.665,0,6.037-0.274,9.055,3.021&#xD;&#xA;	c3.018,3.299,14.814,10.994,15.365,6.873c0.548-4.123-2.744-10.994-7.957-11.82c-5.213-0.824-7.683-4.398-8.233-7.971&#xD;&#xA;	c-0.547-3.573-2.466-10.72-2.466-13.192c0-2.476,2.192-19.793-3.294-22.54c-5.486-2.749-7.68-5.771-12.345-6.048&#xD;&#xA;	c-4.666-0.273-9.878-4.947-5.486-4.947c4.389,0,4.389,0.549,10.7,3.023c1.891,0.742,4.003,1.483,6.063,2.27&#xD;&#xA;	c6.083-2.25,12.067-3.571,17.295-7.927c5-5,14,0,21-1c4-1,8-1,11-4c10-13-4-35,19-36c3,0-3-8-6-12&#xD;&#xA;	C725.5,409.5,735.5,403.5,733.5,403.5z" />
	<path id="05-shenzhenshi" fill-rule="evenodd" clip-rule="evenodd" fill="#D3D3D3" stroke="#FFFFFF" d="M853.194,574.046&#xD;&#xA;	c-6.815-3.513-11.492-5.464-14.997-5.464c-3.509,0-6.624-2.928-0.197-3.709c6.432-0.778,15.001-8.78,11.69-10.342&#xD;&#xA;	c-3.312-1.562-15.391,1.953-13.054-2.341c0.551-1.011,1.025-1.953,1.48-2.809c-10.682-0.679-20.47-4.546-28.616-10.882&#xD;&#xA;	c-2-3-5-7-4-11c-11,4-19-7-30-4c-6,5-1,15-5,19c-5,5-12-3-18-8c-2,0-5-1-5-1c-8-11-21-17-32-13&#xD;&#xA;	c-5.636,2.817-10.389,9.163-15.917,13.238c0.021,0.056,0.044,0.111,0.065,0.166c1.096,2.748,0.823,3.023,4.665,2.197&#xD;&#xA;	c3.84-0.824,8.776-5.222,11.797,1.924c3.018,7.148-0.824,12.644,4.389,18.143c5.213,5.498,3.842,11.545,9.879,13.47&#xD;&#xA;	c6.034,1.923,8.505,3.847,6.585,8.519c-1.923,4.673-3.294,7.971,0.273,7.971c3.568,0,3.568-8.52,10.699-8.794&#xD;&#xA;	c7.133-0.276,13.17,1.375,18.656,0.55c5.487-0.826,6.732-8.163,8.904-10.549c2.167-2.386,4.336-2.603,4.336-0.868&#xD;&#xA;	c0,1.736,2.387,5.64,10.411,1.52c8.023-4.122,7.593-2.387,11.715-2.387c4.117,0,13.229-6.939,17.133-4.988s8.677,5.855,11.928,9.326&#xD;&#xA;	c3.256,3.47,3.474,2.169,3.474,8.676c0,6.509,0.648,11.279,4.335,7.159c3.688-4.123,6.508-3.039,9.328-3.039&#xD;&#xA;	C850.973,582.732,860.009,577.558,853.194,574.046z" />
	<path id="05-huizhoushi" fill-rule="evenodd" clip-rule="evenodd" fill="#D3D3D3" stroke="#FFFFFF" d="M965.5,439.5c-7-6-14-11-18-17c-9-12-32-1-45,8&#xD;&#xA;	c-5,4-5-7-10-7c-1-1-2,3-2,3c3,12-4,20-8,30c-1,0-4,1-5,0c-5-4-2-11-5-14c-2-3-8-6-7-11c-3,0-7-1-7-3c-4-8-12-10-14-17&#xD;&#xA;	c-2-6,8-13,3-19c-4-6-16,2-16-7c-1-9-4-16-9-21c-6-6-18,1-24-8c-5-6-12-13-7-22c1.653-3.306,5.345-7.978,5.45-12.323&#xD;&#xA;	c-0.149,0.108-0.296,0.22-0.45,0.323c0.154-0.103,0.301-0.215,0.45-0.323c0.022-0.912-0.104-1.81-0.45-2.677c-5-10-15-3-23-4&#xD;&#xA;	c-7.879-0.606-16.127-0.472-24.518-0.055c-2.228,9.469-0.418,19.699,0.518,29.055c-18,1-31,14-46,24c-3,2,1,4,1,6c4,0,7,4,11,3&#xD;&#xA;	c-3,12,3,23,18,26c2,0-8,6-5,11c3,4,9,12,6,12c-23,1-9,23-19,36c-3,3-7,3-11,4c14,0,29,12,42,4c2-1,2,2,4,2c0,2,2,5,3,5&#xD;&#xA;	c14,13,31,25,22,46c11-3,19,8,30,4c-1,4,2,8,4,11c8.146,6.336,17.935,10.203,28.616,10.882c1.479-2.778,2.751-4.606,5.729-4.606&#xD;&#xA;	c3.894,0,3.115-1.17,0.972-1.95c-2.14-0.783-4.866-5.271-0.972-5.466c3.894-0.195,20.256-7.416,25.711-8.586&#xD;&#xA;	c5.452-1.17,9.152,0.586,9.931-3.123c0.779-3.706,1.558-6.047,4.287-2.925c2.726,3.122,8.17,5.882,1.575,8.259&#xD;&#xA;	c-6.595,2.381-13.457,6.875-10.815,10.047c2.638,3.173,0.263,5.023,0.263,8.986c0,3.964,0.265,12.952,3.429,14.011&#xD;&#xA;	c3.167,1.055,16.36-4.494,18.207-1.059c1.845,3.437,3.957,11.367,7.388,7.402c3.43-3.966-1.849-8.725,1.318-13.746&#xD;&#xA;	c3.165-5.022,8.441-10.839,3.165-13.481c-5.276-2.645-13.983-5.021-13.191-7.929c0.79-2.907,2.109-3.437,3.693-1.851&#xD;&#xA;	c1.092,1.094,3.313,2.311,5.364,2.27c-3.762-7.851-8.314-14.995-13.669-22.135c-4-7,1-13,8-13c-1-2-1-5,0-6c6-3,10-8,15-11&#xD;&#xA;	c4-3,12,6,16,0c1-2,4-4,5-6c1-3,9-2,10-6c5-9,7-24,20-26C963.5,443.5,963.5,441.5,965.5,439.5z" />
	<path id="05-shaoguanshi" fill-rule="evenodd" clip-rule="evenodd" fill="#D3D3D3" stroke="#FFFFFF" d="M812.5,296.5c7-7,20-17,17-25c-2-10-15,5-22,10&#xD;&#xA;	c-1,2,0,5,1,8c-6-5-16-3-21-7c-18-13-10-37-8-57c0-1,3-1,5-1c-2.201-11.006,5.828-16.086,15.395-18.804&#xD;&#xA;	c-0.093-0.339-0.182-0.716-0.27-1.156c-0.814-4.063-6.231-5.147-10.023-7.313c-3.791-2.167-10.293-5.418-4.332-6.23&#xD;&#xA;	c5.957-0.814,19.771-6.772,21.396-13.001c1.627-6.23,1.627-14.356,5.689-15.168c4.063-0.813,5.416-2.981,4.603-7.043&#xD;&#xA;	c-0.811-4.062-0.27-14.627,5.42-18.419c5.687-3.792,10.02-3.792,14.085-9.48c4.063-5.689,5.958-9.751,9.21-7.042&#xD;&#xA;	c3.247,2.71,7.854-2.437,11.375-4.875c3.52-2.438,4.334-3.521,8.126-3.25c3.792,0.27,4.606-2.168,2.438-4.334&#xD;&#xA;	c-2.167-2.167-5.146-3.251-2.707-9.209c2.438-5.96,8.938-22.482,1.354-22.482c-7.585,0-13.545,0.54-15.169-2.438&#xD;&#xA;	c-1.624-2.98-2.438-4.876-5.687-4.876c-3.252,0-1.629-10.022-7.315-7.042c-5.689,2.98-13.274,3.522-16.792,7.585&#xD;&#xA;	c-3.523,4.063-5.416,9.208-9.482,8.126c-4.063-1.084-11.918-6.772-13.002-4.876s2.708,9.209-1.895,9.209&#xD;&#xA;	c-4.605,0-20.045-1.895-25.461,0c-5.417,1.896-14.899,8.126-14.899,3.521c0-4.604,4.606-11.376,0.813-14.354&#xD;&#xA;	c-3.791-2.981-6.499-7.315-6.499-10.835c0-3.522-5.96-7.856-10.022-5.688c-4.062,2.166-6.501,7.042-9.48,11.104&#xD;&#xA;	c-2.98,4.063-7.856,12.189-13.273,11.377c-5.416-0.812-7.311-4.876-14.355-1.354c-7.041,3.521-14.625,6.229-17.877,4.063&#xD;&#xA;	c-3.249-2.167-6.5-6.23-14.355-6.23c-7.854,0-13.814,0-17.337-5.417c-3.519-5.417-13.001-18.961-17.063-18.418&#xD;&#xA;	c-4.062,0.542-8.668,0.542-12.187,3.25c-3.522,2.71-10.293-0.542-10.293,5.418c0,5.958-0.273,8.125-4.876,9.209&#xD;&#xA;	c-4.606,1.083-6.774,9.48-11.92,9.75c-5.146,0.272-10.02,0.542-12.188,3.522c-2.168,2.979-3.522,7.585-7.584,5.689&#xD;&#xA;	c-4.063-1.896-8.668-4.877-8.668-1.355c0,3.521-2.438,9.751,2.982,13.001c5.417,3.25,8.395,2.438,13.271,2.167&#xD;&#xA;	c4.876-0.271,10.022,2.98,8.398,5.688c-1.628,2.708-10.296,7.043-6.23,12.188c4.063,5.147,1.894,13.001,3.519,17.878&#xD;&#xA;	c1.627,4.875,3.522,13.543-2.164,15.709c-2.408,0.917-6.172,2.318-9.96,3.548c-2.858,8.659-6.662,15.06-12.703,23.689&#xD;&#xA;	c-7,10-11,26-6,36c4,6,11,18,17,14c9-7,18-11,27-7s19,2,28,3c2,0,2,6,4,6c10,3,19-9,26-9c13,0,24,13,38,18c7,3,3,12,7,18&#xD;&#xA;	c2,5,9,8,13,12c1,0,3,4,2,6c-2,3-6,4-7,5c-6,14-16,20-22,33c-1,3,9,9,8,12c-0.034,0.076-0.079,0.145-0.115,0.22&#xD;&#xA;	c3.7,0.911,7.337,1.633,10.115-0.22c7-5,13-9,21-10c14-1,28-2,41-1c8,1,18-6,23,4c0.347,0.867,0.473,1.766,0.45,2.677&#xD;&#xA;	C805.531,315.982,806.603,301.414,812.5,296.5z" />
	<path id="05-shanweishi" fill-rule="evenodd" clip-rule="evenodd" fill="#D3D3D3" stroke="#FFFFFF" d="M981.46,415.706&#xD;&#xA;	c-7.32,9.535-0.676,28.836-16.96,29.794c-13,2-15,17-20,26c-1,4-9,3-10,6c-1,2-4,4-5,6c-4,6-12-3-16,0c-5,3-9,8-15,11c-1,1-1,4,0,6&#xD;&#xA;	c-7,0-12,6-8,13c5.354,7.14,9.907,14.284,13.669,22.135c0.924-0.02,1.814-0.293,2.552-0.949c2.375-2.113,1.845-0.793,3.694,2.909&#xD;&#xA;	c1.845,3.7,3.43,9.252,8.706,5.813c5.277-3.436,1.582-6.078,4.75-7.929c3.165-1.851,2.371-2.116,0-4.495&#xD;&#xA;	c-2.375-2.377,1.018-2.464-0.839-5.441c-1.854-2.976-3.217-5.58,0.372-2.729c3.589,2.854,3.467,4.342,7.428,3.473&#xD;&#xA;	c3.963-0.867,9.531-1.859,12.254,0.25c2.726,2.107,5.201,4.586,4.952-0.25c-0.248-4.836,0.74-7.191,4.084-7.316&#xD;&#xA;	c3.344-0.123,4.333,2.73,7.059-0.371c2.723-3.102,0.372-3.845,3.343-5.582c2.969-1.736,15.721-4.835,4.828,4.093&#xD;&#xA;	c-10.896,8.931-13.865,11.161-12.503,12.153c1.36,0.993,11.141-4.96,14.48-3.223c3.344,1.736,10.335,2.981,13.021,2.981&#xD;&#xA;	c2.688,0,10.335,1.239,5.375,4.341s-9.304-1.24-11.783,0.62c-2.48,1.86-1.86,4.755,1.656,8.062c3.512,3.308,12.193,3.1,16.33,1.654&#xD;&#xA;	c4.133-1.448,8.476-1.654,12.193,2.686c3.722,4.343,7.647,8.27,7.03,3.103c-0.62-5.168-3.309-5.788,0.207-9.923&#xD;&#xA;	c3.512-4.135,4.754-8.683,0.824-6.408c-3.926,2.273-4.96-0.828-4.96,1.859s0,7.029-2.894,2.895c-2.895-4.135-6.203-4.34-1.859-8.269&#xD;&#xA;	c4.338-3.928,5.787-8.062,7.026-11.368c1.241-3.309,3.515-5.789,1.241-3.928c-2.272,1.859-10.131,3.928-10.131,1.445&#xD;&#xA;	c0-2.48,3.308-11.989,3.515-7.854c0.208,4.134,1.035,6.822,6.616,3.722c5.581-3.101,10.129-3.929,14.469-8.683&#xD;&#xA;	c4.342-4.755,8.475-6.203,12.403-6.203c3.93,0,6.41,1.035,2.066,2.688c-4.339,1.654-16.536,7.649-14.673,8.683&#xD;&#xA;	c1.857,1.033,13.229,7.028,16.329,7.235c3.098,0.207,8.679-0.414,9.507,5.582c0.828,5.993,0.414,7.854-0.414,5.375&#xD;&#xA;	c-0.824-2.48-4.133-5.996-3.719-1.862c0.411,4.135,0.825,7.649,4.754,5.995c3.925-1.653,2.688-6.821,7.646-7.648&#xD;&#xA;	c4.962-0.826,16.124-3.514,20.468-6.822c4.34-3.307,5.581-3.513,7.854-3.307c2.274,0.207,2.48-1.446,0.415-2.479&#xD;&#xA;	c-2.069-1.035-3.101-2.068-0.62-2.482c2.479-0.413,9.299-0.413,5.167-3.1c-3.699-2.403-8.702-5.134-8.538-6.572&#xD;&#xA;	c-8.896-3.932-20.82-1.494-25.353-10.558c-4-9-8-18-12-28c-1,5-7,5-8,3c-7-7-18-4-20-13c0-2,7-6,6-10c2,0,6,1,6,0c3-6,3-15-3-19&#xD;&#xA;	c-5-5-14,3-21-2c-3-2,1-9-2-11c-1-2-4-4-6-5c0-0.664-0.007-1.766-0.3-2.726c-0.23,0.243-0.461,0.486-0.7,0.726&#xD;&#xA;	c0.239-0.239,0.47-0.482,0.7-0.726c-0.148-0.486-0.364-0.938-0.7-1.274c-7,4-9,13-17,16&#xD;&#xA;	C982.121,414.879,981.782,415.287,981.46,415.706" />
	<path id="05-jieyangshi" fill-rule="evenodd" clip-rule="evenodd" fill="#D3D3D3" stroke="#FFFFFF" d="M1105.5,350.5c-5,5-9,14-16,16c-10,2-24,11-30-1&#xD;&#xA;	c-9,4-20-4-26,4c-3,3,1,11-4,15s-12,0-17,2c-4.761,2.856-7.713,8.431-12.3,13.274c0.293,0.96,0.3,2.062,0.3,2.726c2,1,5,3,6,5&#xD;&#xA;	c3,2-1,9,2,11c7,5,16-3,21,2c6,4,6,13,3,19c0,1-4,0-6,0c1,4-6,8-6,10c2,9,13,6,20,13c1,2,7,2,8-3c4,10,8,19,12,28&#xD;&#xA;	c4.532,9.064,16.457,6.626,25.353,10.558c0.019-0.17,0.094-0.326,0.269-0.457c1.653-1.24,3.103-1.861,5.788,0.62&#xD;&#xA;	c2.688,2.481,7.027,2.894,9.508,3.515c2.479,0.619,0,1.861-2.066,4.961c-2.065,3.101-4.34,5.788-1.652,7.441&#xD;&#xA;	c2.688,1.652,7.026-0.414,9.714-3.926c2.688-3.515,7.03-10.337,9.718-12.611c2.687-2.273,11.573-5.788,10.127-8.062&#xD;&#xA;	c-1.448-2.273-1.034-5.374,1.86-3.308c2.895,2.068,8.065,9.107,12.446,8.67c4.378-0.438,7.878-4.816,12.04-3.941&#xD;&#xA;	c4.16,0.875,7.224,0.658,8.978-3.284c1.75-3.941-2.628-7.225-0.66-7.662c1.972-0.439,4.382,3.284,7.883,0.437&#xD;&#xA;	c3.505-2.846,4.16-3.941,2.41-7.88c-1.147-2.579-1.632-5.623-1.834-8.525c-13.516-0.446-26.938-0.463-38.88,4.454c-8,3-20-5-25-12&#xD;&#xA;	c-6-9,8-18,14-27c4-8-2-16,2-23c2-4,8-8,13-8c1,0,2,4,3,4c5,4,11,2,16,4c3,2,5,7,9,5c1.853-1.852,3.704-4.563,5.557-7.336&#xD;&#xA;	c-4.531-1.81-8.103-7.028-9.557-10.664c-3-12-6-24-13-32c-5.421-5.421-13.193-11.715-21.244-14.439&#xD;&#xA;	c-0.253,0.14-0.507,0.273-0.756,0.439c0.249-0.166,0.503-0.299,0.756-0.439C1118.454,344.76,1111.453,345.005,1105.5,350.5z" />
	<path id="05-shantoushi" fill-rule="evenodd" clip-rule="evenodd" fill="#D3D3D3" stroke="#FFFFFF" d="M1208.992,436.666&#xD;&#xA;	c-2.406-1.533-7.883-3.722-6.566-7.444c1.313-3.722,2.405-5.035,0.438-5.911c-1.972-0.875-8.76-4.597-7.227-5.911&#xD;&#xA;	c1.532-1.314,1.75-2.845,3.942-1.75c2.189,1.095,6.568,4.817,11.163-2.189c4.6-7.006,12.917-20.8,12.699-25.835&#xD;&#xA;	c-0.125-2.904-0.684-6.534-0.592-9.678c-6.158-4.666-12.25-9.317-19.351-11.447c-19-5-26,19-24,34c0,2-4,4-5,4&#xD;&#xA;	c-1.909,0.545-3.744,0.343-5.443-0.336c-1.853,2.773-3.704,5.484-5.557,7.336c-4,2-6-3-9-5c-5-2-11,0-16-4c-1,0-2-4-3-4&#xD;&#xA;	c-5,0-11,4-13,8c-4,7,2,15-2,23c-6,9-20,18-14,27c5,7,17,15,25,12c11.941-4.917,25.364-4.899,38.88-4.454&#xD;&#xA;	c-0.106-1.534-0.138-3.03-0.138-4.392c0-3.941,2.189-7.883,5.472-9.853c3.285-1.969,4.379-6.786,1.972-7.444&#xD;&#xA;	c-2.41-0.655-2.41-1.313-4.598,0.439c-2.189,1.75-5.912,1.313-7.445-0.875c-1.529-2.191-0.217-3.503,1.972-3.286&#xD;&#xA;	c2.189,0.219,14.667-0.875,14.667,2.409c0,3.285-1.75,13.793,3.944,7.882c5.688-5.911,11.601-11.386,15.322-10.291&#xD;&#xA;	c3.723,1.095,7.666,4.598,8.761,3.066C1211.403,440.169,1211.403,438.199,1208.992,436.666z" />
	<path id="05-chaozhoushi" fill-rule="evenodd" clip-rule="evenodd" fill="#D3D3D3" stroke="#FFFFFF" d="M1267.887,365.952&#xD;&#xA;	c-4.16-0.219-13.752-7.833-16.189-12.707c-2.438-4.876-7.312-16.251-7.312-20.585c0-4.334-0.544-12.189-3.251-17.335&#xD;&#xA;	c-2.709-5.146-5.417-13.815-8.939-18.691c-3.521-4.875-7.314-8.667-4.876-13.271c2.438-4.604,14.899-15.711,10.023-18.962&#xD;&#xA;	c-2.689-1.792-6.857-5.974-10.195-10.091c-8.212,4.453-17.574,5.891-22.647,15.191c-1,0-4,0-5,0c-5,3-12,4-13,7c-3,10-11,15-14,23&#xD;&#xA;	c-6,15-20,20-32,27c6,5,10,14,2,18c-4.792,2.875-11.419-0.66-17.244,2.561c8.051,2.724,15.823,9.018,21.244,14.439c7,8,10,20,13,32&#xD;&#xA;	c1.454,3.636,5.025,8.854,9.557,10.664c0.147-0.221,0.296-0.442,0.443-0.664c-0.147,0.222-0.296,0.443-0.443,0.664&#xD;&#xA;	c1.699,0.679,3.534,0.881,5.443,0.336c1,0,5-2,5-4c-2-15,5-39,24-34c7.101,2.13,13.192,6.781,19.351,11.447&#xD;&#xA;	c0.067-2.305,0.483-4.35,1.688-5.647c2.844-3.064-2.407-2.845,1.312-6.129c3.722-3.285,5.254-3.285,5.476-0.877&#xD;&#xA;	c0.219,2.409,2.846,7.225,5.69,5.692c2.85-1.532,10.728-3.721,13.355-0.875c2.627,2.847,4.161,4.816,4.378,7.664&#xD;&#xA;	c0.221,2.845,2.41,4.159,6.35,0c3.94-4.161,8.538-9.415,11.384-9.634C1275.331,367.921,1272.045,366.17,1267.887,365.952z" />
	<path id="05-heyuanshi" fill-rule="evenodd" clip-rule="evenodd" fill="#D3D3D3" stroke="#FFFFFF" d="M972.5,395.5c-2-16,6-31-8-45c-4-4-9-1-13-2&#xD;&#xA;	c0,0,0-2,0-3c6-4,7-5,8-12c2,1,3-3,5-2c2-15,2-29,3-44c0-4,9-6,14-1c3-6,1-12,9-12c0-4-4-4-5-6c-2-5,8-3,7-6c-5-13-3-27-3-39&#xD;&#xA;	c-1-4-15-10-11-19c2-5,7-10,8-15c0.624-4.995,1.174-9.979,1.69-14.959c-2.38-2.006-4.571-3.3-6.004-3.047&#xD;&#xA;	c-4.603,0.814-7.314,1.356-7.854,4.876c-0.54,3.52-2.438,5.146-5.96,2.438c-3.519-2.708-4.063-2.979-8.666-1.084&#xD;&#xA;	c-4.605,1.896-14.084,6.23-17.876,9.211c-3.794,2.978-4.337,0-5.961,2.708c-1.624,2.708-7.585,1.354-9.753-1.084&#xD;&#xA;	c-2.164-2.438-3.788-1.084-8.125,0c-4.332,1.084-5.687,3.522-9.208,2.98c-3.523-0.542-9.753,1.896-9.753,5.416&#xD;&#xA;	c0,3.522,0,13.273-4.333,12.731c-4.332-0.542-14.624-8.667-20.045-5.146c-5.416,3.521-3.248,9.209-6.229,10.293&#xD;&#xA;	c-2.979,1.083-6.228,1.083-7.855-2.166c-1.625-3.252-2.708-4.064-6.501-1.627c-3.792,2.438-7.311,4.063-13.001,3.793&#xD;&#xA;	c-5.687-0.271-10.022,1.354-13.813,5.146c-3.792,3.792-9.48,0.812-11.104-1.896c-1.628-2.708-5.689-8.939-10.292-9.48&#xD;&#xA;	c-4.106-0.483-5.199-0.114-5.961-2.906c-9.566,2.717-17.596,7.798-15.395,18.804c-2,0-5,0-5,1c-2,20-10,44,8,57c5,4,15,2,21,7&#xD;&#xA;	c-1-3-2-6-1-8c7-5,20-20,22-10c3,8-10,18-17,25c-5.897,4.914-6.97,19.482-15.55,25.677c-0.105,4.345-3.797,9.017-5.45,12.323&#xD;&#xA;	c-5,9,2,16,7,22c6,9,18,2,24,8c5,5,8,12,9,21c0,9,12,1,16,7c5,6-5,13-3,19c2,7,10,9,14,17c0,2,4,3,7,3c-1,5,5,8,7,11c3,3,0,10,5,14&#xD;&#xA;	c1,1,4,0,5,0c4-10,11-18,8-30c0,0,1-4,2-3c5,0,5,11,10,7c13-9,36-20,45-8c4,6,11,11,18,17c-2,2-2,4-1,6&#xD;&#xA;	c16.284-0.958,9.64-20.259,16.96-29.794C973.373,411.9,972.5,401.988,972.5,395.5z" />
	<path id="05-meizhoushi" fill-rule="evenodd" clip-rule="evenodd" fill="#D3D3D3" stroke="#FFFFFF" d="M1221.904,245.711&#xD;&#xA;	c-0.814-4.334,0.27-13.001-4.333-14.086c-4.606-1.082-5.417-4.874-5.146-10.563c0.271-5.688-7.854-7.584-10.022-7.584&#xD;&#xA;	s-4.063-7.855-2.438-14.357c1.625-6.501,5.96-9.209,4.876-12.729c-1.084-3.521-7.313-9.21-7.313-4.334s-3.794,5.146-8.398,5.146&#xD;&#xA;	c-4.604,0-19.772-1.084-21.667,2.708c-1.897,3.792-5.689,8.397-9.211,4.604c-3.52-3.792-2.436-10.835-5.958-14.897&#xD;&#xA;	c-3.522-4.062-5.147-7.042-10.836-8.396c-5.687-1.354-12.457-7.043-9.208-9.209c3.251-2.168,11.375-8.668,6.229-10.565&#xD;&#xA;	c-5.146-1.896-5.687,0.813-9.753,5.146c-4.063,4.334-6.228,7.314-12.457,6.231c-6.23-1.085-3.522-8.668-10.567-8.668&#xD;&#xA;	c-7.04,0-11.916,0-15.439,0.813c-3.517,0.812-9.748-2.71-12.457-4.876c-2.707-2.166-10.562-7.854-17.066-7.854&#xD;&#xA;	c-6.5,0-9.208,0-7.041,2.708c2.169,2.708,5.417,5.417,1.625,6.23c-3.792,0.813-5.416-1.084-7.314-3.792&#xD;&#xA;	c-1.895-2.708-4.063-2.98-6.501,2.438c-2.435,5.416-8.938,22.481-5.956,25.459c2.978,2.98,2.978,5.146,2.978,9.751&#xD;&#xA;	c0,4.606,1.898,8.939,5.146,10.835c3.252,1.896,5.961,8.126,1.354,9.48c-4.603,1.354-13,5.418-17.334,4.063&#xD;&#xA;	c-4.335-1.354-5.96-8.395-12.19-9.479c-6.231-1.084-13.542-7.042-14.896-10.565c-0.935-2.426-7.141-10.382-12.417-14.83&#xD;&#xA;	c-0.517,4.98-1.066,9.964-1.69,14.959c-1,5-6,10-8,15c-4,9,10,15,11,19c0,12-2,26,3,39c1,3-9,1-7,6c1,2,5,2,5,6c-8,0-6,6-9,12&#xD;&#xA;	c-5-5-14-3-14,1c-1,15-1,29-3,44c-2-1-3,3-5,2c-1,7-2,8-8,12c0,1,0,3,0,3c4,1,9-2,13,2c14,14,6,29,8,45&#xD;&#xA;	c0,6.488,0.873,16.4,8.96,20.206c0.322-0.419,0.661-0.827,1.04-1.206c8-3,10-12,17-16c0.336,0.336,0.552,0.789,0.7,1.274&#xD;&#xA;	c4.587-4.843,7.539-10.418,12.3-13.274c5-2,12,2,17-2s1-12,4-15c6-8,17,0,26-4c6,12,20,3,30,1c7-2,11-11,16-16&#xD;&#xA;	c5.953-5.495,12.954-5.74,19.756-3.439c5.825-3.221,12.452,0.314,17.244-2.561c8-4,4-13-2-18c12-7,26-12,32-27c3-8,11-13,14-23&#xD;&#xA;	c1-3,8-4,13-7c1,0,4,0,5,0c5.073-9.301,14.436-10.738,22.647-15.191C1224.434,250.96,1222.268,247.655,1221.904,245.711z" />
	<path id="05-qingyuanshi" fill-rule="evenodd" clip-rule="evenodd" fill="#D3D3D3" stroke="#FFFFFF" d="M607.5,381.5c1-4,10-1,14-4c5-4,7-13,11-14&#xD;&#xA;	c13-2,29,11,39,1c5-5-6-18-1-20c12-2,26-7,31-18c1-3-9-9-8-12c6-13,16-19,22-33c1-1,5-2,7-5c1-2-1-6-2-6c-4-4-11-7-13-12&#xD;&#xA;	c-4-6,0-15-7-18c-14-5-25-18-38-18c-7,0-16,12-26,9c-2,0-2-6-4-6c-9-1-19,1-28-3s-18,0-27,7c-6,4-13-8-17-14c-5-10-1-26,6-36&#xD;&#xA;	c6.041-8.629,9.845-15.03,12.703-23.689c-5.166,1.677-10.377,3.036-12.253,2.411c-3.249-1.083-11.374-13.002-11.647-18.418&#xD;&#xA;	c-0.27-5.417-4.332-21.94-8.938-21.94c-4.603,0-10.833-1.084-15.439-0.542c-4.603,0.542-10.293-1.354-13.541-3.792&#xD;&#xA;	c-3.252-2.438-10.023-12.189-18.691-9.751c-8.667,2.438-10.563,3.25-15.981,0c-5.417-3.25-13.542-5.146-14.085,1.896&#xD;&#xA;	c-0.54,7.043-2.166,17.064-6.501,22.752c-4.332,5.688-2.978,12.73-0.542,15.439c2.438,2.708,8.668,10.834,5.688,15.438&#xD;&#xA;	c-2.979,4.606-4.604,7.314-9.751,8.398c-5.146,1.083-10.022,9.209-14.085,11.375c-4.063,2.168-18.42,15.982-16.523,21.942&#xD;&#xA;	c1.896,5.958,9.21,10.293,10.564,14.625c1.354,4.334-3.522,10.293,0.542,13.814c4.062,3.521,5.147,3.792,8.396,10.563&#xD;&#xA;	c3.25,6.772,2.167,13.001-2.98,16.793c-1.609,1.186-4.541,3.085-7.828,5.353c3.518,4.744,4.999,11.234,9.892,13.331c9,5,17-5,20-12&#xD;&#xA;	c4-7,0-15-4-21c15-1,27,11,33,23c4,8-9,14-4,22c1,3,8,2,9,5c4,6,4,15,4,23c9-1,15,6,23,8c13,5,9,25,13,38c0,1,3,2,4,3c3,7,1,18,8,23&#xD;&#xA;	c9-1,13,7,10,15c3,0,4,4,7,3c0.853,2.984,2.077,5.597,3.424,8.086c4.572-3.929,8.751-7.478,13.576-9.086&#xD;&#xA;	C596.5,400.5,606.5,394.5,607.5,381.5z" />
				<text x="801" y="483" xml:space="preserve" font-family="Microsoft YaHei" font-size="18" fill="#000000" stroke="none" stroke-opacity="0" baseline-shift="baseline" >惠州市</text>
	<text x="968" y="503" xml:space="preserve" font-family="Microsoft YaHei" font-size="18" fill="#000000" stroke="none" stroke-opacity="0" baseline-shift="baseline" >汕尾市</text>
		<text x="1076" y="391" xml:space="preserve" font-family="Microsoft YaHei" font-size="18" fill="#000000" stroke="none" stroke-opacity="0" baseline-shift="baseline" >揭阳市</text>
	<text x="1185" y="329" xml:space="preserve" font-family="Microsoft YaHei" font-size="18" fill="#000000" stroke="none" stroke-opacity="0" baseline-shift="baseline" >潮州市</text>
	<text x="1106" y="231" xml:space="preserve" font-family="Microsoft YaHei" font-size="18" fill="#000000" stroke="none" stroke-opacity="0" baseline-shift="baseline" >梅州市</text>
	<text x="850" y="328" xml:space="preserve" font-family="Microsoft YaHei" font-size="18" fill="#000000" stroke="none" stroke-opacity="0" baseline-shift="baseline" >河源市</text>
	<text x="683" y="136" xml:space="preserve" font-family="Microsoft YaHei" font-size="18" fill="#000000" stroke="none" stroke-opacity="0" baseline-shift="baseline" >韶关市</text>
	<text x="560" y="343" xml:space="preserve" font-family="Microsoft YaHei" font-size="18" fill="#000000" stroke="none" stroke-opacity="0" baseline-shift="baseline" >清远市</text>
	<text x="612" y="441" xml:space="preserve" font-family="Microsoft YaHei" font-size="18" fill="#000000" stroke="none" stroke-opacity="0" baseline-shift="baseline" >广州市</text>
	<text x="486" y="470" xml:space="preserve" font-family="Microsoft YaHei" font-size="18" fill="#000000" stroke="none" stroke-opacity="0" baseline-shift="baseline" >肇庆市</text>
	<text x="401" y="524" xml:space="preserve" font-family="Microsoft YaHei" font-size="18" fill="#000000" stroke="none" stroke-opacity="0" baseline-shift="baseline" >云浮市</text>
	<text x="384" y="690" xml:space="preserve" font-family="Microsoft YaHei" font-size="18" fill="#000000" stroke="none" stroke-opacity="0" baseline-shift="baseline" >阳江市</text>
	<text x="222" y="708" xml:space="preserve" font-family="Microsoft YaHei" font-size="18" fill="#000000" stroke="none" stroke-opacity="0" baseline-shift="baseline" >茂名市</text>
	<text x="124" y="813" xml:space="preserve" font-family="Microsoft YaHei" font-size="18" fill="#000000" stroke="none" stroke-opacity="0" baseline-shift="baseline" >湛江市</text>
	<text x="669" y="620" xml:space="preserve" font-family="Microsoft YaHei" font-size="18" fill="#000000" stroke="none" stroke-opacity="0" baseline-shift="baseline" >珠海市</text>
	<text x="636" y="564" xml:space="preserve" font-family="Microsoft YaHei" font-size="18" fill="#000000" stroke="none" stroke-opacity="0" baseline-shift="baseline" >中山市</text>
<text x="691" y="499" xml:space="preserve" font-family="Microsoft YaHei" font-size="18" fill="#000000" stroke="none" stroke-opacity="0" baseline-shift="baseline">
东莞市</text>
<text x="534" y="602" xml:space="preserve" font-family="Microsoft YaHei" font-size="18" fill="#000000" stroke="none" stroke-opacity="0" baseline-shift="baseline">
江门市</text>
<text x="554" y="498" xml:space="preserve" font-family="Microsoft YaHei" font-size="18" fill="#000000" stroke="none" stroke-opacity="0" baseline-shift="baseline">
佛山市</text>
<text x="733" y="553" xml:space="preserve" font-family="Microsoft YaHei" font-size="18" fill="#000000" stroke="none" stroke-opacity="0" baseline-shift="baseline">
深圳市</text>
<text x="1144" y="433" xml:space="preserve" font-family="Microsoft YaHei" font-size="18" fill="#000000" stroke="none" stroke-opacity="0" baseline-shift="baseline">
汕头市</text>
</svg>
