<?xml version="1.0" encoding="UTF-8" standalone="no"?>
<svg
   xmlns:dc="http://purl.org/dc/elements/1.1/"
   xmlns:cc="http://creativecommons.org/ns#"
   xmlns:rdf="http://www.w3.org/1999/02/22-rdf-syntax-ns#"
   xmlns:svg="http://www.w3.org/2000/svg"
   xmlns="http://www.w3.org/2000/svg"
   xmlns:sodipodi="http://sodipodi.sourceforge.net/DTD/sodipodi-0.dtd"
   xmlns:inkscape="http://www.inkscape.org/namespaces/inkscape"
   width="1280"
   height="1024"
   id="svg2"
   sodipodi:version="0.32"
   inkscape:version="0.48.4 r9939"
   sodipodi:docname="xian_chengdushi+.svg"
   inkscape:output_extension="org.inkscape.output.svg.inkscape"
   version="1.1">
  <metadata
     id="metadata62">
    <rdf:RDF>
      <cc:Work
         rdf:about="">
        <dc:format>image/svg+xml</dc:format>
        <dc:type
           rdf:resource="http://purl.org/dc/dcmitype/StillImage" />
      </cc:Work>
    </rdf:RDF>
  </metadata>
  <defs
     id="defs60">
    <inkscape:perspective
       sodipodi:type="inkscape:persp3d"
       inkscape:vp_x="0 : 296.5 : 1"
       inkscape:vp_y="0 : 1000 : 0"
       inkscape:vp_z="959 : 296.5 : 1"
       inkscape:persp3d-origin="479.5 : 197.66667 : 1"
       id="perspective64" />
  </defs>
  <sodipodi:namedview
     inkscape:window-height="925"
     inkscape:window-width="1117"
     inkscape:pageshadow="2"
     inkscape:pageopacity="0.0"
     guidetolerance="10.0"
     gridtolerance="10.0"
     objecttolerance="10.0"
     borderopacity="1.0"
     bordercolor="#000000"
     pagecolor="#ffffff"
     id="base"
     showgrid="true"
     inkscape:zoom="0.70710678"
     inkscape:cx="625.07647"
     inkscape:cy="525.70393"
     inkscape:window-x="873"
     inkscape:window-y="28"
     inkscape:current-layer="svg2"
     showguides="true"
     inkscape:guide-bbox="true"
     inkscape:window-maximized="0" />
  <path
     style="fill:#d3d3d3;fill-opacity:1;stroke:#ffffff;stroke-width:1;stroke-miterlimit:4;stroke-opacity:1;stroke-dasharray:none"
     id="028-pengzhoushi"
     d="m 793.46257,327.41812 c -6.82811,-3.3988 -13.87432,-8.14774 -21.25204,-14.73491 C 725.70498,271.12042 653.31778,198.37235 599.05064,146.41739 544.80094,94.465337 526.98041,12.608063 454.57576,10.024635 c -6.12727,7.308998 -13.75217,13.343817 -23.52323,16.917949 -16.23274,5.926689 -26.55632,24.560105 -35.31827,49.599489 33.66941,18.908127 39.65708,71.847957 53.20279,104.520717 17.4483,52.60375 43.62076,96.44021 72.70127,146.12153 1.4453,4.35734 0.73283,8.71469 -0.70375,12.71549 41.937,19.46339 88.80607,41.72938 119.58197,73.67447 10.78014,-5.41819 21.56028,-10.83344 32.34043,-16.25163 37.40917,-31.81066 71.99171,-63.57747 120.6056,-69.90453 z"
     sodipodi:nodetypes="028-pengzhoushi"
     inkscape:connector-curvature="0" />
  <path
     style="fill:#d3d3d3;fill-opacity:1;stroke:#ffffff;stroke-width:1;stroke-miterlimit:4;stroke-opacity:1;stroke-dasharray:none"
     id="028-doujiangyanshi"
     d="m 520.93748,339.89689 c 1.43658,-4.00081 2.14905,-8.35523 0.70375,-12.71549 C 492.56072,277.50008 466.38826,233.66362 448.93995,181.05987 435.39425,148.39003 429.40657,95.447279 395.73717,76.539151 389.14752,95.368366 383.44483,117.81848 376.7854,141.233 c -15.50864,54.553 -43.94647,137.64938 -41.37285,155.85905 2.10253,14.88686 -2.73066,92.49492 -42.88211,128.66877 31.21792,18.72693 67.42607,25.01308 98.25141,47.5421 17.4483,11.68971 37.80466,11.68971 55.25296,17.53458 2.84408,-27.1377 10.57659,-51.46985 22.12446,-74.04854 z"
     sodipodi:nodetypes="028-doujiangyanshi"
     inkscape:connector-curvature="0" />
  <path
     style="fill:#d3d3d3;fill-opacity:1;stroke:#ffffff;stroke-width:1;stroke-miterlimit:4;stroke-opacity:1;stroke-dasharray:none"
     id="028-pixian"
     d="m 565.262,482.07021 c 20.35635,2.92242 29.0805,26.30187 43.62075,35.06917 23.26441,11.68971 61.06907,8.76728 63.97713,-5.84487 14.40067,-92.61474 -76.7202,-136.49796 -151.9224,-171.39762 -1.45403,4.04464 -3.6496,7.72691 -5.11235,10.66395 -19.32691,20.91876 -35.58582,42.61196 -47.66878,66.22812 25.84385,28.44109 57.29734,53.85162 97.10565,65.28125 z"
     sodipodi:nodetypes="028-pixian"
     inkscape:connector-curvature="0" />
  <path id="028-wenjiangxian" fill="#D3D3D3" stroke="#FFFFFF" d="M633.742,567.924c-0.039-6.373,0.439-12.828,1.758-19.424
	c2.549-8.285,4.283-16.166,5.726-24.156c-10.965-0.107-22.862-2.442-32.344-7.207c-14.54-8.768-23.264-32.147-43.62-35.069
	c-39.809-11.43-71.259-36.837-97.105-65.281c-11.551,22.578-19.283,46.911-22.125,74.049c31.988,17.534,40.713,52.604,63.978,81.828
	c5.815,8.767,14.54,17.534,20.356,26.302c11.632,14.612,23.264,29.224,29.08,49.681c23.265-23.379,34.896-55.525,58.161-75.982
	C621.015,569.238,627.089,567.606,633.742,567.924z"/>
<path id="028-wuhouqu" fill="#D3D3D3" stroke="#FFFFFF" d="M733.5,555.5c-21,4-43-6-62,3c-9.32,4.66-20.411,6.664-29.736,10.727
	c7.909,2.199,15.493,7.146,19.464,15.126c22.88,10.22,50.206,15.972,72.262,23.115c5.945-15.786,1.51-34.83,1.051-52.238
	C734.195,555.32,733.85,555.412,733.5,555.5z"/>
<path id="028-jinjiangqu" fill="#D3D3D3" stroke="#FFFFFF" d="M794.5,591.5c-1-4,5-8,1-10c-4-3-9,4-14,2c-5-3-6-9-9-12
	c-8.532-9.48-23.349-11.776-35.091-17.101c-0.939,0.297-1.896,0.572-2.869,0.83c0.459,17.408,4.895,36.452-1.051,52.238
	c3.173,1.027,6.237,2.084,9.163,3.187c13.833,5.792,25.837,15.262,37.645,25.671c8.854-8.67,13.562-20.715,17.203-33.825
	c0-2,4-3,5-5C808.5,592.5,795.5,594.5,794.5,591.5z"/>
<path id="028-qingbaijiangqu" fill="#D3D3D3" stroke="#FFFFFF" d="M972.389,464.536c-55.125-14.577-66.83-78.608-72.658-128.243
	c-0.293-0.082-0.569-0.152-0.866-0.237c-25.604-7.146-47.295-0.931-69.377-0.816c-8.252,17.983-23.204,31.693-31.987,49.26
	c16-4,47,3,38,22c-7,15-2,32,5,45c0,1,4,3,4,4c3,7-1,18,1,19c17.407,8.246,38.155,18.178,36.9,39.01
	c4.305,0.839,8.467,2.447,12.1,4.99c2,2,6,6,8,6c12,0,17,4,26,12c1,2,7,0,8,2c8.407,9.007,18.978,10.44,29.763,10.149
	c-5.243-10.504-10.604-21.007-17.136-31.51C934.584,496.683,969.48,487.915,972.389,464.536z"/>
<path id="028-jinniuqu" fill="#D3D3D3" stroke="#FFFFFF" d="M761.5,442.5c-3-5-10-2-14,1c-14,12,7,16,14,24c-13,4-28,19-40,3c-5-7-4,10-9,8
	c-15.572-5.84-26.412-28.721-46.341-27.174c5.598,13.221,8.584,27.786,8.162,43.96c11.339,24.11,34.827,42.142,61.179,39.214
	c5-1,9-9,14-10c3.271-0.755,5.338-0.368,6.554,0.742c-2.124-5.678-6.038-11.742-12.554-11.742c0-3-3-7,0-9c5-2,10-2,14-5
	c6-6,14-8,19-13c3.244-2.523,5.151-5.21,6.048-7.982c-0.017-0.006-0.032-0.012-0.048-0.018c0.016,0.006,0.031,0.012,0.048,0.018
	C786.625,465.91,769.698,451.518,761.5,442.5z"/>
<path id="028-xindouqu" fill="#D3D3D3" stroke="#FFFFFF" d="M810.5,498.5c8.866,11.821,7.064,27.521,15.613,39.459
	c5.692,3.838,10.16,10.639,15.387,4.541c7-10,8-24,19-27c6.367-2.547,14.354-3.461,21.9-1.99c1.255-20.832-19.493-30.764-36.9-39.01
	c-2-1,2-12-1-19c0-1-4-3-4-4c-7-13-12-30-5-45c9-19-22-26-38-22c8.783-17.566,23.735-31.277,31.987-49.26
	c-11.685,0.061-23.479-1.584-36.022-7.825c-48.617,6.33-83.196,38.094-120.605,69.902c-10.78,5.418-21.561,10.833-32.341,16.251
	c10.865,11.277,19.716,23.764,25.641,37.758c19.929-1.547,30.769,21.334,46.341,27.174c5,2,4-15,9-8c12,16,27,1,40-3
	c-7-8-28-12-14-24c4-3,11-6,14-1c8.197,9.018,25.125,23.41,21.048,36.018C793.526,482.518,802.512,488.515,810.5,498.5z"/>
<path id="028-chenghuaqu" fill="#D3D3D3" stroke="#FFFFFF" d="M791.5,547.5c7-11,32,5,32-11c0.902,0.387,1.771,0.891,2.613,1.459
	c-8.549-11.938-6.747-27.638-15.613-39.459c-7.988-9.985-16.975-15.982-27.952-19.982c-0.896,2.772-2.804,5.458-6.048,7.982
	c-5,5-13,7-19,13c-4,3-9,3-14,5c-3,2,0,6,0,9c6.516,0,10.43,6.064,12.554,11.742c3.614,3.303-0.309,13.02-2.554,18.258
	c-4.166,5.834-9.725,8.886-16.091,10.899c11.742,5.324,26.559,7.62,35.091,17.101c2.762,2.762,3.837,8.06,7.889,11.226
	c0.704-0.238,1.407-1.226,2.111-1.226C793.5,574.5,785.5,556.5,791.5,547.5z"/>	
  <path
     style="fill:#d3d3d3;fill-opacity:1;stroke:#ffffff;stroke-width:1;stroke-miterlimit:4;stroke-opacity:1;stroke-dasharray:none"
     id="028-longquanyiqu"
     d="M986.569,586.664c-7.826-12.672-13.98-25.344-20.306-38.015
	c-10.785,0.291-21.355-1.143-29.763-10.149c-1-2-7,0-8-2c-9-8-14-12-26-12c-2,0-6-4-8-6c-3.633-2.543-7.795-4.151-12.1-4.99
	c-7.546-1.471-15.533-0.557-21.9,1.99c-11,3-12,17-19,27c-5.227,6.098-9.694-0.703-15.387-4.541
	c-0.842-0.568-1.711-1.072-2.613-1.459c0,16-25,0-32,11c-6,9,2,27-9,34c-0.704,0-1.407,0.987-2.111,1.226
	c0.35,0.272,0.714,0.536,1.111,0.774c5,2,10-5,14-2c4,2-2,6-1,10c1,3,14,1,8,6c-1,2-5,3-5,5c-3.642,13.11-8.35,25.155-17.203,33.825
	c17.979,15.85,35.502,33.884,58.321,44.468c0,0,8.247,5.546,5.987,11.236c10.815-9.609,23.553-16.933,38.768-20.898
	c20.022-5.199,67.19,5.205,64.626-36.357C945.513,594.619,959.907,598.094,986.569,586.664z"
     sodipodi:nodetypes="028-jintangxian"
     inkscape:connector-curvature="0" />
<path id="028-qingyangqu" fill="#D3D3D3" stroke="#FFFFFF" d="M737.409,554.399c6.366-2.014,11.925-5.065,16.091-10.899
	c2.245-5.238,6.168-14.955,2.554-18.258c0.157,0.422,0.308,0.843,0.446,1.258c-0.139-0.415-0.289-0.836-0.446-1.258
	c-1.216-1.11-3.282-1.497-6.554-0.742c-5,1-9,9-14,10c-26.352,2.928-49.84-15.104-61.179-39.214
	c-0.135,5.17-0.605,10.499-1.462,16.006c-1.723,8.656-15.694,13.208-31.634,13.052c-1.442,7.99-3.176,15.871-5.726,24.156
	c-1.319,6.596-1.797,13.051-1.758,19.424c2.626,0.125,5.343,0.558,8.022,1.303c9.325-4.063,20.416-6.066,29.736-10.727
	c19-9,41,1,62-3c0.35-0.088,0.694-0.18,1.04-0.271"/>
  <path
     style="fill:#d3d3d3;fill-opacity:1;stroke:#ffffff;stroke-width:1;stroke-miterlimit:4;stroke-opacity:1;stroke-dasharray:none"
     id="028-jintangxian"
     d="m 1255.5926,606.19459 c -0.3519,-6.47318 -0.4392,-12.30051 -0.3519,-17.4323 0,0 -38.424,-44.90899 -61.703,-65.70207 -23.2382,-20.76679 -33.5967,-49.34524 -43.9145,-77.912 -10.3555,-28.5726 2.5708,-67.51984 -95.6517,-85.71196 -97.5941,-18.07816 -108.44985,-10.49445 -154.24585,-23.14273 5.82774,49.63164 17.53264,113.66501 72.65766,128.2421 -2.90805,23.37944 -37.80467,32.14673 -23.26441,52.60375 14.41231,23.17486 23.12773,46.34973 37.44116,69.52461 0.92185,-0.39745 1.86115,-0.80659 2.81499,-1.24204 28.39715,-12.97266 124.04295,-18.17459 142.12515,7.8029 18.1201,25.95995 23.2819,72.70715 77.549,72.70715 54.3049,0 49.117,-10.38925 46.5434,-59.73741 z"
     sodipodi:nodetypes="028-jintangxian"
     inkscape:connector-curvature="0" />
  <path
     style="fill:#d3d3d3;fill-opacity:1;stroke:#ffffff;stroke-width:1;stroke-miterlimit:4;stroke-opacity:1;stroke-dasharray:none"
     id="028-chongzhoushi"
     d="m 190.12342,575.58798 c 55.25297,-46.75889 133.77035,-40.91403 197.74746,-14.61216 49.43688,14.61216 17.44831,81.82806 29.08052,119.81965 0,5.84487 5.8161,14.61215 8.72415,20.45702 2.90804,5.84486 11.63221,8.76729 14.54025,5.84486 20.35636,-23.37945 58.16102,-23.37945 84.33348,-5.84486 14.54025,-14.61215 31.98856,-20.45702 52.34492,-23.37944 0,-14.61216 -5.81611,-23.37945 -17.44831,-29.22431 -5.8161,-20.45702 -17.44831,-35.06917 -29.08051,-49.68132 -5.8161,-8.76729 -14.54025,-17.53458 -20.35636,-26.30187 -23.2644,-29.22431 -31.98856,-64.29347 -63.97711,-81.82805 -17.44832,-5.84487 -37.80467,-5.84487 -55.25298,-17.53458 -30.82533,-22.52902 -67.03348,-28.81517 -98.2514,-47.5421 -8.86956,7.98992 -19.43742,13.98675 -32.06127,16.80689 -69.81648,15.58532 -186.121066,59.73448 -219.732323,75.3315 -0.444932,0.21041 -0.968381,0.42375 -1.445302,0.65169 0.869507,8.3377 2.986569,17.78007 6.040022,27.87122 28.836234,2.86107 54.808033,3.00719 77.909593,23.32099 14.54025,11.68973 43.62077,14.61216 66.88517,5.84487 z"
     sodipodi:nodetypes="028-chongzhoushi"
     inkscape:connector-curvature="0" />
  <path
     style="fill:#d3d3d3;fill-opacity:1;stroke:#ffffff;stroke-width:1;stroke-miterlimit:4;stroke-opacity:1;stroke-dasharray:none"
     id="028-dayixian"
     d="m 245.37639,730.47679 c 61.06907,-40.91403 127.95424,14.61216 186.11526,37.9916 26.17246,-20.45702 61.06907,-14.61215 81.42543,2.92243 8.72415,-23.37945 11.6322,-46.75889 11.6322,-70.13833 -26.17246,-17.53459 -63.97712,-17.53459 -84.33348,5.84486 -2.90804,2.92243 -11.63221,0 -14.54025,-5.84486 -2.90805,-5.84487 -8.72415,-14.61215 -8.72415,-20.45702 -11.63221,-37.99159 20.35636,-105.20749 -29.08052,-119.81965 -63.97711,-26.30187 -142.49449,-32.14673 -197.74746,14.61216 -23.2644,8.76729 -52.34492,5.84486 -66.88517,-5.84487 -23.10156,-20.3138 -49.073359,-20.45992 -77.909593,-23.32099 15.014266,49.64917 53.217328,115.28111 83.304033,145.49905 8.68343,8.73514 11.36756,23.49342 10.03568,41.82874 34.64652,13.99844 72.10512,-0.37699 106.70802,-3.27312 z"
     sodipodi:nodetypes="028-dayixian"
     inkscape:connector-curvature="0" />
  <path
     style="fill:#d3d3d3;fill-opacity:1;stroke:#ffffff;stroke-width:1;stroke-miterlimit:4;stroke-opacity:1;stroke-dasharray:none"
     id="028-shuangliuxian"
     d="M838.618,680.796c-37.805-17.535-61.069-55.526-95.966-70.139
	c-23.264-8.768-55.253-14.612-81.425-26.302c-8.725-17.535-34.897-20.457-43.621-11.689c-23.265,20.457-34.896,52.604-58.161,75.982
	c11.295,5.676,17.09,14.124,17.417,27.988c32.842,12.043,60.701,35.974,77.638,65.863c9,17,12,38,16,59
	c1.75,7.001,2.734,14.003,5.635,21.004c1.029,0.605,2.049,1.231,3.053,1.892c74.943,49.356,85.293,72.742,100.808,12.984
	c0.651-2.599,1.341-5.293,2.023-7.979c11.676-45.821,25.972-104.828,62.585-137.369
	C846.865,686.343,838.618,680.796,838.618,680.796z"
     sodipodi:nodetypes="028-shuangliuxian"
     inkscape:connector-curvature="0" />
  <path
     style="fill:#d3d3d3;fill-opacity:1;stroke:#ffffff;stroke-width:1;stroke-miterlimit:4;stroke-opacity:1;stroke-dasharray:none"
     id="028-qionglaishi"
     d="m 512.91708,771.39082 c -20.35636,-17.53458 -55.25297,-23.37945 -81.42543,-2.92243 -58.16102,-23.37944 -125.04619,-78.90563 -186.11526,-37.9916 -34.59999,2.89613 -72.05859,17.27156 -106.70802,3.2702 -4.22249,58.04531 -49.122793,152.27324 -74.652578,207.55977 -33.634517,72.72464 98.213598,12.97268 134.398488,0 18.37306,-6.58715 36.07727,-3.127 52.77821,6.62224 v -1.19236 c 20.35636,-32.14673 55.25297,-52.60375 84.33348,-64.29347 40.64874,-17.50535 92.89187,-17.52873 139.36543,-0.076 14.79907,-11.83583 30.56943,-22.98491 46.74983,-32.76628 v -2.2269 c -2.90806,-26.30186 5.81611,-52.60374 -8.72415,-75.98319 z"
     sodipodi:nodetypes="028-qionglaishi"
     inkscape:connector-curvature="0" />
  <path
     style="fill:#d3d3d3;fill-opacity:1;stroke:#ffffff;stroke-width:1;stroke-miterlimit:4;stroke-opacity:1;stroke-dasharray:none"
     id="028-pujiangxian"
     d="m 335.52597,882.44317 c -29.08051,11.68972 -63.97712,32.14674 -84.33348,64.29347 v 1.19236 c 16.19203,9.45114 31.44475,24.81142 45.44411,42.71131 7.21778,9.25241 11.28324,17.87069 12.88849,25.46319 12.76343,2.864 49.39034,3.4865 93.05762,-59.22603 16.81436,-24.1305 42.56805,-50.72754 72.30869,-74.51321 -46.47356,-17.44982 -98.71669,-17.42644 -139.36543,0.0789 z"
     sodipodi:nodetypes="028-pujiangxian"
     inkscape:connector-curvature="0" />
  <path
     style="fill:#d3d3d3;fill-opacity:1;stroke:#ffffff;stroke-width:1;stroke-miterlimit:4;stroke-opacity:1;stroke-dasharray:none"
     id="028-xinjinxian"
     d="M654.5,742.5c-16.938-29.89-44.796-53.82-77.638-65.863
	c0.01,0.413,0.032,0.813,0.032,1.236c-20.356,2.923-37.805,8.768-52.345,23.38c0,23.379-2.908,46.759-11.632,70.138
	c14.54,23.38,5.815,49.682,8.724,75.983v2.227c54.915-33.193,114.291-50.768,154.494-27.097c-2.9-7.001-3.885-14.003-5.635-21.004
	C666.5,780.5,663.5,759.5,654.5,742.5z"
     sodipodi:nodetypes="028-xinjinxian"
     inkscape:connector-curvature="0" />
  <text
     xml:space="preserve"
     style="font-size:18px;font-style:normal;font-variant:normal;font-weight:normal;font-stretch:normal;line-height:125%;letter-spacing:0px;word-spacing:0px;fill:#000000;fill-opacity:1;stroke:none;font-family:Microsoft YaHei;-inkscape-font-specification:Microsoft YaHei"
     x="523.25903"
     y="226.38354"
     id="text3015"
     sodipodi:linespacing="125%"><tspan
       sodipodi:role="line"
       id="tspan3017"
       x="523.25903"
       y="226.38354">彭州市</tspan></text>
  <text
     xml:space="preserve"
     style="font-size:18px;font-style:normal;font-variant:normal;font-weight:normal;font-stretch:normal;line-height:125%;letter-spacing:0px;word-spacing:0px;fill:#000000;fill-opacity:1;stroke:none;font-family:Microsoft YaHei;-inkscape-font-specification:Microsoft YaHei"
     x="384.66608"
     y="342.34906"
     id="text3019"
     sodipodi:linespacing="125%"><tspan
       sodipodi:role="line"
       id="tspan3021"
       x="384.66608"
       y="342.34906">都江堰市</tspan></text>
  <text
     xml:space="preserve"
     style="font-size:18px;font-style:normal;font-variant:normal;font-weight:normal;font-stretch:normal;line-height:125%;letter-spacing:0px;word-spacing:0px;fill:#000000;fill-opacity:1;stroke:none;font-family:Microsoft YaHei;-inkscape-font-specification:Microsoft YaHei"
     x="445.47726"
     y="605.39276"
     id="text3023"
     sodipodi:linespacing="125%"><tspan
       sodipodi:role="line"
       id="tspan3025"
       x="445.47726"
       y="605.39276">崇州市</tspan></text>
  <text
     xml:space="preserve"
     style="font-size:18px;font-style:normal;font-variant:normal;font-weight:normal;font-stretch:normal;line-height:125%;letter-spacing:0px;word-spacing:0px;fill:#000000;fill-opacity:1;stroke:none;font-family:Microsoft YaHei;-inkscape-font-specification:Microsoft YaHei"
     x="246.07317"
     y="625.19177"
     id="text3027"
     sodipodi:linespacing="125%"><tspan
       sodipodi:role="line"
       id="tspan3029"
       x="246.07317"
       y="625.19177">大邑县</tspan></text>
  <text
     xml:space="preserve"
     style="font-size:18px;font-style:normal;font-variant:normal;font-weight:normal;font-stretch:normal;line-height:125%;letter-spacing:0px;word-spacing:0px;fill:#000000;fill-opacity:1;stroke:none;font-family:Microsoft YaHei;-inkscape-font-specification:Microsoft YaHei"
     x="253.14423"
     y="806.21112"
     id="text3031"
     sodipodi:linespacing="125%"><tspan
       sodipodi:role="line"
       id="tspan3033"
       x="253.14423"
       y="806.21112">邛崃市</tspan></text>
  <text
     xml:space="preserve"
     style="font-size:18px;font-style:normal;font-variant:normal;font-weight:normal;font-stretch:normal;line-height:125%;letter-spacing:0px;word-spacing:0px;fill:#000000;fill-opacity:1;stroke:none;font-family:Microsoft YaHei;-inkscape-font-specification:Microsoft YaHei"
     x="318.19806"
     y="929.24768"
     id="text3035"
     sodipodi:linespacing="125%"><tspan
       sodipodi:role="line"
       id="tspan3037"
       x="318.19806"
       y="929.24768">浦江县</tspan></text>
  <text
     xml:space="preserve"
     style="font-size:18px;font-style:normal;font-variant:normal;font-weight:normal;font-stretch:normal;line-height:125%;letter-spacing:0px;word-spacing:0px;fill:#000000;fill-opacity:1;stroke:none;font-family:Microsoft YaHei;-inkscape-font-specification:Microsoft YaHei"
     x="551.54327"
     y="762.37048"
     id="text3039"
     sodipodi:linespacing="125%"><tspan
       sodipodi:role="line"
       id="tspan3041"
       x="551.54327"
       y="762.37048">新津县</tspan></text>
  <text
     xml:space="preserve"
     style="font-size:18px;font-style:normal;font-variant:normal;font-weight:normal;font-stretch:normal;line-height:125%;letter-spacing:0px;word-spacing:0px;fill:#000000;fill-opacity:1;stroke:none;font-family:Microsoft YaHei;-inkscape-font-specification:Microsoft YaHei"
     x="668.92303"
     y="667.61816"
     id="text3043"
     sodipodi:linespacing="125%"><tspan
       sodipodi:role="line"
       id="tspan3045"
       x="668.92303"
       y="667.61816">双流县</tspan></text>
    <text
     xml:space="preserve"
     style="font-size:18px;font-style:normal;font-variant:normal;font-weight:normal;font-stretch:normal;line-height:125%;letter-spacing:0px;word-spacing:0px;fill:#000000;fill-opacity:1;stroke:none;font-family:Microsoft YaHei;-inkscape-font-specification:Microsoft YaHei"
     x="1012.5769"
     y="415.88818"
     id="text3051"
     sodipodi:linespacing="125%"><tspan
       sodipodi:role="line"
       id="tspan3053"
       x="1012.5769"
       y="415.88818">金堂县</tspan></text>
  <text
     xml:space="preserve"
     style="font-size:18px;font-style:normal;font-variant:normal;font-weight:normal;font-stretch:normal;line-height:125%;letter-spacing:0px;word-spacing:0px;fill:#000000;fill-opacity:1;stroke:none;font-family:Microsoft YaHei;-inkscape-font-specification:Microsoft YaHei"
     x="527.50165"
     y="414.47394"
     id="text3055"
     sodipodi:linespacing="125%"><tspan
       sodipodi:role="line"
       id="tspan3057"
       x="527.50165"
       y="414.47394">郫县</tspan></text>
<text x="741.3333" y="596.6666" xml:space="preserve" font-family="Microsoft YaHei" font-size="18" fill="#000000" stroke="none" stroke-opacity="0" baseline-shift="baseline">
锦江区</text>
<text x="763.3333" y="521.9999" xml:space="preserve" font-family="Microsoft YaHei" font-size="18" fill="#000000" stroke="none" stroke-opacity="0" baseline-shift="baseline">
成华区</text>
<text x="504.6666" y="527.9999" xml:space="preserve" font-family="Microsoft YaHei" font-size="18" fill="#000000" stroke="none" stroke-opacity="0" baseline-shift="baseline">
温江区</text>
<text x="846.6666" y="423.3333" xml:space="preserve" font-family="Microsoft YaHei" font-size="18" fill="#000000" stroke="none" stroke-opacity="0" baseline-shift="baseline">
</text>
<text x="832.6666" y="612.6666" xml:space="preserve" font-family="Microsoft YaHei" font-size="18" fill="#000000" stroke="none" stroke-opacity="0" baseline-shift="baseline">
龙泉驿区</text>
<text x="851.9999" y="430.6666" xml:space="preserve" font-family="Microsoft YaHei" font-size="18" fill="#000000" stroke="none" stroke-opacity="0" baseline-shift="baseline">
青白江区</text>
<text x="705.3333" y="415.3333" xml:space="preserve" font-family="Microsoft YaHei" font-size="18" fill="#000000" stroke="none" stroke-opacity="0" baseline-shift="baseline">
新都区</text>
<text x="665" y="566" xml:space="preserve" font-family="Microsoft YaHei" font-size="18" fill="#000000" stroke="none" stroke-opacity="0" baseline-shift="baseline">
武侯区</text>
<text x="648" y="534" xml:space="preserve" font-family="Microsoft YaHei" font-size="18" fill="#000000" stroke="none" stroke-opacity="0" baseline-shift="baseline">
青羊区</text>
<text x="683" y="482" xml:space="preserve" font-family="Microsoft YaHei" font-size="18" fill="#000000" stroke="none" stroke-opacity="0" baseline-shift="baseline">
金牛区</text>
</svg>
