<?xml version="1.0" encoding="UTF-8" standalone="no"?>
<!--成都市-->
<svg
   xmlns:dc="http://purl.org/dc/elements/1.1/"
   xmlns:cc="http://creativecommons.org/ns#"
   xmlns:rdf="http://www.w3.org/1999/02/22-rdf-syntax-ns#"
   xmlns:svg="http://www.w3.org/2000/svg"
   xmlns="http://www.w3.org/2000/svg"
   xmlns:sodipodi="http://sodipodi.sourceforge.net/DTD/sodipodi-0.dtd"
   xmlns:inkscape="http://www.inkscape.org/namespaces/inkscape"
   width="1280"
   height="1024"
   id="svg2"
   sodipodi:version="0.32"
   inkscape:version="0.48.4 r9939"
   sodipodi:docname="shi_sichuansheng.svg"
   inkscape:output_extension="org.inkscape.output.svg.inkscape"
   version="1.1">
  <metadata
     id="metadata62">
    <rdf:RDF>
      <cc:Work
         rdf:about="">
        <dc:format>image/svg+xml</dc:format>
        <dc:type
           rdf:resource="http://purl.org/dc/dcmitype/StillImage" />
      </cc:Work>
    </rdf:RDF>
  </metadata>
  <defs
     id="defs60">
    <inkscape:perspective
       sodipodi:type="inkscape:persp3d"
       inkscape:vp_x="0 : 296.5 : 1"
       inkscape:vp_y="0 : 1000 : 0"
       inkscape:vp_z="959 : 296.5 : 1"
       inkscape:persp3d-origin="479.5 : 197.66667 : 1"
       id="perspective64" />
  </defs>
  <sodipodi:namedview
     inkscape:window-height="925"
     inkscape:window-width="1117"
     inkscape:pageshadow="2"
     inkscape:pageopacity="0.0"
     guidetolerance="10.0"
     gridtolerance="10.0"
     objecttolerance="10.0"
     borderopacity="1.0"
     bordercolor="#000000"
     pagecolor="#ffffff"
     id="base"
     showgrid="true"
     inkscape:zoom="1"
     inkscape:cx="728.26918"
     inkscape:cy="289.57326"
     inkscape:window-x="801"
     inkscape:window-y="27"
     inkscape:current-layer="svg2"
     showguides="true"
     inkscape:guide-bbox="true"
     inkscape:window-maximized="0" />
  <path
     style="fill:#d3d3d3;fill-opacity:1;stroke:#ffffff;stroke-width:1;stroke-miterlimit:4;stroke-opacity:1;stroke-dasharray:none"
     id="25-ganzicangzuzizhizhou"
     d="m 398.35282,777.74314 c 0,0 7.00748,-7.40167 11.57711,-6.25537 4.56705,1.13852 14.84744,2.28482 11.80015,-10.2778 -3.0447,-12.56781 -6.08939,-29.31364 4.95088,-43.78503 4.43478,-5.8093 5.71334,-14.4662 2.28481,-19.41448 -3.42593,-4.94828 -3.80716,-7.2331 -0.76247,-9.51792 3.0447,-2.28482 7.99558,-5.70816 6.85446,-14.08756 -1.1437,-8.37421 5.32952,-23.98412 20.17436,-22.08054 10.07551,1.29672 9.89656,3.42853 6.85446,-3.80457 -3.0421,-7.2331 -3.42334,-9.51792 0,-11.04286 3.42334,-1.51976 5.32952,-0.75988 6.47322,1.52494 1.13852,2.28482 4.18841,6.08939 7.61434,1.8984 3.42334,-4.18322 9.51792,-8.37422 14.08756,0.76506 4.56964,9.13928 10.2752,24.36536 9.89397,30.45216 -0.37864,6.09458 -5.70557,18.6546 9.90175,18.6546 15.60731,0 28.9324,4.95347 31.59845,12.18138 2.66347,7.2331 3.80458,11.04287 -4.56963,7.99817 -8.37681,-3.04988 -13.32769,-4.56964 -10.66163,3.0447 2.66605,7.61433 4.56964,18.6546 14.4662,15.99114 9.89656,-2.66865 14.4662,-1.52494 15.23127,-11.04286 0.75987,-9.51792 4.18321,-21.32066 12.56261,-25.12524 8.3794,-3.80976 15.98855,-9.90175 12.94386,-20.56078 -3.0447,-10.66163 0,-16.75102 3.42852,-19.03584 3.42334,-2.28482 10.65644,-13.70632 5.70816,-19.03584 -4.94828,-5.32952 -4.56964,-7.99298 -4.94828,-11.80274 -0.37864,-3.80457 -2.66346,-6.47322 -5.70816,-9.51792 -3.0447,-3.0447 -9.13928,-5.32952 -9.13928,-13.32768 0,-7.99298 3.0447,-9.89138 10.65904,-9.51273 7.61433,0.37864 27.79388,2.28482 25.12782,-7.2331 -2.66605,-9.51792 -0.76506,-12.94645 1.13852,-15.99115 1.90359,-3.04469 3.80976,-5.32951 1.90359,-12.18138 -1.90618,-6.85186 -5.32952,-12.18138 -6.47323,-17.51608 -1.13852,-5.32952 -0.75987,-7.23051 -3.04469,-9.1341 -2.28482,-1.90358 -1.90359,-8.75804 2.28482,-14.84743 4.1884,-6.09199 12.56261,-13.32768 9.89656,-28.17512 -2.66346,-14.84744 0.75988,-17.5109 1.90358,-21.69671 1.13852,-4.1884 3.80976,-12.18138 -3.42334,-14.46879 -7.2331,-2.28223 -9.51792,-1.8984 -11.04286,1.52494 -1.52494,3.42334 -1.90358,11.80274 -14.4662,8.75545 -12.56262,-3.04729 -17.13226,-2.28482 -13.32768,-11.04027 3.80976,-8.75545 4.56964,-17.89213 6.85446,-18.65461 2.28482,-0.75987 5.32951,-5.32951 4.94828,-14.84743 -0.38124,-9.51792 -3.0447,-13.70633 -5.70816,-11.04027 -2.66606,2.66346 -4.56964,3.42334 -8.3794,0.37864 -3.80458,-3.04729 -15.22608,-6.08939 -17.88954,-9.89656 -2.66346,-3.80717 -10.66163,-9.52051 -15.99114,-13.70632 -5.32952,-4.18581 -8.75286,-6.85446 -17.88955,-4.94829 -9.13668,1.90618 -25.12523,6.85187 -27.79128,-2.28482 -2.66606,-9.13668 -2.66347,-12.18138 -7.99817,-11.04026 -5.32952,1.14111 -8.75286,1.90358 -10.65644,-4.56705 -1.90358,-6.47582 -7.61434,-18.6546 -14.08756,-20.56078 -6.47322,-1.90618 -8.37421,-1.52494 -3.42334,-7.61434 4.94828,-6.09199 14.84744,-13.70632 5.70816,-17.12966 -9.13668,-3.42853 -15.60731,-12.94645 -21.6993,-19.41708 -6.05309,-6.43172 -29.00502,-25.63095 -17.71059,-44.92614 -3.64638,-3.44407 -8.13043,-10.00288 -9.69946,-11.79754 -2.66347,-3.04729 -3.80977,-5.33211 -6.09459,-3.80976 -2.28481,1.52494 -2.66346,-1.13852 -3.42593,-5.32952 -0.76247,-4.18581 -6.85186,-0.76247 -11.41891,-0.76247 -4.56704,0 -4.94828,5.33211 -5.71075,11.80274 -0.76247,6.47322 -4.94828,2.28482 -10.28039,-0.76247 -5.32952,-3.0447 -0.75988,-4.18581 1.52494,-14.08756 2.28482,-9.89397 -14.08756,-22.08054 -18.27596,-25.88511 -4.18581,-3.80717 -5.70816,-3.0447 -9.51792,1.52494 -3.80458,4.56705 -4.18581,12.18138 -4.56705,20.17436 -0.38123,7.99557 -3.04729,7.61693 -5.33211,6.47322 -2.28482,-1.1437 -3.86941,-2.30038 -12.56262,-3.42593 -20.56078,-2.66605 -28.17252,-11.04027 -32.36352,-18.27596 -4.18321,-7.23051 -26.64758,-15.98855 -32.73697,-19.03584 -6.09458,-3.0447 -20.17955,-36.54674 -24.36795,-41.49502 -4.18841,-4.94828 -3.04729,-8.37422 -1.52235,-14.4662 1.52235,-6.09458 -7.61693,-13.32509 -13.70633,-14.4662 -6.08939,-1.14112 -6.09198,-7.2357 -6.85445,-27.031416 -0.75988,-19.798311 -19.41449,-11.040268 -29.31364,-11.040268 -9.89916,0 -11.42151,-1.903584 -19.41448,-10.280391 -7.99558,-8.374214 -15.23127,6.091987 -18.65461,7.995571 -3.42593,1.900991 -4.94828,1.900991 -2.66346,6.091988 2.28482,4.18581 0.37864,5.710752 -1.14111,7.614336 -1.52235,1.903584 -1.90099,3.04729 0.37864,7.235694 2.28482,4.18581 -6.47063,4.567046 -19.79831,7.992976 -13.3225,3.42594 -9.13409,14.4662 -5.70816,18.65461 3.42334,4.18581 2.28482,5.32951 1.52235,12.18138 -0.76247,6.85186 2.28482,5.32951 6.47063,5.32951 4.1884,0 3.42852,2.66347 4.95087,8.75805 1.52235,6.09199 3.0447,2.66346 12.56262,7.2331 9.51792,4.56964 4.1884,8.75545 -0.76247,9.51792 -4.94828,0.76247 -5.32952,5.70816 -6.47063,10.65903 -1.14112,4.94828 -4.56705,7.61434 -9.13409,9.89656 -4.56705,2.28223 -1.90359,9.51792 4.18581,10.65904 6.08939,1.14111 -7.61693,12.18138 -10.65904,14.08756 -3.04469,1.90099 -8.75545,2.28222 -10.27779,12.18138 -1.52495,9.89656 11.03767,18.27337 24.36535,30.45474 13.32509,12.18398 30.07611,15.60991 44.92355,20.93942 14.84743,5.32952 14.08756,9.51792 14.84743,17.89214 0.75988,8.37421 3.42594,11.04027 11.42151,20.55819 7.99298,9.51792 9.89656,11.80274 7.2331,17.12966 -2.66606,5.33211 6.85186,16.75361 10.2778,18.6546 3.42593,1.901 3.80716,4.18581 9.13668,12.94386 5.32952,8.75545 20.17436,17.5109 26.64758,22.45918 6.47323,4.95087 3.80977,10.28039 -1.52234,14.09015 -5.33211,3.80457 -7.2357,3.80457 -11.04027,0.37864 -3.80976,-3.42334 -7.2331,-5.32952 -10.66163,2.28741 -3.42334,7.61434 2.28482,10.65904 7.2331,15.22608 4.95088,4.56964 4.95088,3.80717 4.95088,7.61693 0,3.80717 1.14111,4.94828 5.32951,7.99557 4.18841,3.04211 3.04729,7.2331 2.66606,9.89397 -0.38124,2.66606 2.28482,6.47582 10.27779,12.18398 7.99558,5.70816 4.56964,10.2778 2.66347,14.46361 -1.90359,4.19099 -1.90359,5.71334 1.52494,11.42409 3.42334,5.70816 1.51975,4.94569 2.28482,20.5556 0.75988,15.60991 1.90099,19.41448 9.89656,38.07168 7.99298,18.6546 1.90099,27.41265 -1.52235,33.1208 -3.42593,5.71335 -1.52235,18.65461 0,24.74919 1.52235,6.08939 1.52235,9.1315 3.0447,18.27078 1.52235,9.13927 4.18581,12.56261 7.2331,18.27596 3.04729,5.70816 3.42593,10.2778 1.52235,31.59846 -1.90099,21.32066 1.52494,37.69044 6.09199,42.63872 4.56963,4.94828 3.80716,9.13669 3.42593,18.65461 -0.38124,9.51792 2.66346,14.4662 5.32951,15.22608 2.66865,0.75987 1.14371,0 9.13669,11.80273 7.99557,11.80274 9.13668,-8.37421 7.99557,-13.32768 -1.14111,-4.94309 0,-5.70816 4.18581,-7.22791 4.1884,-1.52494 3.04729,-8.75804 0,-13.70632 -3.0447,-4.94829 -1.51975,-6.85446 6.09458,-10.66163 7.61434,-3.80458 9.51792,-16.36719 9.89656,-20.5556 0.37865,-4.1884 3.0447,-5.3347 6.85446,-8.3768 3.80717,-3.0447 5.70816,-1.51976 5.70816,4.56964 0,6.09458 7.2331,9.51792 12.94645,12.18138 5.70816,2.66346 3.04469,2.28482 0.75987,6.09458 -2.28482,3.80457 2.28482,5.32952 6.85446,6.46803 4.56964,1.14371 4.18581,2.66865 7.61434,11.04287 3.42853,8.37421 3.42593,13.70632 9.89656,14.08756 6.47322,0.37864 5.71075,6.85445 6.47322,9.51792 0.75988,2.66346 0.75988,6.85445 -7.99297,10.65644 -8.75805,3.80976 -0.76507,18.27596 2.28222,22.08572 0.78841,0.99329 1.64943,1.76873 2.51304,2.45858 l 0,0 z"
     sodipodi:nodetypes="25-ganzicangzuzizhizhou"
     inkscape:connector-curvature="0" />
  <path
     style="fill:#d3d3d3;fill-opacity:1;stroke:#ffffff;stroke-width:1;stroke-miterlimit:4;stroke-opacity:1;stroke-dasharray:none"
     id="25-abacangzuqiangzuzizhizhou"
     d="m 420.39187,248.77501 c -11.29443,19.29259 11.65491,38.497 17.71059,44.92613 6.09458,6.47063 12.56262,15.99115 21.6993,19.41449 9.13669,3.42593 -0.75988,11.04026 -5.70816,17.13225 -4.94828,6.09199 -3.04469,5.70816 3.42334,7.61434 6.47322,1.90099 12.18138,14.08756 14.08756,20.55819 1.90618,6.47063 5.32952,5.70816 10.65644,4.56964 5.3347,-1.13852 5.3347,1.90099 7.99817,11.04026 2.66346,9.13928 18.65201,4.18841 27.79128,2.28482 9.13669,-1.90099 12.56262,0.76248 17.88955,4.94829 5.32951,4.1884 13.32768,9.89656 15.99114,13.70632 2.66346,3.80717 14.08756,6.85446 17.88954,9.89656 3.80976,3.04729 5.71334,2.28482 8.3794,-0.38123 2.66346,-2.66087 5.32952,1.52494 5.70816,11.04286 0.37864,9.51792 -2.66346,14.08756 -4.94828,14.85003 -2.28482,0.75988 -3.0447,9.89397 -6.85446,18.65201 -3.80458,8.75804 0.76506,7.99557 13.32768,11.04286 12.56262,3.0447 12.94126,-5.33211 14.4662,-8.76063 1.52494,-3.42334 3.80458,-3.80717 11.03768,-1.52235 0.40976,0.12967 0.78062,0.2749 1.13074,0.43829 -0.37865,-10.2778 8.38718,-18.33043 15.24163,-19.85018 6.85446,-1.52235 4.18841,-3.42853 18.27597,-11.04286 14.08496,-7.61434 11.03508,1.14111 10.65644,10.65903 -0.37865,9.51792 6.85446,5.70816 11.80274,3.42593 4.94828,-2.28482 22.08053,-8.75804 32.36352,-11.04027 10.2778,-2.28482 11.4215,-18.6546 11.03767,-21.32066 -0.37864,-2.66605 3.80976,-14.84743 6.09458,-22.843 2.28482,-7.99558 3.80458,-15.22868 7.99298,-16.75103 4.18841,-1.52494 5.71335,-6.09458 6.85446,-9.51792 1.14371,-3.42852 1.90359,-4.56963 9.13669,-7.61693 7.2331,-3.04729 8.3768,-8.75544 8.75804,-12.94385 0.37864,-4.18581 11.41632,-13.32509 20.17436,-16.36978 8.75804,-3.0447 -5.70816,-11.04287 -11.80274,-12.56521 -6.09458,-1.52235 -7.99298,-3.04729 -10.65644,-4.56964 -2.66346,-1.51976 -5.3347,-3.80458 -10.66163,-1.51976 -5.32951,2.28223 -6.85446,-6.47322 -6.85446,-15.23126 0,-8.75545 13.70633,-9.89657 23.98412,-10.65904 10.28299,-0.75987 14.46621,-3.80716 17.89473,-9.51532 3.42334,-5.71076 -4.1884,-7.61693 -7.2331,-3.80976 -3.0447,3.80976 -11.80274,3.42852 -19.79572,-0.75988 -7.99816,-4.18841 -8.3768,-11.04026 -7.61952,-15.98854 0.75988,-4.95088 -2.28482,-11.04027 -4.18322,-15.23127 -1.90358,-4.18581 0.37865,-7.99298 7.2331,-11.04027 6.85446,-3.0447 11.03768,1.90359 14.46621,9.13669 3.42334,7.2331 7.61433,1.52494 9.51792,-1.90359 1.90358,-3.42334 -6.85446,-23.60288 -8.37681,-27.41005 -1.52494,-3.80717 -4.56964,-3.80717 -11.42151,0 -6.85445,3.80976 -3.42333,-12.56262 -4.18321,-16.36979 -0.76507,-3.80976 0.75988,-5.71075 7.2331,-5.33211 6.46803,0.38124 10.65644,3.42853 14.84744,7.2357 4.1884,3.80457 9.19892,7.62471 9.19892,7.62471 0.96217,-3.16659 4.54371,-6.63402 8.31197,-10.672 5.32952,-5.71076 0.76507,-4.56964 -5.32951,-6.09199 -6.09458,-1.52235 -5.32952,-7.61693 -0.75988,-9.89916 4.56964,-2.28222 1.8984,-7.99297 -1.52494,-14.84743 -3.42853,-6.85446 -1.52494,-6.47063 5.32951,-4.18581 6.85446,2.28482 4.35179,-3.4389 -4.56963,-7.99817 -17.12967,-8.75545 -15.98596,-18.27077 -21.32066,-29.69228 -5.32952,-11.418909 -27.7887,-3.04729 -33.50205,-2.28482 -5.70815,0.75988 -8.75285,-0.37864 -12.56261,-3.807165 -3.80458,-3.425933 -5.32952,-3.425933 -9.13669,-1.141114 -3.80457,2.28482 -3.80457,0.762471 -4.94828,-5.710752 -1.13852,-6.473223 -4.94828,-3.807168 -8.75285,0.762471 -3.80977,4.569639 -9.13669,4.569639 -17.51609,2.663462 -8.37421,-1.900991 -8.37421,-9.51792 -9.13668,-14.087559 -0.75988,-4.569639 -1.90359,-6.091988 -3.80458,-8.374214 -1.90358,-2.284819 -2.66346,-7.2331 -0.75728,-7.611742 1.89839,-0.383829 2.27704,-3.047291 3.80198,-7.61693 1.52494,-4.569639 -12.56003,-9.136685 -15.60472,-9.51792 -3.04989,-0.381235 -3.04989,-4.950875 -3.04989,-8.758043 0,-3.809761 -2.27963,-4.569639 -4.94828,-6.851865 -2.66346,-2.284819 -4.94828,-1.141113 -5.70816,3.042104 -0.75987,4.190997 -9.13668,7.616929 -13.70632,10.282984 -4.56964,2.663462 -7.61434,8.374214 -7.61434,12.94126 0,4.567045 -2.28482,4.569639 -9.51792,3.807168 -7.2331,-0.759878 -8.75804,12.946446 -7.99297,17.892133 0.75987,4.948282 -19.79572,-3.423339 -19.79572,-3.423339 -10.28299,-0.759877 -7.61952,3.423339 -3.42853,7.995572 4.18841,4.567045 6.47323,14.084966 9.51792,14.847437 3.0447,0.762471 1.90359,3.423342 3.80976,11.802742 1.90359,8.37421 7.61434,10.65903 13.3225,11.04027 5.71334,0.38123 3.0447,6.85445 3.0447,11.80014 0,4.95088 -9.89657,9.52052 -15.22608,10.66163 -5.32952,1.14111 -4.95088,6.85446 -5.32952,14.4662 -0.37864,7.61174 -2.66346,6.09199 -5.32952,2.66346 -2.66605,-3.42852 -7.2331,-1.90099 -7.2331,1.90359 0,3.80457 -3.42852,4.56704 -7.61433,6.08939 -4.18841,1.52494 -4.95347,2.28482 -7.23829,8.76064 -2.28482,6.47062 -7.61434,-1.52495 -7.99298,-5.71335 -0.37864,-4.18581 0,-4.56964 -3.42334,-7.2331 -3.42852,-2.66087 1.90359,-5.70816 4.94828,-10.65903 3.0447,-4.94828 4.18322,-13.32509 -0.37864,-25.50647 -4.56964,-12.18139 -8.37681,-3.80717 -8.75804,4.94828 -0.38124,8.75545 -1.90359,6.09458 -9.51792,13.32509 -7.61434,7.2331 -0.37864,11.80274 3.0447,12.18397 3.42852,0.37864 2.66346,2.66346 0.37864,6.47063 -2.28482,3.80717 -3.80458,4.56964 -6.0894,10.2778 -2.28482,5.71075 -8.3768,-2.28482 -12.94644,-8.37422 -4.56445,-6.08939 -9.13409,0.76248 -9.13409,7.99817 0,7.23051 -7.61434,-3.80976 -10.65644,-10.28299 -3.0447,-6.47062 -5.70816,-4.18581 -11.80274,0.38124 -6.0894,4.56964 -4.56964,7.61693 -2.66346,10.65903 1.90358,3.04729 2.28482,4.94828 1.90358,7.99557 -0.38383,3.0447 1.51975,5.32952 3.42334,4.56964 1.90358,-0.76247 2.28482,0 3.42852,4.18581 1.13852,4.18841 -2.66864,6.09199 -9.89656,6.09199 -7.23828,0 1.05294,8.09672 4.18322,10.65903 8.37681,6.85187 0.37864,21.32066 -5.70816,22.45918 -6.09458,1.14371 -7.99816,1.90359 -9.89656,6.47323 -1.90359,4.56964 -19.80091,-3.42594 -25.50906,-5.32952 -5.71076,-1.90358 -6.47582,7.23051 -7.61434,15.22607 -0.4746,3.29367 -2.61159,2.40931 -5.15316,0.0104 l 0,0 z"
     sodipodi:nodetypes="25-abacangzuqiangzuzizhizhou"
     inkscape:connector-curvature="0" />
  <path
     style="fill:#d3d3d3;fill-opacity:1;stroke:#ffffff;stroke-width:1;stroke-miterlimit:4;stroke-opacity:1;stroke-dasharray:none"
     id="25-mianyangshi"
     d="m 758.42845,321.8218 c 3.68787,-2.82944 8.08893,-5.43325 12.02577,-6.8 8.75286,-3.04469 -5.70815,-11.04286 -11.80273,-12.56521 -6.0894,-1.51975 -7.99298,-3.04469 -10.65644,-4.56704 -2.66347,-1.52494 -5.32952,-3.80717 -10.66163,-1.52494 -5.32952,2.28741 -6.85446,-6.47063 -6.85446,-15.22868 0,-8.75545 13.70632,-9.89656 23.98412,-10.65903 10.28299,-0.76247 14.4662,-3.80457 17.89473,-9.51792 3.42334,-5.70816 -4.1884,-7.61434 -7.2331,-3.80717 -3.04989,3.80717 -11.80274,3.42853 -19.79572,-0.76247 -7.99816,-4.18581 -8.37681,-11.04026 -7.61952,-15.98854 0.76506,-4.94828 -2.28482,-11.04027 -4.18841,-15.22867 -1.89839,-4.18581 0.38383,-7.99298 7.23829,-11.04027 6.84927,-3.0447 11.03768,1.90358 14.4662,9.13668 3.42334,7.2331 7.61434,1.52495 9.51792,-1.90358 1.8984,-3.42334 -6.85446,-23.60289 -8.3768,-27.41005 -1.52495,-3.80717 -4.56964,-3.80717 -11.42151,0 -6.85446,3.80976 -3.42334,-12.56262 -4.18322,-16.36979 -0.76506,-3.80976 0.75988,-5.71075 7.23311,-5.33211 6.46803,0.38124 10.65644,3.42593 14.84743,7.23569 4.18841,3.80717 9.19893,7.62471 9.19893,7.62471 -0.39939,1.30969 -0.35012,2.5701 0.31899,3.7942 2.28482,4.18841 6.0894,7.99558 12.94126,8.75805 6.85187,0.76247 13.32768,0.37864 16.37238,5.32692 1.92952,3.13287 2.94355,4.28436 5.06499,4.7045 2.13699,2.23814 10.26223,11.1051 10.92615,17.37604 0.75988,7.2331 0.37865,11.80274 9.89657,12.18138 9.51792,0.38123 34.64056,-2.28482 35.40562,4.95087 0.75988,7.2331 1.51976,9.51792 3.0447,12.94126 1.52494,3.42852 4.1884,10.65903 3.04469,15.6099 -1.13851,4.95088 -1.51975,9.89916 0.76507,12.94386 2.28482,3.04729 8.37421,9.13668 8.37421,13.70632 0,4.56704 5.70816,12.94126 9.51792,17.5109 3.80976,4.56964 3.7942,5.71594 6.07384,8.38199 0.86102,2.46377 4.59298,11.46819 9.53866,11.79496 5.70816,0.37864 12.18139,0 9.51274,6.85446 -2.65828,6.85446 -3.80458,7.99557 1.52494,8.37421 5.32952,0.37864 6.85446,-0.37864 7.2331,6.47323 0.38383,6.85445 7.81144,27.80944 -10.84576,28.56932 -4.91457,-4.41404 -8.44942,-9.41419 -11.61601,-12.58337 -4.56964,-4.56704 -9.13669,-3.80717 -19.03584,0.38383 -9.89657,4.18581 -5.32952,12.94126 -0.75988,23.22165 4.56445,10.28039 2.66346,16.74843 -2.28482,23.60548 -1.34859,1.86209 -2.69458,4.1521 -3.94462,6.49397 0,0 -1.76873,-5.35286 -1.38749,-9.54126 0.38383,-4.18581 -7.2331,-5.33211 -10.65644,-5.33211 -3.42334,0 -6.47322,-6.09199 -7.99298,-8.75545 -1.52494,-2.66605 -5.3347,-4.18581 -9.51792,-6.09199 -4.1884,-1.90099 -6.09458,-7.2331 -7.61952,-12.56261 -1.51976,-5.33211 -3.42334,-7.99558 -6.46804,-11.04027 -3.04469,-3.04729 -3.42852,-8.37681 -3.42852,-12.56521 0,-4.18841 -3.80458,-5.71075 -7.2331,-6.85446 -3.42334,-1.14111 -5.32952,-4.56964 -7.2331,-11.42151 -1.8984,-6.85445 -11.42151,-2.28482 -15.99115,-0.37864 -4.56445,1.90359 -12.18138,2.66346 -17.88954,2.28482 -5.3347,-0.34493 -17.64316,-21.57481 -19.26406,-24.40685 l 0,0 z"
     sodipodi:nodetypes="25-mianyangshi"
     inkscape:connector-curvature="0" />
  <path
     style="fill:#d3d3d3;fill-opacity:1;stroke:#ffffff;stroke-width:1;stroke-miterlimit:4;stroke-opacity:1;stroke-dasharray:none"
     id="25-guangyuanshi"
     d="m 991.2596,189.7691 c 8.3768,8.75544 6.8545,23.60547 14.0876,30.0761 7.2331,6.47323 2.6634,8.75805 -4.5697,11.80274 -7.2331,3.0447 -7.993,9.13409 -9.1315,15.99114 -1.1437,6.85186 -1.1437,6.09199 -5.7133,17.12966 -4.5697,11.03768 -3.8098,20.55819 -3.8098,20.55819 -4.1832,-0.76247 -17.5109,4.56964 -22.45917,6.09199 -4.94828,1.52235 -12.94126,9.89915 -19.41448,15.99114 -6.47322,6.09199 -10.65644,3.0447 -17.5109,-1.52494 -6.85446,-4.56705 -6.85446,0.37864 -6.85446,7.2331 0,6.85446 -3.80976,5.71075 -8.75804,5.33211 -4.94828,-0.38124 -13.32249,6.85446 -13.32249,6.85446 -2.28482,-2.66606 -2.28482,-3.80976 -6.09458,-8.37681 -3.80977,-4.56704 -9.51792,-12.94385 -9.51792,-17.51349 0,-4.56705 -6.09459,-10.65644 -8.37422,-13.70373 -2.28482,-3.0447 -1.90358,-7.99298 -0.76506,-12.94385 1.1437,-4.94828 -1.51976,-12.17879 -3.0447,-15.60991 -1.51975,-3.42334 -2.28482,-5.70816 -3.0447,-12.94125 -0.76506,-7.2357 -25.8877,-4.56964 -35.40562,-4.95088 -9.51792,-0.37864 -9.13669,-4.94828 -9.89656,-12.17878 -0.65874,-6.27353 -8.78917,-15.1405 -10.92616,-17.37864 1.23188,0.24638 2.83722,0.24638 5.21281,0.24638 6.47322,0 15.99114,0 18.27596,2.66346 2.28482,2.66346 2.28482,2.66346 6.85446,0.38124 4.56964,-2.28482 7.99298,-3.42853 10.2778,-0.76248 2.28482,2.66347 7.61434,5.32952 11.04286,-1.14111 3.42334,-6.47063 3.80458,-3.42593 6.85446,-4.18581 3.0447,-0.76247 12.56262,-7.61693 15.22608,-11.04286 2.66346,-3.42593 4.56964,-3.80717 0.76506,-6.09199 -3.80976,-2.28482 -6.85964,-5.32951 -3.42852,-10.65903 3.43112,-5.32952 6.08939,-7.2331 10.65644,-2.66346 4.56704,4.56964 3.42852,3.80976 5.3347,9.51792 1.8984,5.71075 4.94828,15.98855 10.2778,9.51792 5.32951,-6.47063 6.09458,-7.99557 9.13668,-7.99557 3.04211,0 6.85446,1.14111 8.75286,-1.90359 1.90358,-3.04729 9.89656,-5.32692 12.18138,-7.2331 2.28482,-1.90099 10.28298,-6.85446 11.04286,-1.13852 0.76507,5.70816 0.76507,7.99298 7.61434,12.56262 6.85446,4.56964 20.17953,7.2331 26.65273,4.94828 6.4681,-2.29519 9.5128,-6.86483 11.795,-4.95865 l 0,0 z"
     sodipodi:nodetypes="25-guangyuanshi"
     inkscape:connector-curvature="0" />
  <path
     style="fill:#d3d3d3;fill-opacity:1;stroke:#ffffff;stroke-width:1;stroke-miterlimit:4;stroke-opacity:1;stroke-dasharray:none"
     id="25-bazhongshi"
     d="m 1100.7131,215.90577 c 0,0 -8.561,15.73958 -2.4716,19.54675 6.0946,3.80976 16.7511,11.80273 6.4733,12.5652 -10.2778,0.75988 -21.6993,8.75545 -14.4662,22.45918 7.2331,13.70892 6.0894,19.41708 -1.525,24.36795 -7.6143,4.95088 -43.0096,38.84971 -50.6239,44.18182 -1.25,-2.92799 -8.5947,-20.17695 -14.8578,-24.00487 -6.8545,-4.18581 -10.6616,-6.85445 -12.9465,0.38124 -2.2848,7.23051 -6.8492,7.61174 -11.7975,3.42334 -4.9535,-4.18581 -16.3724,-8.37422 -16.7562,-14.84744 -0.3787,-6.47063 0.3838,-13.32509 0.3838,-18.6546 0,0 -0.7651,-9.51792 3.8046,-20.55819 4.5696,-11.04286 4.5696,-10.28039 5.7081,-17.12966 1.1437,-6.85446 1.9036,-12.94385 9.1419,-15.99114 7.2279,-3.04729 11.7976,-5.33211 4.5645,-11.80274 -7.2331,-6.47063 -5.7082,-21.31807 -14.0876,-30.07611 2.2848,1.90359 5.3347,-2.66346 6.8545,-5.32951 1.5249,-2.66606 3.0498,-2.66606 6.0945,-1.52235 3.0447,1.13852 14.8475,1.52235 20.9395,-1.90359 6.0894,-3.42593 7.2331,-4.1884 8.7528,0 1.525,4.18841 2.6635,8.37422 2.6635,13.70373 0,5.33211 -2.6635,8.75805 1.5249,10.65904 4.1884,1.90358 17.6821,11.9739 19.0359,4.94828 1.9036,-9.89657 11.4215,-14.08497 13.3225,-6.47323 1.9035,7.61693 2.6634,11.42151 9.9017,8.37681 7.2331,-3.04729 11.8028,-2.66346 16.3724,0.75988 1.2967,0.98032 2.6297,1.92692 3.9939,2.92021 l 0,0 z"
     sodipodi:nodetypes="25-bazhongshi"
     inkscape:connector-curvature="0" />
  <path
     style="fill:#d3d3d3;fill-opacity:1;stroke:#ffffff;stroke-width:1;stroke-miterlimit:4;stroke-opacity:1;stroke-dasharray:none"
     id="25-dazhoushi"
     d="m 1091.8332,443.19214 c 3.6619,-6.65995 6.9659,-12.67673 8.6932,-15.86147 4.9482,-9.13409 1.5249,-19.41708 -1.5198,-23.60548 -3.0499,-4.18581 5.3295,-22.08054 11.0377,-15.99114 5.7133,6.09458 8.758,-12.94126 18.2759,1.90358 9.518,14.85003 15.986,-6.85446 17.5109,-8.75545 1.525,-1.90358 1.1437,-3.42593 -1.9035,-5.71075 -3.0447,-2.28482 2.2848,-8.37422 4.9482,-12.18138 2.6635,-3.80717 3.4286,-5.71076 2.2849,-8.75805 -1.1386,-3.0421 0,-3.80457 1.5249,-6.08939 1.5198,-2.28482 1.5198,-3.80717 -2.6635,-7.99817 -4.1884,-4.18581 7.6144,-10.65643 10.2778,-13.70113 2.6635,-3.04729 3.0447,-4.95088 2.6635,-9.51792 -0.3786,-4.56964 -0.7599,-4.95088 1.5249,-4.95088 2.2849,0 2.6635,-1.52235 0.7599,-5.33211 -1.9036,-3.80716 0.3787,-7.2305 6.0946,-4.94568 5.7082,2.28482 8.3742,-4.94829 9.1367,-8.75545 0.7599,-3.80976 6.468,-4.95088 12.5626,-7.99557 6.0894,-3.0447 -3.0447,-7.61434 -3.0447,-9.89657 0,-2.28222 0,-3.42852 -4.5748,-4.1884 -4.5645,-0.76247 -14.0824,-12.56521 -21.3155,-17.89473 -7.2331,-5.32692 -3.0499,-8.3742 3.0447,-6.47063 6.0946,1.90359 3.0447,-1.90098 2.2848,-5.70815 -0.7599,-3.80717 -0.7599,-3.80717 3.8098,-3.80717 4.5644,0 6.0894,-2.66346 -0.7651,-7.61693 -6.8544,-4.94828 0,-6.47063 3.0447,-6.85445 3.0499,-0.37865 4.9535,-1.52235 3.0499,-5.32693 -1.9036,-3.80976 -5.3295,-4.95087 -10.2778,-2.28741 -4.9535,2.66346 -7.6195,2.66346 -10.6616,2.28741 -3.0447,-0.38123 -6.8545,2.66087 -10.2778,5.70816 -3.4286,3.04729 -5.3347,2.66346 -14.4662,7.99298 -9.1367,5.33211 -15.9912,0.76247 -21.3207,-5.32952 -3.8149,-4.35697 -7.4302,-7.15529 -10.8561,-9.65018 0,0 -8.561,15.73958 -2.4716,19.54674 6.0946,3.80977 16.7511,11.80274 6.4733,12.56521 -10.2778,0.75988 -21.6993,8.75545 -14.4662,22.45918 7.2331,13.70891 6.0893,19.41707 -1.525,24.36795 -7.6143,4.95087 -43.02,38.83156 -50.6317,44.16107 0,0 4.5696,15.22608 1.1385,19.03325 -3.4233,3.80976 -12.1814,16.75361 -17.1296,22.46177 -4.9483,5.71075 -6.4681,9.13669 -3.0447,12.56521 3.4233,3.42853 12.5626,3.04729 15.9911,3.42593 3.4233,0.37865 10.2778,2.28482 12.1814,6.85187 1.9036,4.56964 1.1385,7.99816 4.1884,8.75804 3.0447,0.76247 4.5644,-0.37864 4.9483,4.94828 0.3786,5.33211 -0.3839,10.28039 5.3295,9.89916 5.7082,-0.38124 12.5626,0.37864 14.8474,3.80717 2.1837,3.28329 12.4252,11.12066 15.2884,12.43813 l 0,0 z"
     sodipodi:nodetypes="25-dazhoushi"
     inkscape:connector-curvature="0" />
  <path
     style="fill:#d3d3d3;fill-opacity:1;stroke:#ffffff;stroke-width:1;stroke-miterlimit:4;stroke-opacity:1;stroke-dasharray:none"
     id="25-nanchongshi"
     d="m 893.78261,325.30479 c 0,0 8.39237,-7.23829 13.34324,-6.85965 4.95088,0.37864 8.75804,1.52235 8.75804,-5.33211 0,-6.85186 0,-11.80274 6.85446,-7.2331 6.84927,4.56964 11.03768,7.61693 17.5109,1.52494 6.47322,-6.09458 14.4662,-14.46879 19.41448,-15.99114 4.94827,-1.52235 18.27597,-6.85186 22.46437,-6.09199 0,5.33211 -0.7651,12.18139 -0.3838,18.65461 0.3838,6.47063 11.8027,10.65644 16.751,14.84743 4.9535,4.18582 9.5231,3.80977 11.8027,-3.42593 2.2849,-7.2331 6.0946,-4.56964 12.9465,-0.37864 6.2605,3.82792 13.6,21.05872 14.8474,23.98412 0,0 4.5697,15.22867 1.1437,19.03584 -3.4285,3.80717 -12.1865,16.75102 -17.1348,22.46177 -4.9483,5.70816 -6.4733,9.13669 -3.0447,12.56262 -3.7735,9.28192 -7.6429,10.27002 -11.0377,9.13669 -3.4285,-1.14112 -4.5696,1.52234 -9.9018,4.94828 -5.3295,3.42334 -10.6564,6.09198 -16.751,7.2331 -6.0894,1.14111 -6.8544,7.99557 -6.468,15.98855 0.3786,7.99557 -4.9535,1.90358 -8.3768,4.1884 -3.4234,2.28482 -6.47324,3.42593 -9.51793,2.28482 -3.0447,-1.14111 -3.80977,0 -6.47323,3.42593 -0.15301,0.19451 -0.30343,0.37605 -0.46163,0.54203 -2.54676,2.75164 -5.37879,1.63127 -7.53135,-0.16338 -2.28482,-1.901 -6.09458,-11.42151 -4.94828,-22.08054 1.13852,-10.65904 -10.27779,-20.93943 -19.41448,-25.8903 -2.80091,-1.51457 -5.24653,-3.35591 -7.41983,-5.30877 18.65461,-0.76247 11.22959,-21.72005 10.84576,-28.57191 -0.37864,-6.85446 -1.90358,-6.09459 -7.2331,-6.47323 -5.32951,-0.37864 -4.1884,-1.52235 -1.52494,-8.37421 2.66865,-6.85446 -3.80457,-6.47063 -9.51273,-6.85446 -4.95088,-0.32159 -8.68284,-9.32341 -9.54645,-11.78977 l 0,0 z"
     sodipodi:nodetypes="25-nanchongshi"
     inkscape:connector-curvature="0" />
  <path
     style="fill:#d3d3d3;fill-opacity:1;stroke:#ffffff;stroke-width:1;stroke-miterlimit:4;stroke-opacity:1;stroke-dasharray:none"
     id="25-guanganshi"
     d="m 950.06542,440.81655 c 0.1582,-0.16598 0.30862,-0.34752 0.46163,-0.54203 2.66346,-3.42593 3.42852,-4.56964 6.47322,-3.42593 3.0447,1.1437 6.09463,0 9.51793,-2.28482 3.4233,-2.28482 8.758,3.80717 8.3768,-4.18841 -0.3838,-7.99297 0.3786,-14.84743 6.468,-15.98855 6.0946,-1.14111 11.4215,-3.80976 16.7511,-7.2331 5.3347,-3.42593 6.4732,-6.09198 9.9017,-4.94828 3.3948,1.13334 7.2642,0.14524 11.0377,-9.13668 3.4285,3.42593 12.5626,3.04729 15.9911,3.42593 3.4234,0.38124 10.2778,2.28482 12.1814,6.85446 1.9036,4.56964 1.1385,7.99298 4.1884,8.75545 3.0447,0.75988 4.5696,-0.37864 4.9483,4.94828 0.3786,5.33211 -0.3787,10.28039 5.3295,9.89656 5.7082,-0.37864 12.5626,0.38124 14.8474,3.80717 2.1889,3.28848 12.4304,11.12067 15.291,12.43554 -6.8441,12.42776 -14.9486,27.09884 -16.4321,29.82714 -2.2848,4.18581 -4.9483,13.32509 -7.6195,11.41631 -2.6635,-1.90099 -4.5696,-1.90099 -4.1832,1.52495 0.3786,3.42593 -3.8098,6.85446 -5.7134,3.04469 -1.8984,-3.80716 -3.8045,-3.42334 -6.468,-1.52234 -2.6686,1.90358 -12.1814,2.66605 -23.6055,-16.37238 -6.6859,-11.14142 -14.8526,-15.60991 -22.8456,-6.09199 -7.993,9.52051 -10.6564,11.04027 -16.3724,6.85446 -4.8315,-3.54264 -15.3946,-10.09107 -31.21717,-10.6331 1.07887,-8.89809 -4.16247,-16.6395 -7.30831,-20.42333 l 0,0 z"
     sodipodi:nodetypes="25-guanganshi"
     inkscape:connector-curvature="0" />
  <path
     style="fill:#d3d3d3;fill-opacity:1;stroke:#ffffff;stroke-width:1;stroke-miterlimit:4;stroke-opacity:1;stroke-dasharray:none"
     id="25-suiningshi"
     d="m 957.37891,461.24247 c 1.07887,-8.90068 -4.17284,-16.64209 -7.31349,-20.42592 -2.54676,2.75164 -5.3788,1.63127 -7.53135,-0.16339 -2.28482,-1.90099 -6.09458,-11.4215 -4.94828,-22.08054 1.13852,-10.66162 -10.2778,-20.93942 -19.41448,-25.8877 -9.13669,-4.95087 -14.4662,-13.32768 -19.03584,-17.89213 -4.56964,-4.56964 -9.13669,-3.80717 -19.03584,0.37864 -9.89916,4.18581 -5.32952,12.94385 -0.75988,23.22424 4.56445,10.2778 2.66346,16.74843 -2.28482,23.60289 -4.95347,6.85446 -9.90175,19.41707 -9.90175,19.41707 -1.13852,2.66346 -1.51975,3.42334 3.80976,16.36979 5.32952,12.94644 14.08756,8.75545 23.98412,7.99557 9.89657,-0.76247 14.84744,6.09199 20.17436,14.4662 5.33471,8.37421 13.77894,8.79695 13.77894,8.79695 1.29672,-4.13395 4.38032,-8.20824 6.02197,-8.41571 3.04469,-0.37865 3.42334,-3.80458 1.90358,-9.13409 -1.52494,-5.33211 -6.0064,-7.99817 11.41632,-9.89916 3.21586,-0.35271 6.26056,-0.45645 9.13668,-0.35271 l 0,0 z"
     sodipodi:nodetypes="25-suiningshi"
     inkscape:connector-curvature="0" />
  <path
     style="fill:#d3d3d3;fill-opacity:1;stroke:#ffffff;stroke-width:1;stroke-miterlimit:4;stroke-opacity:1;stroke-dasharray:none"
     id="25-deyangshi"
     d="m 873.10772,428.49512 c -3.33257,6.26575 -5.95195,12.92051 -5.95195,12.92051 -0.50053,1.15927 -0.85064,1.95805 -0.65354,3.56079 -2.15256,6.39802 -10.23631,0.0363 -14.19908,-3.56079 -3.636,-3.30404 -5.26209,-2.59344 -5.37879,2.39375 0,0 -5.65888,-6.58215 -9.08741,-9.62685 -3.42334,-3.04729 -4.94828,-7.23569 -6.47322,-11.4215 -1.51976,-4.18841 0.38383,-9.89916 -14.08238,-12.56262 -14.4662,-2.66605 -15.99114,-1.52235 -22.8456,-3.42852 -6.85446,-1.901 -11.80274,2.66605 -18.6546,-3.42334 -6.85187,-6.0894 -17.5109,-16.75362 -25.50388,-24.36536 -7.99816,-7.61693 -10.62272,-19.61418 -21.28435,-19.99282 1.72723,-2.05141 2.64012,-4.79008 3.38962,-7.03859 1.14371,-3.42593 1.90359,-4.56964 9.13669,-7.61693 7.2331,-3.04729 8.37421,-8.75545 8.75804,-12.94126 0.20748,-2.30557 3.64119,-6.10755 8.15118,-9.56979 1.6209,2.83463 13.92936,24.06192 19.25888,24.41723 5.71334,0.37864 13.32249,-0.37865 17.88954,-2.28482 4.56704,-1.90618 14.08755,-6.47323 15.99114,0.37864 1.90358,6.85186 3.80976,10.28039 7.2331,11.4215 3.42853,1.14112 7.2331,2.66346 7.2331,6.85446 0,4.18581 0.37864,9.51792 3.42853,12.56521 3.04469,3.0447 4.94828,5.70816 6.46803,11.04027 1.52494,5.32952 3.42853,10.65903 7.61952,12.56262 4.18322,1.90358 7.99298,3.42334 9.51792,6.09198 1.51976,2.66347 4.56446,8.75545 7.99298,8.75545 3.42334,0 11.04287,1.14371 10.65644,5.33211 -0.37864,4.18322 1.39009,9.53867 1.39009,9.53867 l 0,0 z"
     sodipodi:nodetypes="25-deyangshi"
     inkscape:connector-curvature="0" />
  <path
     style="fill:#d3d3d3;fill-opacity:1;stroke:#ffffff;stroke-width:1;stroke-miterlimit:4;stroke-opacity:1;stroke-dasharray:none"
     id="25-chengdushi"
     d="m 728.99292,358.98837 c -0.90252,1.07109 -2.02548,1.95545 -3.46483,2.47933 -4.18841,1.52235 -5.70816,8.75545 -7.99298,16.75102 -2.28482,7.99557 -6.47323,20.17436 -6.09458,22.84301 0.37864,2.66346 -0.75988,19.03584 -11.03768,21.32066 -10.28298,2.28482 -27.41265,8.75545 -32.36352,11.04027 -0.0648,0.0311 -0.14264,0.0622 -0.21266,0.096 0.75988,7.2357 7.827,20.081 13.15911,25.41051 5.32951,5.33211 -4.56964,25.88771 -9.51792,36.54934 -4.95347,10.65903 14.4662,1.90099 19.79571,0 5.32952,-1.90099 10.2778,1.90099 14.4662,7.2305 1.06331,1.35637 1.6624,2.61938 1.8984,3.73196 1.88024,0.42014 7.2746,0.51091 13.70633,-8.68024 7.99816,-11.4215 29.69746,-26.64758 40.74032,-19.41707 11.03768,7.2331 12.56262,10.66162 14.84744,1.90358 0.096,-0.38123 0.1971,-0.77544 0.29825,-1.16964 2.22776,-8.69839 5.0961,-20.64637 14.92783,-23.19572 2.94874,-0.76247 9.89656,0.76248 9.51792,-5.32951 -0.37864,-6.0894 1.90358,-5.33211 6.09458,-7.2331 4.18322,-1.90099 18.27078,-2.66346 20.93424,1.1437 2.66865,3.80458 3.42852,10.65644 11.4215,10.65644 7.99817,0 7.2331,-1.52235 6.85446,-8.75545 -0.0519,-0.94919 -0.0648,-1.80244 -0.0519,-2.55453 0,0 -5.65888,-6.58215 -9.08741,-9.62944 -3.42334,-3.0447 -4.94828,-7.2331 -6.46803,-11.41891 -1.52495,-4.18841 0.37864,-9.89656 -14.08756,-12.56262 -14.4662,-2.66605 -15.99115,-1.52235 -22.8456,-3.42593 -6.85446,-1.90359 -11.80274,2.66346 -18.65461,-3.42593 -6.84927,-6.09199 -17.5109,-16.75362 -25.50388,-24.36795 -7.99038,-7.61434 -10.61494,-19.61159 -21.27916,-19.99023 l 0,0 z"
     sodipodi:nodetypes="25-chengdushi"
     inkscape:connector-curvature="0" />
  <path
     style="fill:#d3d3d3;fill-opacity:1;stroke:#ffffff;stroke-width:1;stroke-miterlimit:4;stroke-opacity:1;stroke-dasharray:none"
     id="25-ziyangshi"
     d="m 777.22569,479.07496 c 2.22777,-8.6984 5.09611,-20.64637 14.92784,-23.19572 2.94874,-0.76247 9.89656,0.76247 9.51792,-5.32692 -0.37865,-6.09458 1.90358,-5.33211 6.09458,-7.2357 4.18321,-1.90099 18.27077,-2.66346 20.93423,1.14112 2.66865,3.80976 3.42853,10.66162 11.42151,10.66162 7.99816,0 7.2331,-1.52494 6.85446,-8.76063 -0.37864,-7.23051 1.1437,-8.75545 5.32951,-4.94569 3.96018,3.59969 12.04653,9.95621 14.19908,3.56079 0.25934,2.07735 1.44973,5.50328 4.45812,12.8064 5.32952,12.94385 14.08756,8.75545 23.98412,7.99557 9.89657,-0.76247 14.84744,6.09199 20.17955,14.4662 5.32952,8.37681 13.77375,8.79695 13.77375,8.79695 -1.10999,3.53226 -0.91289,7.10602 2.59344,8.3379 7.61952,2.66087 22.8456,6.85446 18.65461,11.80274 -4.18841,4.94569 -5.32952,5.32952 -4.56964,9.13409 0.76506,3.80458 1.1437,7.99558 -3.0447,7.23311 -4.1884,-0.75988 -13.70632,-1.52235 -15.22608,6.09198 -1.50419,7.51579 -3.00839,10.58383 -8.91105,13.22395 -1.08925,-3.36369 -5.80931,-11.26071 -10.88985,-17.79099 -5.32952,-6.85187 -6.84927,-1.52235 -10.65644,-1.52235 -3.80717,0 -3.80976,0 -5.32952,-1.52235 -1.52494,-1.52235 -4.1884,-0.76247 -7.2331,1.52235 -3.04988,2.28482 -4.427,-5.80412 -7.61434,-10.65903 -8.75804,-13.32509 -17.51608,-0.76248 -21.32584,5.33211 -3.80458,6.09198 -8.37422,2.28482 -10.2778,-1.14112 -1.90358,-3.42593 -3.80457,-1.52235 -7.2331,1.14112 -3.42334,2.66086 -3.42334,1.14111 -11.80274,-6.09459 -8.37421,-7.2331 -19.7646,-5.67185 -19.7646,-5.67185 -2.47154,-4.29214 -4.32067,-7.44576 -6.88298,-11.07657 -4.56964,-6.47323 -10.73943,-14.49733 -22.16094,-18.30449 l 0,0 z"
     sodipodi:nodetypes="25-ziyangshi"
     inkscape:connector-curvature="0" />
  <path
     style="fill:#d3d3d3;fill-opacity:1;stroke:#ffffff;stroke-width:1;stroke-miterlimit:4;stroke-opacity:1;stroke-dasharray:none"
     id="25-neijiangshi"
     d="m 806.26961,508.45602 c 1.92952,3.35073 4.24546,7.40168 7.58322,12.91014 7.61433,12.56262 -9.13669,20.55819 -13.70633,22.08313 -4.56963,1.51976 -6.85445,0.75988 -5.32951,9.13669 1.52494,8.37421 -1.18002,15.03416 -1.18002,15.03416 4.24028,-1.66239 9.41678,-3.80457 12.98276,-4.75637 5.70816,-1.52494 11.04286,-3.42852 13.70632,0.37865 2.66346,3.80457 16.75102,23.22424 23.60548,18.6546 6.85446,-4.56964 9.51792,-8.37681 14.84744,-7.61433 5.32951,0.75987 9.13668,0.75987 12.18138,-0.38383 3.0447,-1.13852 9.13668,-0.75988 10.2778,3.04988 1.1437,3.80458 5.30358,20.99648 15.99114,20.17436 1.84393,-0.14264 3.62044,-0.41495 5.34508,-0.81953 7.40945,-1.75316 13.70632,-5.98825 19.526,-12.64301 -0.20748,-1.12037 -0.0311,-2.47673 0.25934,-4.04836 0.75988,-4.1884 -3.04988,-5.32951 -8.37681,-9.51792 -5.32692,-4.1884 -6.09458,-8.37681 -6.47322,-13.70632 -0.37864,-5.32952 4.56964,-8.75804 10.66163,-11.42151 0.0752,-0.0311 0.15301,-0.0648 0.22822,-0.10114 -1.08924,-3.36369 -5.8093,-11.26071 -10.88985,-17.79099 -5.32952,-6.85446 -6.84927,-1.52235 -10.65644,-1.52235 -3.80717,0 -3.80976,0 -5.32952,-1.52235 -1.52494,-1.52494 -4.1884,-0.76247 -7.2331,1.52235 -3.04988,2.28482 -4.42181,-5.80152 -7.61952,-10.65903 -8.75285,-13.32509 -17.5109,-0.76247 -21.31547,5.32952 -3.80976,6.09458 -8.37681,2.28482 -10.28299,-1.13852 -1.90358,-3.42594 -3.80457,-1.52495 -7.2331,1.13852 -3.42334,2.66605 -3.42334,1.1437 -11.80274,-6.09199 -8.37421,-7.2357 -19.76719,-5.67445 -19.76719,-5.67445 l 0,0 z"
     sodipodi:nodetypes="25-neijiangshi"
     inkscape:connector-curvature="0" />
  <path
     style="fill:#d3d3d3;fill-opacity:1;stroke:#ffffff;stroke-width:1;stroke-miterlimit:4;stroke-opacity:1;stroke-dasharray:none"
     id="25-meishanshi"
     d="m 669.9481,596.36322 c -1.27597,-2.08253 -2.609,-3.80976 -3.80976,-4.56964 -4.18322,-2.66346 -8.75286,-5.3347 -4.94828,-10.65644 3.80976,-5.3347 4.56964,-7.23828 4.94828,-12.5678 0.37864,-5.32952 1.90358,-12.18138 7.61434,-8.37421 5.71334,3.80976 17.13484,6.08939 11.80792,-7.99817 -5.3347,-14.08756 -7.23829,-22.84301 -1.90358,-25.12523 5.32951,-2.28482 15.60731,-15.98855 19.41448,-15.60991 2.83722,0.28528 5.25171,-1.75835 4.56445,-5.02608 1.88025,0.41754 7.2746,0.50831 13.71151,-8.68024 7.99298,-11.42151 29.69228,-26.65018 40.73514,-19.41449 11.03768,7.2331 12.56262,10.65644 14.84744,1.90099 0.096,-0.37864 0.1971,-0.77284 0.29825,-1.16704 11.4215,3.80716 17.59129,11.82867 22.16093,18.2993 4.56964,6.47063 6.85446,11.4215 14.4662,23.98672 7.61434,12.56261 -9.1315,20.55818 -13.70632,22.08313 -4.56964,1.51975 -6.85446,0.75987 -5.32952,9.13668 1.52494,8.37421 -1.18001,15.03416 -1.18001,15.03416 -1.51976,-6.09458 -12.90755,-28.36184 -16.33089,-34.07259 -3.42852,-5.71076 -6.09458,-4.56964 -7.2331,1.52235 -1.1437,6.09458 -2.66346,14.08755 -11.4215,16.75102 -8.75804,2.66346 -11.80274,-2.28482 -14.08756,-5.70816 -2.28482,-3.42853 -3.80458,-11.04286 -9.13669,-15.99115 -5.32951,-4.94828 -7.2331,-1.90358 -12.18138,7.99298 -4.94828,9.90175 -9.51792,9.90175 -14.84743,11.04286 -5.32952,1.14371 -8.75805,-2.28482 -8.75805,10.65644 0,12.94645 -3.42334,20.56079 -8.37421,28.93241 -4.94828,8.3768 -6.09458,4.95346 -11.4215,4.19359 -5.32952,-0.75988 -9.89916,3.42852 -9.89916,3.42852 l 0,0 z"
     sodipodi:nodetypes="25-meishanshi"
     inkscape:connector-curvature="0" />
  <path
     style="fill:#d3d3d3;fill-opacity:1;stroke:#ffffff;stroke-width:1;stroke-miterlimit:4;stroke-opacity:1;stroke-dasharray:none"
     id="25-yaanshi"
     d="m 667.82926,433.51861 c -4.93791,2.2926 -11.96353,5.85599 -11.59008,-3.52448 0.37865,-9.51792 3.42853,-18.27337 -10.65644,-10.65903 -14.08756,7.61693 -11.4215,9.51792 -18.27596,11.04026 -6.84927,1.52495 -15.62547,9.57239 -15.24164,19.85278 5.8093,2.73608 3.37925,10.0781 2.30038,14.02791 -1.13852,4.19099 -4.56964,6.85446 -1.90358,21.6993 2.66346,14.85003 -5.70816,22.08572 -9.89656,28.17252 -4.18841,6.09199 -4.56964,12.94386 -2.28482,14.84744 2.28482,1.90618 1.90358,3.80976 3.04469,9.13669 1.14371,5.3347 4.56964,10.66162 6.47323,17.51608 1.90358,6.84927 0,9.1315 -1.90359,12.18138 -1.89839,3.0447 -3.80457,6.47323 -1.13852,15.99115 2.66606,9.51792 -17.5109,7.61433 -25.12782,7.2331 -7.61434,-0.37865 -10.65904,1.51975 -10.65904,9.51273 0,7.99816 6.0894,10.28298 9.13928,13.32768 3.0447,3.0447 5.32952,5.71335 5.70816,9.51792 0.37864,3.80976 0,6.47322 4.94828,11.80274 2.46117,2.6479 1.90877,6.80778 0.30862,10.59679 0,0 10.73424,13.76857 23.29427,14.90709 12.56261,1.1437 17.51089,-0.75469 17.12966,-11.79756 -0.38124,-11.04286 1.90358,-25.50906 11.4215,-24.36535 9.51533,1.13852 11.03508,1.90358 11.80015,-2.66346 0.75988,-4.56964 5.32951,-8.75805 8.75285,-7.23829 3.42853,1.52494 4.18841,1.14371 6.09459,-1.8984 1.09443,-1.75316 4.21952,-4.2688 6.22943,-4.41144 -1.13592,-2.75942 -5.98306,-14.19389 -9.66055,-16.52798 -4.18322,-2.66346 -8.75286,-5.32952 -4.94829,-10.66163 3.80977,-5.32952 4.56964,-7.2331 4.94829,-12.56262 0.37864,-5.32951 1.90358,-12.18138 7.61433,-8.37421 5.71335,3.80457 17.13485,6.08939 11.80793,-7.99817 -5.33471,-14.08755 -7.23829,-22.843 -1.90359,-25.12523 5.32952,-2.28482 15.60732,-15.99114 19.41449,-15.60991 3.80457,0.37865 6.85445,-3.42334 2.66346,-8.75545 -4.18841,-5.32951 -9.13669,-9.13668 -14.4662,-7.23569 -5.32952,1.90618 -24.74919,10.66163 -19.79572,0 4.94828,-10.65644 14.84744,-31.21722 9.51792,-36.54415 -5.33211,-5.33211 -12.39923,-18.17741 -13.15911,-25.41051 l 0,0 z"
     sodipodi:nodetypes="25-yaanshi"
     inkscape:connector-curvature="0" />
  <path
     style="fill:#d3d3d3;fill-opacity:1;stroke:#ffffff;stroke-width:1;stroke-miterlimit:4;stroke-opacity:1;stroke-dasharray:none"
     id="25-leshanshi"
     d="m 793.60845,567.61236 c -1.51976,-6.09458 -12.87643,-28.35925 -16.29977,-34.06741 -3.42852,-5.71075 -6.09458,-4.56964 -7.2331,1.52235 -1.1437,6.09458 -2.66346,14.08756 -11.4215,16.75621 -8.75804,2.65827 -11.80274,-2.28482 -14.08756,-5.71335 -2.28482,-3.42334 -3.80458,-11.04286 -9.13669,-15.99114 -5.32951,-4.95088 -7.2331,-1.90359 -12.18138,7.99557 -4.94828,9.89915 -9.51792,9.89915 -14.84743,11.04027 -5.32952,1.1437 -8.75805,-2.28482 -8.75805,10.66162 0,12.94126 -3.42334,20.5556 -8.37421,28.93241 -4.94828,8.37421 -6.09458,4.94828 -11.4215,4.18321 -5.32952,-0.75987 -9.90694,3.42853 -9.90694,3.42853 2.64531,4.29473 5.08573,10.10144 5.8508,11.95835 1.47826,-0.10115 2.36003,1.07368 1.39267,4.79267 -2.28481,8.75286 -5.32951,20.93942 -2.28481,26.64758 3.04469,5.71335 1.52494,44.15848 10.66162,36.54674 9.1315,-7.61433 25.12524,-26.64758 27.40746,-9.1315 2.28482,17.5109 0.75988,37.30662 8.37422,28.93241 7.61952,-8.37681 11.80274,-12.94645 17.51608,-9.89657 1.81281,0.96736 3.63081,1.7791 5.30358,2.51305 0,0 8.01892,-2.137 7.25904,-13.17467 -0.75988,-11.04286 4.56964,-16.75102 10.2778,-17.12967 5.71334,-0.37864 8.75804,0 11.80274,1.90359 3.04988,1.8984 6.09458,3.42334 5.32951,-4.56964 -0.75988,-7.99817 2.66865,-22.08054 6.47322,-28.55376 3.80977,-6.47322 4.56964,-7.99817 3.42853,-14.4662 0,0 -2.66346,-2.28482 -4.94828,-4.94828 -2.28482,-2.66346 -4.1884,-3.42853 -1.52494,-6.47323 2.66346,-3.04469 10.65644,-9.89656 2.28482,-11.80274 -8.37681,-1.90358 -11.80274,-2.66346 -6.85446,-7.2331 4.94828,-4.56964 6.47322,-11.80274 9.89656,-12.56261 1.28375,-0.28788 3.4778,-1.1074 6.02197,-2.10069 l 0,0 z"
     sodipodi:nodetypes="25-leshanshi"
     inkscape:connector-curvature="0" />
  <path
     style="fill:#d3d3d3;fill-opacity:1;stroke:#ffffff;stroke-width:1;stroke-miterlimit:4;stroke-opacity:1;stroke-dasharray:none"
     id="25-zigongshi"
     d="m 902.57177,596.30357 c 0.70801,3.54005 1.45492,8.90069 -0.0156,11.09733 -2.28482,3.42852 -4.94828,9.13668 -1.51975,12.5678 3.42334,3.42334 4.18321,12.94126 -2.66346,14.4662 -18.65461,1.52495 -22.46437,-7.61952 -26.65277,-13.70632 -4.18322,-6.09458 -11.41632,-0.37864 -18.27078,3.80976 -6.85446,4.1884 -7.2331,-1.14371 -7.2331,-7.99816 0,-6.85446 -3.42853,-10.65644 -7.2331,-12.94126 -3.80976,-2.28482 -4.1884,-3.80976 -8.37681,-1.90359 -4.1884,1.90618 -3.80457,-0.37864 -9.13668,-0.37864 -5.32952,0 -32.73698,11.4215 -32.73698,11.4215 0,0 -2.66865,-2.28481 -4.94828,-4.94828 -2.28482,-2.66864 -4.1884,-3.42852 -1.52494,-6.47322 2.66346,-3.04988 10.65644,-9.89656 2.28482,-11.80274 -8.37681,-1.90358 -11.80274,-2.66346 -6.85446,-7.2331 4.94828,-4.56964 6.47322,-11.80274 9.89656,-12.56262 3.42853,-0.76506 13.32768,-5.3347 19.03584,-6.85446 5.71335,-1.52494 11.04286,-3.42333 13.70632,0.37865 2.66347,3.80198 16.75103,23.21905 23.60548,18.64941 6.84928,-4.56445 9.51792,-8.37421 14.84744,-7.60914 5.32952,0.75987 9.13669,0.75987 12.18138,-0.38383 3.0447,-1.13852 9.13669,-0.75988 10.28299,3.04988 1.13852,3.80458 5.29839,20.99648 15.98595,20.17436 1.84134,-0.14264 3.61785,-0.41495 5.33989,-0.81953 l 0,0 z"
     sodipodi:nodetypes="25-zigongshi"
     inkscape:connector-curvature="0" />
  <path
     style="fill:#d3d3d3;fill-opacity:1;stroke:#ffffff;stroke-width:1;stroke-miterlimit:4;stroke-opacity:1;stroke-dasharray:none"
     id="25-luzhoushi"
     d="m 922.09777,583.66056 c -5.81967,6.65995 -12.12173,10.88985 -19.526,12.64301 0.70801,3.54005 1.45492,8.90069 -0.0156,11.09733 -2.28482,3.42852 -4.94828,9.13668 -1.51975,12.5678 3.42334,3.42334 4.18321,12.94126 -2.66346,14.4662 0,0 4.56445,6.85446 3.80457,13.3225 -0.75988,6.47322 -4.94828,27.41265 2.28482,36.17069 7.2331,8.75285 19.41448,30.83339 9.89656,37.30661 -9.34156,6.35652 -9.91731,9.07704 -9.93287,11.69641 2.10847,1.61053 4.00686,3.42853 5.36323,4.67597 4.56964,4.18841 7.20717,4.09764 8.37681,3.0447 3.80457,-3.42334 5.32952,0.75988 1.90358,10.66163 -3.42852,9.89656 1.51976,8.75285 5.32952,8.37421 3.80458,-0.37864 3.42334,0 -0.75988,6.47322 -4.1884,6.46804 5.30877,4.77712 10.65644,3.0447 14.08756,-4.56964 23.60548,0.76506 26.26894,3.80976 2.66352,3.0447 6.08942,2.66346 8.37422,-0.76506 2.2849,-3.42334 4.5697,-3.42334 6.4733,-2.66346 1.9035,0.76506 7.9929,-0.75988 10.2778,-3.0447 2.2848,-2.28482 3.4285,-3.80458 6.0945,-2.66346 2.6635,1.1437 10.6565,-2.66347 14.4662,-6.09458 3.8098,-3.42334 5.0858,0.7495 9.8966,1.52494 11.8027,1.90358 11.4215,-11.04286 10.283,-17.89473 -1.1437,-6.84927 -8.7581,-19.41448 -14.4714,-26.26375 -5.7082,-6.85446 -12.5626,-3.42853 -16.751,3.42334 -4.1832,6.85445 -6.4681,3.42333 -8.7529,0.75987 -2.2848,-2.66346 -1.9036,-2.66346 -4.5696,-2.28482 -2.6635,0.38383 -3.0447,-1.51975 -3.0447,-5.32951 0,-3.80976 -4.1884,-4.18841 -7.6195,-10.2778 -3.4234,-6.09458 -5.7082,-3.80976 -11.41639,-1.13852 -5.71335,2.65827 -8.37681,-8.76323 -10.28299,-19.41967 -1.8984,-10.65644 9.51792,-17.5109 18.65468,-17.5109 9.1367,0 6.0945,-2.66346 9.5179,-11.80274 3.4285,-9.13668 9.8965,-3.04469 12.1814,1.52494 2.2848,4.56964 6.4732,3.80458 9.5179,5.70816 3.0447,1.90359 9.5179,7.61434 17.8947,13.3225 8.3742,5.71334 6.0894,-4.94828 4.9483,-9.89656 -1.1437,-4.94829 -9.1367,-21.69931 -14.0876,-29.69228 -4.9508,-7.99298 -12.5626,-10.28299 -17.8947,-9.51792 -5.3295,0.75987 -12.9412,-0.37865 -16.3724,-2.28482 -3.4233,-1.90359 -1.5197,-1.90359 -7.2331,3.42334 -5.70817,5.3347 -11.79756,-9.51274 -12.18139,-17.5109 -0.37864,-7.99298 -2.66346,-9.89656 -5.32952,-11.80274 -2.66346,-1.8984 -3.04469,-3.80976 -2.66346,-8.37422 0.37864,-4.56963 -3.42334,-2.28482 -6.47322,-1.52494 -3.0447,0.76507 -7.2331,3.04989 -13.3225,2.28482 -3.80198,-0.47978 -5.23096,-1.70129 -5.58108,-3.56857 l 0,0 z"
     sodipodi:nodetypes="25-luzhoushi"
     inkscape:connector-curvature="0" />
  <path
     style="fill:#d3d3d3;fill-opacity:1;stroke:#ffffff;stroke-width:1;stroke-miterlimit:4;stroke-opacity:1;stroke-dasharray:none"
     id="25-yibinshi"
     d="m 765.49557,692.68094 c -11.03768,10.2778 -12.93607,2.66346 -14.07719,0.37865 -0.78062,-1.55607 -3.68268,-2.75942 -7.25903,-4.33623 0,0 8.01891,-2.137 7.25903,-13.17467 -0.75987,-11.04286 4.56964,-16.75102 10.2778,-17.12967 5.71335,-0.37864 8.75804,0 11.80274,1.90359 3.04989,1.8984 6.09458,3.42334 5.33471,-4.56964 -0.76507,-7.99817 2.66346,-22.08572 6.46803,-28.55376 3.80976,-6.47322 4.56964,-7.99298 3.42853,-14.47139 0,0 27.40746,-11.41632 32.73697,-11.41632 5.33471,0 4.95347,2.28482 9.13669,0.37865 4.1884,-1.90359 4.56964,-0.37865 8.37681,1.90358 3.80457,2.28482 7.2331,6.09458 7.2331,12.94126 0,6.85446 0.37864,12.18138 7.2331,7.99816 6.85446,-4.1884 14.08756,-9.89656 18.27077,-3.80976 4.18841,6.09458 7.99817,15.22608 26.64759,13.70633 0,0 4.56963,6.85445 3.80976,13.32249 -0.75988,6.47322 -4.94828,27.41265 2.28482,36.17069 7.2331,8.75286 19.41448,30.83339 9.89656,37.30662 -9.34157,6.35133 -9.91212,9.07703 -9.93287,11.69641 -4.97422,-3.79939 -11.1077,-6.43692 -14.05125,2.39115 -4.18841,12.56261 -5.70816,21.32066 -9.89656,21.32066 -4.18841,0 -12.18139,-0.37865 -14.84744,3.42852 -2.66346,3.80458 -10.28299,7.99298 -15.6125,3.80458 -5.32952,-4.18841 -16.75102,-11.04287 -21.6993,-13.70633 -4.94829,-2.66346 -7.2331,-6.85446 -0.75988,-11.03767 6.47322,-4.18841 15.22608,-8.37681 8.75804,-17.51609 -6.47322,-9.13668 -6.09458,-9.89656 -9.89656,-8.37421 -3.80976,1.51975 -7.99817,-1.90359 -10.28299,-7.2331 -2.28482,-5.33471 -7.61433,-12.18138 1.52495,-18.65461 9.13927,-6.47322 18.27077,-12.56261 5.70815,-13.32768 -12.56261,-0.75988 -19.79571,0.76507 -23.98412,2.66865 -4.1884,1.8984 -8.75804,4.94828 -15.22608,3.42334 -6.47322,-1.52494 -13.70632,-2.28482 -17.12966,3.42334 -1.60015,2.67643 -1.95286,6.00381 -1.53272,9.14446 l 0,0 z"
     sodipodi:nodetypes="25-yibinshi"
     inkscape:connector-curvature="0" />
  <path
     style="fill:#d3d3d3;fill-opacity:1;stroke:#ffffff;stroke-width:1;stroke-miterlimit:4;stroke-opacity:1;stroke-dasharray:none"
     id="25-liangshanyizuzizhizhou"
     d="m 765.49557,692.68094 c 0.48757,3.58673 1.99176,6.92967 3.82014,8.75805 3.42333,3.42334 8.37421,5.32951 3.42333,13.70632 -4.94828,8.37421 -7.61433,14.4662 -14.4662,12.56262 -6.85186,-1.90359 -11.80274,-4.18841 -16.75102,1.90358 -4.94828,6.08939 -12.18138,15.98596 -7.61433,19.41448 4.56964,3.42334 13.70113,6.47323 11.80274,12.56262 -1.90359,6.08939 -4.56964,9.51792 -4.56964,12.94126 0,3.42853 -0.37865,7.99816 -5.71335,12.18657 -5.32952,4.18321 -23.21906,23.98412 -23.21906,30.07351 0,6.09458 0,7.99817 -3.04988,9.13669 -3.0447,1.13852 -11.03767,6.85446 -13.32249,4.94828 -2.28482,-1.90618 -8.37681,-6.85446 -9.13669,7.61433 -0.75988,14.4688 -0.75988,44.54491 3.42334,47.96825 4.1884,3.42334 7.99817,11.04286 8.37681,15.99114 0.37864,4.94828 3.04469,11.4215 5.70816,15.60731 2.66864,4.18841 4.56964,6.09459 1.52494,6.85446 -3.0447,0.76507 -3.80976,10.66163 -4.18841,17.12967 -0.37864,6.47322 -1.52494,10.66162 -8.75285,12.18656 -7.2331,1.51976 -13.70632,1.13852 -15.6125,7.23311 -1.90359,6.08939 -7.99298,9.89656 -11.42151,1.90358 -3.42334,-7.99817 -4.56964,-12.18657 -8.37421,-9.90175 -3.80976,2.28482 -17.5083,7.99817 -22.45918,10.28298 -4.95087,2.28482 -10.66163,5.70816 -13.32768,10.65644 -2.66606,4.94829 -8.37421,15.61251 -15.99114,9.89657 -7.61434,-5.70816 -8.37422,-4.56964 -9.89657,-1.90359 -1.51975,2.66346 -11.4215,5.71335 -15.22607,-1.89839 -1.25523,-2.50786 -2.00992,-4.18841 -2.62975,-5.31915 3.80976,-0.75987 4.52814,-4.96384 7.19679,-11.05323 2.66346,-6.09458 -1.14371,-18.27597 -3.42853,-21.32066 -2.28481,-3.04989 0,-11.04286 1.14371,-20.93943 1.13852,-9.89656 11.04286,-1.90358 15.60732,1.90359 4.56963,3.80976 7.2331,2.66346 10.28298,-2.66346 3.0447,-5.32952 3.0447,-27.41265 1.8984,-31.98229 -1.13852,-4.56964 3.04988,-17.12966 4.56964,-19.41448 1.52494,-2.28482 1.52494,-4.94828 -4.18322,-10.2778 -5.71335,-5.3347 -9.52311,1.14371 -12.18657,7.61434 -2.66346,6.47322 -11.80274,0.37864 -14.4662,-0.75988 -2.66346,-1.14371 -1.51976,-6.09458 -1.90358,-14.84744 -0.37865,-8.75804 -8.37422,2.28482 -8.75286,10.2778 -0.37864,7.99298 -7.2331,7.2331 -14.84744,6.46803 -7.61433,-0.75987 -4.56964,-7.22791 -4.56964,-20.55559 0,-13.32768 -15.23126,4.18322 -17.12966,8.37681 -1.90358,4.18321 -5.71334,4.18321 -12.18138,4.94828 -5.91563,0.69504 -12.80899,6.81296 -13.94492,7.85552 0.15301,-3.06544 -0.91808,-5.40991 -5.09092,-6.33577 -6.85446,-1.51975 -9.52051,-0.75987 -7.99817,-6.09458 1.52495,-5.32951 0.75988,-12.94126 -11.41891,-22.84041 -4.91456,-3.99649 -9.89656,-3.80976 -7.99297,-6.85446 1.90358,-3.0447 2.28482,-3.80458 -0.37865,-4.94828 -2.66346,-1.14371 -3.04988,-1.90359 -4.1884,-4.94828 -1.13852,-3.0447 -1.90358,-4.56964 -4.1884,-3.80458 -2.28482,0.75988 -6.85446,0.37864 -4.56446,-4.95347 2.27964,-5.32951 1.13852,-6.85445 -1.1437,-11.80274 -2.28482,-4.94309 -6.47322,-15.98595 -10.66163,-8.37421 -4.18322,7.61434 -9.1315,8.75804 -12.18138,4.1884 -3.0447,-4.56963 -7.61434,-3.80976 -9.89916,1.52495 -2.28222,5.32951 -14.84743,20.93423 -15.22607,8.75285 -0.37865,-12.18138 1.52234,-12.94644 -1.90359,-13.70632 -3.42334,-0.75988 -8.75545,-0.37864 -9.89656,-4.56964 -0.84546,-3.10953 -3.37406,-4.32586 -5.86636,-6.30724 0,0 7.00747,-7.39649 11.57452,-6.25538 4.56964,1.14371 14.85003,2.28482 11.80274,-10.2778 -3.0447,-12.5678 -6.0894,-29.31363 4.94828,-43.78502 4.43737,-5.8093 5.71594,-14.4662 2.28741,-19.41448 -3.42593,-4.94828 -3.80717,-7.2331 -0.76247,-9.51792 3.0447,-2.27964 7.99557,-5.70816 6.85446,-14.08238 -1.14371,-8.3768 5.32952,-23.9893 20.17436,-22.08572 10.07551,1.29153 9.90175,3.42853 6.85446,-3.80457 -3.0447,-7.23829 -3.42334,-9.52311 0,-11.04287 3.42852,-1.52494 5.32951,-0.76506 6.47322,1.51976 1.13852,2.28482 4.1884,6.09458 7.61434,1.90877 3.42334,-4.19359 9.51792,-8.37681 14.08756,0.75988 4.56963,9.13149 10.2752,24.36535 9.89396,30.45734 -0.37864,6.0894 -5.70556,18.64942 9.90175,18.64942 15.60732,0 28.92722,4.94828 31.59846,12.18138 2.66346,7.23829 3.80458,11.04286 -4.56964,7.99817 -8.37681,-3.0447 -13.32768,-4.56964 -10.66162,3.04469 2.66605,7.61434 4.56963,18.65461 14.4662,15.99115 9.89656,-2.66347 14.4662,-1.52495 15.23126,-11.04287 0.75988,-9.51792 4.18322,-21.32066 12.56262,-25.12523 8.37421,-3.80976 15.98855,-9.90175 12.94385,-20.56078 -3.0447,-10.65904 0,-16.75102 3.42853,-19.03584 1.72204,-1.1489 4.40625,-4.60336 6.01678,-8.43387 0,0 10.73424,13.76338 23.29426,14.90709 12.56262,1.13852 17.5109,-0.76506 17.12967,-11.80274 -0.37865,-11.04286 1.90358,-25.50906 11.4215,-24.36536 9.51533,1.13852 11.03508,1.8984 11.80015,-2.66864 0.75987,-4.56446 5.32951,-8.75286 8.75285,-7.23311 3.42853,1.52495 4.1884,1.14371 6.09458,-1.89839 1.90618,-3.04211 9.89656,-8.37681 7.61434,0.37864 -2.28482,8.75286 -5.32952,20.93942 -2.28482,26.64758 3.0447,5.71335 1.52494,44.15848 10.66163,36.54674 9.13149,-7.61434 25.12523,-26.64758 27.40746,-9.1315 2.28481,17.5109 0.75987,37.30662 8.37421,28.93241 7.61952,-8.37681 11.80274,-12.94645 17.51608,-9.89657 5.70816,3.0447 11.42151,4.56446 12.56262,6.84927 1.14111,2.28482 3.03432,9.91472 14.072,-0.36308 l 0,0 z"
     sodipodi:nodetypes="25-liangshanyizuzizhizhou"
     inkscape:connector-curvature="0" />
  <path
     style="fill:#d3d3d3;fill-opacity:1;stroke:#ffffff;stroke-width:1;stroke-miterlimit:4;stroke-opacity:1;stroke-dasharray:none"
     id="25-panzhihuashi"
     d="m 510.95734,868.81174 c 1.13593,-1.04256 8.02929,-7.16308 13.94492,-7.85553 6.46804,-0.76506 10.2778,-0.76506 12.18138,-4.94828 1.8984,-4.19359 17.12966,-21.70449 17.12966,-8.3768 0,13.32768 -3.04469,19.79571 4.56964,20.55559 7.61434,0.76507 14.4662,1.52494 14.84744,-6.46803 0.38124,-7.99298 8.37421,-19.03584 8.75286,-10.2778 0.38382,8.75285 -0.75988,13.70113 1.90358,14.84743 2.66346,1.13852 11.80793,7.23311 14.4662,0.75988 2.66346,-6.46803 6.47322,-12.94644 12.18657,-7.61433 5.70816,5.32951 5.70816,7.99297 4.18322,10.27779 -1.51976,2.28482 -5.70816,14.84744 -4.56964,19.41449 1.1437,4.56963 1.1437,26.65277 -1.8984,31.98228 -3.04988,5.32952 -5.71335,6.47323 -10.28298,2.66346 -4.56446,-3.80976 -14.46621,-11.80274 -15.60732,-1.90358 -1.14371,9.89656 -3.42852,17.88954 -1.14371,20.93942 2.28482,3.0447 6.09459,15.22608 3.42853,21.32066 -2.66865,6.0894 -3.39481,10.29336 -7.19679,11.05324 -1.25782,-2.30038 -1.92174,-2.30038 -4.98459,-2.30038 -4.56964,0 -23.22424,-7.22791 -10.66163,-10.2778 3.98612,-0.96735 9.51792,-7.2331 -8.75804,-19.79572 -3.57635,-2.46117 -20.93424,-1.90358 -13.32249,-9.90175 7.61433,-7.99297 8.75285,-11.41631 8.37421,-17.88954 -0.37864,-6.47322 0,-8.75804 -3.80458,-3.80457 -3.80976,4.94828 -9.13668,7.60915 -7.61433,-0.76506 1.51975,-8.37422 0.37864,-13.70633 -4.18841,-13.70633 -4.56704,0 -11.04286,-2.65827 -11.04286,-5.32951 0,-2.66347 -0.37864,-3.0447 -4.1884,-4.94829 -3.80458,-1.90358 -9.51273,-4.94828 -7.99298,-11.03767 0.59649,-2.38337 1.19298,-4.64744 1.28894,-6.61327 l 0,0 z"
     sodipodi:nodetypes="25-panzhihuashi"
     inkscape:connector-curvature="0" />
  <text
     xml:space="preserve"
     style="font-size:18px;font-style:normal;font-variant:normal;font-weight:normal;font-stretch:normal;line-height:125%;letter-spacing:0px;word-spacing:0px;fill:#000000;fill-opacity:1;stroke:none;font-family:Microsoft YaHei;-inkscape-font-specification:Microsoft YaHei"
     x="574"
     y="283"
     id="text3037"
     sodipodi:linespacing="125%"><tspan
       sodipodi:role="line"
       id="tspan3039"
       x="574"
       y="283">阿坝藏族羌族自治州</tspan></text>
  <text
     xml:space="preserve"
     style="font-size:4px;font-style:normal;font-variant:normal;font-weight:normal;font-stretch:normal;line-height:125%;letter-spacing:0px;word-spacing:0px;fill:#000000;fill-opacity:1;stroke:none;font-family:Microsoft YaHei;-inkscape-font-specification:Microsoft YaHei"
     x="893.78296"
     y="232.04041"
     id="text3809"
     sodipodi:linespacing="125%">
<tspan
   sodipodi:role="line"
   id="tspan3811"
   x="893.78296"
   y="232.04041">
</tspan>
</text>
  <text
     xml:space="preserve"
     style="font-size:18px;font-style:normal;font-variant:normal;font-weight:normal;font-stretch:normal;line-height:125%;letter-spacing:0px;word-spacing:0px;fill:#000000;fill-opacity:1;stroke:none;font-family:Microsoft YaHei;-inkscape-font-specification:Microsoft YaHei"
     x="904"
     y="236"
     id="text3045"
     sodipodi:linespacing="125%"><tspan
       sodipodi:role="line"
       id="tspan3047"
       x="904"
       y="236">广元市</tspan></text>
  <text
     xml:space="preserve"
     style="font-size:18px;font-style:normal;font-variant:normal;font-weight:normal;font-stretch:normal;line-height:125%;letter-spacing:0px;word-spacing:0px;fill:#000000;fill-opacity:1;stroke:none;font-family:Microsoft YaHei;-inkscape-font-specification:Microsoft YaHei"
     x="467"
     y="513"
     id="text3049"
     sodipodi:linespacing="125%"><tspan
       sodipodi:role="line"
       id="tspan3051"
       x="467"
       y="513">甘孜藏族自治州</tspan></text>
  <text
     xml:space="preserve"
     style="font-size:18px;font-style:normal;font-variant:normal;font-weight:normal;font-stretch:normal;line-height:125%;letter-spacing:0px;word-spacing:0px;fill:#000000;fill-opacity:1;stroke:none;font-family:Microsoft YaHei;-inkscape-font-specification:Microsoft YaHei"
     x="579"
     y="769"
     id="text3053"
     sodipodi:linespacing="125%"><tspan
       sodipodi:role="line"
       id="tspan3055"
       x="579"
       y="769">西昌市</tspan></text>
  <text
     xml:space="preserve"
     style="font-size:18px;font-style:normal;font-variant:normal;font-weight:normal;font-stretch:normal;line-height:125%;letter-spacing:0px;word-spacing:0px;fill:#000000;fill-opacity:1;stroke:none;font-family:Microsoft YaHei;-inkscape-font-specification:Microsoft YaHei"
     x="621"
     y="535"
     id="text3057"
     sodipodi:linespacing="125%"><tspan
       sodipodi:role="line"
       id="tspan3059"
       x="621"
       y="535">雅安市</tspan></text>
  <text
     xml:space="preserve"
     style="font-size:18px;font-style:normal;font-variant:normal;font-weight:normal;font-stretch:normal;line-height:125%;letter-spacing:0px;word-spacing:0px;fill:#000000;fill-opacity:1;stroke:none;font-family:Microsoft YaHei;-inkscape-font-specification:Microsoft YaHei"
     x="738"
     y="506"
     id="text3061"
     sodipodi:linespacing="125%"><tspan
       sodipodi:role="line"
       id="tspan3063"
       x="738"
       y="506">眉山市</tspan></text>
  <text
     xml:space="preserve"
     style="font-size:18px;font-style:normal;font-variant:normal;font-weight:normal;font-stretch:normal;line-height:125%;letter-spacing:0px;word-spacing:0px;fill:#000000;fill-opacity:1;stroke:none;font-family:Microsoft YaHei;-inkscape-font-specification:Microsoft YaHei"
     x="727"
     y="425"
     id="text3065"
     sodipodi:linespacing="125%"><tspan
       sodipodi:role="line"
       id="tspan3067"
       x="727"
       y="425">成都市</tspan></text>
  <text
     xml:space="preserve"
     style="font-size:18px;font-style:normal;font-variant:normal;font-weight:normal;font-stretch:normal;line-height:125%;letter-spacing:0px;word-spacing:0px;fill:#000000;fill-opacity:1;stroke:none;font-family:Microsoft YaHei;-inkscape-font-specification:Microsoft YaHei"
     x="769"
     y="369"
     id="text3069"
     sodipodi:linespacing="125%"><tspan
       sodipodi:role="line"
       id="tspan3071"
       x="769"
       y="369">德阳市</tspan></text>
  <text
     xml:space="preserve"
     style="font-size:18px;font-style:normal;font-variant:normal;font-weight:normal;font-stretch:normal;line-height:125%;letter-spacing:0px;word-spacing:0px;fill:#000000;fill-opacity:1;stroke:none;font-family:Microsoft YaHei;-inkscape-font-specification:Microsoft YaHei"
     x="794"
     y="295"
     id="text3073"
     sodipodi:linespacing="125%"><tspan
       sodipodi:role="line"
       id="tspan3075"
       x="794"
       y="295">绵阳市</tspan></text>
  <text
     xml:space="preserve"
     style="font-size:18px;font-style:normal;font-variant:normal;font-weight:normal;font-stretch:normal;line-height:125%;letter-spacing:0px;word-spacing:0px;fill:#000000;fill-opacity:1;stroke:none;font-family:Microsoft YaHei;-inkscape-font-specification:Microsoft YaHei"
     x="1010"
     y="265"
     id="text3077"
     sodipodi:linespacing="125%"><tspan
       sodipodi:role="line"
       id="tspan3079"
       x="1010"
       y="265">巴中市</tspan></text>
  <text
     xml:space="preserve"
     style="font-size:18px;font-style:normal;font-variant:normal;font-weight:normal;font-stretch:normal;line-height:125%;letter-spacing:0px;word-spacing:0px;fill:#000000;fill-opacity:1;stroke:none;font-family:Microsoft YaHei;-inkscape-font-specification:Microsoft YaHei"
     x="1074"
     y="337"
     id="text3081"
     sodipodi:linespacing="125%"><tspan
       sodipodi:role="line"
       id="tspan3083"
       x="1074"
       y="337">达州市</tspan></text>
  <text
     xml:space="preserve"
     style="font-size:18px;font-style:normal;font-variant:normal;font-weight:normal;font-stretch:normal;line-height:125%;letter-spacing:0px;word-spacing:0px;fill:#000000;fill-opacity:1;stroke:none;font-family:Microsoft YaHei;-inkscape-font-specification:Microsoft YaHei"
     x="945"
     y="367"
     id="text3085"
     sodipodi:linespacing="125%"><tspan
       sodipodi:role="line"
       id="tspan3087"
       x="945"
       y="367">南充市</tspan></text>
  <text
     xml:space="preserve"
     style="font-size:18px;font-style:normal;font-variant:normal;font-weight:normal;font-stretch:normal;line-height:125%;letter-spacing:0px;word-spacing:0px;fill:#000000;fill-opacity:1;stroke:none;font-family:Microsoft YaHei;-inkscape-font-specification:Microsoft YaHei"
     x="999"
     y="432"
     id="text3089"
     sodipodi:linespacing="125%"><tspan
       sodipodi:role="line"
       id="tspan3091"
       x="999"
       y="432">广安市</tspan></text>
  <text
     xml:space="preserve"
     style="font-size:18px;font-style:normal;font-variant:normal;font-weight:normal;font-stretch:normal;line-height:125%;letter-spacing:0px;word-spacing:0px;fill:#000000;fill-opacity:1;stroke:none;font-family:Microsoft YaHei;-inkscape-font-specification:Microsoft YaHei"
     x="883"
     y="440"
     id="text3093"
     sodipodi:linespacing="125%"><tspan
       sodipodi:role="line"
       id="tspan3095"
       x="883"
       y="440">遂宁市</tspan></text>
  <text
     xml:space="preserve"
     style="font-size:18px;font-style:normal;font-variant:normal;font-weight:normal;font-stretch:normal;line-height:125%;letter-spacing:0px;word-spacing:0px;fill:#000000;fill-opacity:1;stroke:none;font-family:Microsoft YaHei;-inkscape-font-specification:Microsoft YaHei"
     x="824"
     y="484"
     id="text3097"
     sodipodi:linespacing="125%"><tspan
       sodipodi:role="line"
       id="tspan3099"
       x="824"
       y="484">资阳市</tspan></text>
  <text
     xml:space="preserve"
     style="font-size:18px;font-style:normal;font-variant:normal;font-weight:normal;font-stretch:normal;line-height:125%;letter-spacing:0px;word-spacing:0px;fill:#000000;fill-opacity:1;stroke:none;font-family:Microsoft YaHei;-inkscape-font-specification:Microsoft YaHei"
     x="837"
     y="545"
     id="text3101"
     sodipodi:linespacing="125%"><tspan
       sodipodi:role="line"
       id="tspan3103"
       x="837"
       y="545">内江市</tspan></text>
  <text
     xml:space="preserve"
     style="font-size:18px;font-style:normal;font-variant:normal;font-weight:normal;font-stretch:normal;line-height:125%;letter-spacing:0px;word-spacing:0px;fill:#000000;fill-opacity:1;stroke:none;font-family:Microsoft YaHei;-inkscape-font-specification:Microsoft YaHei"
     x="702"
     y="607"
     id="text3105"
     sodipodi:linespacing="125%"><tspan
       sodipodi:role="line"
       id="tspan3107"
       x="702"
       y="607">乐山市</tspan></text>
  <text
     xml:space="preserve"
     style="font-size:18px;font-style:normal;font-variant:normal;font-weight:normal;font-stretch:normal;line-height:125%;letter-spacing:0px;word-spacing:0px;fill:#000000;fill-opacity:1;stroke:none;font-family:Microsoft YaHei;-inkscape-font-specification:Microsoft YaHei"
     x="798"
     y="646"
     id="text3109"
     sodipodi:linespacing="125%"><tspan
       sodipodi:role="line"
       id="tspan3111"
       x="798"
       y="646">宜宾市</tspan></text>
  <text
     xml:space="preserve"
     style="font-size:18px;font-style:normal;font-variant:normal;font-weight:normal;font-stretch:normal;line-height:125%;letter-spacing:0px;word-spacing:0px;fill:#000000;fill-opacity:1;stroke:none;font-family:Microsoft YaHei;-inkscape-font-specification:Microsoft YaHei"
     x="794"
     y="585"
     id="text3113"
     sodipodi:linespacing="125%"><tspan
       sodipodi:role="line"
       id="tspan3115"
       x="794"
       y="585">自贡市</tspan></text>
  <text
     xml:space="preserve"
     style="font-size:18px;font-style:normal;font-variant:normal;font-weight:normal;font-stretch:normal;line-height:125%;letter-spacing:0px;word-spacing:0px;fill:#000000;fill-opacity:1;stroke:none;font-family:Microsoft YaHei;-inkscape-font-specification:Microsoft YaHei"
     x="916"
     y="643"
     id="text3117"
     sodipodi:linespacing="125%"><tspan
       sodipodi:role="line"
       id="tspan3119"
       x="916"
       y="643">泸州市</tspan></text>
  <text
     xml:space="preserve"
     style="font-size:18px;font-style:normal;font-variant:normal;font-weight:normal;font-stretch:normal;line-height:125%;letter-spacing:0px;word-spacing:0px;fill:#000000;fill-opacity:1;stroke:none;font-family:Microsoft YaHei;-inkscape-font-specification:Microsoft YaHei"
     x="557"
     y="906"
     id="text3121"
     sodipodi:linespacing="125%"><tspan
       sodipodi:role="line"
       id="tspan3123"
       x="557"
       y="906">攀枝花市</tspan></text>
<text x="509" y="512" xml:space="preserve" font-family="Microsoft YaHei" font-size="12" fill="#D3D3D3" stroke="#FFFFFF" stroke-width="4.11" baseline-shift="baseline">
</text>
<text x="489" y="522" xml:space="preserve" font-family="Microsoft YaHei" font-size="12" fill="#D3D3D3" stroke="#FFFFFF" stroke-width="4.11" baseline-shift="baseline">
</text>
<text x="497" y="516" xml:space="preserve" font-family="Microsoft YaHei" font-size="12" fill="#D3D3D3" stroke="#FFFFFF" stroke-width="4.11" baseline-shift="baseline">
</text>
<text x="488" y="522" xml:space="preserve" font-family="Microsoft YaHei" font-size="12" fill="#D3D3D3" stroke="#FFFFFF" stroke-width="4.11" baseline-shift="baseline">
</text>
<text x="738" y="530" xml:space="preserve" font-family="Microsoft YaHei" font-size="12" fill="#D3D3D3" stroke="#FFFFFF" stroke-width="4.11" baseline-shift="baseline">
</text>
<text x="580" y="498" xml:space="preserve" font-family="Microsoft YaHei" font-size="12" fill="#D3D3D3" stroke="#FFFFFF" stroke-width="4.11" baseline-shift="baseline">
</text>
<text x="485" y="503" xml:space="preserve" font-family="Microsoft YaHei" font-size="12" fill="#D3D3D3" stroke="#FFFFFF" stroke-width="4.11" baseline-shift="baseline" xmlns="http://www.w3.org/2000/svg">
</text>
<text x="591" y="284" xml:space="preserve" font-family="Microsoft YaHei" font-size="12" fill="#D3D3D3" stroke="#FFFFFF" stroke-width="4.11" baseline-shift="baseline" xmlns="http://www.w3.org/2000/svg">
</text>
</svg>
